%TF.GenerationSoftware,KiCad,Pcbnew,8.0.4*%
%TF.CreationDate,2025-05-22T08:52:24-04:00*%
%TF.ProjectId,OnionStraws,4f6e696f-6e53-4747-9261-77732e6b6963,rev?*%
%TF.SameCoordinates,Original*%
%TF.FileFunction,Soldermask,Top*%
%TF.FilePolarity,Negative*%
%FSLAX46Y46*%
G04 Gerber Fmt 4.6, Leading zero omitted, Abs format (unit mm)*
G04 Created by KiCad (PCBNEW 8.0.4) date 2025-05-22 08:52:24*
%MOMM*%
%LPD*%
G01*
G04 APERTURE LIST*
G04 Aperture macros list*
%AMRoundRect*
0 Rectangle with rounded corners*
0 $1 Rounding radius*
0 $2 $3 $4 $5 $6 $7 $8 $9 X,Y pos of 4 corners*
0 Add a 4 corners polygon primitive as box body*
4,1,4,$2,$3,$4,$5,$6,$7,$8,$9,$2,$3,0*
0 Add four circle primitives for the rounded corners*
1,1,$1+$1,$2,$3*
1,1,$1+$1,$4,$5*
1,1,$1+$1,$6,$7*
1,1,$1+$1,$8,$9*
0 Add four rect primitives between the rounded corners*
20,1,$1+$1,$2,$3,$4,$5,0*
20,1,$1+$1,$4,$5,$6,$7,0*
20,1,$1+$1,$6,$7,$8,$9,0*
20,1,$1+$1,$8,$9,$2,$3,0*%
%AMFreePoly0*
4,1,9,3.862500,-0.866500,0.737500,-0.866500,0.737500,-0.450000,-0.737500,-0.450000,-0.737500,0.450000,0.737500,0.450000,0.737500,0.866500,3.862500,0.866500,3.862500,-0.866500,3.862500,-0.866500,$1*%
G04 Aperture macros list end*
%ADD10RoundRect,0.250000X-0.250000X-0.475000X0.250000X-0.475000X0.250000X0.475000X-0.250000X0.475000X0*%
%ADD11RoundRect,0.250000X-0.262500X-0.450000X0.262500X-0.450000X0.262500X0.450000X-0.262500X0.450000X0*%
%ADD12RoundRect,0.250000X0.262500X0.450000X-0.262500X0.450000X-0.262500X-0.450000X0.262500X-0.450000X0*%
%ADD13RoundRect,0.150000X0.150000X-0.587500X0.150000X0.587500X-0.150000X0.587500X-0.150000X-0.587500X0*%
%ADD14RoundRect,0.250000X0.312500X1.450000X-0.312500X1.450000X-0.312500X-1.450000X0.312500X-1.450000X0*%
%ADD15R,1.000000X0.750000*%
%ADD16RoundRect,0.243750X0.456250X-0.243750X0.456250X0.243750X-0.456250X0.243750X-0.456250X-0.243750X0*%
%ADD17RoundRect,0.150000X-0.587500X-0.150000X0.587500X-0.150000X0.587500X0.150000X-0.587500X0.150000X0*%
%ADD18RoundRect,0.250000X0.450000X-0.262500X0.450000X0.262500X-0.450000X0.262500X-0.450000X-0.262500X0*%
%ADD19RoundRect,0.250000X-0.450000X0.262500X-0.450000X-0.262500X0.450000X-0.262500X0.450000X0.262500X0*%
%ADD20RoundRect,0.150000X-0.512500X-0.150000X0.512500X-0.150000X0.512500X0.150000X-0.512500X0.150000X0*%
%ADD21RoundRect,0.250000X0.475000X-0.250000X0.475000X0.250000X-0.475000X0.250000X-0.475000X-0.250000X0*%
%ADD22RoundRect,0.250000X0.250000X0.475000X-0.250000X0.475000X-0.250000X-0.475000X0.250000X-0.475000X0*%
%ADD23C,3.200000*%
%ADD24R,0.900000X1.500000*%
%ADD25C,0.600000*%
%ADD26R,2.900000X2.900000*%
%ADD27RoundRect,0.250000X-0.475000X0.250000X-0.475000X-0.250000X0.475000X-0.250000X0.475000X0.250000X0*%
%ADD28RoundRect,0.250000X-2.050000X-0.300000X2.050000X-0.300000X2.050000X0.300000X-2.050000X0.300000X0*%
%ADD29RoundRect,0.250002X-4.449998X-5.149998X4.449998X-5.149998X4.449998X5.149998X-4.449998X5.149998X0*%
%ADD30RoundRect,0.150000X-0.150000X-0.200000X0.150000X-0.200000X0.150000X0.200000X-0.150000X0.200000X0*%
%ADD31RoundRect,0.250000X-0.312500X-1.450000X0.312500X-1.450000X0.312500X1.450000X-0.312500X1.450000X0*%
%ADD32R,1.500000X1.500000*%
%ADD33C,1.500000*%
%ADD34RoundRect,0.225000X0.425000X0.225000X-0.425000X0.225000X-0.425000X-0.225000X0.425000X-0.225000X0*%
%ADD35FreePoly0,180.000000*%
%ADD36RoundRect,0.250000X-1.000000X-0.650000X1.000000X-0.650000X1.000000X0.650000X-1.000000X0.650000X0*%
%ADD37RoundRect,0.150000X-0.150000X0.587500X-0.150000X-0.587500X0.150000X-0.587500X0.150000X0.587500X0*%
%ADD38C,0.990600*%
%ADD39R,1.700000X1.700000*%
%ADD40O,1.700000X1.700000*%
G04 APERTURE END LIST*
D10*
%TO.C,C14*%
X75575000Y-103000000D03*
X77475000Y-103000000D03*
%TD*%
D11*
%TO.C,R25*%
X102700000Y-89800000D03*
X104525000Y-89800000D03*
%TD*%
D12*
%TO.C,R17*%
X86350000Y-94200000D03*
X84525000Y-94200000D03*
%TD*%
D13*
%TO.C,D9*%
X95375000Y-86875000D03*
X97275000Y-86875000D03*
X96325000Y-85000000D03*
%TD*%
D14*
%TO.C,F2*%
X123162500Y-106500000D03*
X118887500Y-106500000D03*
%TD*%
D15*
%TO.C,SW2*%
X64000000Y-102625000D03*
X70000000Y-102625000D03*
X64000000Y-106375000D03*
X70000000Y-106375000D03*
%TD*%
D16*
%TO.C,D6*%
X58337500Y-83625000D03*
X58337500Y-81750000D03*
%TD*%
D17*
%TO.C,Q2*%
X107150000Y-105550000D03*
X107150000Y-107450000D03*
X109025000Y-106500000D03*
%TD*%
D18*
%TO.C,R2*%
X56600000Y-108225000D03*
X56600000Y-106400000D03*
%TD*%
D19*
%TO.C,R7*%
X56030000Y-81775000D03*
X56030000Y-83600000D03*
%TD*%
D11*
%TO.C,R10*%
X69600000Y-90400000D03*
X71425000Y-90400000D03*
%TD*%
D10*
%TO.C,C6*%
X75925000Y-87600000D03*
X77825000Y-87600000D03*
%TD*%
D17*
%TO.C,D1*%
X120150000Y-82550000D03*
X120150000Y-84450000D03*
X122025000Y-83500000D03*
%TD*%
D20*
%TO.C,U5*%
X75750000Y-89600000D03*
X75750000Y-90550000D03*
X75750000Y-91500000D03*
X78025000Y-91500000D03*
X78025000Y-90550000D03*
X78025000Y-89600000D03*
%TD*%
D21*
%TO.C,C3*%
X117800000Y-84350000D03*
X117800000Y-82450000D03*
%TD*%
D11*
%TO.C,R11*%
X69600000Y-93350000D03*
X71425000Y-93350000D03*
%TD*%
D22*
%TO.C,C4*%
X45900000Y-108200000D03*
X44000000Y-108200000D03*
%TD*%
D23*
%TO.C,H1*%
X65000000Y-95000000D03*
%TD*%
D24*
%TO.C,U2*%
X43700000Y-103610000D03*
X45200000Y-103610000D03*
X46700000Y-103610000D03*
X48200000Y-103610000D03*
X49700000Y-103610000D03*
X51200000Y-103610000D03*
X52700000Y-103610000D03*
X54200000Y-103610000D03*
X55700000Y-103610000D03*
X55700000Y-86110000D03*
X54200000Y-86110000D03*
X52700000Y-86110000D03*
X51200000Y-86110000D03*
X49700000Y-86110000D03*
X48200000Y-86110000D03*
X46700000Y-86110000D03*
X45200000Y-86110000D03*
X43700000Y-86110000D03*
D25*
X49350000Y-95000000D03*
X50450000Y-95000000D03*
X48800000Y-94450000D03*
X49900000Y-94450000D03*
X51000000Y-94450000D03*
X49350000Y-93900000D03*
D26*
X49900000Y-93900000D03*
D25*
X50450000Y-93900000D03*
X48800000Y-93350000D03*
X49900000Y-93350000D03*
X51000000Y-93350000D03*
X49350000Y-92800000D03*
X50450000Y-92800000D03*
%TD*%
D11*
%TO.C,R16*%
X76100000Y-93800000D03*
X77925000Y-93800000D03*
%TD*%
%TO.C,R13*%
X69600000Y-99250000D03*
X71425000Y-99250000D03*
%TD*%
D10*
%TO.C,C2*%
X43900000Y-105780000D03*
X45800000Y-105780000D03*
%TD*%
D27*
%TO.C,C12*%
X81525000Y-105100000D03*
X81525000Y-107000000D03*
%TD*%
D17*
%TO.C,Q1*%
X111150000Y-105550000D03*
X111150000Y-107450000D03*
X113025000Y-106500000D03*
%TD*%
D28*
%TO.C,U3*%
X88025000Y-101420000D03*
D29*
X97175000Y-103960000D03*
D28*
X88025000Y-106500000D03*
%TD*%
D22*
%TO.C,C1*%
X86225000Y-86600000D03*
X84325000Y-86600000D03*
%TD*%
D27*
%TO.C,C9*%
X84025000Y-101550000D03*
X84025000Y-103450000D03*
%TD*%
D13*
%TO.C,U1*%
X49700000Y-108200000D03*
X51600000Y-108200000D03*
X50650000Y-106325000D03*
%TD*%
D18*
%TO.C,R21*%
X90725000Y-93225000D03*
X90725000Y-91400000D03*
%TD*%
D12*
%TO.C,R19*%
X94950000Y-82600000D03*
X93125000Y-82600000D03*
%TD*%
D18*
%TO.C,R6*%
X51415000Y-83600000D03*
X51415000Y-81775000D03*
%TD*%
D19*
%TO.C,R20*%
X81325000Y-94175000D03*
X81325000Y-96000000D03*
%TD*%
%TO.C,R1*%
X60800000Y-81775000D03*
X60800000Y-83600000D03*
%TD*%
D21*
%TO.C,C11*%
X84025000Y-107000000D03*
X84025000Y-105100000D03*
%TD*%
D30*
%TO.C,D8*%
X83525000Y-109000000D03*
X82125000Y-109000000D03*
%TD*%
D21*
%TO.C,C8*%
X105025000Y-107400000D03*
X105025000Y-105500000D03*
%TD*%
D27*
%TO.C,C10*%
X84025000Y-98100000D03*
X84025000Y-100000000D03*
%TD*%
D31*
%TO.C,F1*%
X125525000Y-106500000D03*
X129800000Y-106500000D03*
%TD*%
D15*
%TO.C,SW1*%
X64000000Y-83625000D03*
X70000000Y-83625000D03*
X64000000Y-87375000D03*
X70000000Y-87375000D03*
%TD*%
D19*
%TO.C,R15*%
X73600000Y-86487500D03*
X73600000Y-88312500D03*
%TD*%
D18*
%TO.C,R4*%
X44600000Y-83625000D03*
X44600000Y-81800000D03*
%TD*%
D11*
%TO.C,R24*%
X102700000Y-85750000D03*
X104525000Y-85750000D03*
%TD*%
D23*
%TO.C,J1*%
X128775000Y-100552500D03*
X128775000Y-89122500D03*
D32*
X122425000Y-99282500D03*
D33*
X119885000Y-98012500D03*
X122425000Y-96742500D03*
X119885000Y-95472500D03*
X122425000Y-94202500D03*
X119885000Y-92932500D03*
X122425000Y-91662500D03*
X119885000Y-90392500D03*
%TD*%
D23*
%TO.C,H2*%
X103525000Y-95000000D03*
%TD*%
D13*
%TO.C,D3*%
X110075000Y-93000000D03*
X111975000Y-93000000D03*
X111025000Y-91125000D03*
%TD*%
D10*
%TO.C,C5*%
X114125000Y-89000000D03*
X116025000Y-89000000D03*
%TD*%
%TO.C,C13*%
X79525000Y-103000000D03*
X81425000Y-103000000D03*
%TD*%
D11*
%TO.C,R12*%
X69600000Y-96300000D03*
X71425000Y-96300000D03*
%TD*%
D12*
%TO.C,R9*%
X108850000Y-101500000D03*
X107025000Y-101500000D03*
%TD*%
D20*
%TO.C,U4*%
X84250000Y-89600000D03*
X84250000Y-90550000D03*
X84250000Y-91500000D03*
X86525000Y-91500000D03*
X86525000Y-90550000D03*
X86525000Y-89600000D03*
%TD*%
D12*
%TO.C,R14*%
X86150000Y-84200000D03*
X84325000Y-84200000D03*
%TD*%
D11*
%TO.C,R23*%
X102700000Y-82800000D03*
X104525000Y-82800000D03*
%TD*%
D34*
%TO.C,U6*%
X78475000Y-108500000D03*
D35*
X78387500Y-107000000D03*
D34*
X78475000Y-105500000D03*
%TD*%
D19*
%TO.C,R18*%
X100125000Y-85375000D03*
X100125000Y-87200000D03*
%TD*%
%TO.C,R3*%
X59000000Y-106375000D03*
X59000000Y-108200000D03*
%TD*%
D11*
%TO.C,R22*%
X98100000Y-82800000D03*
X99925000Y-82800000D03*
%TD*%
D18*
%TO.C,R5*%
X46800000Y-83625000D03*
X46800000Y-81800000D03*
%TD*%
D10*
%TO.C,C7*%
X110125000Y-89000000D03*
X112025000Y-89000000D03*
%TD*%
D16*
%TO.C,D5*%
X49107500Y-83625000D03*
X49107500Y-81750000D03*
%TD*%
D36*
%TO.C,D7*%
X111525000Y-101500000D03*
X115525000Y-101500000D03*
%TD*%
D16*
%TO.C,D4*%
X53722500Y-83625000D03*
X53722500Y-81750000D03*
%TD*%
D37*
%TO.C,D2*%
X115975000Y-91125000D03*
X114075000Y-91125000D03*
X115025000Y-93000000D03*
%TD*%
D38*
%TO.C,J3*%
X53270000Y-107365000D03*
X48190000Y-108381000D03*
X48190000Y-106349000D03*
%TD*%
D39*
%TO.C,J2*%
X58000000Y-98500000D03*
D40*
X55460000Y-98500000D03*
X52920000Y-98500000D03*
X50380000Y-98500000D03*
X47840000Y-98500000D03*
X45300000Y-98500000D03*
%TD*%
M02*
