%TF.GenerationSoftware,KiCad,Pcbnew,9.0.6*%
%TF.CreationDate,2026-02-07T10:01:58-05:00*%
%TF.ProjectId,OnionStraws,4f6e696f-6e53-4747-9261-77732e6b6963,rev?*%
%TF.SameCoordinates,Original*%
%TF.FileFunction,Legend,Top*%
%TF.FilePolarity,Positive*%
%FSLAX46Y46*%
G04 Gerber Fmt 4.6, Leading zero omitted, Abs format (unit mm)*
G04 Created by KiCad (PCBNEW 9.0.6) date 2026-02-07 10:01:58*
%MOMM*%
%LPD*%
G01*
G04 APERTURE LIST*
G04 Aperture macros list*
%AMRoundRect*
0 Rectangle with rounded corners*
0 $1 Rounding radius*
0 $2 $3 $4 $5 $6 $7 $8 $9 X,Y pos of 4 corners*
0 Add a 4 corners polygon primitive as box body*
4,1,4,$2,$3,$4,$5,$6,$7,$8,$9,$2,$3,0*
0 Add four circle primitives for the rounded corners*
1,1,$1+$1,$2,$3*
1,1,$1+$1,$4,$5*
1,1,$1+$1,$6,$7*
1,1,$1+$1,$8,$9*
0 Add four rect primitives between the rounded corners*
20,1,$1+$1,$2,$3,$4,$5,0*
20,1,$1+$1,$4,$5,$6,$7,0*
20,1,$1+$1,$6,$7,$8,$9,0*
20,1,$1+$1,$8,$9,$2,$3,0*%
%AMFreePoly0*
4,1,9,3.862500,-0.866500,0.737500,-0.866500,0.737500,-0.450000,-0.737500,-0.450000,-0.737500,0.450000,0.737500,0.450000,0.737500,0.866500,3.862500,0.866500,3.862500,-0.866500,3.862500,-0.866500,$1*%
G04 Aperture macros list end*
%ADD10C,0.150000*%
%ADD11C,0.120000*%
%ADD12RoundRect,0.250000X-0.250000X-0.475000X0.250000X-0.475000X0.250000X0.475000X-0.250000X0.475000X0*%
%ADD13RoundRect,0.250000X-0.262500X-0.450000X0.262500X-0.450000X0.262500X0.450000X-0.262500X0.450000X0*%
%ADD14RoundRect,0.250000X0.262500X0.450000X-0.262500X0.450000X-0.262500X-0.450000X0.262500X-0.450000X0*%
%ADD15RoundRect,0.150000X0.150000X-0.587500X0.150000X0.587500X-0.150000X0.587500X-0.150000X-0.587500X0*%
%ADD16RoundRect,0.250000X0.312500X1.450000X-0.312500X1.450000X-0.312500X-1.450000X0.312500X-1.450000X0*%
%ADD17R,1.000000X0.750000*%
%ADD18RoundRect,0.243750X0.456250X-0.243750X0.456250X0.243750X-0.456250X0.243750X-0.456250X-0.243750X0*%
%ADD19RoundRect,0.150000X-0.587500X-0.150000X0.587500X-0.150000X0.587500X0.150000X-0.587500X0.150000X0*%
%ADD20RoundRect,0.250000X0.450000X-0.262500X0.450000X0.262500X-0.450000X0.262500X-0.450000X-0.262500X0*%
%ADD21RoundRect,0.250000X-0.450000X0.262500X-0.450000X-0.262500X0.450000X-0.262500X0.450000X0.262500X0*%
%ADD22RoundRect,0.150000X-0.512500X-0.150000X0.512500X-0.150000X0.512500X0.150000X-0.512500X0.150000X0*%
%ADD23RoundRect,0.250000X0.475000X-0.250000X0.475000X0.250000X-0.475000X0.250000X-0.475000X-0.250000X0*%
%ADD24RoundRect,0.250000X0.250000X0.475000X-0.250000X0.475000X-0.250000X-0.475000X0.250000X-0.475000X0*%
%ADD25C,3.200000*%
%ADD26R,0.900000X1.500000*%
%ADD27C,0.600000*%
%ADD28R,2.900000X2.900000*%
%ADD29RoundRect,0.250000X-0.475000X0.250000X-0.475000X-0.250000X0.475000X-0.250000X0.475000X0.250000X0*%
%ADD30RoundRect,0.250000X-2.050000X-0.300000X2.050000X-0.300000X2.050000X0.300000X-2.050000X0.300000X0*%
%ADD31RoundRect,0.250002X-4.449998X-5.149998X4.449998X-5.149998X4.449998X5.149998X-4.449998X5.149998X0*%
%ADD32RoundRect,0.225000X0.225000X0.375000X-0.225000X0.375000X-0.225000X-0.375000X0.225000X-0.375000X0*%
%ADD33RoundRect,0.250000X-0.312500X-1.450000X0.312500X-1.450000X0.312500X1.450000X-0.312500X1.450000X0*%
%ADD34R,1.500000X1.500000*%
%ADD35C,1.500000*%
%ADD36RoundRect,0.225000X0.425000X0.225000X-0.425000X0.225000X-0.425000X-0.225000X0.425000X-0.225000X0*%
%ADD37FreePoly0,180.000000*%
%ADD38RoundRect,0.250000X-1.000000X-0.650000X1.000000X-0.650000X1.000000X0.650000X-1.000000X0.650000X0*%
%ADD39RoundRect,0.150000X-0.150000X0.587500X-0.150000X-0.587500X0.150000X-0.587500X0.150000X0.587500X0*%
%ADD40C,0.990600*%
%ADD41R,1.700000X1.700000*%
%ADD42O,1.700000X1.700000*%
G04 APERTURE END LIST*
D10*
X65666667Y-101157200D02*
X65809524Y-101204819D01*
X65809524Y-101204819D02*
X66047619Y-101204819D01*
X66047619Y-101204819D02*
X66142857Y-101157200D01*
X66142857Y-101157200D02*
X66190476Y-101109580D01*
X66190476Y-101109580D02*
X66238095Y-101014342D01*
X66238095Y-101014342D02*
X66238095Y-100919104D01*
X66238095Y-100919104D02*
X66190476Y-100823866D01*
X66190476Y-100823866D02*
X66142857Y-100776247D01*
X66142857Y-100776247D02*
X66047619Y-100728628D01*
X66047619Y-100728628D02*
X65857143Y-100681009D01*
X65857143Y-100681009D02*
X65761905Y-100633390D01*
X65761905Y-100633390D02*
X65714286Y-100585771D01*
X65714286Y-100585771D02*
X65666667Y-100490533D01*
X65666667Y-100490533D02*
X65666667Y-100395295D01*
X65666667Y-100395295D02*
X65714286Y-100300057D01*
X65714286Y-100300057D02*
X65761905Y-100252438D01*
X65761905Y-100252438D02*
X65857143Y-100204819D01*
X65857143Y-100204819D02*
X66095238Y-100204819D01*
X66095238Y-100204819D02*
X66238095Y-100252438D01*
X66571429Y-100204819D02*
X66809524Y-101204819D01*
X66809524Y-101204819D02*
X67000000Y-100490533D01*
X67000000Y-100490533D02*
X67190476Y-101204819D01*
X67190476Y-101204819D02*
X67428572Y-100204819D01*
X67761905Y-100300057D02*
X67809524Y-100252438D01*
X67809524Y-100252438D02*
X67904762Y-100204819D01*
X67904762Y-100204819D02*
X68142857Y-100204819D01*
X68142857Y-100204819D02*
X68238095Y-100252438D01*
X68238095Y-100252438D02*
X68285714Y-100300057D01*
X68285714Y-100300057D02*
X68333333Y-100395295D01*
X68333333Y-100395295D02*
X68333333Y-100490533D01*
X68333333Y-100490533D02*
X68285714Y-100633390D01*
X68285714Y-100633390D02*
X67714286Y-101204819D01*
X67714286Y-101204819D02*
X68333333Y-101204819D01*
X65666667Y-82157200D02*
X65809524Y-82204819D01*
X65809524Y-82204819D02*
X66047619Y-82204819D01*
X66047619Y-82204819D02*
X66142857Y-82157200D01*
X66142857Y-82157200D02*
X66190476Y-82109580D01*
X66190476Y-82109580D02*
X66238095Y-82014342D01*
X66238095Y-82014342D02*
X66238095Y-81919104D01*
X66238095Y-81919104D02*
X66190476Y-81823866D01*
X66190476Y-81823866D02*
X66142857Y-81776247D01*
X66142857Y-81776247D02*
X66047619Y-81728628D01*
X66047619Y-81728628D02*
X65857143Y-81681009D01*
X65857143Y-81681009D02*
X65761905Y-81633390D01*
X65761905Y-81633390D02*
X65714286Y-81585771D01*
X65714286Y-81585771D02*
X65666667Y-81490533D01*
X65666667Y-81490533D02*
X65666667Y-81395295D01*
X65666667Y-81395295D02*
X65714286Y-81300057D01*
X65714286Y-81300057D02*
X65761905Y-81252438D01*
X65761905Y-81252438D02*
X65857143Y-81204819D01*
X65857143Y-81204819D02*
X66095238Y-81204819D01*
X66095238Y-81204819D02*
X66238095Y-81252438D01*
X66571429Y-81204819D02*
X66809524Y-82204819D01*
X66809524Y-82204819D02*
X67000000Y-81490533D01*
X67000000Y-81490533D02*
X67190476Y-82204819D01*
X67190476Y-82204819D02*
X67428572Y-81204819D01*
X68333333Y-82204819D02*
X67761905Y-82204819D01*
X68047619Y-82204819D02*
X68047619Y-81204819D01*
X68047619Y-81204819D02*
X67952381Y-81347676D01*
X67952381Y-81347676D02*
X67857143Y-81442914D01*
X67857143Y-81442914D02*
X67761905Y-81490533D01*
X116879819Y-95170833D02*
X117594104Y-95170833D01*
X117594104Y-95170833D02*
X117736961Y-95218452D01*
X117736961Y-95218452D02*
X117832200Y-95313690D01*
X117832200Y-95313690D02*
X117879819Y-95456547D01*
X117879819Y-95456547D02*
X117879819Y-95551785D01*
X117879819Y-94170833D02*
X117879819Y-94742261D01*
X117879819Y-94456547D02*
X116879819Y-94456547D01*
X116879819Y-94456547D02*
X117022676Y-94551785D01*
X117022676Y-94551785D02*
X117117914Y-94647023D01*
X117117914Y-94647023D02*
X117165533Y-94742261D01*
D11*
%TO.C,C14*%
X76263748Y-102265000D02*
X76786252Y-102265000D01*
X76263748Y-103735000D02*
X76786252Y-103735000D01*
%TO.C,R25*%
X103385436Y-89065000D02*
X103839564Y-89065000D01*
X103385436Y-90535000D02*
X103839564Y-90535000D01*
%TO.C,R17*%
X85664564Y-93465000D02*
X85210436Y-93465000D01*
X85664564Y-94935000D02*
X85210436Y-94935000D01*
%TO.C,D9*%
X94765000Y-85937500D02*
X94765000Y-85287500D01*
X94765000Y-85937500D02*
X94765000Y-86587500D01*
X97885000Y-85937500D02*
X97885000Y-85287500D01*
X97885000Y-85937500D02*
X97885000Y-86587500D01*
X94815000Y-87100000D02*
X94485000Y-87340000D01*
X94485000Y-86860000D01*
X94815000Y-87100000D01*
G36*
X94815000Y-87100000D02*
G01*
X94485000Y-87340000D01*
X94485000Y-86860000D01*
X94815000Y-87100000D01*
G37*
%TO.C,F2*%
X122411252Y-104790000D02*
X119638748Y-104790000D01*
X122411252Y-108210000D02*
X119638748Y-108210000D01*
%TO.C,SW2*%
X64250000Y-103500000D02*
X64250000Y-105500000D01*
X65250000Y-102200000D02*
X65700000Y-101750000D01*
X65250000Y-106800000D02*
X65700000Y-107250000D01*
X65700000Y-101750000D02*
X68300000Y-101750000D01*
X65700000Y-107250000D02*
X68300000Y-107250000D01*
X68750000Y-102200000D02*
X68300000Y-101750000D01*
X68750000Y-106800000D02*
X68300000Y-107250000D01*
X69750000Y-103500000D02*
X69750000Y-105500000D01*
%TO.C,D6*%
X57377500Y-81687500D02*
X57377500Y-84372500D01*
X57377500Y-84372500D02*
X59297500Y-84372500D01*
X59297500Y-84372500D02*
X59297500Y-81687500D01*
%TO.C,Q2*%
X108087500Y-104940000D02*
X107437500Y-104940000D01*
X108087500Y-104940000D02*
X108737500Y-104940000D01*
X108087500Y-108060000D02*
X107437500Y-108060000D01*
X108087500Y-108060000D02*
X108737500Y-108060000D01*
X106925000Y-104990000D02*
X106685000Y-104660000D01*
X107165000Y-104660000D01*
X106925000Y-104990000D01*
G36*
X106925000Y-104990000D02*
G01*
X106685000Y-104660000D01*
X107165000Y-104660000D01*
X106925000Y-104990000D01*
G37*
%TO.C,R2*%
X55865000Y-107539564D02*
X55865000Y-107085436D01*
X57335000Y-107539564D02*
X57335000Y-107085436D01*
%TO.C,R7*%
X55295000Y-82460436D02*
X55295000Y-82914564D01*
X56765000Y-82460436D02*
X56765000Y-82914564D01*
%TO.C,R10*%
X70285436Y-89665000D02*
X70739564Y-89665000D01*
X70285436Y-91135000D02*
X70739564Y-91135000D01*
%TO.C,C6*%
X76613748Y-86865000D02*
X77136252Y-86865000D01*
X76613748Y-88335000D02*
X77136252Y-88335000D01*
%TO.C,D1*%
X121087500Y-81940000D02*
X120437500Y-81940000D01*
X121087500Y-81940000D02*
X121737500Y-81940000D01*
X121087500Y-85060000D02*
X120437500Y-85060000D01*
X121087500Y-85060000D02*
X121737500Y-85060000D01*
X119925000Y-81990000D02*
X119685000Y-81660000D01*
X120165000Y-81660000D01*
X119925000Y-81990000D01*
G36*
X119925000Y-81990000D02*
G01*
X119685000Y-81660000D01*
X120165000Y-81660000D01*
X119925000Y-81990000D01*
G37*
%TO.C,U5*%
X76887500Y-88990000D02*
X76087500Y-88990000D01*
X76887500Y-88990000D02*
X77687500Y-88990000D01*
X76887500Y-92110000D02*
X76087500Y-92110000D01*
X76887500Y-92110000D02*
X77687500Y-92110000D01*
X75587500Y-89040000D02*
X75347500Y-88710000D01*
X75827500Y-88710000D01*
X75587500Y-89040000D01*
G36*
X75587500Y-89040000D02*
G01*
X75347500Y-88710000D01*
X75827500Y-88710000D01*
X75587500Y-89040000D01*
G37*
%TO.C,C3*%
X117065000Y-83661252D02*
X117065000Y-83138748D01*
X118535000Y-83661252D02*
X118535000Y-83138748D01*
%TO.C,R11*%
X70285436Y-92615000D02*
X70739564Y-92615000D01*
X70285436Y-94085000D02*
X70739564Y-94085000D01*
%TO.C,C4*%
X45211252Y-107465000D02*
X44688748Y-107465000D01*
X45211252Y-108935000D02*
X44688748Y-108935000D01*
%TO.C,U2*%
X36490000Y-85750000D02*
X42990000Y-85750000D01*
X36490000Y-103970000D02*
X36490000Y-85750000D01*
X36490000Y-103970000D02*
X42300000Y-103970000D01*
X56410000Y-85750000D02*
X56710000Y-85750000D01*
X56410000Y-103970000D02*
X56710000Y-103970000D01*
X56710000Y-103970000D02*
X56710000Y-85750000D01*
X43000000Y-104460000D02*
X42500000Y-103960000D01*
X43000000Y-103960000D01*
X43000000Y-104460000D01*
G36*
X43000000Y-104460000D02*
G01*
X42500000Y-103960000D01*
X43000000Y-103960000D01*
X43000000Y-104460000D01*
G37*
%TO.C,R16*%
X76785436Y-93065000D02*
X77239564Y-93065000D01*
X76785436Y-94535000D02*
X77239564Y-94535000D01*
%TO.C,R13*%
X70285436Y-98515000D02*
X70739564Y-98515000D01*
X70285436Y-99985000D02*
X70739564Y-99985000D01*
%TO.C,C2*%
X44588748Y-105045000D02*
X45111252Y-105045000D01*
X44588748Y-106515000D02*
X45111252Y-106515000D01*
%TO.C,C12*%
X80790000Y-105538748D02*
X80790000Y-106061252D01*
X82260000Y-105538748D02*
X82260000Y-106061252D01*
%TO.C,Q1*%
X112087500Y-104940000D02*
X111437500Y-104940000D01*
X112087500Y-104940000D02*
X112737500Y-104940000D01*
X112087500Y-108060000D02*
X111437500Y-108060000D01*
X112087500Y-108060000D02*
X112737500Y-108060000D01*
X110925000Y-104990000D02*
X110685000Y-104660000D01*
X111165000Y-104660000D01*
X110925000Y-104990000D01*
G36*
X110925000Y-104990000D02*
G01*
X110685000Y-104660000D01*
X111165000Y-104660000D01*
X110925000Y-104990000D01*
G37*
%TO.C,U3*%
X90850000Y-98760000D02*
X90850000Y-100570000D01*
X90850000Y-109160000D02*
X90850000Y-107350000D01*
X92350000Y-98760000D02*
X90850000Y-98760000D01*
X92350000Y-109160000D02*
X90850000Y-109160000D01*
X88287500Y-100570000D02*
X88047500Y-100240000D01*
X88527500Y-100240000D01*
X88287500Y-100570000D01*
G36*
X88287500Y-100570000D02*
G01*
X88047500Y-100240000D01*
X88527500Y-100240000D01*
X88287500Y-100570000D01*
G37*
%TO.C,C1*%
X85536252Y-85865000D02*
X85013748Y-85865000D01*
X85536252Y-87335000D02*
X85013748Y-87335000D01*
%TO.C,C9*%
X83290000Y-101938748D02*
X83290000Y-102461252D01*
X84760000Y-101938748D02*
X84760000Y-102461252D01*
%TO.C,U1*%
X49090000Y-107262500D02*
X49090000Y-106612500D01*
X49090000Y-107262500D02*
X49090000Y-107912500D01*
X52210000Y-107262500D02*
X52210000Y-106612500D01*
X52210000Y-107262500D02*
X52210000Y-107912500D01*
X49140000Y-108425000D02*
X48810000Y-108665000D01*
X48810000Y-108185000D01*
X49140000Y-108425000D01*
G36*
X49140000Y-108425000D02*
G01*
X48810000Y-108665000D01*
X48810000Y-108185000D01*
X49140000Y-108425000D01*
G37*
%TO.C,R21*%
X89990000Y-92539564D02*
X89990000Y-92085436D01*
X91460000Y-92539564D02*
X91460000Y-92085436D01*
%TO.C,R19*%
X94264564Y-81865000D02*
X93810436Y-81865000D01*
X94264564Y-83335000D02*
X93810436Y-83335000D01*
%TO.C,R6*%
X50680000Y-82914564D02*
X50680000Y-82460436D01*
X52150000Y-82914564D02*
X52150000Y-82460436D01*
%TO.C,R20*%
X80590000Y-94860436D02*
X80590000Y-95314564D01*
X82060000Y-94860436D02*
X82060000Y-95314564D01*
%TO.C,R1*%
X60065000Y-82460436D02*
X60065000Y-82914564D01*
X61535000Y-82460436D02*
X61535000Y-82914564D01*
%TO.C,C11*%
X83290000Y-106061252D02*
X83290000Y-105538748D01*
X84760000Y-106061252D02*
X84760000Y-105538748D01*
%TO.C,D8*%
X85185000Y-107800000D02*
X81175000Y-107800000D01*
X85185000Y-109800000D02*
X81175000Y-109800000D01*
X85185000Y-109800000D02*
X85185000Y-107800000D01*
%TO.C,C8*%
X104290000Y-106711252D02*
X104290000Y-106188748D01*
X105760000Y-106711252D02*
X105760000Y-106188748D01*
%TO.C,C10*%
X83290000Y-98788748D02*
X83290000Y-99311252D01*
X84760000Y-98788748D02*
X84760000Y-99311252D01*
%TO.C,F1*%
X126276248Y-104790000D02*
X129048752Y-104790000D01*
X126276248Y-108210000D02*
X129048752Y-108210000D01*
%TO.C,SW1*%
X64250000Y-84500000D02*
X64250000Y-86500000D01*
X65250000Y-83200000D02*
X65700000Y-82750000D01*
X65250000Y-87800000D02*
X65700000Y-88250000D01*
X65700000Y-82750000D02*
X68300000Y-82750000D01*
X65700000Y-88250000D02*
X68300000Y-88250000D01*
X68750000Y-83200000D02*
X68300000Y-82750000D01*
X68750000Y-87800000D02*
X68300000Y-88250000D01*
X69750000Y-84500000D02*
X69750000Y-86500000D01*
%TO.C,R15*%
X72865000Y-87172936D02*
X72865000Y-87627064D01*
X74335000Y-87172936D02*
X74335000Y-87627064D01*
%TO.C,R4*%
X43865000Y-82939564D02*
X43865000Y-82485436D01*
X45335000Y-82939564D02*
X45335000Y-82485436D01*
%TO.C,R24*%
X103385436Y-85015000D02*
X103839564Y-85015000D01*
X103385436Y-86485000D02*
X103839564Y-86485000D01*
%TO.C,J1*%
X118545000Y-87077500D02*
X118545000Y-102597500D01*
X118545000Y-87077500D02*
X136505000Y-87077500D01*
X118545000Y-102597500D02*
X136505000Y-102597500D01*
X121925000Y-103282500D02*
X122925000Y-103282500D01*
X122425000Y-102782500D02*
X121925000Y-103282500D01*
X122925000Y-103282500D02*
X122425000Y-102782500D01*
X136505000Y-102597500D02*
X136505000Y-87077500D01*
%TO.C,D3*%
X109465000Y-92062500D02*
X109465000Y-91412500D01*
X109465000Y-92062500D02*
X109465000Y-92712500D01*
X112585000Y-92062500D02*
X112585000Y-91412500D01*
X112585000Y-92062500D02*
X112585000Y-92712500D01*
X109515000Y-93225000D02*
X109185000Y-93465000D01*
X109185000Y-92985000D01*
X109515000Y-93225000D01*
G36*
X109515000Y-93225000D02*
G01*
X109185000Y-93465000D01*
X109185000Y-92985000D01*
X109515000Y-93225000D01*
G37*
%TO.C,C5*%
X114813748Y-88265000D02*
X115336252Y-88265000D01*
X114813748Y-89735000D02*
X115336252Y-89735000D01*
%TO.C,C13*%
X80213748Y-102265000D02*
X80736252Y-102265000D01*
X80213748Y-103735000D02*
X80736252Y-103735000D01*
%TO.C,R12*%
X70285436Y-95565000D02*
X70739564Y-95565000D01*
X70285436Y-97035000D02*
X70739564Y-97035000D01*
%TO.C,R9*%
X108164564Y-100765000D02*
X107710436Y-100765000D01*
X108164564Y-102235000D02*
X107710436Y-102235000D01*
%TO.C,U4*%
X85387500Y-88990000D02*
X84587500Y-88990000D01*
X85387500Y-88990000D02*
X86187500Y-88990000D01*
X85387500Y-92110000D02*
X84587500Y-92110000D01*
X85387500Y-92110000D02*
X86187500Y-92110000D01*
X84087500Y-89040000D02*
X83847500Y-88710000D01*
X84327500Y-88710000D01*
X84087500Y-89040000D01*
G36*
X84087500Y-89040000D02*
G01*
X83847500Y-88710000D01*
X84327500Y-88710000D01*
X84087500Y-89040000D01*
G37*
%TO.C,R14*%
X85464564Y-83465000D02*
X85010436Y-83465000D01*
X85464564Y-84935000D02*
X85010436Y-84935000D01*
%TO.C,R23*%
X103385436Y-82065000D02*
X103839564Y-82065000D01*
X103385436Y-83535000D02*
X103839564Y-83535000D01*
%TO.C,U6*%
X75165000Y-104640000D02*
X77885000Y-104640000D01*
X75165000Y-105620000D02*
X75165000Y-104640000D01*
X75165000Y-108380000D02*
X75165000Y-109360000D01*
X77745000Y-109360000D02*
X75165000Y-109360000D01*
X78535000Y-109540000D02*
X78055000Y-109540000D01*
X78295000Y-109210000D01*
X78535000Y-109540000D01*
G36*
X78535000Y-109540000D02*
G01*
X78055000Y-109540000D01*
X78295000Y-109210000D01*
X78535000Y-109540000D01*
G37*
%TO.C,R18*%
X99390000Y-86060436D02*
X99390000Y-86514564D01*
X100860000Y-86060436D02*
X100860000Y-86514564D01*
%TO.C,R3*%
X58265000Y-107060436D02*
X58265000Y-107514564D01*
X59735000Y-107060436D02*
X59735000Y-107514564D01*
%TO.C,R22*%
X98785436Y-82065000D02*
X99239564Y-82065000D01*
X98785436Y-83535000D02*
X99239564Y-83535000D01*
%TO.C,R5*%
X46065000Y-82939564D02*
X46065000Y-82485436D01*
X47535000Y-82939564D02*
X47535000Y-82485436D01*
%TO.C,C7*%
X110813748Y-88265000D02*
X111336252Y-88265000D01*
X110813748Y-89735000D02*
X111336252Y-89735000D01*
%TO.C,D5*%
X48147500Y-81687500D02*
X48147500Y-84372500D01*
X48147500Y-84372500D02*
X50067500Y-84372500D01*
X50067500Y-84372500D02*
X50067500Y-81687500D01*
%TO.C,D7*%
X110015000Y-99850000D02*
X110015000Y-103150000D01*
X110015000Y-99850000D02*
X115525000Y-99850000D01*
X110015000Y-103150000D02*
X115525000Y-103150000D01*
%TO.C,D4*%
X52762500Y-81687500D02*
X52762500Y-84372500D01*
X52762500Y-84372500D02*
X54682500Y-84372500D01*
X54682500Y-84372500D02*
X54682500Y-81687500D01*
%TO.C,D2*%
X113465000Y-92062500D02*
X113465000Y-91412500D01*
X113465000Y-92062500D02*
X113465000Y-92712500D01*
X116585000Y-92062500D02*
X116585000Y-91412500D01*
X116585000Y-92062500D02*
X116585000Y-92712500D01*
X116865000Y-91140000D02*
X116535000Y-90900000D01*
X116865000Y-90660000D01*
X116865000Y-91140000D01*
G36*
X116865000Y-91140000D02*
G01*
X116535000Y-90900000D01*
X116865000Y-90660000D01*
X116865000Y-91140000D01*
G37*
%TD*%
%LPC*%
D12*
%TO.C,C14*%
X75575000Y-103000000D03*
X77475000Y-103000000D03*
%TD*%
D13*
%TO.C,R25*%
X102700000Y-89800000D03*
X104525000Y-89800000D03*
%TD*%
D14*
%TO.C,R17*%
X86350000Y-94200000D03*
X84525000Y-94200000D03*
%TD*%
D15*
%TO.C,D9*%
X95375000Y-86875000D03*
X97275000Y-86875000D03*
X96325000Y-85000000D03*
%TD*%
D16*
%TO.C,F2*%
X123162500Y-106500000D03*
X118887500Y-106500000D03*
%TD*%
D17*
%TO.C,SW2*%
X64000000Y-102625000D03*
X70000000Y-102625000D03*
X64000000Y-106375000D03*
X70000000Y-106375000D03*
%TD*%
D18*
%TO.C,D6*%
X58337500Y-83625000D03*
X58337500Y-81750000D03*
%TD*%
D19*
%TO.C,Q2*%
X107150000Y-105550000D03*
X107150000Y-107450000D03*
X109025000Y-106500000D03*
%TD*%
D20*
%TO.C,R2*%
X56600000Y-108225000D03*
X56600000Y-106400000D03*
%TD*%
D21*
%TO.C,R7*%
X56030000Y-81775000D03*
X56030000Y-83600000D03*
%TD*%
D13*
%TO.C,R10*%
X69600000Y-90400000D03*
X71425000Y-90400000D03*
%TD*%
D12*
%TO.C,C6*%
X75925000Y-87600000D03*
X77825000Y-87600000D03*
%TD*%
D19*
%TO.C,D1*%
X120150000Y-82550000D03*
X120150000Y-84450000D03*
X122025000Y-83500000D03*
%TD*%
D22*
%TO.C,U5*%
X75750000Y-89600000D03*
X75750000Y-90550000D03*
X75750000Y-91500000D03*
X78025000Y-91500000D03*
X78025000Y-90550000D03*
X78025000Y-89600000D03*
%TD*%
D23*
%TO.C,C3*%
X117800000Y-84350000D03*
X117800000Y-82450000D03*
%TD*%
D13*
%TO.C,R11*%
X69600000Y-93350000D03*
X71425000Y-93350000D03*
%TD*%
D24*
%TO.C,C4*%
X45900000Y-108200000D03*
X44000000Y-108200000D03*
%TD*%
D25*
%TO.C,H1*%
X65000000Y-95000000D03*
%TD*%
D26*
%TO.C,U2*%
X43700000Y-103610000D03*
X45200000Y-103610000D03*
X46700000Y-103610000D03*
X48200000Y-103610000D03*
X49700000Y-103610000D03*
X51200000Y-103610000D03*
X52700000Y-103610000D03*
X54200000Y-103610000D03*
X55700000Y-103610000D03*
X55700000Y-86110000D03*
X54200000Y-86110000D03*
X52700000Y-86110000D03*
X51200000Y-86110000D03*
X49700000Y-86110000D03*
X48200000Y-86110000D03*
X46700000Y-86110000D03*
X45200000Y-86110000D03*
X43700000Y-86110000D03*
D27*
X49350000Y-95000000D03*
X50450000Y-95000000D03*
X48800000Y-94450000D03*
X49900000Y-94450000D03*
X51000000Y-94450000D03*
X49350000Y-93900000D03*
D28*
X49900000Y-93900000D03*
D27*
X50450000Y-93900000D03*
X48800000Y-93350000D03*
X49900000Y-93350000D03*
X51000000Y-93350000D03*
X49350000Y-92800000D03*
X50450000Y-92800000D03*
%TD*%
D13*
%TO.C,R16*%
X76100000Y-93800000D03*
X77925000Y-93800000D03*
%TD*%
%TO.C,R13*%
X69600000Y-99250000D03*
X71425000Y-99250000D03*
%TD*%
D12*
%TO.C,C2*%
X43900000Y-105780000D03*
X45800000Y-105780000D03*
%TD*%
D29*
%TO.C,C12*%
X81525000Y-104850000D03*
X81525000Y-106750000D03*
%TD*%
D19*
%TO.C,Q1*%
X111150000Y-105550000D03*
X111150000Y-107450000D03*
X113025000Y-106500000D03*
%TD*%
D30*
%TO.C,U3*%
X88025000Y-101420000D03*
D31*
X97175000Y-103960000D03*
D30*
X88025000Y-106500000D03*
%TD*%
D24*
%TO.C,C1*%
X86225000Y-86600000D03*
X84325000Y-86600000D03*
%TD*%
D29*
%TO.C,C9*%
X84025000Y-101250000D03*
X84025000Y-103150000D03*
%TD*%
D15*
%TO.C,U1*%
X49700000Y-108200000D03*
X51600000Y-108200000D03*
X50650000Y-106325000D03*
%TD*%
D20*
%TO.C,R21*%
X90725000Y-93225000D03*
X90725000Y-91400000D03*
%TD*%
D14*
%TO.C,R19*%
X94950000Y-82600000D03*
X93125000Y-82600000D03*
%TD*%
D20*
%TO.C,R6*%
X51415000Y-83600000D03*
X51415000Y-81775000D03*
%TD*%
D21*
%TO.C,R20*%
X81325000Y-94175000D03*
X81325000Y-96000000D03*
%TD*%
%TO.C,R1*%
X60800000Y-81775000D03*
X60800000Y-83600000D03*
%TD*%
D23*
%TO.C,C11*%
X84025000Y-106750000D03*
X84025000Y-104850000D03*
%TD*%
D32*
%TO.C,D8*%
X84475000Y-108800000D03*
X81175000Y-108800000D03*
%TD*%
D23*
%TO.C,C8*%
X105025000Y-107400000D03*
X105025000Y-105500000D03*
%TD*%
D29*
%TO.C,C10*%
X84025000Y-98100000D03*
X84025000Y-100000000D03*
%TD*%
D33*
%TO.C,F1*%
X125525000Y-106500000D03*
X129800000Y-106500000D03*
%TD*%
D17*
%TO.C,SW1*%
X64000000Y-83625000D03*
X70000000Y-83625000D03*
X64000000Y-87375000D03*
X70000000Y-87375000D03*
%TD*%
D21*
%TO.C,R15*%
X73600000Y-86487500D03*
X73600000Y-88312500D03*
%TD*%
D20*
%TO.C,R4*%
X44600000Y-83625000D03*
X44600000Y-81800000D03*
%TD*%
D13*
%TO.C,R24*%
X102700000Y-85750000D03*
X104525000Y-85750000D03*
%TD*%
D25*
%TO.C,J1*%
X128775000Y-100552500D03*
X128775000Y-89122500D03*
D34*
X122425000Y-99282500D03*
D35*
X119885000Y-98012500D03*
X122425000Y-96742500D03*
X119885000Y-95472500D03*
X122425000Y-94202500D03*
X119885000Y-92932500D03*
X122425000Y-91662500D03*
X119885000Y-90392500D03*
%TD*%
D25*
%TO.C,H2*%
X103525000Y-95000000D03*
%TD*%
D15*
%TO.C,D3*%
X110075000Y-93000000D03*
X111975000Y-93000000D03*
X111025000Y-91125000D03*
%TD*%
D12*
%TO.C,C5*%
X114125000Y-89000000D03*
X116025000Y-89000000D03*
%TD*%
%TO.C,C13*%
X79525000Y-103000000D03*
X81425000Y-103000000D03*
%TD*%
D13*
%TO.C,R12*%
X69600000Y-96300000D03*
X71425000Y-96300000D03*
%TD*%
D14*
%TO.C,R9*%
X108850000Y-101500000D03*
X107025000Y-101500000D03*
%TD*%
D22*
%TO.C,U4*%
X84250000Y-89600000D03*
X84250000Y-90550000D03*
X84250000Y-91500000D03*
X86525000Y-91500000D03*
X86525000Y-90550000D03*
X86525000Y-89600000D03*
%TD*%
D14*
%TO.C,R14*%
X86150000Y-84200000D03*
X84325000Y-84200000D03*
%TD*%
D13*
%TO.C,R23*%
X102700000Y-82800000D03*
X104525000Y-82800000D03*
%TD*%
D36*
%TO.C,U6*%
X78475000Y-108500000D03*
D37*
X78387500Y-107000000D03*
D36*
X78475000Y-105500000D03*
%TD*%
D21*
%TO.C,R18*%
X100125000Y-85375000D03*
X100125000Y-87200000D03*
%TD*%
%TO.C,R3*%
X59000000Y-106375000D03*
X59000000Y-108200000D03*
%TD*%
D13*
%TO.C,R22*%
X98100000Y-82800000D03*
X99925000Y-82800000D03*
%TD*%
D20*
%TO.C,R5*%
X46800000Y-83625000D03*
X46800000Y-81800000D03*
%TD*%
D12*
%TO.C,C7*%
X110125000Y-89000000D03*
X112025000Y-89000000D03*
%TD*%
D18*
%TO.C,D5*%
X49107500Y-83625000D03*
X49107500Y-81750000D03*
%TD*%
D38*
%TO.C,D7*%
X111525000Y-101500000D03*
X115525000Y-101500000D03*
%TD*%
D18*
%TO.C,D4*%
X53722500Y-83625000D03*
X53722500Y-81750000D03*
%TD*%
D39*
%TO.C,D2*%
X115975000Y-91125000D03*
X114075000Y-91125000D03*
X115025000Y-93000000D03*
%TD*%
D40*
%TO.C,J3*%
X53270000Y-107365000D03*
X48190000Y-108381000D03*
X48190000Y-106349000D03*
%TD*%
D41*
%TO.C,J2*%
X58000000Y-98500000D03*
D42*
X55460000Y-98500000D03*
X52920000Y-98500000D03*
X50380000Y-98500000D03*
X47840000Y-98500000D03*
X45300000Y-98500000D03*
%TD*%
%LPD*%
M02*
