%TF.GenerationSoftware,KiCad,Pcbnew,9.0.6*%
%TF.CreationDate,2026-02-07T10:01:58-05:00*%
%TF.ProjectId,OnionStraws,4f6e696f-6e53-4747-9261-77732e6b6963,rev?*%
%TF.SameCoordinates,Original*%
%TF.FileFunction,Copper,L2,Bot*%
%TF.FilePolarity,Positive*%
%FSLAX46Y46*%
G04 Gerber Fmt 4.6, Leading zero omitted, Abs format (unit mm)*
G04 Created by KiCad (PCBNEW 9.0.6) date 2026-02-07 10:01:58*
%MOMM*%
%LPD*%
G01*
G04 APERTURE LIST*
G04 Aperture macros list*
%AMRoundRect*
0 Rectangle with rounded corners*
0 $1 Rounding radius*
0 $2 $3 $4 $5 $6 $7 $8 $9 X,Y pos of 4 corners*
0 Add a 4 corners polygon primitive as box body*
4,1,4,$2,$3,$4,$5,$6,$7,$8,$9,$2,$3,0*
0 Add four circle primitives for the rounded corners*
1,1,$1+$1,$2,$3*
1,1,$1+$1,$4,$5*
1,1,$1+$1,$6,$7*
1,1,$1+$1,$8,$9*
0 Add four rect primitives between the rounded corners*
20,1,$1+$1,$2,$3,$4,$5,0*
20,1,$1+$1,$4,$5,$6,$7,0*
20,1,$1+$1,$6,$7,$8,$9,0*
20,1,$1+$1,$8,$9,$2,$3,0*%
%AMFreePoly0*
4,1,23,0.550000,-0.750000,0.000000,-0.750000,0.000000,-0.745722,-0.065263,-0.745722,-0.191342,-0.711940,-0.304381,-0.646677,-0.396677,-0.554381,-0.461940,-0.441342,-0.495722,-0.315263,-0.495722,-0.250000,-0.500000,-0.250000,-0.500000,0.250000,-0.495722,0.250000,-0.495722,0.315263,-0.461940,0.441342,-0.396677,0.554381,-0.304381,0.646677,-0.191342,0.711940,-0.065263,0.745722,0.000000,0.745722,
0.000000,0.750000,0.550000,0.750000,0.550000,-0.750000,0.550000,-0.750000,$1*%
%AMFreePoly1*
4,1,23,0.000000,0.745722,0.065263,0.745722,0.191342,0.711940,0.304381,0.646677,0.396677,0.554381,0.461940,0.441342,0.495722,0.315263,0.495722,0.250000,0.500000,0.250000,0.500000,-0.250000,0.495722,-0.250000,0.495722,-0.315263,0.461940,-0.441342,0.396677,-0.554381,0.304381,-0.646677,0.191342,-0.711940,0.065263,-0.745722,0.000000,-0.745722,0.000000,-0.750000,-0.550000,-0.750000,
-0.550000,0.750000,0.000000,0.750000,0.000000,0.745722,0.000000,0.745722,$1*%
G04 Aperture macros list end*
%TA.AperFunction,EtchedComponent*%
%ADD10C,0.000000*%
%TD*%
%TA.AperFunction,HeatsinkPad*%
%ADD11C,0.600000*%
%TD*%
%TA.AperFunction,ComponentPad*%
%ADD12R,1.500000X1.500000*%
%TD*%
%TA.AperFunction,ComponentPad*%
%ADD13C,1.500000*%
%TD*%
%TA.AperFunction,SMDPad,CuDef*%
%ADD14C,2.000000*%
%TD*%
%TA.AperFunction,SMDPad,CuDef*%
%ADD15RoundRect,0.250000X-0.262500X-0.450000X0.262500X-0.450000X0.262500X0.450000X-0.262500X0.450000X0*%
%TD*%
%TA.AperFunction,ConnectorPad*%
%ADD16C,0.787400*%
%TD*%
%TA.AperFunction,SMDPad,CuDef*%
%ADD17FreePoly0,270.000000*%
%TD*%
%TA.AperFunction,SMDPad,CuDef*%
%ADD18R,1.500000X1.000000*%
%TD*%
%TA.AperFunction,SMDPad,CuDef*%
%ADD19FreePoly1,270.000000*%
%TD*%
%TA.AperFunction,ComponentPad*%
%ADD20R,1.700000X1.700000*%
%TD*%
%TA.AperFunction,ComponentPad*%
%ADD21O,1.700000X1.700000*%
%TD*%
%TA.AperFunction,ViaPad*%
%ADD22C,0.800000*%
%TD*%
%TA.AperFunction,Conductor*%
%ADD23C,0.406400*%
%TD*%
%TA.AperFunction,Conductor*%
%ADD24C,0.250000*%
%TD*%
G04 APERTURE END LIST*
D10*
%TA.AperFunction,EtchedComponent*%
%TO.C,JP2*%
G36*
X115825000Y-106100000D02*
G01*
X115225000Y-106100000D01*
X115225000Y-105600000D01*
X115825000Y-105600000D01*
X115825000Y-106100000D01*
G37*
%TD.AperFunction*%
%TA.AperFunction,EtchedComponent*%
%TO.C,JP1*%
G36*
X59800000Y-103400000D02*
G01*
X59200000Y-103400000D01*
X59200000Y-102900000D01*
X59800000Y-102900000D01*
X59800000Y-103400000D01*
G37*
%TD.AperFunction*%
%TD*%
D11*
%TO.P,U2,19,GND*%
%TO.N,GND*%
X49350000Y-95000000D03*
X50450000Y-95000000D03*
X48800000Y-94450000D03*
X49900000Y-94450000D03*
X51000000Y-94450000D03*
X49350000Y-93900000D03*
X50450000Y-93900000D03*
X48800000Y-93350000D03*
X49900000Y-93350000D03*
X51000000Y-93350000D03*
X49350000Y-92800000D03*
X50450000Y-92800000D03*
%TD*%
D12*
%TO.P,J1,1*%
%TO.N,VDC*%
X122425000Y-99282500D03*
D13*
%TO.P,J1,2*%
%TO.N,unconnected-(J1-Pad2)*%
X119885000Y-98012500D03*
%TO.P,J1,3*%
%TO.N,/ALT_PWR*%
X122425000Y-96742500D03*
%TO.P,J1,4*%
%TO.N,GEA_FullTx*%
X119885000Y-95472500D03*
%TO.P,J1,5*%
%TO.N,GEA_FullRx*%
X122425000Y-94202500D03*
%TO.P,J1,6*%
%TO.N,unconnected-(J1-Pad6)*%
X119885000Y-92932500D03*
%TO.P,J1,7*%
%TO.N,GEA_HalfDplx*%
X122425000Y-91662500D03*
%TO.P,J1,8*%
%TO.N,GND*%
X119885000Y-90392500D03*
%TD*%
D14*
%TO.P,TP1,1,1*%
%TO.N,+5V*%
X88925000Y-83800000D03*
%TD*%
%TO.P,TP4,1,1*%
%TO.N,Net-(D9-A)*%
X100325000Y-83800000D03*
%TD*%
D15*
%TO.P,R8,1*%
%TO.N,Net-(Q2-G)*%
X108500000Y-108200000D03*
%TO.P,R8,2*%
%TO.N,/p2*%
X110325000Y-108200000D03*
%TD*%
D16*
%TO.P,J3,1,Pin_1*%
%TO.N,/EN*%
X52000000Y-108000000D03*
%TO.P,J3,2,Pin_2*%
%TO.N,+3V3*%
X52000000Y-106730000D03*
%TO.P,J3,3,Pin_3*%
%TO.N,GEA3_RX*%
X50730000Y-108000000D03*
%TO.P,J3,4,Pin_4*%
%TO.N,GND*%
X50730000Y-106730000D03*
%TO.P,J3,5,Pin_5*%
%TO.N,GEA3_TX*%
X49460000Y-108000000D03*
%TO.P,J3,6,Pin_6*%
%TO.N,/BOOT*%
X49460000Y-106730000D03*
%TD*%
D17*
%TO.P,JP2,1,A*%
%TO.N,Net-(JP2-A)*%
X115525000Y-105200000D03*
D18*
%TO.P,JP2,2,C*%
%TO.N,/p1*%
X115525000Y-106500000D03*
D19*
%TO.P,JP2,3,B*%
%TO.N,Net-(JP2-B)*%
X115525000Y-107800000D03*
%TD*%
D14*
%TO.P,TP7,1,1*%
%TO.N,GND*%
X117600000Y-83800000D03*
%TD*%
%TO.P,TP5,1,1*%
%TO.N,Net-(R20-Pad1)*%
X106025000Y-83800000D03*
%TD*%
%TO.P,TP2,1,1*%
%TO.N,+3V3*%
X94625000Y-83800000D03*
%TD*%
%TO.P,TP6,1,1*%
%TO.N,Net-(R21-Pad1)*%
X111725000Y-83800000D03*
%TD*%
%TO.P,TP3,1,1*%
%TO.N,/p1*%
X109525000Y-104600000D03*
%TD*%
D17*
%TO.P,JP1,1,A*%
%TO.N,Net-(JP1-A)*%
X59500000Y-102500000D03*
D18*
%TO.P,JP1,2,C*%
%TO.N,GEA2_TX*%
X59500000Y-103800000D03*
D19*
%TO.P,JP1,3,B*%
%TO.N,/BOOT*%
X59500000Y-105100000D03*
%TD*%
D20*
%TO.P,J2,1,Pin_1*%
%TO.N,+3V3*%
X58000000Y-98500000D03*
D21*
%TO.P,J2,2,Pin_2*%
%TO.N,GND*%
X55460000Y-98500000D03*
%TO.P,J2,3,Pin_3*%
%TO.N,/BOOT*%
X52920000Y-98500000D03*
%TO.P,J2,4,Pin_4*%
%TO.N,GEA3_TX*%
X50380000Y-98500000D03*
%TO.P,J2,5,Pin_5*%
%TO.N,GEA3_RX*%
X47840000Y-98500000D03*
%TO.P,J2,6,Pin_6*%
%TO.N,/EN*%
X45300000Y-98500000D03*
%TD*%
D22*
%TO.N,+5V*%
X87200000Y-87600000D03*
X91200000Y-82800000D03*
X73600000Y-108800000D03*
X92800000Y-91600000D03*
X108600000Y-89000000D03*
X79800000Y-96000000D03*
%TO.N,Net-(Q2-G)*%
X106400000Y-106400000D03*
%TO.N,GEA_FullRx*%
X109800000Y-95000000D03*
%TO.N,Net-(D9-K-Pad3)*%
X82200000Y-84400000D03*
X91200000Y-81600000D03*
%TO.N,Net-(D9-A)*%
X82400000Y-89206400D03*
X98600000Y-84600000D03*
X90935896Y-88625000D03*
%TO.N,Net-(JP2-B)*%
X127800000Y-109000000D03*
%TO.N,Net-(JP2-A)*%
X117200000Y-105200000D03*
%TO.N,/BOOT*%
X56800000Y-105000000D03*
X62400000Y-106400000D03*
%TO.N,GEA3_RX*%
X54200000Y-96075000D03*
%TO.N,/EN*%
X52980901Y-108473213D03*
X57653431Y-107268075D03*
X44582347Y-102217653D03*
%TO.N,/BOOT_SEL*%
X62000000Y-82600000D03*
X45747584Y-88316520D03*
%TO.N,/LED1*%
X56000000Y-84600000D03*
X44503200Y-100800000D03*
%TO.N,GEA2_TX*%
X62203200Y-103800000D03*
%TO.N,Net-(R20-Pad1)*%
X88800000Y-89656400D03*
X80400000Y-92600000D03*
X103200000Y-84400000D03*
%TO.N,Net-(R21-Pad1)*%
X85200000Y-92600000D03*
X89000000Y-93000000D03*
X103200000Y-87800000D03*
%TO.N,Net-(JP1-A)*%
X48670851Y-101870851D03*
%TO.N,GND*%
X61400000Y-88600000D03*
X108200000Y-102800000D03*
X70600000Y-85800000D03*
X87600000Y-82400000D03*
X52743961Y-82659280D03*
X89600000Y-104600000D03*
X112800000Y-87800000D03*
X72800000Y-107400000D03*
X85262500Y-90404383D03*
X97587347Y-90387347D03*
X107000000Y-86000000D03*
X85200000Y-85400000D03*
X80000000Y-105200000D03*
X106400000Y-91600000D03*
X72600000Y-103000000D03*
X116800000Y-86800000D03*
X109800000Y-98400000D03*
X74400000Y-95400000D03*
X102800000Y-102800000D03*
X99000000Y-88200000D03*
X95800000Y-91400000D03*
X80600000Y-108800000D03*
X111600000Y-85800000D03*
X45035113Y-107386787D03*
X49400000Y-105000000D03*
X79200000Y-98200000D03*
X114800000Y-82600000D03*
X91200000Y-86200000D03*
X55600000Y-101800000D03*
X67200000Y-102625000D03*
X50200000Y-82600000D03*
X94200000Y-96200000D03*
X85800000Y-98000000D03*
X73600000Y-85000000D03*
%TO.N,+3V3*%
X79000000Y-93000000D03*
X88600000Y-91600000D03*
X52000000Y-105600000D03*
X79800000Y-90600000D03*
X45800000Y-89400000D03*
X60800000Y-85600000D03*
%TO.N,/p2*%
X111600000Y-108800000D03*
%TO.N,/p1*%
X110600000Y-106450000D03*
X114200000Y-106400000D03*
%TD*%
D23*
%TO.N,+5V*%
X88925000Y-83800000D02*
X90200000Y-83800000D01*
X101660903Y-87396800D02*
X103264103Y-89000000D01*
X95800000Y-88600000D02*
X96028200Y-88371800D01*
X82603200Y-98803200D02*
X86196800Y-98803200D01*
X92800000Y-92200000D02*
X92800000Y-91600000D01*
X73600000Y-108800000D02*
X74000000Y-108400000D01*
X95800000Y-88600000D02*
X97003200Y-87396800D01*
X91603200Y-82396800D02*
X91200000Y-82800000D01*
X92800000Y-91600000D02*
X95800000Y-88600000D01*
X87200000Y-87600000D02*
X88925000Y-85875000D01*
X86196800Y-98803200D02*
X92800000Y-92200000D01*
X97003200Y-87396800D02*
X101660903Y-87396800D01*
X76800000Y-97000000D02*
X77800000Y-96000000D01*
X88925000Y-85875000D02*
X88925000Y-83800000D01*
X90200000Y-83800000D02*
X91200000Y-82800000D01*
X103264103Y-89000000D02*
X108600000Y-89000000D01*
X77800000Y-96000000D02*
X79800000Y-96000000D01*
X95596800Y-82396800D02*
X91603200Y-82396800D01*
X96028200Y-88371800D02*
X96028200Y-82828200D01*
X74000000Y-97000000D02*
X76800000Y-97000000D01*
X96028200Y-82828200D02*
X95596800Y-82396800D01*
X79800000Y-96000000D02*
X82603200Y-98803200D01*
X74000000Y-108400000D02*
X74000000Y-97000000D01*
D24*
%TO.N,Net-(Q2-G)*%
X108200000Y-108200000D02*
X106400000Y-106400000D01*
X108500000Y-108200000D02*
X108200000Y-108200000D01*
%TO.N,GEA_FullRx*%
X109800000Y-95000000D02*
X110597500Y-94202500D01*
X110597500Y-94202500D02*
X122425000Y-94202500D01*
%TO.N,Net-(D9-K-Pad3)*%
X82200000Y-84400000D02*
X85000000Y-81600000D01*
X85000000Y-81600000D02*
X91200000Y-81600000D01*
%TO.N,Net-(D9-A)*%
X90629496Y-88931400D02*
X82675000Y-88931400D01*
X98800000Y-84800000D02*
X98600000Y-84600000D01*
X100325000Y-83800000D02*
X99325000Y-84800000D01*
X90935896Y-88625000D02*
X90629496Y-88931400D01*
X82675000Y-88931400D02*
X82400000Y-89206400D01*
X99325000Y-84800000D02*
X98800000Y-84800000D01*
%TO.N,Net-(JP2-B)*%
X117800000Y-109000000D02*
X127800000Y-109000000D01*
X116600000Y-107800000D02*
X117800000Y-109000000D01*
X115525000Y-107800000D02*
X116600000Y-107800000D01*
%TO.N,Net-(JP2-A)*%
X117200000Y-105200000D02*
X115525000Y-105200000D01*
%TO.N,/BOOT*%
X56900000Y-105100000D02*
X56800000Y-105000000D01*
X47878700Y-105478700D02*
X47769700Y-105369700D01*
X49460000Y-106730000D02*
X49460000Y-106173225D01*
X51000000Y-99800000D02*
X52300000Y-98500000D01*
X47769700Y-105369700D02*
X47769700Y-101746696D01*
X49460000Y-106173225D02*
X48765475Y-105478700D01*
X47769700Y-101746696D02*
X49716396Y-99800000D01*
X59500000Y-105100000D02*
X56900000Y-105100000D01*
X52300000Y-98500000D02*
X52920000Y-98500000D01*
X59500000Y-105100000D02*
X61100000Y-105100000D01*
X61100000Y-105100000D02*
X62400000Y-106400000D01*
X49716396Y-99800000D02*
X51000000Y-99800000D01*
X48765475Y-105478700D02*
X47878700Y-105478700D01*
%TO.N,GEA3_RX*%
X46869700Y-108291490D02*
X46869700Y-101373904D01*
X54200000Y-96075000D02*
X50265000Y-96075000D01*
X50265000Y-96075000D02*
X47840000Y-98500000D01*
X46869700Y-101373904D02*
X47840000Y-100403604D01*
X50730000Y-108000000D02*
X49478700Y-109251300D01*
X49478700Y-109251300D02*
X47829510Y-109251300D01*
X47829510Y-109251300D02*
X46869700Y-108291490D01*
X47840000Y-100403604D02*
X47840000Y-98500000D01*
%TO.N,/EN*%
X51752814Y-109701300D02*
X47643114Y-109701300D01*
X52980901Y-108473213D02*
X52473213Y-108473213D01*
X56448293Y-108473213D02*
X52980901Y-108473213D01*
X46419700Y-103800000D02*
X46419700Y-99619700D01*
X46419700Y-108477886D02*
X46419700Y-103800000D01*
X47643114Y-109701300D02*
X46419700Y-108477886D01*
X57653431Y-107268075D02*
X56448293Y-108473213D01*
X52980901Y-108473213D02*
X51752814Y-109701300D01*
X46164694Y-103800000D02*
X46419700Y-103800000D01*
X44582347Y-102217653D02*
X46164694Y-103800000D01*
X52473213Y-108473213D02*
X52000000Y-108000000D01*
X46419700Y-99619700D02*
X45300000Y-98500000D01*
%TO.N,GEA3_TX*%
X48932904Y-107219300D02*
X47829510Y-107219300D01*
X49460000Y-108000000D02*
X49460000Y-107746396D01*
X47829510Y-107219300D02*
X47319700Y-106709490D01*
X49460000Y-107746396D02*
X48932904Y-107219300D01*
X47319700Y-106709490D02*
X47319700Y-101560300D01*
X47319700Y-101560300D02*
X50380000Y-98500000D01*
%TO.N,/BOOT_SEL*%
X58728200Y-87471800D02*
X60075000Y-86125000D01*
X46592304Y-87471800D02*
X58728200Y-87471800D01*
X60075000Y-86125000D02*
X60075000Y-84525000D01*
X60075000Y-84525000D02*
X62000000Y-82600000D01*
X45747584Y-88316520D02*
X46592304Y-87471800D01*
%TO.N,/LED1*%
X45022584Y-88016215D02*
X45447279Y-87591520D01*
X45836188Y-87591520D02*
X46405908Y-87021800D01*
X45022584Y-93777416D02*
X45022584Y-88016215D01*
X46405908Y-87021800D02*
X53578200Y-87021800D01*
X53578200Y-87021800D02*
X56000000Y-84600000D01*
X44503200Y-100800000D02*
X44125000Y-100421800D01*
X44125000Y-94675000D02*
X45022584Y-93777416D01*
X44125000Y-100421800D02*
X44125000Y-94675000D01*
X45447279Y-87591520D02*
X45836188Y-87591520D01*
%TO.N,GEA2_TX*%
X62203200Y-103800000D02*
X59500000Y-103800000D01*
%TO.N,Net-(R20-Pad1)*%
X103800000Y-83800000D02*
X103200000Y-84400000D01*
X83600000Y-89400000D02*
X80400000Y-92600000D01*
X88543600Y-89400000D02*
X83600000Y-89400000D01*
X106025000Y-83800000D02*
X103800000Y-83800000D01*
X88800000Y-89656400D02*
X88543600Y-89400000D01*
%TO.N,Net-(R21-Pad1)*%
X85200000Y-92600000D02*
X88600000Y-92600000D01*
X103800000Y-88400000D02*
X107125000Y-88400000D01*
X103200000Y-87800000D02*
X103800000Y-88400000D01*
X88600000Y-92600000D02*
X89000000Y-93000000D01*
X107125000Y-88400000D02*
X111725000Y-83800000D01*
%TO.N,Net-(JP1-A)*%
X57980000Y-100475000D02*
X49925000Y-100475000D01*
X59500000Y-102500000D02*
X59500000Y-101995000D01*
X48600000Y-101800000D02*
X48670851Y-101870851D01*
X49925000Y-100475000D02*
X48600000Y-101800000D01*
X59500000Y-101995000D02*
X57980000Y-100475000D01*
D23*
%TO.N,GND*%
X70600000Y-85800000D02*
X70600000Y-91600000D01*
X85200000Y-85400000D02*
X85340575Y-85400000D01*
X43596800Y-90003200D02*
X44000000Y-89600000D01*
X109000000Y-91600000D02*
X106400000Y-91600000D01*
X44000000Y-85053012D02*
X46453012Y-82600000D01*
X70600000Y-85800000D02*
X72800000Y-85800000D01*
D24*
X52743961Y-82659280D02*
X52684681Y-82600000D01*
D23*
X85262500Y-90404383D02*
X84000000Y-91666883D01*
X72800000Y-103200000D02*
X72600000Y-103000000D01*
X60600000Y-88600000D02*
X61400000Y-88600000D01*
X106400000Y-91600000D02*
X102400000Y-91600000D01*
X109800000Y-98400000D02*
X109800000Y-101200000D01*
X72800000Y-107400000D02*
X72800000Y-103200000D01*
X72800000Y-85800000D02*
X73600000Y-85000000D01*
X46453012Y-82600000D02*
X50200000Y-82600000D01*
X45035113Y-107386787D02*
X43596800Y-105948474D01*
X43596800Y-105948474D02*
X43596800Y-90003200D01*
X84000000Y-91666883D02*
X84000000Y-96200000D01*
X51410000Y-94450000D02*
X51000000Y-94450000D01*
X114800000Y-82600000D02*
X114800000Y-82709425D01*
X87600000Y-83140575D02*
X87600000Y-82400000D01*
X80600000Y-108800000D02*
X80600000Y-105800000D01*
X97587347Y-90387347D02*
X99200000Y-92000000D01*
X84000000Y-96200000D02*
X85800000Y-98000000D01*
D24*
X52684681Y-82600000D02*
X50200000Y-82600000D01*
D23*
X50730000Y-106730000D02*
X50730000Y-106330000D01*
X49400000Y-105000000D02*
X49400000Y-103200000D01*
X99000000Y-88200000D02*
X95800000Y-91400000D01*
X55460000Y-98500000D02*
X55460000Y-93740000D01*
X97200000Y-96200000D02*
X94200000Y-96200000D01*
X79200000Y-98200000D02*
X80409600Y-99409600D01*
X109800000Y-101200000D02*
X108200000Y-102800000D01*
X50800000Y-101800000D02*
X55600000Y-101800000D01*
X114800000Y-85800000D02*
X114800000Y-82600000D01*
X99200000Y-94200000D02*
X97200000Y-96200000D01*
X70600000Y-91600000D02*
X74400000Y-95400000D01*
X84409600Y-99409600D02*
X89600000Y-104600000D01*
X50730000Y-106330000D02*
X49400000Y-105000000D01*
X49400000Y-103200000D02*
X50800000Y-101800000D01*
X102400000Y-91600000D02*
X99000000Y-88200000D01*
X44000000Y-89600000D02*
X44000000Y-85053012D01*
X85340575Y-85400000D02*
X87600000Y-83140575D01*
X114800000Y-84800000D02*
X114800000Y-82600000D01*
X99200000Y-92000000D02*
X99200000Y-94200000D01*
X80600000Y-105800000D02*
X80000000Y-105200000D01*
X108200000Y-102800000D02*
X102800000Y-102800000D01*
X116800000Y-86800000D02*
X114800000Y-84800000D01*
X72600000Y-103000000D02*
X67575000Y-103000000D01*
X55460000Y-93740000D02*
X60600000Y-88600000D01*
X111709425Y-85800000D02*
X111600000Y-85800000D01*
X67575000Y-103000000D02*
X67200000Y-102625000D01*
X114800000Y-82709425D02*
X111709425Y-85800000D01*
X112800000Y-87800000D02*
X109000000Y-91600000D01*
X112800000Y-87800000D02*
X114800000Y-85800000D01*
X80409600Y-99409600D02*
X84409600Y-99409600D01*
X102800000Y-102800000D02*
X102600000Y-102800000D01*
%TO.N,+3V3*%
X94625000Y-86071793D02*
X94625000Y-83800000D01*
X88114097Y-87821800D02*
X91421800Y-87821800D01*
X81996800Y-88403200D02*
X87532697Y-88403200D01*
X79000000Y-93000000D02*
X79000000Y-91400000D01*
X45800000Y-89400000D02*
X47200000Y-88000000D01*
X89096793Y-91600000D02*
X92148396Y-88548396D01*
X79800000Y-90600000D02*
X81996800Y-88403200D01*
X92148396Y-88548396D02*
X94625000Y-86071793D01*
X88600000Y-91600000D02*
X89096793Y-91600000D01*
X47200000Y-88000000D02*
X59000000Y-88000000D01*
X52000000Y-105600000D02*
X52000000Y-106730000D01*
X60800000Y-86200000D02*
X60800000Y-85600000D01*
X94018600Y-84406400D02*
X94625000Y-83800000D01*
X79000000Y-91400000D02*
X79800000Y-90600000D01*
X59000000Y-88000000D02*
X60800000Y-86200000D01*
X91421800Y-87821800D02*
X92148396Y-88548396D01*
X87532697Y-88403200D02*
X88114097Y-87821800D01*
%TO.N,/p2*%
X111000000Y-108200000D02*
X111600000Y-108800000D01*
X110325000Y-108200000D02*
X111000000Y-108200000D01*
%TO.N,/p1*%
X110600000Y-106450000D02*
X110600000Y-105675000D01*
X115525000Y-106500000D02*
X114300000Y-106500000D01*
X114300000Y-106500000D02*
X114200000Y-106400000D01*
X110600000Y-105675000D02*
X109525000Y-104600000D01*
%TD*%
%TA.AperFunction,Conductor*%
%TO.N,GND*%
G36*
X93353045Y-83019407D02*
G01*
X93389009Y-83068907D01*
X93389009Y-83130093D01*
X93385519Y-83139260D01*
X93303700Y-83325788D01*
X93295843Y-83343701D01*
X93238865Y-83568696D01*
X93219700Y-83800000D01*
X93238865Y-84031303D01*
X93243721Y-84050477D01*
X93295843Y-84256300D01*
X93342453Y-84362559D01*
X93389075Y-84468848D01*
X93389078Y-84468853D01*
X93416466Y-84510773D01*
X93429214Y-84539298D01*
X93456042Y-84639423D01*
X93519608Y-84749522D01*
X93535519Y-84777080D01*
X93647920Y-84889481D01*
X93785580Y-84968959D01*
X93887060Y-84996149D01*
X93908545Y-85004703D01*
X93969420Y-85037647D01*
X94011597Y-85081970D01*
X94021300Y-85124714D01*
X94021300Y-85780723D01*
X94002393Y-85838914D01*
X93992304Y-85850727D01*
X92218399Y-87624631D01*
X92163882Y-87652408D01*
X92103450Y-87642837D01*
X92078394Y-87624633D01*
X91792480Y-87338719D01*
X91792477Y-87338717D01*
X91654824Y-87259243D01*
X91654822Y-87259242D01*
X91654820Y-87259241D01*
X91622115Y-87250478D01*
X91501279Y-87218100D01*
X91501277Y-87218100D01*
X88674669Y-87218100D01*
X88616478Y-87199193D01*
X88580514Y-87149693D01*
X88580514Y-87088507D01*
X88604665Y-87049096D01*
X88779550Y-86874211D01*
X89408080Y-86245681D01*
X89462587Y-86151272D01*
X89487527Y-86108075D01*
X89487536Y-86108057D01*
X89487558Y-86108020D01*
X89487559Y-86108019D01*
X89528700Y-85954479D01*
X89528700Y-85124714D01*
X89547607Y-85066523D01*
X89580582Y-85037646D01*
X89595047Y-85029818D01*
X89693626Y-84976470D01*
X89876784Y-84833913D01*
X90033979Y-84663153D01*
X90160924Y-84468849D01*
X90163518Y-84462934D01*
X90204207Y-84417239D01*
X90254181Y-84403700D01*
X90279479Y-84403700D01*
X90400568Y-84371253D01*
X90400571Y-84371253D01*
X90418302Y-84366502D01*
X90433020Y-84362559D01*
X90570680Y-84283081D01*
X91229821Y-83623938D01*
X91284336Y-83596163D01*
X91288719Y-83595568D01*
X91379255Y-83585368D01*
X91549522Y-83525789D01*
X91702262Y-83429816D01*
X91829816Y-83302262D01*
X91925789Y-83149522D01*
X91954734Y-83066802D01*
X91991799Y-83018122D01*
X92048178Y-83000500D01*
X93294854Y-83000500D01*
X93353045Y-83019407D01*
G37*
%TD.AperFunction*%
%TA.AperFunction,Conductor*%
G36*
X131548691Y-80029407D02*
G01*
X131584655Y-80078907D01*
X131589500Y-80109500D01*
X131589500Y-109890500D01*
X131570593Y-109948691D01*
X131521093Y-109984655D01*
X131490500Y-109989500D01*
X127930391Y-109989500D01*
X127872200Y-109970593D01*
X127836236Y-109921093D01*
X127836236Y-109859907D01*
X127872200Y-109810407D01*
X127919305Y-109792122D01*
X127979255Y-109785368D01*
X128149522Y-109725789D01*
X128302262Y-109629816D01*
X128429816Y-109502262D01*
X128525789Y-109349522D01*
X128585368Y-109179255D01*
X128605565Y-109000000D01*
X128585368Y-108820745D01*
X128577837Y-108799224D01*
X128538237Y-108686053D01*
X128525789Y-108650478D01*
X128512905Y-108629974D01*
X128429818Y-108497741D01*
X128429817Y-108497740D01*
X128429816Y-108497738D01*
X128302262Y-108370184D01*
X128302259Y-108370182D01*
X128302258Y-108370181D01*
X128149523Y-108274211D01*
X127979261Y-108214633D01*
X127979257Y-108214632D01*
X127800000Y-108194435D01*
X127620742Y-108214632D01*
X127620738Y-108214633D01*
X127450477Y-108274211D01*
X127450476Y-108274211D01*
X127297741Y-108370181D01*
X127297736Y-108370185D01*
X127222417Y-108445504D01*
X127167900Y-108473281D01*
X127152414Y-108474500D01*
X118058677Y-108474500D01*
X118000486Y-108455593D01*
X117988673Y-108445504D01*
X117020506Y-107477337D01*
X117020505Y-107477335D01*
X116922665Y-107379495D01*
X116897559Y-107365000D01*
X116802837Y-107310312D01*
X116802839Y-107310312D01*
X116788054Y-107306350D01*
X116774591Y-107302743D01*
X116754080Y-107297247D01*
X116747151Y-107295390D01*
X116695837Y-107262064D01*
X116674996Y-107215252D01*
X116673462Y-107205565D01*
X116663150Y-107140462D01*
X116663150Y-107109487D01*
X116664272Y-107102403D01*
X116675500Y-107031519D01*
X116675499Y-105994968D01*
X116694406Y-105936778D01*
X116743906Y-105900814D01*
X116805092Y-105900814D01*
X116827172Y-105911145D01*
X116850472Y-105925786D01*
X116850475Y-105925787D01*
X116850478Y-105925789D01*
X116951145Y-105961014D01*
X117020738Y-105985366D01*
X117020742Y-105985367D01*
X117020745Y-105985368D01*
X117200000Y-106005565D01*
X117379255Y-105985368D01*
X117549522Y-105925789D01*
X117702262Y-105829816D01*
X117829816Y-105702262D01*
X117925789Y-105549522D01*
X117985368Y-105379255D01*
X118005565Y-105200000D01*
X117985368Y-105020745D01*
X117984059Y-105017005D01*
X117934689Y-104875914D01*
X117925789Y-104850478D01*
X117913739Y-104831301D01*
X117829818Y-104697741D01*
X117829817Y-104697740D01*
X117829816Y-104697738D01*
X117702262Y-104570184D01*
X117702259Y-104570182D01*
X117702258Y-104570181D01*
X117549523Y-104474211D01*
X117379261Y-104414633D01*
X117379257Y-104414632D01*
X117200000Y-104394435D01*
X117020742Y-104414632D01*
X117020738Y-104414633D01*
X116850477Y-104474211D01*
X116850476Y-104474211D01*
X116697741Y-104570181D01*
X116697740Y-104570181D01*
X116628814Y-104639107D01*
X116574297Y-104666883D01*
X116513865Y-104657311D01*
X116483992Y-104633934D01*
X116463523Y-104610312D01*
X116422305Y-104562744D01*
X116422295Y-104562735D01*
X116313649Y-104468593D01*
X116313636Y-104468584D01*
X116216561Y-104406198D01*
X116216548Y-104406191D01*
X116137697Y-104370181D01*
X116085767Y-104346465D01*
X116085765Y-104346464D01*
X116085762Y-104346463D01*
X115975036Y-104313950D01*
X115975028Y-104313948D01*
X115975024Y-104313947D01*
X115975019Y-104313946D01*
X115975018Y-104313946D01*
X115832713Y-104293485D01*
X115832709Y-104293485D01*
X115717292Y-104293485D01*
X115717290Y-104293485D01*
X115717248Y-104293491D01*
X115703151Y-104294500D01*
X115346849Y-104294500D01*
X115332752Y-104293491D01*
X115332710Y-104293485D01*
X115332708Y-104293485D01*
X115217291Y-104293485D01*
X115217287Y-104293485D01*
X115074981Y-104313946D01*
X115074977Y-104313946D01*
X115074976Y-104313947D01*
X115074974Y-104313947D01*
X115074963Y-104313950D01*
X114964237Y-104346463D01*
X114833451Y-104406191D01*
X114833438Y-104406198D01*
X114736363Y-104468584D01*
X114736350Y-104468593D01*
X114627704Y-104562735D01*
X114627693Y-104562746D01*
X114552107Y-104649975D01*
X114552104Y-104649980D01*
X114474383Y-104770917D01*
X114474379Y-104770925D01*
X114474378Y-104770927D01*
X114436349Y-104854200D01*
X114426430Y-104875919D01*
X114385925Y-105013867D01*
X114385924Y-105013872D01*
X114369500Y-105128105D01*
X114369500Y-105502751D01*
X114350593Y-105560942D01*
X114301093Y-105596906D01*
X114259417Y-105601129D01*
X114200000Y-105594435D01*
X114020742Y-105614632D01*
X114020738Y-105614633D01*
X113850477Y-105674211D01*
X113850476Y-105674211D01*
X113697741Y-105770181D01*
X113570181Y-105897741D01*
X113474211Y-106050476D01*
X113474211Y-106050477D01*
X113414633Y-106220738D01*
X113414632Y-106220742D01*
X113394435Y-106400000D01*
X113414632Y-106579257D01*
X113414633Y-106579261D01*
X113474211Y-106749522D01*
X113474211Y-106749523D01*
X113562215Y-106889580D01*
X113570184Y-106902262D01*
X113697738Y-107029816D01*
X113697740Y-107029817D01*
X113697741Y-107029818D01*
X113830087Y-107112977D01*
X113850478Y-107125789D01*
X113914568Y-107148215D01*
X114020738Y-107185366D01*
X114020742Y-107185367D01*
X114020745Y-107185368D01*
X114200000Y-107205565D01*
X114259416Y-107198870D01*
X114319356Y-107211142D01*
X114360637Y-107256303D01*
X114369500Y-107297247D01*
X114369500Y-107871894D01*
X114385924Y-107986127D01*
X114385925Y-107986132D01*
X114411620Y-108073640D01*
X114426432Y-108124086D01*
X114474378Y-108229073D01*
X114474379Y-108229074D01*
X114474383Y-108229082D01*
X114552104Y-108350019D01*
X114552107Y-108350024D01*
X114552110Y-108350027D01*
X114627695Y-108437256D01*
X114627702Y-108437262D01*
X114627704Y-108437264D01*
X114736350Y-108531406D01*
X114736363Y-108531415D01*
X114833438Y-108593801D01*
X114833442Y-108593803D01*
X114833448Y-108593807D01*
X114964233Y-108653535D01*
X115074976Y-108686053D01*
X115154039Y-108697420D01*
X115217287Y-108706515D01*
X115217291Y-108706515D01*
X115332710Y-108706515D01*
X115332752Y-108706509D01*
X115346849Y-108705500D01*
X115703151Y-108705500D01*
X115717248Y-108706509D01*
X115717290Y-108706515D01*
X115717292Y-108706515D01*
X115832713Y-108706515D01*
X115889635Y-108698330D01*
X115975024Y-108686053D01*
X116085767Y-108653535D01*
X116216552Y-108593807D01*
X116313644Y-108531410D01*
X116391103Y-108464291D01*
X116447462Y-108440474D01*
X116507057Y-108454332D01*
X116525938Y-108469107D01*
X117379493Y-109322662D01*
X117379495Y-109322665D01*
X117477335Y-109420505D01*
X117597164Y-109489688D01*
X117597166Y-109489688D01*
X117597167Y-109489689D01*
X117644090Y-109502262D01*
X117644091Y-109502262D01*
X117730816Y-109525500D01*
X117730817Y-109525500D01*
X127152414Y-109525500D01*
X127210605Y-109544407D01*
X127222417Y-109554496D01*
X127273486Y-109605564D01*
X127297738Y-109629816D01*
X127450478Y-109725789D01*
X127518657Y-109749646D01*
X127620738Y-109785366D01*
X127620742Y-109785367D01*
X127620745Y-109785368D01*
X127680694Y-109792122D01*
X127736401Y-109817426D01*
X127766597Y-109870642D01*
X127759746Y-109931442D01*
X127718466Y-109976604D01*
X127669609Y-109989500D01*
X52446791Y-109989500D01*
X52388600Y-109970593D01*
X52352636Y-109921093D01*
X52352636Y-109859907D01*
X52376787Y-109820497D01*
X52891111Y-109306171D01*
X52945628Y-109278393D01*
X52972197Y-109277797D01*
X52980901Y-109278778D01*
X53160156Y-109258581D01*
X53330423Y-109199002D01*
X53483163Y-109103029D01*
X53534329Y-109051863D01*
X53558484Y-109027709D01*
X53613001Y-108999932D01*
X53628487Y-108998713D01*
X56373031Y-108998713D01*
X56373047Y-108998714D01*
X56379110Y-108998714D01*
X56517477Y-108998714D01*
X56517477Y-108998713D01*
X56633689Y-108967574D01*
X56633690Y-108967574D01*
X56638049Y-108966405D01*
X56651129Y-108962901D01*
X56770958Y-108893718D01*
X56864676Y-108800000D01*
X72794435Y-108800000D01*
X72814632Y-108979257D01*
X72814633Y-108979261D01*
X72874211Y-109149522D01*
X72874211Y-109149523D01*
X72970180Y-109302256D01*
X72970184Y-109302262D01*
X73097738Y-109429816D01*
X73097740Y-109429817D01*
X73097741Y-109429818D01*
X73213028Y-109502258D01*
X73250478Y-109525789D01*
X73303685Y-109544407D01*
X73420738Y-109585366D01*
X73420742Y-109585367D01*
X73420745Y-109585368D01*
X73600000Y-109605565D01*
X73779255Y-109585368D01*
X73949522Y-109525789D01*
X74102262Y-109429816D01*
X74229816Y-109302262D01*
X74325789Y-109149522D01*
X74385368Y-108979255D01*
X74395566Y-108888737D01*
X74420870Y-108833031D01*
X74423942Y-108829818D01*
X74453210Y-108800551D01*
X74483080Y-108770681D01*
X74533656Y-108683080D01*
X74562559Y-108633019D01*
X74603700Y-108479479D01*
X74603700Y-106400000D01*
X105594435Y-106400000D01*
X105614632Y-106579257D01*
X105614633Y-106579261D01*
X105674211Y-106749522D01*
X105674211Y-106749523D01*
X105762215Y-106889580D01*
X105770184Y-106902262D01*
X105897738Y-107029816D01*
X105897740Y-107029817D01*
X105897741Y-107029818D01*
X106030087Y-107112977D01*
X106050478Y-107125789D01*
X106114568Y-107148215D01*
X106220738Y-107185366D01*
X106220742Y-107185367D01*
X106220745Y-107185368D01*
X106400000Y-107205565D01*
X106407285Y-107204744D01*
X106408698Y-107204585D01*
X106468640Y-107216856D01*
X106489789Y-107232958D01*
X107558004Y-108301173D01*
X107585781Y-108355690D01*
X107587000Y-108371177D01*
X107587000Y-108715688D01*
X107589901Y-108752565D01*
X107589901Y-108752568D01*
X107589902Y-108752569D01*
X107635756Y-108910398D01*
X107719419Y-109051865D01*
X107835635Y-109168081D01*
X107977102Y-109251744D01*
X108134931Y-109297598D01*
X108171806Y-109300500D01*
X108171811Y-109300500D01*
X108828189Y-109300500D01*
X108828194Y-109300500D01*
X108865069Y-109297598D01*
X109022898Y-109251744D01*
X109164365Y-109168081D01*
X109280581Y-109051865D01*
X109327288Y-108972887D01*
X109373182Y-108932427D01*
X109434096Y-108926668D01*
X109486761Y-108957814D01*
X109497708Y-108972881D01*
X109544419Y-109051865D01*
X109660635Y-109168081D01*
X109802102Y-109251744D01*
X109959931Y-109297598D01*
X109996806Y-109300500D01*
X109996811Y-109300500D01*
X110653189Y-109300500D01*
X110653194Y-109300500D01*
X110690069Y-109297598D01*
X110847898Y-109251744D01*
X110847901Y-109251742D01*
X110852748Y-109250334D01*
X110913904Y-109252256D01*
X110962250Y-109289756D01*
X110964193Y-109292729D01*
X110970180Y-109302256D01*
X110970184Y-109302262D01*
X111097738Y-109429816D01*
X111097740Y-109429817D01*
X111097741Y-109429818D01*
X111213028Y-109502258D01*
X111250478Y-109525789D01*
X111303685Y-109544407D01*
X111420738Y-109585366D01*
X111420742Y-109585367D01*
X111420745Y-109585368D01*
X111600000Y-109605565D01*
X111779255Y-109585368D01*
X111949522Y-109525789D01*
X112102262Y-109429816D01*
X112229816Y-109302262D01*
X112325789Y-109149522D01*
X112385368Y-108979255D01*
X112405565Y-108800000D01*
X112385368Y-108620745D01*
X112375942Y-108593808D01*
X112353753Y-108530394D01*
X112325789Y-108450478D01*
X112299537Y-108408699D01*
X112229818Y-108297741D01*
X112229817Y-108297740D01*
X112229816Y-108297738D01*
X112102262Y-108170184D01*
X112102259Y-108170182D01*
X112102258Y-108170181D01*
X111949523Y-108074211D01*
X111779255Y-108014631D01*
X111688739Y-108004432D01*
X111633031Y-107979128D01*
X111629821Y-107976059D01*
X111370679Y-107716918D01*
X111266495Y-107656767D01*
X111225554Y-107611298D01*
X111220926Y-107598651D01*
X111189244Y-107489603D01*
X111189244Y-107489602D01*
X111105581Y-107348135D01*
X111027299Y-107269853D01*
X110999524Y-107215339D01*
X111009095Y-107154907D01*
X111044634Y-107116026D01*
X111102262Y-107079816D01*
X111229816Y-106952262D01*
X111325789Y-106799522D01*
X111385368Y-106629255D01*
X111405565Y-106450000D01*
X111385368Y-106270745D01*
X111385365Y-106270737D01*
X111350296Y-106170516D01*
X111325789Y-106100478D01*
X111320988Y-106092838D01*
X111229818Y-105947741D01*
X111226352Y-105943395D01*
X111228238Y-105941890D01*
X111204912Y-105896055D01*
X111203700Y-105880614D01*
X111203700Y-105595522D01*
X111203700Y-105595521D01*
X111183604Y-105520521D01*
X111162559Y-105441980D01*
X111150297Y-105420742D01*
X111083081Y-105304320D01*
X110890074Y-105111312D01*
X110862297Y-105056796D01*
X110864106Y-105017009D01*
X110911134Y-104831305D01*
X110930300Y-104600000D01*
X110911134Y-104368695D01*
X110854157Y-104143700D01*
X110760924Y-103931151D01*
X110633979Y-103736847D01*
X110476784Y-103566087D01*
X110328248Y-103450477D01*
X110293629Y-103423532D01*
X110293626Y-103423530D01*
X110089506Y-103313065D01*
X110073221Y-103307474D01*
X109869981Y-103237702D01*
X109869978Y-103237701D01*
X109869977Y-103237701D01*
X109641049Y-103199500D01*
X109408951Y-103199500D01*
X109180022Y-103237701D01*
X108960493Y-103313065D01*
X108756373Y-103423530D01*
X108756370Y-103423532D01*
X108573219Y-103566084D01*
X108573216Y-103566086D01*
X108573216Y-103566087D01*
X108416021Y-103736847D01*
X108289076Y-103931151D01*
X108195843Y-104143700D01*
X108182995Y-104194435D01*
X108138865Y-104368696D01*
X108119700Y-104599999D01*
X108138865Y-104831303D01*
X108150164Y-104875919D01*
X108195843Y-105056300D01*
X108289076Y-105268849D01*
X108416021Y-105463153D01*
X108573216Y-105633913D01*
X108756374Y-105776470D01*
X108960497Y-105886936D01*
X109180019Y-105962298D01*
X109408951Y-106000500D01*
X109641049Y-106000500D01*
X109760840Y-105980510D01*
X109821348Y-105989582D01*
X109864969Y-106032487D01*
X109875040Y-106092838D01*
X109870578Y-106110858D01*
X109814633Y-106270737D01*
X109814632Y-106270742D01*
X109794435Y-106450000D01*
X109814632Y-106629257D01*
X109814633Y-106629261D01*
X109874211Y-106799522D01*
X109874211Y-106799523D01*
X109970184Y-106952263D01*
X109973309Y-106956181D01*
X109994809Y-107013464D01*
X109978533Y-107072445D01*
X109930697Y-107110595D01*
X109923530Y-107112977D01*
X109802101Y-107148256D01*
X109660636Y-107231918D01*
X109544418Y-107348136D01*
X109497714Y-107427110D01*
X109451818Y-107467573D01*
X109390904Y-107473331D01*
X109338239Y-107442185D01*
X109327286Y-107427110D01*
X109299127Y-107379495D01*
X109280581Y-107348135D01*
X109164365Y-107231919D01*
X109022898Y-107148256D01*
X108865069Y-107102402D01*
X108865068Y-107102401D01*
X108865065Y-107102401D01*
X108841640Y-107100558D01*
X108828194Y-107099500D01*
X108171806Y-107099500D01*
X108159273Y-107100486D01*
X108134934Y-107102401D01*
X108134927Y-107102403D01*
X108106731Y-107110595D01*
X107977102Y-107148256D01*
X107977100Y-107148256D01*
X107971121Y-107149994D01*
X107970604Y-107148215D01*
X107918114Y-107153166D01*
X107869728Y-107126559D01*
X107232958Y-106489789D01*
X107205181Y-106435272D01*
X107204585Y-106408698D01*
X107204744Y-106407285D01*
X107205565Y-106400000D01*
X107185368Y-106220745D01*
X107181794Y-106210532D01*
X107145457Y-106106687D01*
X107125789Y-106050478D01*
X107114484Y-106032487D01*
X107029818Y-105897741D01*
X107029817Y-105897740D01*
X107029816Y-105897738D01*
X106902262Y-105770184D01*
X106902259Y-105770182D01*
X106902258Y-105770181D01*
X106749523Y-105674211D01*
X106579261Y-105614633D01*
X106579257Y-105614632D01*
X106400000Y-105594435D01*
X106220742Y-105614632D01*
X106220738Y-105614633D01*
X106050477Y-105674211D01*
X106050476Y-105674211D01*
X105897741Y-105770181D01*
X105770181Y-105897741D01*
X105674211Y-106050476D01*
X105674211Y-106050477D01*
X105614633Y-106220738D01*
X105614632Y-106220742D01*
X105594435Y-106400000D01*
X74603700Y-106400000D01*
X74603700Y-97702700D01*
X74622607Y-97644509D01*
X74672107Y-97608545D01*
X74702700Y-97603700D01*
X76879479Y-97603700D01*
X77000568Y-97571253D01*
X77000571Y-97571253D01*
X77018302Y-97566502D01*
X77033020Y-97562559D01*
X77170680Y-97483081D01*
X78021065Y-96632696D01*
X78075582Y-96604919D01*
X78091069Y-96603700D01*
X79230615Y-96603700D01*
X79288806Y-96622607D01*
X79293312Y-96626455D01*
X79293395Y-96626352D01*
X79297741Y-96629818D01*
X79417099Y-96704816D01*
X79450478Y-96725789D01*
X79518657Y-96749646D01*
X79620738Y-96785366D01*
X79620742Y-96785367D01*
X79620745Y-96785368D01*
X79711259Y-96795566D01*
X79766967Y-96820870D01*
X79770179Y-96823940D01*
X82232519Y-99286280D01*
X82251147Y-99297035D01*
X82274143Y-99310312D01*
X82274144Y-99310312D01*
X82370181Y-99365759D01*
X82523721Y-99406900D01*
X82523723Y-99406900D01*
X86276279Y-99406900D01*
X86397368Y-99374453D01*
X86397371Y-99374453D01*
X86415102Y-99369702D01*
X86429820Y-99365759D01*
X86567480Y-99286281D01*
X87841261Y-98012500D01*
X118729571Y-98012500D01*
X118737932Y-98102737D01*
X118749244Y-98224810D01*
X118807595Y-98429889D01*
X118902634Y-98620755D01*
X119031128Y-98790907D01*
X119048789Y-98807007D01*
X119188692Y-98934547D01*
X119188699Y-98934553D01*
X119239367Y-98965925D01*
X119369981Y-99046798D01*
X119568802Y-99123821D01*
X119778390Y-99163000D01*
X119991610Y-99163000D01*
X120201198Y-99123821D01*
X120400019Y-99046798D01*
X120581302Y-98934552D01*
X120738872Y-98790907D01*
X120867366Y-98620755D01*
X120927007Y-98500978D01*
X121274500Y-98500978D01*
X121274500Y-100064021D01*
X121274501Y-100064023D01*
X121289352Y-100157799D01*
X121289354Y-100157804D01*
X121346950Y-100270842D01*
X121436658Y-100360550D01*
X121549696Y-100418146D01*
X121643481Y-100433000D01*
X123206518Y-100432999D01*
X123206521Y-100432999D01*
X123206522Y-100432998D01*
X123217812Y-100431210D01*
X126924500Y-100431210D01*
X126924500Y-100673789D01*
X126956161Y-100914281D01*
X126956161Y-100914286D01*
X127018944Y-101148592D01*
X127018948Y-101148605D01*
X127111772Y-101372704D01*
X127111774Y-101372708D01*
X127111776Y-101372712D01*
X127221813Y-101563302D01*
X127233066Y-101582792D01*
X127380729Y-101775231D01*
X127380731Y-101775233D01*
X127380735Y-101775238D01*
X127552262Y-101946765D01*
X127552266Y-101946768D01*
X127552268Y-101946770D01*
X127714060Y-102070917D01*
X127744711Y-102094436D01*
X127954788Y-102215724D01*
X128178900Y-102308554D01*
X128413211Y-102371338D01*
X128653712Y-102403000D01*
X128653713Y-102403000D01*
X128896287Y-102403000D01*
X128896288Y-102403000D01*
X129136789Y-102371338D01*
X129371100Y-102308554D01*
X129595212Y-102215724D01*
X129805289Y-102094436D01*
X129997738Y-101946765D01*
X130169265Y-101775238D01*
X130316936Y-101582789D01*
X130438224Y-101372712D01*
X130531054Y-101148600D01*
X130593838Y-100914289D01*
X130625500Y-100673788D01*
X130625500Y-100431212D01*
X130593838Y-100190711D01*
X130531054Y-99956400D01*
X130439615Y-99735645D01*
X130438227Y-99732295D01*
X130438226Y-99732294D01*
X130438224Y-99732288D01*
X130316936Y-99522211D01*
X130296867Y-99496056D01*
X130169270Y-99329768D01*
X130169268Y-99329766D01*
X130169265Y-99329762D01*
X129997738Y-99158235D01*
X129997733Y-99158231D01*
X129997731Y-99158229D01*
X129805292Y-99010566D01*
X129805289Y-99010564D01*
X129595212Y-98889276D01*
X129595208Y-98889274D01*
X129595204Y-98889272D01*
X129371105Y-98796448D01*
X129371104Y-98796447D01*
X129371100Y-98796446D01*
X129136789Y-98733662D01*
X129136786Y-98733661D01*
X129136784Y-98733661D01*
X128896289Y-98702000D01*
X128896288Y-98702000D01*
X128653712Y-98702000D01*
X128653710Y-98702000D01*
X128413218Y-98733661D01*
X128413213Y-98733661D01*
X128178907Y-98796444D01*
X128178894Y-98796448D01*
X127954795Y-98889272D01*
X127744707Y-99010566D01*
X127552268Y-99158229D01*
X127380729Y-99329768D01*
X127233066Y-99522207D01*
X127111772Y-99732295D01*
X127018948Y-99956394D01*
X127018944Y-99956407D01*
X126956161Y-100190713D01*
X126956161Y-100190718D01*
X126924500Y-100431210D01*
X123217812Y-100431210D01*
X123253411Y-100425572D01*
X123300299Y-100418147D01*
X123300299Y-100418146D01*
X123300304Y-100418146D01*
X123413342Y-100360550D01*
X123503050Y-100270842D01*
X123560646Y-100157804D01*
X123575500Y-100064019D01*
X123575499Y-98500982D01*
X123575499Y-98500981D01*
X123575499Y-98500978D01*
X123575498Y-98500976D01*
X123560647Y-98407200D01*
X123560646Y-98407198D01*
X123560646Y-98407196D01*
X123503050Y-98294158D01*
X123413342Y-98204450D01*
X123300304Y-98146854D01*
X123300305Y-98146854D01*
X123206521Y-98132000D01*
X121643478Y-98132000D01*
X121643476Y-98132001D01*
X121549700Y-98146852D01*
X121549695Y-98146854D01*
X121436659Y-98204449D01*
X121346949Y-98294159D01*
X121289354Y-98407195D01*
X121274500Y-98500978D01*
X120927007Y-98500978D01*
X120962405Y-98429889D01*
X121020756Y-98224810D01*
X121040429Y-98012500D01*
X121020756Y-97800190D01*
X120962405Y-97595111D01*
X120867366Y-97404245D01*
X120738872Y-97234093D01*
X120657475Y-97159889D01*
X120581307Y-97090452D01*
X120581300Y-97090446D01*
X120400024Y-96978205D01*
X120400019Y-96978202D01*
X120201195Y-96901178D01*
X119991610Y-96862000D01*
X119778390Y-96862000D01*
X119568804Y-96901178D01*
X119369980Y-96978202D01*
X119369975Y-96978205D01*
X119188699Y-97090446D01*
X119188692Y-97090452D01*
X119031135Y-97234086D01*
X119031131Y-97234089D01*
X119031128Y-97234093D01*
X119031125Y-97234097D01*
X118902635Y-97404243D01*
X118902630Y-97404252D01*
X118807596Y-97595108D01*
X118749244Y-97800188D01*
X118729571Y-98012500D01*
X87841261Y-98012500D01*
X90975051Y-94878710D01*
X101674500Y-94878710D01*
X101674500Y-95121289D01*
X101706161Y-95361781D01*
X101706161Y-95361786D01*
X101715409Y-95396300D01*
X101767847Y-95592000D01*
X101768944Y-95596092D01*
X101768948Y-95596105D01*
X101861772Y-95820204D01*
X101861774Y-95820208D01*
X101861776Y-95820212D01*
X101983064Y-96030289D01*
X101983066Y-96030292D01*
X102130729Y-96222731D01*
X102130731Y-96222733D01*
X102130735Y-96222738D01*
X102302262Y-96394265D01*
X102302266Y-96394268D01*
X102302268Y-96394270D01*
X102341695Y-96424523D01*
X102494711Y-96541936D01*
X102704788Y-96663224D01*
X102928900Y-96756054D01*
X103163211Y-96818838D01*
X103403712Y-96850500D01*
X103403713Y-96850500D01*
X103646287Y-96850500D01*
X103646288Y-96850500D01*
X103886789Y-96818838D01*
X104121100Y-96756054D01*
X104153822Y-96742500D01*
X121269571Y-96742500D01*
X121289244Y-96954811D01*
X121312449Y-97036367D01*
X121347595Y-97159889D01*
X121442634Y-97350755D01*
X121571128Y-97520907D01*
X121626355Y-97571253D01*
X121728692Y-97664547D01*
X121728699Y-97664553D01*
X121774848Y-97693127D01*
X121909981Y-97776798D01*
X122108802Y-97853821D01*
X122318390Y-97893000D01*
X122531610Y-97893000D01*
X122741198Y-97853821D01*
X122940019Y-97776798D01*
X123121302Y-97664552D01*
X123278872Y-97520907D01*
X123407366Y-97350755D01*
X123502405Y-97159889D01*
X123560756Y-96954810D01*
X123580429Y-96742500D01*
X123560756Y-96530190D01*
X123502405Y-96325111D01*
X123407366Y-96134245D01*
X123278872Y-95964093D01*
X123197475Y-95889889D01*
X123121307Y-95820452D01*
X123121300Y-95820446D01*
X122940024Y-95708205D01*
X122940019Y-95708202D01*
X122791012Y-95650477D01*
X122741198Y-95631179D01*
X122741197Y-95631178D01*
X122741195Y-95631178D01*
X122531610Y-95592000D01*
X122318390Y-95592000D01*
X122108804Y-95631178D01*
X121909980Y-95708202D01*
X121909975Y-95708205D01*
X121728699Y-95820446D01*
X121728692Y-95820452D01*
X121571135Y-95964086D01*
X121571131Y-95964089D01*
X121571128Y-95964093D01*
X121571125Y-95964097D01*
X121442635Y-96134243D01*
X121442630Y-96134252D01*
X121347596Y-96325108D01*
X121289244Y-96530188D01*
X121269571Y-96742500D01*
X104153822Y-96742500D01*
X104345212Y-96663224D01*
X104555289Y-96541936D01*
X104747738Y-96394265D01*
X104919265Y-96222738D01*
X105066936Y-96030289D01*
X105188224Y-95820212D01*
X105281054Y-95596100D01*
X105343838Y-95361789D01*
X105375500Y-95121288D01*
X105375500Y-95000000D01*
X108994435Y-95000000D01*
X109014632Y-95179257D01*
X109014633Y-95179261D01*
X109074211Y-95349522D01*
X109074211Y-95349523D01*
X109167341Y-95497738D01*
X109170184Y-95502262D01*
X109297738Y-95629816D01*
X109297740Y-95629817D01*
X109297741Y-95629818D01*
X109449979Y-95725476D01*
X109450478Y-95725789D01*
X109463047Y-95730187D01*
X109620738Y-95785366D01*
X109620742Y-95785367D01*
X109620745Y-95785368D01*
X109800000Y-95805565D01*
X109979255Y-95785368D01*
X109980656Y-95784878D01*
X110010211Y-95774536D01*
X110149522Y-95725789D01*
X110302262Y-95629816D01*
X110429816Y-95502262D01*
X110525789Y-95349522D01*
X110585368Y-95179255D01*
X110605565Y-95000000D01*
X110604584Y-94991300D01*
X110616853Y-94931362D01*
X110632954Y-94910213D01*
X110786173Y-94756996D01*
X110840690Y-94729219D01*
X110856176Y-94728000D01*
X118810586Y-94728000D01*
X118868777Y-94746907D01*
X118904741Y-94796407D01*
X118904741Y-94857593D01*
X118899208Y-94871124D01*
X118895430Y-94878713D01*
X118807596Y-95055108D01*
X118749244Y-95260188D01*
X118729571Y-95472500D01*
X118749244Y-95684811D01*
X118760774Y-95725333D01*
X118807595Y-95889889D01*
X118902634Y-96080755D01*
X119031128Y-96250907D01*
X119101734Y-96315273D01*
X119188692Y-96394547D01*
X119188699Y-96394553D01*
X119292389Y-96458755D01*
X119369981Y-96506798D01*
X119568802Y-96583821D01*
X119778390Y-96623000D01*
X119991610Y-96623000D01*
X120201198Y-96583821D01*
X120400019Y-96506798D01*
X120581302Y-96394552D01*
X120738872Y-96250907D01*
X120867366Y-96080755D01*
X120962405Y-95889889D01*
X121020756Y-95684810D01*
X121040429Y-95472500D01*
X121020756Y-95260190D01*
X120962405Y-95055111D01*
X120870792Y-94871127D01*
X120861780Y-94810610D01*
X120890060Y-94756352D01*
X120944831Y-94729080D01*
X120959414Y-94728000D01*
X121340129Y-94728000D01*
X121398320Y-94746907D01*
X121428750Y-94782872D01*
X121442632Y-94810751D01*
X121442641Y-94810766D01*
X121571119Y-94980896D01*
X121571122Y-94980899D01*
X121571128Y-94980907D01*
X121571135Y-94980913D01*
X121728692Y-95124547D01*
X121728699Y-95124553D01*
X121796706Y-95166661D01*
X121909981Y-95236798D01*
X122108802Y-95313821D01*
X122318390Y-95353000D01*
X122531610Y-95353000D01*
X122741198Y-95313821D01*
X122940019Y-95236798D01*
X123121302Y-95124552D01*
X123278872Y-94980907D01*
X123407366Y-94810755D01*
X123502405Y-94619889D01*
X123560756Y-94414810D01*
X123580429Y-94202500D01*
X123560756Y-93990190D01*
X123502405Y-93785111D01*
X123407366Y-93594245D01*
X123278872Y-93424093D01*
X123197601Y-93350004D01*
X123121307Y-93280452D01*
X123121300Y-93280446D01*
X122940024Y-93168205D01*
X122940019Y-93168202D01*
X122825155Y-93123704D01*
X122741198Y-93091179D01*
X122741197Y-93091178D01*
X122741195Y-93091178D01*
X122531610Y-93052000D01*
X122318390Y-93052000D01*
X122108804Y-93091178D01*
X121909980Y-93168202D01*
X121909975Y-93168205D01*
X121728699Y-93280446D01*
X121728692Y-93280452D01*
X121571135Y-93424086D01*
X121571119Y-93424103D01*
X121442641Y-93594233D01*
X121442632Y-93594248D01*
X121428750Y-93622128D01*
X121385888Y-93665790D01*
X121340129Y-93677000D01*
X120959414Y-93677000D01*
X120901223Y-93658093D01*
X120865259Y-93608593D01*
X120865259Y-93547407D01*
X120870793Y-93533872D01*
X120962405Y-93349889D01*
X121020756Y-93144810D01*
X121040429Y-92932500D01*
X121020756Y-92720190D01*
X120962405Y-92515111D01*
X120867366Y-92324245D01*
X120738872Y-92154093D01*
X120657475Y-92079889D01*
X120581307Y-92010452D01*
X120581300Y-92010446D01*
X120400024Y-91898205D01*
X120400019Y-91898202D01*
X120201196Y-91821178D01*
X120147607Y-91811161D01*
X120093882Y-91781883D01*
X120067626Y-91726617D01*
X120078869Y-91666474D01*
X120083070Y-91662500D01*
X121269571Y-91662500D01*
X121289244Y-91874811D01*
X121308590Y-91942802D01*
X121347595Y-92079889D01*
X121442634Y-92270755D01*
X121571128Y-92440907D01*
X121571135Y-92440913D01*
X121728692Y-92584547D01*
X121728699Y-92584553D01*
X121793476Y-92624661D01*
X121909981Y-92696798D01*
X122108802Y-92773821D01*
X122318390Y-92813000D01*
X122531610Y-92813000D01*
X122741198Y-92773821D01*
X122940019Y-92696798D01*
X123121302Y-92584552D01*
X123278872Y-92440907D01*
X123407366Y-92270755D01*
X123502405Y-92079889D01*
X123560756Y-91874810D01*
X123580429Y-91662500D01*
X123560756Y-91450190D01*
X123502405Y-91245111D01*
X123407366Y-91054245D01*
X123278872Y-90884093D01*
X123224623Y-90834639D01*
X123121307Y-90740452D01*
X123121300Y-90740446D01*
X122940024Y-90628205D01*
X122940019Y-90628202D01*
X122741195Y-90551178D01*
X122531610Y-90512000D01*
X122318390Y-90512000D01*
X122108804Y-90551178D01*
X121909980Y-90628202D01*
X121909975Y-90628205D01*
X121728699Y-90740446D01*
X121728692Y-90740452D01*
X121571135Y-90884086D01*
X121571131Y-90884089D01*
X121571128Y-90884093D01*
X121571125Y-90884097D01*
X121442635Y-91054243D01*
X121442630Y-91054252D01*
X121347596Y-91245108D01*
X121347595Y-91245111D01*
X121346068Y-91250477D01*
X121289244Y-91450188D01*
X121269571Y-91662500D01*
X120083070Y-91662500D01*
X120123316Y-91624425D01*
X120140176Y-91618220D01*
X120314157Y-91571602D01*
X120512388Y-91479166D01*
X120512391Y-91479165D01*
X120574571Y-91435625D01*
X119911446Y-90772500D01*
X119935028Y-90772500D01*
X120031675Y-90746604D01*
X120118325Y-90696576D01*
X120189076Y-90625825D01*
X120239104Y-90539175D01*
X120265000Y-90442528D01*
X120265000Y-90418946D01*
X120928125Y-91082071D01*
X120971665Y-91019891D01*
X120971666Y-91019888D01*
X121064102Y-90821657D01*
X121120713Y-90610381D01*
X121139775Y-90392503D01*
X121139775Y-90392496D01*
X121120713Y-90174618D01*
X121064102Y-89963342D01*
X120971668Y-89765115D01*
X120928125Y-89702928D01*
X120265000Y-90366053D01*
X120265000Y-90342472D01*
X120239104Y-90245825D01*
X120189076Y-90159175D01*
X120118325Y-90088424D01*
X120031675Y-90038396D01*
X119935028Y-90012500D01*
X119911443Y-90012500D01*
X120574570Y-89349373D01*
X120512386Y-89305832D01*
X120314157Y-89213397D01*
X120102881Y-89156786D01*
X119885003Y-89137725D01*
X119884997Y-89137725D01*
X119667118Y-89156786D01*
X119455837Y-89213398D01*
X119257622Y-89305827D01*
X119257611Y-89305834D01*
X119195428Y-89349373D01*
X119858555Y-90012500D01*
X119834972Y-90012500D01*
X119738325Y-90038396D01*
X119651675Y-90088424D01*
X119580924Y-90159175D01*
X119530896Y-90245825D01*
X119505000Y-90342472D01*
X119505000Y-90366055D01*
X118841873Y-89702928D01*
X118798334Y-89765111D01*
X118798327Y-89765122D01*
X118705898Y-89963337D01*
X118649286Y-90174618D01*
X118630225Y-90392496D01*
X118630225Y-90392503D01*
X118649286Y-90610381D01*
X118705897Y-90821657D01*
X118798332Y-91019886D01*
X118841873Y-91082070D01*
X119505000Y-90418943D01*
X119505000Y-90442528D01*
X119530896Y-90539175D01*
X119580924Y-90625825D01*
X119651675Y-90696576D01*
X119738325Y-90746604D01*
X119834972Y-90772500D01*
X119858554Y-90772500D01*
X119195428Y-91435625D01*
X119257610Y-91479166D01*
X119455842Y-91571602D01*
X119629823Y-91618220D01*
X119681137Y-91651544D01*
X119703064Y-91708665D01*
X119687229Y-91767766D01*
X119639679Y-91806271D01*
X119622392Y-91811161D01*
X119568803Y-91821178D01*
X119369980Y-91898202D01*
X119369975Y-91898205D01*
X119188699Y-92010446D01*
X119188692Y-92010452D01*
X119031135Y-92154086D01*
X119031131Y-92154089D01*
X119031128Y-92154093D01*
X119031125Y-92154097D01*
X118902635Y-92324243D01*
X118902630Y-92324252D01*
X118807596Y-92515108D01*
X118749244Y-92720188D01*
X118729571Y-92932500D01*
X118749244Y-93144811D01*
X118764947Y-93200000D01*
X118807595Y-93349889D01*
X118896855Y-93529150D01*
X118899207Y-93533872D01*
X118908220Y-93594390D01*
X118879940Y-93648648D01*
X118825169Y-93675920D01*
X118810586Y-93677000D01*
X110666683Y-93677000D01*
X110528316Y-93677000D01*
X110505902Y-93683006D01*
X110394664Y-93712812D01*
X110283023Y-93777268D01*
X110274832Y-93781997D01*
X110176994Y-93879834D01*
X110176995Y-93879835D01*
X110176993Y-93879837D01*
X110176992Y-93879837D01*
X109889787Y-94167041D01*
X109835271Y-94194818D01*
X109808705Y-94195415D01*
X109800003Y-94194435D01*
X109800001Y-94194435D01*
X109800000Y-94194435D01*
X109710372Y-94204533D01*
X109620742Y-94214632D01*
X109620738Y-94214633D01*
X109450477Y-94274211D01*
X109450476Y-94274211D01*
X109297741Y-94370181D01*
X109170181Y-94497741D01*
X109074211Y-94650476D01*
X109074211Y-94650477D01*
X109014633Y-94820738D01*
X109014632Y-94820742D01*
X108994435Y-95000000D01*
X105375500Y-95000000D01*
X105375500Y-94878712D01*
X105343838Y-94638211D01*
X105281054Y-94403900D01*
X105188224Y-94179788D01*
X105066936Y-93969711D01*
X105013444Y-93899999D01*
X104919270Y-93777268D01*
X104919268Y-93777266D01*
X104919265Y-93777262D01*
X104747738Y-93605735D01*
X104747733Y-93605731D01*
X104747731Y-93605729D01*
X104555292Y-93458066D01*
X104555289Y-93458064D01*
X104345212Y-93336776D01*
X104345208Y-93336774D01*
X104345204Y-93336772D01*
X104121105Y-93243948D01*
X104121104Y-93243947D01*
X104121100Y-93243946D01*
X103886789Y-93181162D01*
X103886786Y-93181161D01*
X103886784Y-93181161D01*
X103646289Y-93149500D01*
X103646288Y-93149500D01*
X103403712Y-93149500D01*
X103403710Y-93149500D01*
X103163218Y-93181161D01*
X103163213Y-93181161D01*
X102928907Y-93243944D01*
X102928894Y-93243948D01*
X102704795Y-93336772D01*
X102494707Y-93458066D01*
X102302268Y-93605729D01*
X102130729Y-93777268D01*
X101983066Y-93969707D01*
X101907795Y-94100080D01*
X101869136Y-94167041D01*
X101861772Y-94179795D01*
X101768948Y-94403894D01*
X101768944Y-94403907D01*
X101706161Y-94638213D01*
X101706161Y-94638218D01*
X101674500Y-94878710D01*
X90975051Y-94878710D01*
X93283081Y-92570680D01*
X93362559Y-92433020D01*
X93375327Y-92385368D01*
X93403700Y-92279479D01*
X93403700Y-92169385D01*
X93422607Y-92111194D01*
X93426455Y-92106687D01*
X93426352Y-92106605D01*
X93429810Y-92102267D01*
X93429816Y-92102262D01*
X93525789Y-91949522D01*
X93580056Y-91794435D01*
X93585366Y-91779261D01*
X93585367Y-91779257D01*
X93585368Y-91779255D01*
X93595566Y-91688737D01*
X93620870Y-91633031D01*
X93623918Y-91629841D01*
X96283081Y-88970680D01*
X97224265Y-88029496D01*
X97278782Y-88001719D01*
X97294269Y-88000500D01*
X101369834Y-88000500D01*
X101428025Y-88019407D01*
X101439838Y-88029496D01*
X102781023Y-89370680D01*
X102781022Y-89370680D01*
X102893422Y-89483079D01*
X102893427Y-89483083D01*
X103031080Y-89562557D01*
X103031078Y-89562557D01*
X103031082Y-89562558D01*
X103031084Y-89562559D01*
X103184624Y-89603700D01*
X108030615Y-89603700D01*
X108088806Y-89622607D01*
X108093312Y-89626455D01*
X108093395Y-89626352D01*
X108097741Y-89629818D01*
X108239044Y-89718605D01*
X108250478Y-89725789D01*
X108318303Y-89749522D01*
X108420738Y-89785366D01*
X108420742Y-89785367D01*
X108420745Y-89785368D01*
X108600000Y-89805565D01*
X108779255Y-89785368D01*
X108949522Y-89725789D01*
X109102262Y-89629816D01*
X109229816Y-89502262D01*
X109325789Y-89349522D01*
X109385368Y-89179255D01*
X109405428Y-89001212D01*
X126924500Y-89001212D01*
X126924500Y-89243788D01*
X126955221Y-89477145D01*
X126956161Y-89484281D01*
X126956161Y-89484286D01*
X127018944Y-89718592D01*
X127018948Y-89718605D01*
X127111772Y-89942704D01*
X127111774Y-89942708D01*
X127111776Y-89942712D01*
X127201282Y-90097741D01*
X127233066Y-90152792D01*
X127380729Y-90345231D01*
X127380731Y-90345233D01*
X127380735Y-90345238D01*
X127552262Y-90516765D01*
X127552266Y-90516768D01*
X127552268Y-90516770D01*
X127581467Y-90539175D01*
X127744711Y-90664436D01*
X127954788Y-90785724D01*
X128178900Y-90878554D01*
X128413211Y-90941338D01*
X128653712Y-90973000D01*
X128653713Y-90973000D01*
X128896287Y-90973000D01*
X128896288Y-90973000D01*
X129136789Y-90941338D01*
X129371100Y-90878554D01*
X129595212Y-90785724D01*
X129805289Y-90664436D01*
X129997738Y-90516765D01*
X130169265Y-90345238D01*
X130316936Y-90152789D01*
X130438224Y-89942712D01*
X130531054Y-89718600D01*
X130593838Y-89484289D01*
X130625500Y-89243788D01*
X130625500Y-89001212D01*
X130593838Y-88760711D01*
X130531054Y-88526400D01*
X130438224Y-88302288D01*
X130316936Y-88092211D01*
X130246564Y-88000500D01*
X130169270Y-87899768D01*
X130169268Y-87899766D01*
X130169265Y-87899762D01*
X129997738Y-87728235D01*
X129997733Y-87728231D01*
X129997731Y-87728229D01*
X129805292Y-87580566D01*
X129805289Y-87580564D01*
X129595212Y-87459276D01*
X129595208Y-87459274D01*
X129595204Y-87459272D01*
X129371105Y-87366448D01*
X129371104Y-87366447D01*
X129371100Y-87366446D01*
X129136789Y-87303662D01*
X129136786Y-87303661D01*
X129136784Y-87303661D01*
X128896289Y-87272000D01*
X128896288Y-87272000D01*
X128653712Y-87272000D01*
X128653710Y-87272000D01*
X128413218Y-87303661D01*
X128413213Y-87303661D01*
X128178907Y-87366444D01*
X128178894Y-87366448D01*
X127954795Y-87459272D01*
X127744707Y-87580566D01*
X127552268Y-87728229D01*
X127380729Y-87899768D01*
X127233066Y-88092207D01*
X127111772Y-88302295D01*
X127018948Y-88526394D01*
X127018944Y-88526407D01*
X126956161Y-88760713D01*
X126956161Y-88760718D01*
X126924660Y-89000000D01*
X126924500Y-89001212D01*
X109405428Y-89001212D01*
X109405565Y-89000000D01*
X109385368Y-88820745D01*
X109325789Y-88650478D01*
X109297162Y-88604919D01*
X109229818Y-88497741D01*
X109229817Y-88497740D01*
X109229816Y-88497738D01*
X109102262Y-88370184D01*
X109102259Y-88370182D01*
X109102258Y-88370181D01*
X108949523Y-88274211D01*
X108779261Y-88214633D01*
X108779257Y-88214632D01*
X108600000Y-88194435D01*
X108420742Y-88214632D01*
X108420738Y-88214633D01*
X108265291Y-88269027D01*
X108204121Y-88270400D01*
X108153826Y-88235556D01*
X108133618Y-88177804D01*
X108151215Y-88119204D01*
X108162584Y-88105584D01*
X111132236Y-85135931D01*
X111186751Y-85108156D01*
X111234383Y-85112301D01*
X111380019Y-85162298D01*
X111608951Y-85200500D01*
X111841049Y-85200500D01*
X112069981Y-85162298D01*
X112289503Y-85086936D01*
X112406519Y-85023610D01*
X116729942Y-85023610D01*
X116776768Y-85060054D01*
X116995388Y-85178366D01*
X117230513Y-85259084D01*
X117475706Y-85300000D01*
X117724294Y-85300000D01*
X117969486Y-85259084D01*
X118204611Y-85178366D01*
X118423234Y-85060053D01*
X118423237Y-85060051D01*
X118470056Y-85023610D01*
X117600000Y-84153553D01*
X116729942Y-85023610D01*
X112406519Y-85023610D01*
X112493626Y-84976470D01*
X112676784Y-84833913D01*
X112833979Y-84663153D01*
X112960924Y-84468849D01*
X113054157Y-84256300D01*
X113111134Y-84031305D01*
X113130300Y-83800000D01*
X116094859Y-83800000D01*
X116115386Y-84047736D01*
X116176412Y-84288719D01*
X116276265Y-84516363D01*
X116276270Y-84516372D01*
X116376563Y-84669881D01*
X117246445Y-83799999D01*
X117953553Y-83799999D01*
X118823435Y-84669881D01*
X118923729Y-84516372D01*
X118923734Y-84516363D01*
X119023587Y-84288719D01*
X119084613Y-84047736D01*
X119105140Y-83800000D01*
X119084613Y-83552263D01*
X119023587Y-83311280D01*
X118923734Y-83083636D01*
X118923729Y-83083627D01*
X118823435Y-82930117D01*
X117953553Y-83799999D01*
X117246445Y-83799999D01*
X116376564Y-82930118D01*
X116276268Y-83083632D01*
X116176412Y-83311283D01*
X116115386Y-83552263D01*
X116094859Y-83800000D01*
X113130300Y-83800000D01*
X113111134Y-83568695D01*
X113054157Y-83343700D01*
X112960924Y-83131151D01*
X112833979Y-82936847D01*
X112676784Y-82766087D01*
X112578755Y-82689788D01*
X112493629Y-82623532D01*
X112493626Y-82623530D01*
X112406516Y-82576388D01*
X116729942Y-82576388D01*
X117599999Y-83446445D01*
X118470056Y-82576388D01*
X118423232Y-82539945D01*
X118204611Y-82421633D01*
X117969486Y-82340915D01*
X117724294Y-82300000D01*
X117475706Y-82300000D01*
X117230513Y-82340915D01*
X116995388Y-82421633D01*
X116776765Y-82539947D01*
X116776764Y-82539947D01*
X116729942Y-82576388D01*
X112406516Y-82576388D01*
X112289506Y-82513065D01*
X112273221Y-82507474D01*
X112069981Y-82437702D01*
X112069978Y-82437701D01*
X112069977Y-82437701D01*
X111841049Y-82399500D01*
X111608951Y-82399500D01*
X111380022Y-82437701D01*
X111160493Y-82513065D01*
X110956373Y-82623530D01*
X110956370Y-82623532D01*
X110773219Y-82766084D01*
X110616020Y-82936848D01*
X110591131Y-82974944D01*
X110489768Y-83130093D01*
X110489075Y-83131153D01*
X110481018Y-83149522D01*
X110410063Y-83311283D01*
X110395843Y-83343701D01*
X110338865Y-83568696D01*
X110319700Y-83800000D01*
X110338865Y-84031303D01*
X110338867Y-84031312D01*
X110382177Y-84202335D01*
X110395842Y-84256298D01*
X110395844Y-84256303D01*
X110408213Y-84284503D01*
X110414272Y-84345388D01*
X110387555Y-84394274D01*
X106936327Y-87845504D01*
X106881810Y-87873281D01*
X106866323Y-87874500D01*
X104102431Y-87874500D01*
X104044240Y-87855593D01*
X104008276Y-87806093D01*
X104004053Y-87786584D01*
X103985368Y-87620745D01*
X103925789Y-87450478D01*
X103907106Y-87420745D01*
X103829818Y-87297741D01*
X103829817Y-87297740D01*
X103829816Y-87297738D01*
X103702262Y-87170184D01*
X103702259Y-87170182D01*
X103702258Y-87170181D01*
X103549523Y-87074211D01*
X103379261Y-87014633D01*
X103379257Y-87014632D01*
X103200000Y-86994435D01*
X103020742Y-87014632D01*
X103020738Y-87014633D01*
X102850477Y-87074211D01*
X102850476Y-87074211D01*
X102697741Y-87170181D01*
X102697738Y-87170183D01*
X102697738Y-87170184D01*
X102570184Y-87297738D01*
X102570182Y-87297740D01*
X102566253Y-87301670D01*
X102565275Y-87300692D01*
X102519593Y-87330836D01*
X102458469Y-87328080D01*
X102423268Y-87305403D01*
X102031582Y-86913718D01*
X101893925Y-86834242D01*
X101893921Y-86834240D01*
X101836911Y-86818964D01*
X101836911Y-86818965D01*
X101740382Y-86793100D01*
X97082679Y-86793100D01*
X96923721Y-86793100D01*
X96843366Y-86814631D01*
X96770175Y-86834242D01*
X96768779Y-86834821D01*
X96767700Y-86834905D01*
X96763912Y-86835921D01*
X96763723Y-86835218D01*
X96707782Y-86839617D01*
X96655615Y-86807644D01*
X96632205Y-86751114D01*
X96631900Y-86743354D01*
X96631900Y-84600000D01*
X97794435Y-84600000D01*
X97814632Y-84779257D01*
X97814633Y-84779261D01*
X97874211Y-84949522D01*
X97874211Y-84949523D01*
X97967341Y-85097738D01*
X97970184Y-85102262D01*
X98097738Y-85229816D01*
X98097740Y-85229817D01*
X98097741Y-85229818D01*
X98250019Y-85325501D01*
X98250478Y-85325789D01*
X98318657Y-85349646D01*
X98420738Y-85385366D01*
X98420742Y-85385367D01*
X98420745Y-85385368D01*
X98600000Y-85405565D01*
X98779255Y-85385368D01*
X98779261Y-85385366D01*
X98934472Y-85331056D01*
X98967170Y-85325500D01*
X99249738Y-85325500D01*
X99249754Y-85325501D01*
X99255817Y-85325501D01*
X99394183Y-85325501D01*
X99499954Y-85297159D01*
X99499955Y-85297159D01*
X99527832Y-85289689D01*
X99527831Y-85289689D01*
X99527836Y-85289688D01*
X99647665Y-85220505D01*
X99732237Y-85135932D01*
X99786751Y-85108156D01*
X99834382Y-85112300D01*
X99980019Y-85162298D01*
X100208951Y-85200500D01*
X100441049Y-85200500D01*
X100669981Y-85162298D01*
X100889503Y-85086936D01*
X101093626Y-84976470D01*
X101276784Y-84833913D01*
X101433979Y-84663153D01*
X101560924Y-84468849D01*
X101591124Y-84400000D01*
X102394435Y-84400000D01*
X102414632Y-84579257D01*
X102414633Y-84579261D01*
X102474211Y-84749522D01*
X102474211Y-84749523D01*
X102570181Y-84902258D01*
X102570184Y-84902262D01*
X102697738Y-85029816D01*
X102697740Y-85029817D01*
X102697741Y-85029818D01*
X102813028Y-85102258D01*
X102850478Y-85125789D01*
X102879468Y-85135933D01*
X103020738Y-85185366D01*
X103020742Y-85185367D01*
X103020745Y-85185368D01*
X103200000Y-85205565D01*
X103379255Y-85185368D01*
X103549522Y-85125789D01*
X103702262Y-85029816D01*
X103829816Y-84902262D01*
X103925789Y-84749522D01*
X103985368Y-84579255D01*
X104004053Y-84413414D01*
X104029357Y-84357708D01*
X104082573Y-84327512D01*
X104102431Y-84325500D01*
X104661517Y-84325500D01*
X104719708Y-84344407D01*
X104752178Y-84384731D01*
X104789076Y-84468849D01*
X104916021Y-84663153D01*
X105073216Y-84833913D01*
X105256374Y-84976470D01*
X105369417Y-85037646D01*
X105451320Y-85081970D01*
X105460497Y-85086936D01*
X105680019Y-85162298D01*
X105908951Y-85200500D01*
X106141049Y-85200500D01*
X106369981Y-85162298D01*
X106589503Y-85086936D01*
X106793626Y-84976470D01*
X106976784Y-84833913D01*
X107133979Y-84663153D01*
X107260924Y-84468849D01*
X107354157Y-84256300D01*
X107411134Y-84031305D01*
X107430300Y-83800000D01*
X107411134Y-83568695D01*
X107354157Y-83343700D01*
X107260924Y-83131151D01*
X107133979Y-82936847D01*
X106976784Y-82766087D01*
X106878755Y-82689788D01*
X106793629Y-82623532D01*
X106793626Y-82623530D01*
X106589506Y-82513065D01*
X106573221Y-82507474D01*
X106369981Y-82437702D01*
X106369978Y-82437701D01*
X106369977Y-82437701D01*
X106141049Y-82399500D01*
X105908951Y-82399500D01*
X105680022Y-82437701D01*
X105460493Y-82513065D01*
X105256373Y-82623530D01*
X105256370Y-82623532D01*
X105073219Y-82766084D01*
X104916020Y-82936848D01*
X104891131Y-82974944D01*
X104789768Y-83130093D01*
X104789075Y-83131153D01*
X104752179Y-83215268D01*
X104711489Y-83260962D01*
X104661517Y-83274500D01*
X103730817Y-83274500D01*
X103597164Y-83310312D01*
X103539333Y-83343701D01*
X103477332Y-83379497D01*
X103379494Y-83477334D01*
X103379495Y-83477335D01*
X103379493Y-83477337D01*
X103379492Y-83477337D01*
X103289787Y-83567041D01*
X103235270Y-83594818D01*
X103208705Y-83595415D01*
X103200003Y-83594435D01*
X103200001Y-83594435D01*
X103200000Y-83594435D01*
X103110372Y-83604533D01*
X103020742Y-83614632D01*
X103020738Y-83614633D01*
X102850477Y-83674211D01*
X102850476Y-83674211D01*
X102697741Y-83770181D01*
X102570181Y-83897741D01*
X102474211Y-84050476D01*
X102474211Y-84050477D01*
X102414633Y-84220738D01*
X102414632Y-84220742D01*
X102394435Y-84400000D01*
X101591124Y-84400000D01*
X101654157Y-84256300D01*
X101711134Y-84031305D01*
X101730300Y-83800000D01*
X101711134Y-83568695D01*
X101654157Y-83343700D01*
X101560924Y-83131151D01*
X101433979Y-82936847D01*
X101276784Y-82766087D01*
X101178755Y-82689788D01*
X101093629Y-82623532D01*
X101093626Y-82623530D01*
X100889506Y-82513065D01*
X100873221Y-82507474D01*
X100669981Y-82437702D01*
X100669978Y-82437701D01*
X100669977Y-82437701D01*
X100441049Y-82399500D01*
X100208951Y-82399500D01*
X99980022Y-82437701D01*
X99760493Y-82513065D01*
X99556373Y-82623530D01*
X99556370Y-82623532D01*
X99373219Y-82766084D01*
X99216020Y-82936848D01*
X99191131Y-82974944D01*
X99089768Y-83130093D01*
X99089075Y-83131153D01*
X99081018Y-83149522D01*
X99010063Y-83311283D01*
X98995843Y-83343701D01*
X98938865Y-83568696D01*
X98925132Y-83734442D01*
X98901484Y-83790873D01*
X98849183Y-83822626D01*
X98793773Y-83819712D01*
X98779256Y-83814632D01*
X98779257Y-83814632D01*
X98600000Y-83794435D01*
X98420742Y-83814632D01*
X98420738Y-83814633D01*
X98250477Y-83874211D01*
X98250476Y-83874211D01*
X98097741Y-83970181D01*
X97970181Y-84097741D01*
X97874211Y-84250476D01*
X97874211Y-84250477D01*
X97814633Y-84420738D01*
X97814632Y-84420742D01*
X97794435Y-84600000D01*
X96631900Y-84600000D01*
X96631900Y-82748722D01*
X96597609Y-82620745D01*
X96597609Y-82620744D01*
X96592050Y-82600000D01*
X96590759Y-82595180D01*
X96511281Y-82457520D01*
X95967480Y-81913719D01*
X95829820Y-81834241D01*
X95829814Y-81834238D01*
X95797373Y-81825547D01*
X95797372Y-81825546D01*
X95797372Y-81825547D01*
X95676279Y-81793100D01*
X95676278Y-81793100D01*
X92094589Y-81793100D01*
X92036398Y-81774193D01*
X92000434Y-81724693D01*
X91996211Y-81683016D01*
X92005565Y-81600000D01*
X91985368Y-81420745D01*
X91925789Y-81250478D01*
X91881187Y-81179495D01*
X91829818Y-81097741D01*
X91829817Y-81097740D01*
X91829816Y-81097738D01*
X91702262Y-80970184D01*
X91702259Y-80970182D01*
X91702258Y-80970181D01*
X91549523Y-80874211D01*
X91379261Y-80814633D01*
X91379257Y-80814632D01*
X91200000Y-80794435D01*
X91020742Y-80814632D01*
X91020738Y-80814633D01*
X90850477Y-80874211D01*
X90850476Y-80874211D01*
X90697741Y-80970181D01*
X90697736Y-80970185D01*
X90622417Y-81045504D01*
X90567900Y-81073281D01*
X90552414Y-81074500D01*
X85075262Y-81074500D01*
X85075246Y-81074499D01*
X85069183Y-81074499D01*
X84930817Y-81074499D01*
X84886267Y-81086435D01*
X84825409Y-81102742D01*
X84825408Y-81102743D01*
X84797164Y-81110312D01*
X84797163Y-81110312D01*
X84797161Y-81110313D01*
X84797156Y-81110315D01*
X84677335Y-81179494D01*
X84579494Y-81277334D01*
X84579495Y-81277335D01*
X84579493Y-81277337D01*
X82289788Y-83567041D01*
X82235271Y-83594818D01*
X82208705Y-83595415D01*
X82200003Y-83594435D01*
X82200001Y-83594435D01*
X82200000Y-83594435D01*
X82110372Y-83604533D01*
X82020742Y-83614632D01*
X82020738Y-83614633D01*
X81850477Y-83674211D01*
X81850476Y-83674211D01*
X81697741Y-83770181D01*
X81570181Y-83897741D01*
X81474211Y-84050476D01*
X81474211Y-84050477D01*
X81414633Y-84220738D01*
X81414632Y-84220742D01*
X81394435Y-84400000D01*
X81414632Y-84579257D01*
X81414633Y-84579261D01*
X81474211Y-84749522D01*
X81474211Y-84749523D01*
X81570181Y-84902258D01*
X81570184Y-84902262D01*
X81697738Y-85029816D01*
X81697740Y-85029817D01*
X81697741Y-85029818D01*
X81813028Y-85102258D01*
X81850478Y-85125789D01*
X81879468Y-85135933D01*
X82020738Y-85185366D01*
X82020742Y-85185367D01*
X82020745Y-85185368D01*
X82200000Y-85205565D01*
X82379255Y-85185368D01*
X82549522Y-85125789D01*
X82702262Y-85029816D01*
X82829816Y-84902262D01*
X82925789Y-84749522D01*
X82985368Y-84579255D01*
X83005565Y-84400000D01*
X83004584Y-84391301D01*
X83016853Y-84331363D01*
X83032953Y-84310214D01*
X85188673Y-82154496D01*
X85243190Y-82126719D01*
X85258677Y-82125500D01*
X90503415Y-82125500D01*
X90561606Y-82144407D01*
X90597570Y-82193907D01*
X90597570Y-82255093D01*
X90573420Y-82294501D01*
X90570184Y-82297738D01*
X90570181Y-82297741D01*
X90474211Y-82450476D01*
X90474211Y-82450477D01*
X90414631Y-82620743D01*
X90414631Y-82620746D01*
X90404432Y-82711259D01*
X90379128Y-82766967D01*
X90376059Y-82770178D01*
X90189499Y-82956738D01*
X90134982Y-82984515D01*
X90074550Y-82974944D01*
X90036616Y-82940883D01*
X90033980Y-82936849D01*
X90033979Y-82936847D01*
X89876784Y-82766087D01*
X89778755Y-82689788D01*
X89693629Y-82623532D01*
X89693626Y-82623530D01*
X89489506Y-82513065D01*
X89473221Y-82507474D01*
X89269981Y-82437702D01*
X89269978Y-82437701D01*
X89269977Y-82437701D01*
X89041049Y-82399500D01*
X88808951Y-82399500D01*
X88580022Y-82437701D01*
X88360493Y-82513065D01*
X88156373Y-82623530D01*
X88156370Y-82623532D01*
X87973219Y-82766084D01*
X87816020Y-82936848D01*
X87791131Y-82974944D01*
X87689768Y-83130093D01*
X87689075Y-83131153D01*
X87681018Y-83149522D01*
X87610063Y-83311283D01*
X87595843Y-83343701D01*
X87538865Y-83568696D01*
X87519700Y-83800000D01*
X87538865Y-84031303D01*
X87543721Y-84050477D01*
X87595843Y-84256300D01*
X87689076Y-84468849D01*
X87816021Y-84663153D01*
X87973216Y-84833913D01*
X88156374Y-84976470D01*
X88156378Y-84976472D01*
X88269418Y-85037646D01*
X88311597Y-85081970D01*
X88321300Y-85124714D01*
X88321300Y-85583930D01*
X88302393Y-85642121D01*
X88292304Y-85653934D01*
X87170178Y-86776059D01*
X87115661Y-86803836D01*
X87111259Y-86804432D01*
X87020746Y-86814631D01*
X87020743Y-86814631D01*
X86850477Y-86874211D01*
X86850476Y-86874211D01*
X86697741Y-86970181D01*
X86570181Y-87097741D01*
X86474211Y-87250476D01*
X86474211Y-87250477D01*
X86414633Y-87420738D01*
X86414632Y-87420742D01*
X86394435Y-87600000D01*
X86404510Y-87689416D01*
X86392236Y-87749357D01*
X86347074Y-87790637D01*
X86306132Y-87799500D01*
X81917321Y-87799500D01*
X81763781Y-87840641D01*
X81763780Y-87840641D01*
X81763778Y-87840642D01*
X81707247Y-87873281D01*
X81656048Y-87902841D01*
X81649192Y-87906798D01*
X81626121Y-87920118D01*
X81626119Y-87920120D01*
X79770177Y-89776059D01*
X79715661Y-89803836D01*
X79711259Y-89804432D01*
X79620746Y-89814631D01*
X79620743Y-89814631D01*
X79450477Y-89874211D01*
X79450476Y-89874211D01*
X79297741Y-89970181D01*
X79170181Y-90097741D01*
X79074211Y-90250476D01*
X79074211Y-90250477D01*
X79014631Y-90420743D01*
X79014631Y-90420745D01*
X79004432Y-90511260D01*
X78979128Y-90566968D01*
X78976059Y-90570178D01*
X78516918Y-91029320D01*
X78437442Y-91166977D01*
X78437438Y-91166985D01*
X78432601Y-91185042D01*
X78432601Y-91185044D01*
X78396300Y-91320522D01*
X78396300Y-92430614D01*
X78377393Y-92488805D01*
X78373544Y-92493312D01*
X78373648Y-92493395D01*
X78370181Y-92497741D01*
X78274211Y-92650476D01*
X78274211Y-92650477D01*
X78214633Y-92820738D01*
X78214632Y-92820742D01*
X78194435Y-93000000D01*
X78214632Y-93179257D01*
X78214633Y-93179261D01*
X78274211Y-93349522D01*
X78274211Y-93349523D01*
X78370181Y-93502258D01*
X78370184Y-93502262D01*
X78497738Y-93629816D01*
X78497740Y-93629817D01*
X78497741Y-93629818D01*
X78622537Y-93708233D01*
X78650478Y-93725789D01*
X78718657Y-93749646D01*
X78820738Y-93785366D01*
X78820742Y-93785367D01*
X78820745Y-93785368D01*
X79000000Y-93805565D01*
X79179255Y-93785368D01*
X79179990Y-93785111D01*
X79202403Y-93777268D01*
X79349522Y-93725789D01*
X79502262Y-93629816D01*
X79629816Y-93502262D01*
X79725789Y-93349522D01*
X79750117Y-93279994D01*
X79787180Y-93231317D01*
X79845780Y-93213720D01*
X79896231Y-93228869D01*
X79978324Y-93280452D01*
X80050478Y-93325789D01*
X80118303Y-93349522D01*
X80220738Y-93385366D01*
X80220742Y-93385367D01*
X80220745Y-93385368D01*
X80400000Y-93405565D01*
X80579255Y-93385368D01*
X80749522Y-93325789D01*
X80902262Y-93229816D01*
X81029816Y-93102262D01*
X81125789Y-92949522D01*
X81185368Y-92779255D01*
X81205565Y-92600000D01*
X81204584Y-92591301D01*
X81216853Y-92531363D01*
X81232953Y-92510214D01*
X83788673Y-89954496D01*
X83843190Y-89926719D01*
X83858677Y-89925500D01*
X87975826Y-89925500D01*
X88034017Y-89944407D01*
X88069270Y-89991802D01*
X88074211Y-90005922D01*
X88074211Y-90005923D01*
X88170181Y-90158658D01*
X88170184Y-90158662D01*
X88297738Y-90286216D01*
X88297740Y-90286217D01*
X88297741Y-90286218D01*
X88450474Y-90382187D01*
X88450478Y-90382189D01*
X88479954Y-90392503D01*
X88620738Y-90441766D01*
X88620742Y-90441767D01*
X88620745Y-90441768D01*
X88800000Y-90461965D01*
X88979255Y-90441768D01*
X89149522Y-90382189D01*
X89243195Y-90323329D01*
X89302526Y-90308379D01*
X89359313Y-90331158D01*
X89391866Y-90382965D01*
X89387751Y-90444011D01*
X89365871Y-90477159D01*
X89007803Y-90835227D01*
X88953286Y-90863004D01*
X88905101Y-90858667D01*
X88779261Y-90814633D01*
X88779257Y-90814632D01*
X88600000Y-90794435D01*
X88420742Y-90814632D01*
X88420738Y-90814633D01*
X88250477Y-90874211D01*
X88250476Y-90874211D01*
X88097741Y-90970181D01*
X87970181Y-91097741D01*
X87874211Y-91250476D01*
X87874211Y-91250477D01*
X87814633Y-91420738D01*
X87814632Y-91420742D01*
X87794435Y-91600000D01*
X87814632Y-91779257D01*
X87814633Y-91779261D01*
X87871860Y-91942802D01*
X87873233Y-92003972D01*
X87838390Y-92054266D01*
X87780638Y-92074475D01*
X87778416Y-92074500D01*
X85847586Y-92074500D01*
X85789395Y-92055593D01*
X85777583Y-92045504D01*
X85702263Y-91970185D01*
X85702258Y-91970181D01*
X85549523Y-91874211D01*
X85379261Y-91814633D01*
X85379257Y-91814632D01*
X85200000Y-91794435D01*
X85020742Y-91814632D01*
X85020738Y-91814633D01*
X84850477Y-91874211D01*
X84850476Y-91874211D01*
X84697741Y-91970181D01*
X84570181Y-92097741D01*
X84474211Y-92250476D01*
X84474211Y-92250477D01*
X84414633Y-92420738D01*
X84414632Y-92420742D01*
X84394435Y-92600000D01*
X84414632Y-92779257D01*
X84414633Y-92779261D01*
X84474211Y-92949522D01*
X84474211Y-92949523D01*
X84506370Y-93000703D01*
X84570184Y-93102262D01*
X84697738Y-93229816D01*
X84697740Y-93229817D01*
X84697741Y-93229818D01*
X84778324Y-93280452D01*
X84850478Y-93325789D01*
X84918303Y-93349522D01*
X85020738Y-93385366D01*
X85020742Y-93385367D01*
X85020745Y-93385368D01*
X85200000Y-93405565D01*
X85379255Y-93385368D01*
X85549522Y-93325789D01*
X85702262Y-93229816D01*
X85752823Y-93179255D01*
X85777583Y-93154496D01*
X85832100Y-93126719D01*
X85847586Y-93125500D01*
X88125578Y-93125500D01*
X88183769Y-93144407D01*
X88219022Y-93191802D01*
X88274211Y-93349522D01*
X88274211Y-93349523D01*
X88370181Y-93502258D01*
X88370184Y-93502262D01*
X88497738Y-93629816D01*
X88497740Y-93629817D01*
X88497741Y-93629818D01*
X88622537Y-93708233D01*
X88650478Y-93725789D01*
X88718657Y-93749646D01*
X88820738Y-93785366D01*
X88820742Y-93785367D01*
X88820745Y-93785368D01*
X89000000Y-93805565D01*
X89179255Y-93785368D01*
X89179990Y-93785111D01*
X89202403Y-93777268D01*
X89349522Y-93725789D01*
X89502262Y-93629816D01*
X89629816Y-93502262D01*
X89725789Y-93349522D01*
X89785368Y-93179255D01*
X89805565Y-93000000D01*
X89785368Y-92820745D01*
X89778108Y-92799998D01*
X89750182Y-92720190D01*
X89725789Y-92650478D01*
X89709568Y-92624663D01*
X89629818Y-92497741D01*
X89629817Y-92497740D01*
X89629816Y-92497738D01*
X89502262Y-92370184D01*
X89502259Y-92370182D01*
X89502258Y-92370181D01*
X89386596Y-92297506D01*
X89347384Y-92250537D01*
X89343268Y-92189490D01*
X89375820Y-92137683D01*
X89389757Y-92127949D01*
X89467473Y-92083080D01*
X92631477Y-88919076D01*
X92631476Y-88919076D01*
X95108080Y-86442474D01*
X95174266Y-86327836D01*
X95187559Y-86304812D01*
X95228700Y-86151272D01*
X95228700Y-86151269D01*
X95229873Y-86146892D01*
X95263197Y-86095578D01*
X95320319Y-86073651D01*
X95379419Y-86089487D01*
X95417924Y-86137037D01*
X95424500Y-86172515D01*
X95424500Y-88080730D01*
X95405593Y-88138921D01*
X95395504Y-88150734D01*
X92770178Y-90776059D01*
X92715661Y-90803836D01*
X92711259Y-90804432D01*
X92620746Y-90814631D01*
X92620743Y-90814631D01*
X92450477Y-90874211D01*
X92450476Y-90874211D01*
X92297741Y-90970181D01*
X92170181Y-91097741D01*
X92074211Y-91250476D01*
X92074211Y-91250477D01*
X92014633Y-91420738D01*
X92014632Y-91420742D01*
X91994435Y-91600000D01*
X92014632Y-91779257D01*
X92014633Y-91779261D01*
X92074211Y-91949522D01*
X92074215Y-91949531D01*
X92079479Y-91957909D01*
X92094428Y-92017240D01*
X92071647Y-92074026D01*
X92065656Y-92080581D01*
X85975735Y-98170504D01*
X85921218Y-98198281D01*
X85905731Y-98199500D01*
X82894269Y-98199500D01*
X82836078Y-98180593D01*
X82824265Y-98170504D01*
X80623940Y-95970179D01*
X80596163Y-95915662D01*
X80595566Y-95911259D01*
X80593818Y-95895742D01*
X80585368Y-95820745D01*
X80585265Y-95820452D01*
X80552141Y-95725788D01*
X80525789Y-95650478D01*
X80512807Y-95629818D01*
X80429818Y-95497741D01*
X80429817Y-95497740D01*
X80429816Y-95497738D01*
X80302262Y-95370184D01*
X80302259Y-95370182D01*
X80302258Y-95370181D01*
X80149523Y-95274211D01*
X79979261Y-95214633D01*
X79979257Y-95214632D01*
X79800000Y-95194435D01*
X79620742Y-95214632D01*
X79620738Y-95214633D01*
X79450477Y-95274211D01*
X79450476Y-95274211D01*
X79297741Y-95370181D01*
X79293395Y-95373648D01*
X79291884Y-95371754D01*
X79246102Y-95395081D01*
X79230615Y-95396300D01*
X77720521Y-95396300D01*
X77650896Y-95414956D01*
X77566978Y-95437441D01*
X77566976Y-95437442D01*
X77429322Y-95516917D01*
X76578935Y-96367304D01*
X76524418Y-96395081D01*
X76508931Y-96396300D01*
X74079479Y-96396300D01*
X73920521Y-96396300D01*
X73826551Y-96421479D01*
X73766976Y-96437442D01*
X73629324Y-96516916D01*
X73516916Y-96629324D01*
X73437442Y-96766976D01*
X73428742Y-96799445D01*
X73407007Y-96880564D01*
X73396300Y-96920522D01*
X73396300Y-107952941D01*
X73377393Y-108011132D01*
X73329998Y-108046385D01*
X73250477Y-108074210D01*
X73097741Y-108170181D01*
X72970181Y-108297741D01*
X72874211Y-108450476D01*
X72874211Y-108450477D01*
X72814633Y-108620738D01*
X72814632Y-108620742D01*
X72794435Y-108800000D01*
X56864676Y-108800000D01*
X56868798Y-108795878D01*
X56868799Y-108795875D01*
X57563643Y-108101030D01*
X57618158Y-108073255D01*
X57644727Y-108072659D01*
X57653431Y-108073640D01*
X57832686Y-108053443D01*
X58002953Y-107993864D01*
X58155693Y-107897891D01*
X58283247Y-107770337D01*
X58379220Y-107617597D01*
X58438799Y-107447330D01*
X58458996Y-107268075D01*
X58438799Y-107088820D01*
X58435648Y-107079816D01*
X58411824Y-107011731D01*
X58379220Y-106918553D01*
X58304428Y-106799523D01*
X58283249Y-106765816D01*
X58283248Y-106765815D01*
X58283247Y-106765813D01*
X58155693Y-106638259D01*
X58155690Y-106638257D01*
X58155689Y-106638256D01*
X58002954Y-106542286D01*
X57832692Y-106482708D01*
X57832688Y-106482707D01*
X57653431Y-106462510D01*
X57474173Y-106482707D01*
X57474169Y-106482708D01*
X57303908Y-106542286D01*
X57303907Y-106542286D01*
X57151172Y-106638256D01*
X57023612Y-106765816D01*
X56927642Y-106918551D01*
X56927642Y-106918552D01*
X56868064Y-107088813D01*
X56868063Y-107088817D01*
X56863811Y-107126559D01*
X56848544Y-107262064D01*
X56847866Y-107268078D01*
X56848846Y-107276780D01*
X56836570Y-107336721D01*
X56820472Y-107357862D01*
X56259620Y-107918716D01*
X56205103Y-107946494D01*
X56189616Y-107947713D01*
X53962826Y-107947713D01*
X53904635Y-107928806D01*
X53868671Y-107879306D01*
X53868671Y-107818120D01*
X53880511Y-107793711D01*
X53930921Y-107718267D01*
X53930921Y-107718266D01*
X53931479Y-107716919D01*
X53987140Y-107582542D01*
X54015800Y-107438455D01*
X54015800Y-107291545D01*
X53987140Y-107147458D01*
X53939117Y-107031520D01*
X53930921Y-107011733D01*
X53930921Y-107011732D01*
X53910585Y-106981298D01*
X53849301Y-106889580D01*
X53745420Y-106785699D01*
X53623269Y-106704080D01*
X53623268Y-106704079D01*
X53623266Y-106704078D01*
X53487542Y-106647860D01*
X53343457Y-106619200D01*
X53343455Y-106619200D01*
X53196545Y-106619200D01*
X53196542Y-106619200D01*
X53052458Y-106647860D01*
X53052456Y-106647860D01*
X52923208Y-106701396D01*
X52862211Y-106706196D01*
X52810042Y-106674227D01*
X52786945Y-106621017D01*
X52779187Y-106552156D01*
X52775733Y-106542286D01*
X52754886Y-106482707D01*
X52720077Y-106383229D01*
X52708451Y-106364727D01*
X52621901Y-106226983D01*
X52623052Y-106226259D01*
X52603800Y-106174954D01*
X52603700Y-106170516D01*
X52603700Y-106169385D01*
X52622607Y-106111194D01*
X52626455Y-106106687D01*
X52626352Y-106106605D01*
X52629810Y-106102267D01*
X52629816Y-106102262D01*
X52725789Y-105949522D01*
X52785368Y-105779255D01*
X52805565Y-105600000D01*
X52785368Y-105420745D01*
X52725789Y-105250478D01*
X52681040Y-105179261D01*
X52629818Y-105097741D01*
X52629817Y-105097740D01*
X52629816Y-105097738D01*
X52502262Y-104970184D01*
X52502259Y-104970182D01*
X52502258Y-104970181D01*
X52349523Y-104874211D01*
X52179261Y-104814633D01*
X52179257Y-104814632D01*
X52000000Y-104794435D01*
X51820742Y-104814632D01*
X51820738Y-104814633D01*
X51650477Y-104874211D01*
X51650476Y-104874211D01*
X51497741Y-104970181D01*
X51370181Y-105097741D01*
X51274211Y-105250476D01*
X51274211Y-105250477D01*
X51214633Y-105420738D01*
X51214632Y-105420742D01*
X51194435Y-105600000D01*
X51214632Y-105779257D01*
X51214634Y-105779265D01*
X51216941Y-105785858D01*
X51218311Y-105847028D01*
X51183464Y-105897320D01*
X51125711Y-105917525D01*
X51083228Y-105908991D01*
X51007692Y-105875360D01*
X51007686Y-105875358D01*
X50823929Y-105836300D01*
X50636071Y-105836300D01*
X50452313Y-105875358D01*
X50452303Y-105875361D01*
X50297733Y-105944179D01*
X50297733Y-105944180D01*
X50914549Y-106560997D01*
X50942326Y-106615513D01*
X50932755Y-106675945D01*
X50889490Y-106719210D01*
X50844545Y-106730000D01*
X50417455Y-106730000D01*
X50359264Y-106711093D01*
X50347451Y-106701004D01*
X50268835Y-106622388D01*
X50241058Y-106567871D01*
X50240464Y-106563491D01*
X50239187Y-106552156D01*
X50235733Y-106542286D01*
X50214886Y-106482707D01*
X50180077Y-106383229D01*
X50168451Y-106364727D01*
X50084861Y-106231694D01*
X50084857Y-106231689D01*
X50013552Y-106160383D01*
X49987936Y-106110107D01*
X49987180Y-106110310D01*
X49986226Y-106106752D01*
X49985775Y-106105866D01*
X49985522Y-106104123D01*
X49985501Y-106104044D01*
X49985501Y-106104042D01*
X49949689Y-105970390D01*
X49949687Y-105970387D01*
X49949687Y-105970385D01*
X49880508Y-105850564D01*
X49880506Y-105850562D01*
X49880505Y-105850560D01*
X49185981Y-105156037D01*
X49185980Y-105156035D01*
X49088140Y-105058195D01*
X49084858Y-105056300D01*
X48968312Y-104989012D01*
X48968314Y-104989012D01*
X48953529Y-104985050D01*
X48940066Y-104981443D01*
X48834658Y-104953199D01*
X48696292Y-104953199D01*
X48690229Y-104953199D01*
X48690213Y-104953200D01*
X48394200Y-104953200D01*
X48336009Y-104934293D01*
X48300045Y-104884793D01*
X48295200Y-104854200D01*
X48295200Y-102727024D01*
X48314107Y-102668833D01*
X48363607Y-102632869D01*
X48424793Y-102632869D01*
X48426855Y-102633565D01*
X48491596Y-102656219D01*
X48670851Y-102676416D01*
X48850106Y-102656219D01*
X49020373Y-102596640D01*
X49173113Y-102500667D01*
X49300667Y-102373113D01*
X49396640Y-102220373D01*
X49456219Y-102050106D01*
X49476416Y-101870851D01*
X49461086Y-101734794D01*
X49473360Y-101674854D01*
X49489461Y-101653707D01*
X50113674Y-101029496D01*
X50168190Y-101001719D01*
X50183677Y-101000500D01*
X57721323Y-101000500D01*
X57779514Y-101019407D01*
X57791327Y-101029496D01*
X58547676Y-101785845D01*
X58575453Y-101840362D01*
X58565882Y-101900794D01*
X58552492Y-101920679D01*
X58527113Y-101949968D01*
X58527104Y-101949980D01*
X58449383Y-102070917D01*
X58449379Y-102070925D01*
X58401430Y-102175919D01*
X58360925Y-102313867D01*
X58360924Y-102313872D01*
X58344500Y-102428105D01*
X58344500Y-103050001D01*
X58361849Y-103159535D01*
X58361849Y-103190510D01*
X58349500Y-103268477D01*
X58349500Y-104331521D01*
X58361849Y-104409488D01*
X58361849Y-104440460D01*
X58353847Y-104490986D01*
X58326070Y-104545503D01*
X58271554Y-104573281D01*
X58256066Y-104574500D01*
X57532765Y-104574500D01*
X57474574Y-104555593D01*
X57448940Y-104528172D01*
X57429820Y-104497743D01*
X57429817Y-104497740D01*
X57429816Y-104497738D01*
X57302262Y-104370184D01*
X57302259Y-104370182D01*
X57302258Y-104370181D01*
X57149523Y-104274211D01*
X56979261Y-104214633D01*
X56979257Y-104214632D01*
X56800000Y-104194435D01*
X56620742Y-104214632D01*
X56620738Y-104214633D01*
X56450477Y-104274211D01*
X56450476Y-104274211D01*
X56297741Y-104370181D01*
X56170181Y-104497741D01*
X56074211Y-104650476D01*
X56074211Y-104650477D01*
X56014633Y-104820738D01*
X56014632Y-104820742D01*
X55994435Y-105000000D01*
X56014632Y-105179257D01*
X56014633Y-105179261D01*
X56074211Y-105349522D01*
X56074211Y-105349523D01*
X56145610Y-105463153D01*
X56170184Y-105502262D01*
X56297738Y-105629816D01*
X56297740Y-105629817D01*
X56297741Y-105629818D01*
X56413028Y-105702258D01*
X56450478Y-105725789D01*
X56483249Y-105737256D01*
X56620738Y-105785366D01*
X56620742Y-105785367D01*
X56620745Y-105785368D01*
X56800000Y-105805565D01*
X56979255Y-105785368D01*
X57149522Y-105725789D01*
X57262984Y-105654496D01*
X57284982Y-105640674D01*
X57337653Y-105625500D01*
X58460645Y-105625500D01*
X58518836Y-105644407D01*
X58535464Y-105659668D01*
X58602695Y-105737256D01*
X58602702Y-105737262D01*
X58602704Y-105737264D01*
X58711350Y-105831406D01*
X58711363Y-105831415D01*
X58808438Y-105893801D01*
X58808442Y-105893803D01*
X58808448Y-105893807D01*
X58939233Y-105953535D01*
X59049976Y-105986053D01*
X59129039Y-105997420D01*
X59192287Y-106006515D01*
X59192291Y-106006515D01*
X59307710Y-106006515D01*
X59307752Y-106006509D01*
X59321849Y-106005500D01*
X59678151Y-106005500D01*
X59692248Y-106006509D01*
X59692290Y-106006515D01*
X59692292Y-106006515D01*
X59807713Y-106006515D01*
X59864635Y-105998330D01*
X59950024Y-105986053D01*
X60060767Y-105953535D01*
X60191552Y-105893807D01*
X60288644Y-105831410D01*
X60290482Y-105829818D01*
X60324864Y-105800025D01*
X60397305Y-105737256D01*
X60464536Y-105659668D01*
X60516933Y-105628073D01*
X60539355Y-105625500D01*
X60841323Y-105625500D01*
X60899514Y-105644407D01*
X60911327Y-105654496D01*
X61567041Y-106310210D01*
X61594818Y-106364727D01*
X61595415Y-106391292D01*
X61594435Y-106399995D01*
X61594435Y-106399996D01*
X61594435Y-106400000D01*
X61601478Y-106462510D01*
X61614632Y-106579257D01*
X61614633Y-106579261D01*
X61674211Y-106749522D01*
X61674211Y-106749523D01*
X61762215Y-106889580D01*
X61770184Y-106902262D01*
X61897738Y-107029816D01*
X61897740Y-107029817D01*
X61897741Y-107029818D01*
X62030087Y-107112977D01*
X62050478Y-107125789D01*
X62114568Y-107148215D01*
X62220738Y-107185366D01*
X62220742Y-107185367D01*
X62220745Y-107185368D01*
X62400000Y-107205565D01*
X62579255Y-107185368D01*
X62749522Y-107125789D01*
X62902262Y-107029816D01*
X63029816Y-106902262D01*
X63125789Y-106749522D01*
X63185368Y-106579255D01*
X63205565Y-106400000D01*
X63185368Y-106220745D01*
X63181794Y-106210532D01*
X63145457Y-106106687D01*
X63125789Y-106050478D01*
X63114484Y-106032487D01*
X63029818Y-105897741D01*
X63029817Y-105897740D01*
X63029816Y-105897738D01*
X62902262Y-105770184D01*
X62902259Y-105770182D01*
X62902258Y-105770181D01*
X62749523Y-105674211D01*
X62579261Y-105614633D01*
X62579257Y-105614632D01*
X62519503Y-105607899D01*
X62400000Y-105594435D01*
X62399997Y-105594435D01*
X62399996Y-105594435D01*
X62399995Y-105594435D01*
X62391292Y-105595415D01*
X62331351Y-105583138D01*
X62310210Y-105567041D01*
X61520506Y-104777337D01*
X61520505Y-104777335D01*
X61422665Y-104679495D01*
X61302836Y-104610312D01*
X61302835Y-104610311D01*
X61302832Y-104610310D01*
X61264350Y-104599999D01*
X61264349Y-104599999D01*
X61169185Y-104574499D01*
X61169183Y-104574499D01*
X61030817Y-104574499D01*
X61024754Y-104574499D01*
X61024738Y-104574500D01*
X60743934Y-104574500D01*
X60685743Y-104555593D01*
X60649779Y-104506093D01*
X60646153Y-104490988D01*
X60638150Y-104440464D01*
X60638169Y-104409367D01*
X60638245Y-104408891D01*
X60666091Y-104354409D01*
X60720642Y-104326700D01*
X60736007Y-104325500D01*
X61555614Y-104325500D01*
X61613805Y-104344407D01*
X61625617Y-104354496D01*
X61665557Y-104394435D01*
X61700938Y-104429816D01*
X61700940Y-104429817D01*
X61700941Y-104429818D01*
X61798292Y-104490988D01*
X61853678Y-104525789D01*
X61921857Y-104549646D01*
X62023938Y-104585366D01*
X62023942Y-104585367D01*
X62023945Y-104585368D01*
X62203200Y-104605565D01*
X62382455Y-104585368D01*
X62552722Y-104525789D01*
X62705462Y-104429816D01*
X62833016Y-104302262D01*
X62928989Y-104149522D01*
X62988568Y-103979255D01*
X63008765Y-103800000D01*
X62988568Y-103620745D01*
X62928989Y-103450478D01*
X62912056Y-103423530D01*
X62833018Y-103297741D01*
X62833017Y-103297740D01*
X62833016Y-103297738D01*
X62705462Y-103170184D01*
X62705459Y-103170182D01*
X62705458Y-103170181D01*
X62552723Y-103074211D01*
X62382461Y-103014633D01*
X62382457Y-103014632D01*
X62203200Y-102994435D01*
X62023942Y-103014632D01*
X62023938Y-103014633D01*
X61853677Y-103074211D01*
X61853676Y-103074211D01*
X61700941Y-103170181D01*
X61700936Y-103170185D01*
X61625617Y-103245504D01*
X61571100Y-103273281D01*
X61555614Y-103274500D01*
X60736006Y-103274500D01*
X60677815Y-103255593D01*
X60641851Y-103206093D01*
X60638208Y-103190877D01*
X60638133Y-103190400D01*
X60638150Y-103159534D01*
X60655500Y-103050001D01*
X60655500Y-102428105D01*
X60639075Y-102313872D01*
X60639075Y-102313869D01*
X60598568Y-102175914D01*
X60550622Y-102070927D01*
X60550616Y-102070917D01*
X60472895Y-101949980D01*
X60472892Y-101949975D01*
X60447506Y-101920679D01*
X60397305Y-101862744D01*
X60385582Y-101852586D01*
X60288649Y-101768593D01*
X60288636Y-101768584D01*
X60191561Y-101706198D01*
X60191548Y-101706191D01*
X60122930Y-101674854D01*
X60060767Y-101646465D01*
X60060765Y-101646464D01*
X60060762Y-101646463D01*
X59950036Y-101613950D01*
X59950028Y-101613948D01*
X59950024Y-101613947D01*
X59950019Y-101613946D01*
X59950018Y-101613946D01*
X59879970Y-101603874D01*
X59825063Y-101576877D01*
X59824056Y-101575886D01*
X58400506Y-100152337D01*
X58400505Y-100152335D01*
X58302665Y-100054495D01*
X58182836Y-99985312D01*
X58182835Y-99985311D01*
X58182832Y-99985310D01*
X58141256Y-99974170D01*
X58141255Y-99974170D01*
X58049185Y-99949499D01*
X58049183Y-99949499D01*
X57910817Y-99949499D01*
X57904754Y-99949499D01*
X57904738Y-99949500D01*
X55992470Y-99949500D01*
X55934279Y-99930593D01*
X55898315Y-99881093D01*
X55898315Y-99819907D01*
X55934279Y-99770407D01*
X55950631Y-99760775D01*
X56137577Y-99673600D01*
X56331073Y-99538113D01*
X56498112Y-99371074D01*
X56569403Y-99269259D01*
X56618268Y-99232436D01*
X56679444Y-99231368D01*
X56729564Y-99266462D01*
X56749485Y-99324313D01*
X56749500Y-99326040D01*
X56749500Y-99381520D01*
X56749501Y-99381523D01*
X56764352Y-99475299D01*
X56764354Y-99475304D01*
X56821950Y-99588342D01*
X56911658Y-99678050D01*
X57024696Y-99735646D01*
X57118481Y-99750500D01*
X58881518Y-99750499D01*
X58881521Y-99750499D01*
X58881522Y-99750498D01*
X58928411Y-99743072D01*
X58975299Y-99735647D01*
X58975299Y-99735646D01*
X58975304Y-99735646D01*
X59088342Y-99678050D01*
X59178050Y-99588342D01*
X59235646Y-99475304D01*
X59250500Y-99381519D01*
X59250499Y-97618482D01*
X59250499Y-97618481D01*
X59250499Y-97618478D01*
X59250498Y-97618476D01*
X59235647Y-97524700D01*
X59235646Y-97524698D01*
X59235646Y-97524696D01*
X59178050Y-97411658D01*
X59088342Y-97321950D01*
X58975304Y-97264354D01*
X58975305Y-97264354D01*
X58881521Y-97249500D01*
X57118478Y-97249500D01*
X57118476Y-97249501D01*
X57024700Y-97264352D01*
X57024695Y-97264354D01*
X56911659Y-97321949D01*
X56821949Y-97411659D01*
X56764354Y-97524695D01*
X56749500Y-97618478D01*
X56749500Y-97673956D01*
X56730593Y-97732147D01*
X56681093Y-97768111D01*
X56619907Y-97768111D01*
X56570407Y-97732147D01*
X56569404Y-97730740D01*
X56498113Y-97628926D01*
X56331073Y-97461886D01*
X56137577Y-97326399D01*
X55923489Y-97226569D01*
X55710000Y-97169364D01*
X55710000Y-98066988D01*
X55652993Y-98034075D01*
X55525826Y-98000000D01*
X55394174Y-98000000D01*
X55267007Y-98034075D01*
X55210000Y-98066988D01*
X55210000Y-97169364D01*
X54996505Y-97226570D01*
X54782432Y-97326394D01*
X54782424Y-97326398D01*
X54588926Y-97461886D01*
X54421886Y-97628926D01*
X54286398Y-97822424D01*
X54286394Y-97822432D01*
X54224831Y-97954454D01*
X54183103Y-97999202D01*
X54123042Y-98010877D01*
X54067589Y-97985019D01*
X54045382Y-97954454D01*
X54007102Y-97872362D01*
X53881598Y-97693123D01*
X53726877Y-97538402D01*
X53726873Y-97538399D01*
X53726872Y-97538398D01*
X53617601Y-97461886D01*
X53547639Y-97412898D01*
X53349330Y-97320425D01*
X53137977Y-97263793D01*
X53137976Y-97263792D01*
X53137969Y-97263791D01*
X52920003Y-97244723D01*
X52919997Y-97244723D01*
X52702030Y-97263791D01*
X52490666Y-97320426D01*
X52292372Y-97412892D01*
X52292364Y-97412896D01*
X52113127Y-97538398D01*
X51958398Y-97693127D01*
X51832896Y-97872364D01*
X51832892Y-97872372D01*
X51739724Y-98072172D01*
X51697996Y-98116920D01*
X51637935Y-98128595D01*
X51582482Y-98102737D01*
X51560276Y-98072172D01*
X51467107Y-97872372D01*
X51467103Y-97872364D01*
X51454119Y-97853821D01*
X51341598Y-97693123D01*
X51186877Y-97538402D01*
X51186873Y-97538399D01*
X51186872Y-97538398D01*
X51077601Y-97461886D01*
X51007639Y-97412898D01*
X50809330Y-97320425D01*
X50597977Y-97263793D01*
X50597976Y-97263792D01*
X50597969Y-97263791D01*
X50380003Y-97244723D01*
X50379997Y-97244723D01*
X50162030Y-97263791D01*
X50159929Y-97264354D01*
X50062796Y-97290381D01*
X50050842Y-97293584D01*
X49989740Y-97290381D01*
X49942190Y-97251876D01*
X49926355Y-97192775D01*
X49948282Y-97135654D01*
X49955209Y-97127959D01*
X50453673Y-96629496D01*
X50508190Y-96601719D01*
X50523677Y-96600500D01*
X53552414Y-96600500D01*
X53610605Y-96619407D01*
X53622417Y-96629496D01*
X53697736Y-96704814D01*
X53697738Y-96704816D01*
X53697740Y-96704817D01*
X53697741Y-96704818D01*
X53842165Y-96795566D01*
X53850478Y-96800789D01*
X53902059Y-96818838D01*
X54020738Y-96860366D01*
X54020742Y-96860367D01*
X54020745Y-96860368D01*
X54200000Y-96880565D01*
X54379255Y-96860368D01*
X54549522Y-96800789D01*
X54702262Y-96704816D01*
X54829816Y-96577262D01*
X54925789Y-96424522D01*
X54985368Y-96254255D01*
X55005565Y-96075000D01*
X54985368Y-95895745D01*
X54925789Y-95725478D01*
X54881187Y-95654495D01*
X54829818Y-95572741D01*
X54829817Y-95572740D01*
X54829816Y-95572738D01*
X54702262Y-95445184D01*
X54702259Y-95445182D01*
X54702258Y-95445181D01*
X54549523Y-95349211D01*
X54379261Y-95289633D01*
X54379257Y-95289632D01*
X54200000Y-95269435D01*
X54020742Y-95289632D01*
X54020738Y-95289633D01*
X53850477Y-95349211D01*
X53850476Y-95349211D01*
X53697741Y-95445181D01*
X53697736Y-95445185D01*
X53622417Y-95520504D01*
X53567900Y-95548281D01*
X53552414Y-95549500D01*
X51228671Y-95549500D01*
X51170480Y-95530593D01*
X51134516Y-95481093D01*
X51134516Y-95419907D01*
X51144845Y-95397829D01*
X51175334Y-95349304D01*
X51204683Y-95265431D01*
X51241749Y-95216750D01*
X51265431Y-95204683D01*
X51349301Y-95175336D01*
X51363107Y-95166660D01*
X51075157Y-94878710D01*
X63149500Y-94878710D01*
X63149500Y-95121289D01*
X63181161Y-95361781D01*
X63181161Y-95361786D01*
X63190409Y-95396300D01*
X63242847Y-95592000D01*
X63243944Y-95596092D01*
X63243948Y-95596105D01*
X63336772Y-95820204D01*
X63336774Y-95820208D01*
X63336776Y-95820212D01*
X63458064Y-96030289D01*
X63458066Y-96030292D01*
X63605729Y-96222731D01*
X63605731Y-96222733D01*
X63605735Y-96222738D01*
X63777262Y-96394265D01*
X63777266Y-96394268D01*
X63777268Y-96394270D01*
X63816695Y-96424523D01*
X63969711Y-96541936D01*
X64179788Y-96663224D01*
X64403900Y-96756054D01*
X64638211Y-96818838D01*
X64878712Y-96850500D01*
X64878713Y-96850500D01*
X65121287Y-96850500D01*
X65121288Y-96850500D01*
X65361789Y-96818838D01*
X65596100Y-96756054D01*
X65820212Y-96663224D01*
X66030289Y-96541936D01*
X66222738Y-96394265D01*
X66394265Y-96222738D01*
X66541936Y-96030289D01*
X66663224Y-95820212D01*
X66756054Y-95596100D01*
X66818838Y-95361789D01*
X66850500Y-95121288D01*
X66850500Y-94878712D01*
X66818838Y-94638211D01*
X66756054Y-94403900D01*
X66663224Y-94179788D01*
X66541936Y-93969711D01*
X66488444Y-93899999D01*
X66394270Y-93777268D01*
X66394268Y-93777266D01*
X66394265Y-93777262D01*
X66222738Y-93605735D01*
X66222733Y-93605731D01*
X66222731Y-93605729D01*
X66030292Y-93458066D01*
X66030289Y-93458064D01*
X65820212Y-93336776D01*
X65820208Y-93336774D01*
X65820204Y-93336772D01*
X65596105Y-93243948D01*
X65596104Y-93243947D01*
X65596100Y-93243946D01*
X65361789Y-93181162D01*
X65361786Y-93181161D01*
X65361784Y-93181161D01*
X65121289Y-93149500D01*
X65121288Y-93149500D01*
X64878712Y-93149500D01*
X64878710Y-93149500D01*
X64638218Y-93181161D01*
X64638213Y-93181161D01*
X64403907Y-93243944D01*
X64403894Y-93243948D01*
X64179795Y-93336772D01*
X63969707Y-93458066D01*
X63777268Y-93605729D01*
X63605729Y-93777268D01*
X63458066Y-93969707D01*
X63382795Y-94100080D01*
X63344136Y-94167041D01*
X63336772Y-94179795D01*
X63243948Y-94403894D01*
X63243944Y-94403907D01*
X63181161Y-94638213D01*
X63181161Y-94638218D01*
X63149500Y-94878710D01*
X51075157Y-94878710D01*
X51000000Y-94803553D01*
X50999999Y-94803553D01*
X50939309Y-94864244D01*
X50939309Y-94864245D01*
X50609683Y-95193871D01*
X50609678Y-95193873D01*
X50450000Y-95353553D01*
X50283052Y-95520502D01*
X50228535Y-95548280D01*
X50213048Y-95549499D01*
X50195817Y-95549499D01*
X50151267Y-95561435D01*
X50090409Y-95577742D01*
X50090408Y-95577743D01*
X50062164Y-95585312D01*
X50062163Y-95585312D01*
X50062161Y-95585313D01*
X50062156Y-95585315D01*
X49942335Y-95654494D01*
X49866640Y-95730188D01*
X49812123Y-95757965D01*
X49751691Y-95748393D01*
X49726633Y-95730187D01*
X49350000Y-95353553D01*
X48986892Y-95716661D01*
X49000692Y-95725333D01*
X49000703Y-95725338D01*
X49170849Y-95784875D01*
X49170862Y-95784878D01*
X49349996Y-95805062D01*
X49350004Y-95805062D01*
X49529137Y-95784878D01*
X49529143Y-95784876D01*
X49554767Y-95775910D01*
X49615937Y-95774536D01*
X49666233Y-95809379D01*
X49686442Y-95867131D01*
X49668846Y-95925731D01*
X49657471Y-95939358D01*
X48315326Y-97281503D01*
X48260809Y-97309280D01*
X48219699Y-97307126D01*
X48072532Y-97267693D01*
X48057977Y-97263793D01*
X48057976Y-97263792D01*
X48057969Y-97263791D01*
X47840003Y-97244723D01*
X47839997Y-97244723D01*
X47622030Y-97263791D01*
X47410666Y-97320426D01*
X47212372Y-97412892D01*
X47212364Y-97412896D01*
X47033127Y-97538398D01*
X46878398Y-97693127D01*
X46752896Y-97872364D01*
X46752892Y-97872372D01*
X46659724Y-98072172D01*
X46617996Y-98116920D01*
X46557935Y-98128595D01*
X46502482Y-98102737D01*
X46480276Y-98072172D01*
X46387107Y-97872372D01*
X46387103Y-97872364D01*
X46374119Y-97853821D01*
X46261598Y-97693123D01*
X46106877Y-97538402D01*
X46106873Y-97538399D01*
X46106872Y-97538398D01*
X45997601Y-97461886D01*
X45927639Y-97412898D01*
X45729330Y-97320425D01*
X45517977Y-97263793D01*
X45517976Y-97263792D01*
X45517969Y-97263791D01*
X45300003Y-97244723D01*
X45299997Y-97244723D01*
X45082030Y-97263791D01*
X45079929Y-97264354D01*
X44870670Y-97320425D01*
X44791339Y-97357418D01*
X44730610Y-97364874D01*
X44677096Y-97335211D01*
X44651238Y-97279758D01*
X44650500Y-97267693D01*
X44650500Y-95166660D01*
X48436891Y-95166660D01*
X48436892Y-95166661D01*
X48450692Y-95175333D01*
X48450697Y-95175336D01*
X48534568Y-95204683D01*
X48583249Y-95241749D01*
X48595315Y-95265430D01*
X48624661Y-95349298D01*
X48624667Y-95349308D01*
X48633337Y-95363106D01*
X48633338Y-95363106D01*
X48996446Y-94999999D01*
X48966610Y-94970163D01*
X49200000Y-94970163D01*
X49200000Y-95029837D01*
X49222836Y-95084968D01*
X49265032Y-95127164D01*
X49320163Y-95150000D01*
X49379837Y-95150000D01*
X49434968Y-95127164D01*
X49477164Y-95084968D01*
X49500000Y-95029837D01*
X49500000Y-95000000D01*
X49703553Y-95000000D01*
X49899999Y-95196445D01*
X50096446Y-94999999D01*
X50066610Y-94970163D01*
X50300000Y-94970163D01*
X50300000Y-95029837D01*
X50322836Y-95084968D01*
X50365032Y-95127164D01*
X50420163Y-95150000D01*
X50479837Y-95150000D01*
X50534968Y-95127164D01*
X50577164Y-95084968D01*
X50600000Y-95029837D01*
X50600000Y-94970163D01*
X50577164Y-94915032D01*
X50534968Y-94872836D01*
X50479837Y-94850000D01*
X50420163Y-94850000D01*
X50365032Y-94872836D01*
X50322836Y-94915032D01*
X50300000Y-94970163D01*
X50066610Y-94970163D01*
X49960696Y-94864249D01*
X49960690Y-94864244D01*
X49900000Y-94803553D01*
X49839310Y-94864244D01*
X49839309Y-94864245D01*
X49703553Y-95000000D01*
X49500000Y-95000000D01*
X49500000Y-94970163D01*
X49477164Y-94915032D01*
X49434968Y-94872836D01*
X49379837Y-94850000D01*
X49320163Y-94850000D01*
X49265032Y-94872836D01*
X49222836Y-94915032D01*
X49200000Y-94970163D01*
X48966610Y-94970163D01*
X48860692Y-94864245D01*
X48799999Y-94803553D01*
X48436891Y-95166660D01*
X44650500Y-95166660D01*
X44650500Y-94933676D01*
X44669407Y-94875485D01*
X44679490Y-94863678D01*
X45093173Y-94449995D01*
X47994938Y-94449995D01*
X47994938Y-94450004D01*
X48015121Y-94629137D01*
X48015124Y-94629150D01*
X48074662Y-94799298D01*
X48074667Y-94799308D01*
X48083337Y-94813106D01*
X48083338Y-94813106D01*
X48446445Y-94450000D01*
X48416608Y-94420163D01*
X48650000Y-94420163D01*
X48650000Y-94479837D01*
X48672836Y-94534968D01*
X48715032Y-94577164D01*
X48770163Y-94600000D01*
X48829837Y-94600000D01*
X48884968Y-94577164D01*
X48927164Y-94534968D01*
X48950000Y-94479837D01*
X48950000Y-94449999D01*
X49153553Y-94449999D01*
X49199644Y-94496089D01*
X49199646Y-94496093D01*
X49350000Y-94646446D01*
X49500356Y-94496091D01*
X49546446Y-94450000D01*
X49546446Y-94449999D01*
X49516610Y-94420163D01*
X49750000Y-94420163D01*
X49750000Y-94479837D01*
X49772836Y-94534968D01*
X49815032Y-94577164D01*
X49870163Y-94600000D01*
X49929837Y-94600000D01*
X49984968Y-94577164D01*
X50027164Y-94534968D01*
X50050000Y-94479837D01*
X50050000Y-94449999D01*
X50253553Y-94449999D01*
X50299644Y-94496089D01*
X50299646Y-94496093D01*
X50450000Y-94646446D01*
X50600356Y-94496091D01*
X50646446Y-94450000D01*
X50646446Y-94449999D01*
X50616610Y-94420163D01*
X50850000Y-94420163D01*
X50850000Y-94479837D01*
X50872836Y-94534968D01*
X50915032Y-94577164D01*
X50970163Y-94600000D01*
X51029837Y-94600000D01*
X51084968Y-94577164D01*
X51127164Y-94534968D01*
X51150000Y-94479837D01*
X51150000Y-94450000D01*
X51353553Y-94450000D01*
X51716660Y-94813106D01*
X51725336Y-94799301D01*
X51784876Y-94629144D01*
X51784878Y-94629137D01*
X51805062Y-94450004D01*
X51805062Y-94449995D01*
X51784878Y-94270862D01*
X51784875Y-94270849D01*
X51725338Y-94100703D01*
X51725333Y-94100692D01*
X51716661Y-94086892D01*
X51353553Y-94450000D01*
X51150000Y-94450000D01*
X51150000Y-94420163D01*
X51127164Y-94365032D01*
X51084968Y-94322836D01*
X51029837Y-94300000D01*
X50970163Y-94300000D01*
X50915032Y-94322836D01*
X50872836Y-94365032D01*
X50850000Y-94420163D01*
X50616610Y-94420163D01*
X50515765Y-94319318D01*
X50515759Y-94319313D01*
X50450000Y-94253553D01*
X50384241Y-94319313D01*
X50384240Y-94319314D01*
X50253553Y-94449999D01*
X50050000Y-94449999D01*
X50050000Y-94420163D01*
X50027164Y-94365032D01*
X49984968Y-94322836D01*
X49929837Y-94300000D01*
X49870163Y-94300000D01*
X49815032Y-94322836D01*
X49772836Y-94365032D01*
X49750000Y-94420163D01*
X49516610Y-94420163D01*
X49415765Y-94319318D01*
X49415759Y-94319313D01*
X49350000Y-94253553D01*
X49284241Y-94319313D01*
X49284240Y-94319314D01*
X49153553Y-94449999D01*
X48950000Y-94449999D01*
X48950000Y-94420163D01*
X48927164Y-94365032D01*
X48884968Y-94322836D01*
X48829837Y-94300000D01*
X48770163Y-94300000D01*
X48715032Y-94322836D01*
X48672836Y-94365032D01*
X48650000Y-94420163D01*
X48416608Y-94420163D01*
X48083337Y-94086892D01*
X48074663Y-94100698D01*
X48015124Y-94270850D01*
X48015121Y-94270862D01*
X47994938Y-94449995D01*
X45093173Y-94449995D01*
X45345246Y-94197922D01*
X45345249Y-94197921D01*
X45443089Y-94100081D01*
X45512272Y-93980252D01*
X45530178Y-93913425D01*
X45533776Y-93899999D01*
X48603553Y-93899999D01*
X48799999Y-94096445D01*
X48950354Y-93946091D01*
X48996446Y-93899999D01*
X48966610Y-93870163D01*
X49200000Y-93870163D01*
X49200000Y-93929837D01*
X49222836Y-93984968D01*
X49265032Y-94027164D01*
X49320163Y-94050000D01*
X49379837Y-94050000D01*
X49434968Y-94027164D01*
X49477164Y-93984968D01*
X49500000Y-93929837D01*
X49500000Y-93899999D01*
X49703553Y-93899999D01*
X49749644Y-93946089D01*
X49749646Y-93946093D01*
X49900000Y-94096446D01*
X50050356Y-93946091D01*
X50096446Y-93900000D01*
X50096446Y-93899999D01*
X50066610Y-93870163D01*
X50300000Y-93870163D01*
X50300000Y-93929837D01*
X50322836Y-93984968D01*
X50365032Y-94027164D01*
X50420163Y-94050000D01*
X50479837Y-94050000D01*
X50534968Y-94027164D01*
X50577164Y-93984968D01*
X50600000Y-93929837D01*
X50600000Y-93899999D01*
X50803553Y-93899999D01*
X50849644Y-93946089D01*
X50849646Y-93946093D01*
X50999999Y-94096445D01*
X51196446Y-93899999D01*
X51000000Y-93703553D01*
X50934241Y-93769313D01*
X50934240Y-93769314D01*
X50803553Y-93899999D01*
X50600000Y-93899999D01*
X50600000Y-93870163D01*
X50577164Y-93815032D01*
X50534968Y-93772836D01*
X50479837Y-93750000D01*
X50420163Y-93750000D01*
X50365032Y-93772836D01*
X50322836Y-93815032D01*
X50300000Y-93870163D01*
X50066610Y-93870163D01*
X49965765Y-93769318D01*
X49965759Y-93769313D01*
X49900000Y-93703553D01*
X49834241Y-93769313D01*
X49834240Y-93769314D01*
X49703553Y-93899999D01*
X49500000Y-93899999D01*
X49500000Y-93870163D01*
X49477164Y-93815032D01*
X49434968Y-93772836D01*
X49379837Y-93750000D01*
X49320163Y-93750000D01*
X49265032Y-93772836D01*
X49222836Y-93815032D01*
X49200000Y-93870163D01*
X48966610Y-93870163D01*
X48865761Y-93769314D01*
X48799999Y-93703553D01*
X48603553Y-93899999D01*
X45533776Y-93899999D01*
X45548084Y-93846600D01*
X45548084Y-93708233D01*
X45548084Y-93349995D01*
X47994938Y-93349995D01*
X47994938Y-93350004D01*
X48015121Y-93529137D01*
X48015124Y-93529150D01*
X48074662Y-93699298D01*
X48074667Y-93699308D01*
X48083337Y-93713106D01*
X48083338Y-93713106D01*
X48446445Y-93350000D01*
X48416608Y-93320163D01*
X48650000Y-93320163D01*
X48650000Y-93379837D01*
X48672836Y-93434968D01*
X48715032Y-93477164D01*
X48770163Y-93500000D01*
X48829837Y-93500000D01*
X48884968Y-93477164D01*
X48927164Y-93434968D01*
X48950000Y-93379837D01*
X48950000Y-93350000D01*
X49153553Y-93350000D01*
X49349999Y-93546446D01*
X49511079Y-93385368D01*
X49546446Y-93350000D01*
X49546446Y-93349999D01*
X49516610Y-93320163D01*
X49750000Y-93320163D01*
X49750000Y-93379837D01*
X49772836Y-93434968D01*
X49815032Y-93477164D01*
X49870163Y-93500000D01*
X49929837Y-93500000D01*
X49984968Y-93477164D01*
X50027164Y-93434968D01*
X50050000Y-93379837D01*
X50050000Y-93350000D01*
X50253553Y-93350000D01*
X50449999Y-93546446D01*
X50611079Y-93385368D01*
X50646446Y-93350000D01*
X50646446Y-93349999D01*
X50616610Y-93320163D01*
X50850000Y-93320163D01*
X50850000Y-93379837D01*
X50872836Y-93434968D01*
X50915032Y-93477164D01*
X50970163Y-93500000D01*
X51029837Y-93500000D01*
X51084968Y-93477164D01*
X51127164Y-93434968D01*
X51150000Y-93379837D01*
X51150000Y-93350000D01*
X51353553Y-93350000D01*
X51716660Y-93713106D01*
X51725336Y-93699301D01*
X51784876Y-93529144D01*
X51784878Y-93529137D01*
X51805062Y-93350004D01*
X51805062Y-93349995D01*
X51784878Y-93170862D01*
X51784875Y-93170849D01*
X51725338Y-93000703D01*
X51725333Y-93000692D01*
X51716661Y-92986892D01*
X51353553Y-93350000D01*
X51150000Y-93350000D01*
X51150000Y-93320163D01*
X51127164Y-93265032D01*
X51084968Y-93222836D01*
X51029837Y-93200000D01*
X50970163Y-93200000D01*
X50915032Y-93222836D01*
X50872836Y-93265032D01*
X50850000Y-93320163D01*
X50616610Y-93320163D01*
X50515765Y-93219318D01*
X50515759Y-93219313D01*
X50450000Y-93153553D01*
X50384241Y-93219313D01*
X50384240Y-93219314D01*
X50253553Y-93350000D01*
X50050000Y-93350000D01*
X50050000Y-93320163D01*
X50027164Y-93265032D01*
X49984968Y-93222836D01*
X49929837Y-93200000D01*
X49870163Y-93200000D01*
X49815032Y-93222836D01*
X49772836Y-93265032D01*
X49750000Y-93320163D01*
X49516610Y-93320163D01*
X49415765Y-93219318D01*
X49415759Y-93219313D01*
X49350000Y-93153553D01*
X49284241Y-93219313D01*
X49284240Y-93219314D01*
X49153553Y-93350000D01*
X48950000Y-93350000D01*
X48950000Y-93320163D01*
X48927164Y-93265032D01*
X48884968Y-93222836D01*
X48829837Y-93200000D01*
X48770163Y-93200000D01*
X48715032Y-93222836D01*
X48672836Y-93265032D01*
X48650000Y-93320163D01*
X48416608Y-93320163D01*
X48083337Y-92986892D01*
X48074663Y-93000698D01*
X48015124Y-93170850D01*
X48015121Y-93170862D01*
X47994938Y-93349995D01*
X45548084Y-93349995D01*
X45548084Y-92633338D01*
X48436892Y-92633338D01*
X48799999Y-92996446D01*
X48948395Y-92848051D01*
X48996445Y-92799998D01*
X48966610Y-92770163D01*
X49200000Y-92770163D01*
X49200000Y-92829837D01*
X49222836Y-92884968D01*
X49265032Y-92927164D01*
X49320163Y-92950000D01*
X49379837Y-92950000D01*
X49434968Y-92927164D01*
X49477164Y-92884968D01*
X49500000Y-92829837D01*
X49500000Y-92799999D01*
X49703553Y-92799999D01*
X49751605Y-92848052D01*
X49899999Y-92996445D01*
X50048394Y-92848051D01*
X50096445Y-92799999D01*
X50066609Y-92770163D01*
X50300000Y-92770163D01*
X50300000Y-92829837D01*
X50322836Y-92884968D01*
X50365032Y-92927164D01*
X50420163Y-92950000D01*
X50479837Y-92950000D01*
X50534968Y-92927164D01*
X50577164Y-92884968D01*
X50600000Y-92829837D01*
X50600000Y-92799999D01*
X50803553Y-92799999D01*
X50851605Y-92848052D01*
X50999999Y-92996446D01*
X51363106Y-92633338D01*
X51363106Y-92633337D01*
X51349308Y-92624667D01*
X51349298Y-92624661D01*
X51265430Y-92595315D01*
X51216750Y-92558250D01*
X51204683Y-92534568D01*
X51175336Y-92450697D01*
X51175333Y-92450692D01*
X51166661Y-92436892D01*
X51166660Y-92436891D01*
X50803553Y-92799999D01*
X50600000Y-92799999D01*
X50600000Y-92770163D01*
X50577164Y-92715032D01*
X50534968Y-92672836D01*
X50479837Y-92650000D01*
X50420163Y-92650000D01*
X50365032Y-92672836D01*
X50322836Y-92715032D01*
X50300000Y-92770163D01*
X50066609Y-92770163D01*
X49899999Y-92603553D01*
X49703553Y-92799999D01*
X49500000Y-92799999D01*
X49500000Y-92770163D01*
X49477164Y-92715032D01*
X49434968Y-92672836D01*
X49379837Y-92650000D01*
X49320163Y-92650000D01*
X49265032Y-92672836D01*
X49222836Y-92715032D01*
X49200000Y-92770163D01*
X48966610Y-92770163D01*
X48633338Y-92436892D01*
X48624663Y-92450698D01*
X48595315Y-92534569D01*
X48558249Y-92583250D01*
X48534569Y-92595315D01*
X48450698Y-92624663D01*
X48436892Y-92633338D01*
X45548084Y-92633338D01*
X45548084Y-92083337D01*
X48986892Y-92083337D01*
X49350000Y-92446445D01*
X49713106Y-92083338D01*
X49713106Y-92083337D01*
X50086892Y-92083337D01*
X50450000Y-92446445D01*
X50813106Y-92083338D01*
X50813106Y-92083337D01*
X50799308Y-92074667D01*
X50799298Y-92074662D01*
X50629150Y-92015124D01*
X50629137Y-92015121D01*
X50450004Y-91994938D01*
X50449996Y-91994938D01*
X50270862Y-92015121D01*
X50270850Y-92015124D01*
X50100698Y-92074663D01*
X50086892Y-92083337D01*
X49713106Y-92083337D01*
X49699308Y-92074667D01*
X49699298Y-92074662D01*
X49529150Y-92015124D01*
X49529137Y-92015121D01*
X49350004Y-91994938D01*
X49349996Y-91994938D01*
X49170862Y-92015121D01*
X49170850Y-92015124D01*
X49000698Y-92074663D01*
X48986892Y-92083337D01*
X45548084Y-92083337D01*
X45548084Y-90287962D01*
X45566991Y-90229771D01*
X45616491Y-90193807D01*
X45658165Y-90189584D01*
X45800000Y-90205565D01*
X45979255Y-90185368D01*
X46149522Y-90125789D01*
X46302262Y-90029816D01*
X46429816Y-89902262D01*
X46525789Y-89749522D01*
X46585368Y-89579255D01*
X46595566Y-89488737D01*
X46620870Y-89433031D01*
X46623941Y-89429819D01*
X47421066Y-88632696D01*
X47475582Y-88604919D01*
X47491069Y-88603700D01*
X59079479Y-88603700D01*
X59200568Y-88571253D01*
X59200571Y-88571253D01*
X59218302Y-88566502D01*
X59233020Y-88562559D01*
X59370680Y-88483081D01*
X61283080Y-86570681D01*
X61337692Y-86476089D01*
X61357061Y-86442542D01*
X61357066Y-86442531D01*
X61357100Y-86442474D01*
X61362559Y-86433019D01*
X61403700Y-86279479D01*
X61403700Y-86169385D01*
X61422607Y-86111194D01*
X61426455Y-86106687D01*
X61426352Y-86106605D01*
X61429810Y-86102267D01*
X61429816Y-86102262D01*
X61525789Y-85949522D01*
X61585368Y-85779255D01*
X61605565Y-85600000D01*
X61585368Y-85420745D01*
X61580056Y-85405565D01*
X61542123Y-85297159D01*
X61525789Y-85250478D01*
X61512807Y-85229818D01*
X61429818Y-85097741D01*
X61429817Y-85097740D01*
X61429816Y-85097738D01*
X61302262Y-84970184D01*
X61302259Y-84970182D01*
X61302258Y-84970181D01*
X61149523Y-84874211D01*
X60979261Y-84814633D01*
X60979257Y-84814632D01*
X60919503Y-84807899D01*
X60800000Y-84794435D01*
X60799998Y-84794435D01*
X60799996Y-84794435D01*
X60799993Y-84794435D01*
X60797968Y-84794663D01*
X60796855Y-84794435D01*
X60794440Y-84794435D01*
X60794440Y-84793940D01*
X60738027Y-84782386D01*
X60696751Y-84737221D01*
X60689905Y-84676419D01*
X60716885Y-84626282D01*
X61910212Y-83432955D01*
X61964727Y-83405180D01*
X61991296Y-83404584D01*
X62000000Y-83405565D01*
X62179255Y-83385368D01*
X62349522Y-83325789D01*
X62502262Y-83229816D01*
X62629816Y-83102262D01*
X62725789Y-82949522D01*
X62785368Y-82779255D01*
X62805565Y-82600000D01*
X62785368Y-82420745D01*
X62725789Y-82250478D01*
X62665479Y-82154496D01*
X62629818Y-82097741D01*
X62629817Y-82097740D01*
X62629816Y-82097738D01*
X62502262Y-81970184D01*
X62502259Y-81970182D01*
X62502258Y-81970181D01*
X62349523Y-81874211D01*
X62179261Y-81814633D01*
X62179257Y-81814632D01*
X62000000Y-81794435D01*
X61820742Y-81814632D01*
X61820738Y-81814633D01*
X61650477Y-81874211D01*
X61650476Y-81874211D01*
X61497741Y-81970181D01*
X61370181Y-82097741D01*
X61274211Y-82250476D01*
X61274211Y-82250477D01*
X61214633Y-82420738D01*
X61214632Y-82420742D01*
X61212721Y-82437702D01*
X61194979Y-82595179D01*
X61194435Y-82600003D01*
X61195415Y-82608705D01*
X61183139Y-82668646D01*
X61167041Y-82689788D01*
X59752337Y-84104493D01*
X59752335Y-84104495D01*
X59752334Y-84104494D01*
X59654494Y-84202335D01*
X59585315Y-84322156D01*
X59585313Y-84322161D01*
X59585312Y-84322163D01*
X59585312Y-84322164D01*
X59577743Y-84350408D01*
X59549499Y-84455817D01*
X59549499Y-84455818D01*
X59549499Y-84602157D01*
X59549500Y-84602170D01*
X59549500Y-85866322D01*
X59530593Y-85924513D01*
X59520504Y-85936326D01*
X58539527Y-86917304D01*
X58485010Y-86945081D01*
X58469523Y-86946300D01*
X54635877Y-86946300D01*
X54577686Y-86927393D01*
X54541722Y-86877893D01*
X54541722Y-86816707D01*
X54565873Y-86777296D01*
X54900703Y-86442466D01*
X55910212Y-85432955D01*
X55964727Y-85405180D01*
X55991296Y-85404584D01*
X56000000Y-85405565D01*
X56179255Y-85385368D01*
X56349522Y-85325789D01*
X56502262Y-85229816D01*
X56629816Y-85102262D01*
X56725789Y-84949522D01*
X56780056Y-84794435D01*
X56785366Y-84779261D01*
X56785367Y-84779257D01*
X56785368Y-84779255D01*
X56805565Y-84600000D01*
X56785368Y-84420745D01*
X56784141Y-84417239D01*
X56739170Y-84288719D01*
X56725789Y-84250478D01*
X56707106Y-84220745D01*
X56629818Y-84097741D01*
X56629817Y-84097740D01*
X56629816Y-84097738D01*
X56502262Y-83970184D01*
X56502259Y-83970182D01*
X56502258Y-83970181D01*
X56349523Y-83874211D01*
X56179261Y-83814633D01*
X56179257Y-83814632D01*
X56000000Y-83794435D01*
X55820742Y-83814632D01*
X55820738Y-83814633D01*
X55650477Y-83874211D01*
X55650476Y-83874211D01*
X55497741Y-83970181D01*
X55370181Y-84097741D01*
X55274211Y-84250476D01*
X55274211Y-84250477D01*
X55214633Y-84420738D01*
X55214632Y-84420742D01*
X55204533Y-84510372D01*
X55195091Y-84594183D01*
X55194435Y-84600003D01*
X55195415Y-84608705D01*
X55183139Y-84668646D01*
X55167041Y-84689788D01*
X53389527Y-86467304D01*
X53335010Y-86495081D01*
X53319523Y-86496300D01*
X46481171Y-86496300D01*
X46481155Y-86496299D01*
X46475092Y-86496299D01*
X46336725Y-86496299D01*
X46254927Y-86518216D01*
X46203068Y-86532112D01*
X46083247Y-86601291D01*
X46083242Y-86601295D01*
X45647516Y-87037023D01*
X45592999Y-87064801D01*
X45577512Y-87066020D01*
X45516462Y-87066020D01*
X45378095Y-87066020D01*
X45342850Y-87075464D01*
X45244443Y-87101832D01*
X45126054Y-87170184D01*
X45124611Y-87171017D01*
X45026773Y-87268854D01*
X45026774Y-87268855D01*
X45026772Y-87268857D01*
X44699921Y-87595708D01*
X44699919Y-87595710D01*
X44699918Y-87595709D01*
X44602078Y-87693550D01*
X44532897Y-87813374D01*
X44532896Y-87813379D01*
X44527633Y-87833020D01*
X44497083Y-87947029D01*
X44497083Y-88093372D01*
X44497084Y-88093385D01*
X44497084Y-93518738D01*
X44478177Y-93576929D01*
X44468088Y-93588742D01*
X43802335Y-94254495D01*
X43802334Y-94254494D01*
X43704497Y-94352332D01*
X43704495Y-94352334D01*
X43704495Y-94352335D01*
X43635312Y-94472164D01*
X43635312Y-94472165D01*
X43635311Y-94472167D01*
X43631938Y-94484755D01*
X43631938Y-94484756D01*
X43599499Y-94605814D01*
X43599499Y-94752157D01*
X43599500Y-94752170D01*
X43599500Y-100346537D01*
X43599499Y-100346555D01*
X43599499Y-100352617D01*
X43599499Y-100490983D01*
X43627743Y-100596391D01*
X43627743Y-100596392D01*
X43635310Y-100624633D01*
X43635311Y-100624634D01*
X43687702Y-100715379D01*
X43700423Y-100775228D01*
X43700343Y-100775961D01*
X43697635Y-100799998D01*
X43717832Y-100979257D01*
X43717833Y-100979261D01*
X43777411Y-101149522D01*
X43777411Y-101149523D01*
X43873381Y-101302258D01*
X43873384Y-101302262D01*
X44000938Y-101429816D01*
X44000940Y-101429817D01*
X44000941Y-101429818D01*
X44041473Y-101455286D01*
X44080685Y-101502255D01*
X44084801Y-101563302D01*
X44058806Y-101609115D01*
X43952532Y-101715389D01*
X43952528Y-101715394D01*
X43856558Y-101868129D01*
X43856558Y-101868130D01*
X43796980Y-102038391D01*
X43796979Y-102038395D01*
X43776782Y-102217653D01*
X43796979Y-102396910D01*
X43796980Y-102396914D01*
X43856558Y-102567175D01*
X43856558Y-102567176D01*
X43952528Y-102719911D01*
X43952531Y-102719915D01*
X44080085Y-102847469D01*
X44232825Y-102943442D01*
X44301004Y-102967299D01*
X44403085Y-103003019D01*
X44403089Y-103003020D01*
X44403092Y-103003021D01*
X44582347Y-103023218D01*
X44589632Y-103022397D01*
X44591045Y-103022238D01*
X44650987Y-103034509D01*
X44672135Y-103050610D01*
X45842029Y-104220505D01*
X45842031Y-104220506D01*
X45844690Y-104222041D01*
X45846166Y-104223679D01*
X45847180Y-104224458D01*
X45847035Y-104224645D01*
X45885637Y-104267506D01*
X45894200Y-104307783D01*
X45894200Y-108402623D01*
X45894199Y-108402641D01*
X45894199Y-108547068D01*
X45916413Y-108629974D01*
X45930012Y-108680723D01*
X45930013Y-108680725D01*
X45991789Y-108787724D01*
X45999195Y-108800551D01*
X46097035Y-108898391D01*
X46097037Y-108898392D01*
X47019140Y-109820496D01*
X47046917Y-109875013D01*
X47037346Y-109935445D01*
X46994081Y-109978710D01*
X46949136Y-109989500D01*
X43109500Y-109989500D01*
X43051309Y-109970593D01*
X43015345Y-109921093D01*
X43010500Y-109890500D01*
X43010500Y-80109500D01*
X43029407Y-80051309D01*
X43078907Y-80015345D01*
X43109500Y-80010500D01*
X131490500Y-80010500D01*
X131548691Y-80029407D01*
G37*
%TD.AperFunction*%
%TD*%
M02*
