%TF.GenerationSoftware,KiCad,Pcbnew,9.0.6*%
%TF.CreationDate,2026-02-07T10:01:58-05:00*%
%TF.ProjectId,OnionStraws,4f6e696f-6e53-4747-9261-77732e6b6963,rev?*%
%TF.SameCoordinates,Original*%
%TF.FileFunction,Soldermask,Bot*%
%TF.FilePolarity,Negative*%
%FSLAX46Y46*%
G04 Gerber Fmt 4.6, Leading zero omitted, Abs format (unit mm)*
G04 Created by KiCad (PCBNEW 9.0.6) date 2026-02-07 10:01:58*
%MOMM*%
%LPD*%
G01*
G04 APERTURE LIST*
G04 Aperture macros list*
%AMRoundRect*
0 Rectangle with rounded corners*
0 $1 Rounding radius*
0 $2 $3 $4 $5 $6 $7 $8 $9 X,Y pos of 4 corners*
0 Add a 4 corners polygon primitive as box body*
4,1,4,$2,$3,$4,$5,$6,$7,$8,$9,$2,$3,0*
0 Add four circle primitives for the rounded corners*
1,1,$1+$1,$2,$3*
1,1,$1+$1,$4,$5*
1,1,$1+$1,$6,$7*
1,1,$1+$1,$8,$9*
0 Add four rect primitives between the rounded corners*
20,1,$1+$1,$2,$3,$4,$5,0*
20,1,$1+$1,$4,$5,$6,$7,0*
20,1,$1+$1,$6,$7,$8,$9,0*
20,1,$1+$1,$8,$9,$2,$3,0*%
%AMFreePoly0*
4,1,23,0.550000,-0.750000,0.000000,-0.750000,0.000000,-0.745722,-0.065263,-0.745722,-0.191342,-0.711940,-0.304381,-0.646677,-0.396677,-0.554381,-0.461940,-0.441342,-0.495722,-0.315263,-0.495722,-0.250000,-0.500000,-0.250000,-0.500000,0.250000,-0.495722,0.250000,-0.495722,0.315263,-0.461940,0.441342,-0.396677,0.554381,-0.304381,0.646677,-0.191342,0.711940,-0.065263,0.745722,0.000000,0.745722,
0.000000,0.750000,0.550000,0.750000,0.550000,-0.750000,0.550000,-0.750000,$1*%
%AMFreePoly1*
4,1,23,0.000000,0.745722,0.065263,0.745722,0.191342,0.711940,0.304381,0.646677,0.396677,0.554381,0.461940,0.441342,0.495722,0.315263,0.495722,0.250000,0.500000,0.250000,0.500000,-0.250000,0.495722,-0.250000,0.495722,-0.315263,0.461940,-0.441342,0.396677,-0.554381,0.304381,-0.646677,0.191342,-0.711940,0.065263,-0.745722,0.000000,-0.745722,0.000000,-0.750000,-0.550000,-0.750000,
-0.550000,0.750000,0.000000,0.750000,0.000000,0.745722,0.000000,0.745722,$1*%
G04 Aperture macros list end*
%ADD10C,0.100000*%
%ADD11C,3.200000*%
%ADD12R,1.500000X1.500000*%
%ADD13C,1.500000*%
%ADD14C,2.000000*%
%ADD15RoundRect,0.250000X-0.262500X-0.450000X0.262500X-0.450000X0.262500X0.450000X-0.262500X0.450000X0*%
%ADD16C,0.990600*%
%ADD17C,0.787400*%
%ADD18FreePoly0,270.000000*%
%ADD19R,1.500000X1.000000*%
%ADD20FreePoly1,270.000000*%
%ADD21R,1.700000X1.700000*%
%ADD22O,1.700000X1.700000*%
G04 APERTURE END LIST*
D10*
X125128637Y-88740478D02*
X124628637Y-88740478D01*
X124628637Y-88740478D02*
X124628637Y-88859526D01*
X124628637Y-88859526D02*
X124652447Y-88930954D01*
X124652447Y-88930954D02*
X124700066Y-88978573D01*
X124700066Y-88978573D02*
X124747685Y-89002383D01*
X124747685Y-89002383D02*
X124842923Y-89026192D01*
X124842923Y-89026192D02*
X124914351Y-89026192D01*
X124914351Y-89026192D02*
X125009589Y-89002383D01*
X125009589Y-89002383D02*
X125057208Y-88978573D01*
X125057208Y-88978573D02*
X125104828Y-88930954D01*
X125104828Y-88930954D02*
X125128637Y-88859526D01*
X125128637Y-88859526D02*
X125128637Y-88740478D01*
X125128637Y-89240478D02*
X124628637Y-89240478D01*
X124890542Y-89573811D02*
X125128637Y-89573811D01*
X124628637Y-89407145D02*
X124890542Y-89573811D01*
X124890542Y-89573811D02*
X124628637Y-89740478D01*
X124628637Y-90240477D02*
X125128637Y-90359525D01*
X125128637Y-90359525D02*
X124771494Y-90454763D01*
X124771494Y-90454763D02*
X125128637Y-90550001D01*
X125128637Y-90550001D02*
X124628637Y-90669049D01*
X125128637Y-90859525D02*
X124795304Y-90859525D01*
X124628637Y-90859525D02*
X124652447Y-90835716D01*
X124652447Y-90835716D02*
X124676256Y-90859525D01*
X124676256Y-90859525D02*
X124652447Y-90883335D01*
X124652447Y-90883335D02*
X124628637Y-90859525D01*
X124628637Y-90859525D02*
X124676256Y-90859525D01*
X124938161Y-91097620D02*
X124938161Y-91478573D01*
X124795304Y-91645240D02*
X124795304Y-91835716D01*
X125128637Y-91716668D02*
X124700066Y-91716668D01*
X124700066Y-91716668D02*
X124652447Y-91740478D01*
X124652447Y-91740478D02*
X124628637Y-91788097D01*
X124628637Y-91788097D02*
X124628637Y-91835716D01*
X125128637Y-92002382D02*
X124795304Y-92002382D01*
X124628637Y-92002382D02*
X124652447Y-91978573D01*
X124652447Y-91978573D02*
X124676256Y-92002382D01*
X124676256Y-92002382D02*
X124652447Y-92026192D01*
X124652447Y-92026192D02*
X124628637Y-92002382D01*
X124628637Y-92002382D02*
X124676256Y-92002382D01*
X125128637Y-92835715D02*
X124866732Y-92835715D01*
X124866732Y-92835715D02*
X124819113Y-92811905D01*
X124819113Y-92811905D02*
X124795304Y-92764286D01*
X124795304Y-92764286D02*
X124795304Y-92669048D01*
X124795304Y-92669048D02*
X124819113Y-92621429D01*
X125104828Y-92835715D02*
X125128637Y-92788096D01*
X125128637Y-92788096D02*
X125128637Y-92669048D01*
X125128637Y-92669048D02*
X125104828Y-92621429D01*
X125104828Y-92621429D02*
X125057208Y-92597620D01*
X125057208Y-92597620D02*
X125009589Y-92597620D01*
X125009589Y-92597620D02*
X124961970Y-92621429D01*
X124961970Y-92621429D02*
X124938161Y-92669048D01*
X124938161Y-92669048D02*
X124938161Y-92788096D01*
X124938161Y-92788096D02*
X124914351Y-92835715D01*
X125128637Y-93288096D02*
X124628637Y-93288096D01*
X125104828Y-93288096D02*
X125128637Y-93240477D01*
X125128637Y-93240477D02*
X125128637Y-93145239D01*
X125128637Y-93145239D02*
X125104828Y-93097620D01*
X125104828Y-93097620D02*
X125081018Y-93073810D01*
X125081018Y-93073810D02*
X125033399Y-93050001D01*
X125033399Y-93050001D02*
X124890542Y-93050001D01*
X124890542Y-93050001D02*
X124842923Y-93073810D01*
X124842923Y-93073810D02*
X124819113Y-93097620D01*
X124819113Y-93097620D02*
X124795304Y-93145239D01*
X124795304Y-93145239D02*
X124795304Y-93240477D01*
X124795304Y-93240477D02*
X124819113Y-93288096D01*
X125128637Y-93740477D02*
X124866732Y-93740477D01*
X124866732Y-93740477D02*
X124819113Y-93716667D01*
X124819113Y-93716667D02*
X124795304Y-93669048D01*
X124795304Y-93669048D02*
X124795304Y-93573810D01*
X124795304Y-93573810D02*
X124819113Y-93526191D01*
X125104828Y-93740477D02*
X125128637Y-93692858D01*
X125128637Y-93692858D02*
X125128637Y-93573810D01*
X125128637Y-93573810D02*
X125104828Y-93526191D01*
X125104828Y-93526191D02*
X125057208Y-93502382D01*
X125057208Y-93502382D02*
X125009589Y-93502382D01*
X125009589Y-93502382D02*
X124961970Y-93526191D01*
X124961970Y-93526191D02*
X124938161Y-93573810D01*
X124938161Y-93573810D02*
X124938161Y-93692858D01*
X124938161Y-93692858D02*
X124914351Y-93740477D01*
X124795304Y-93978572D02*
X125295304Y-93978572D01*
X124819113Y-93978572D02*
X124795304Y-94026191D01*
X124795304Y-94026191D02*
X124795304Y-94121429D01*
X124795304Y-94121429D02*
X124819113Y-94169048D01*
X124819113Y-94169048D02*
X124842923Y-94192858D01*
X124842923Y-94192858D02*
X124890542Y-94216667D01*
X124890542Y-94216667D02*
X125033399Y-94216667D01*
X125033399Y-94216667D02*
X125081018Y-94192858D01*
X125081018Y-94192858D02*
X125104828Y-94169048D01*
X125104828Y-94169048D02*
X125128637Y-94121429D01*
X125128637Y-94121429D02*
X125128637Y-94026191D01*
X125128637Y-94026191D02*
X125104828Y-93978572D01*
X124795304Y-94359525D02*
X124795304Y-94550001D01*
X124628637Y-94430953D02*
X125057208Y-94430953D01*
X125057208Y-94430953D02*
X125104828Y-94454763D01*
X125104828Y-94454763D02*
X125128637Y-94502382D01*
X125128637Y-94502382D02*
X125128637Y-94550001D01*
X125104828Y-94907143D02*
X125128637Y-94859524D01*
X125128637Y-94859524D02*
X125128637Y-94764286D01*
X125128637Y-94764286D02*
X125104828Y-94716667D01*
X125104828Y-94716667D02*
X125057208Y-94692858D01*
X125057208Y-94692858D02*
X124866732Y-94692858D01*
X124866732Y-94692858D02*
X124819113Y-94716667D01*
X124819113Y-94716667D02*
X124795304Y-94764286D01*
X124795304Y-94764286D02*
X124795304Y-94859524D01*
X124795304Y-94859524D02*
X124819113Y-94907143D01*
X124819113Y-94907143D02*
X124866732Y-94930953D01*
X124866732Y-94930953D02*
X124914351Y-94930953D01*
X124914351Y-94930953D02*
X124961970Y-94692858D01*
X125128637Y-95145238D02*
X124795304Y-95145238D01*
X124890542Y-95145238D02*
X124842923Y-95169048D01*
X124842923Y-95169048D02*
X124819113Y-95192857D01*
X124819113Y-95192857D02*
X124795304Y-95240476D01*
X124795304Y-95240476D02*
X124795304Y-95288095D01*
X124795304Y-95764286D02*
X124795304Y-95954762D01*
X125128637Y-95835714D02*
X124700066Y-95835714D01*
X124700066Y-95835714D02*
X124652447Y-95859524D01*
X124652447Y-95859524D02*
X124628637Y-95907143D01*
X124628637Y-95907143D02*
X124628637Y-95954762D01*
X125128637Y-96192857D02*
X125104828Y-96145238D01*
X125104828Y-96145238D02*
X125081018Y-96121428D01*
X125081018Y-96121428D02*
X125033399Y-96097619D01*
X125033399Y-96097619D02*
X124890542Y-96097619D01*
X124890542Y-96097619D02*
X124842923Y-96121428D01*
X124842923Y-96121428D02*
X124819113Y-96145238D01*
X124819113Y-96145238D02*
X124795304Y-96192857D01*
X124795304Y-96192857D02*
X124795304Y-96264285D01*
X124795304Y-96264285D02*
X124819113Y-96311904D01*
X124819113Y-96311904D02*
X124842923Y-96335714D01*
X124842923Y-96335714D02*
X124890542Y-96359523D01*
X124890542Y-96359523D02*
X125033399Y-96359523D01*
X125033399Y-96359523D02*
X125081018Y-96335714D01*
X125081018Y-96335714D02*
X125104828Y-96311904D01*
X125104828Y-96311904D02*
X125128637Y-96264285D01*
X125128637Y-96264285D02*
X125128637Y-96192857D01*
X125128637Y-96573809D02*
X124795304Y-96573809D01*
X124890542Y-96573809D02*
X124842923Y-96597619D01*
X124842923Y-96597619D02*
X124819113Y-96621428D01*
X124819113Y-96621428D02*
X124795304Y-96669047D01*
X124795304Y-96669047D02*
X124795304Y-96716666D01*
X124652447Y-97526190D02*
X124628637Y-97478571D01*
X124628637Y-97478571D02*
X124628637Y-97407142D01*
X124628637Y-97407142D02*
X124652447Y-97335714D01*
X124652447Y-97335714D02*
X124700066Y-97288095D01*
X124700066Y-97288095D02*
X124747685Y-97264285D01*
X124747685Y-97264285D02*
X124842923Y-97240476D01*
X124842923Y-97240476D02*
X124914351Y-97240476D01*
X124914351Y-97240476D02*
X125009589Y-97264285D01*
X125009589Y-97264285D02*
X125057208Y-97288095D01*
X125057208Y-97288095D02*
X125104828Y-97335714D01*
X125104828Y-97335714D02*
X125128637Y-97407142D01*
X125128637Y-97407142D02*
X125128637Y-97454761D01*
X125128637Y-97454761D02*
X125104828Y-97526190D01*
X125104828Y-97526190D02*
X125081018Y-97549999D01*
X125081018Y-97549999D02*
X124914351Y-97549999D01*
X124914351Y-97549999D02*
X124914351Y-97454761D01*
X124866732Y-97764285D02*
X124866732Y-97930952D01*
X125128637Y-98002380D02*
X125128637Y-97764285D01*
X125128637Y-97764285D02*
X124628637Y-97764285D01*
X124628637Y-97764285D02*
X124628637Y-98002380D01*
X124985780Y-98192857D02*
X124985780Y-98430952D01*
X125128637Y-98145238D02*
X124628637Y-98311904D01*
X124628637Y-98311904D02*
X125128637Y-98478571D01*
X124676256Y-98621428D02*
X124652447Y-98645237D01*
X124652447Y-98645237D02*
X124628637Y-98692856D01*
X124628637Y-98692856D02*
X124628637Y-98811904D01*
X124628637Y-98811904D02*
X124652447Y-98859523D01*
X124652447Y-98859523D02*
X124676256Y-98883332D01*
X124676256Y-98883332D02*
X124723875Y-98907142D01*
X124723875Y-98907142D02*
X124771494Y-98907142D01*
X124771494Y-98907142D02*
X124842923Y-98883332D01*
X124842923Y-98883332D02*
X125128637Y-98597618D01*
X125128637Y-98597618D02*
X125128637Y-98907142D01*
X125128637Y-99716665D02*
X124866732Y-99716665D01*
X124866732Y-99716665D02*
X124819113Y-99692855D01*
X124819113Y-99692855D02*
X124795304Y-99645236D01*
X124795304Y-99645236D02*
X124795304Y-99549998D01*
X124795304Y-99549998D02*
X124819113Y-99502379D01*
X125104828Y-99716665D02*
X125128637Y-99669046D01*
X125128637Y-99669046D02*
X125128637Y-99549998D01*
X125128637Y-99549998D02*
X125104828Y-99502379D01*
X125104828Y-99502379D02*
X125057208Y-99478570D01*
X125057208Y-99478570D02*
X125009589Y-99478570D01*
X125009589Y-99478570D02*
X124961970Y-99502379D01*
X124961970Y-99502379D02*
X124938161Y-99549998D01*
X124938161Y-99549998D02*
X124938161Y-99669046D01*
X124938161Y-99669046D02*
X124914351Y-99716665D01*
X124795304Y-99954760D02*
X125128637Y-99954760D01*
X124842923Y-99954760D02*
X124819113Y-99978570D01*
X124819113Y-99978570D02*
X124795304Y-100026189D01*
X124795304Y-100026189D02*
X124795304Y-100097617D01*
X124795304Y-100097617D02*
X124819113Y-100145236D01*
X124819113Y-100145236D02*
X124866732Y-100169046D01*
X124866732Y-100169046D02*
X125128637Y-100169046D01*
X125128637Y-100621427D02*
X124628637Y-100621427D01*
X125104828Y-100621427D02*
X125128637Y-100573808D01*
X125128637Y-100573808D02*
X125128637Y-100478570D01*
X125128637Y-100478570D02*
X125104828Y-100430951D01*
X125104828Y-100430951D02*
X125081018Y-100407141D01*
X125081018Y-100407141D02*
X125033399Y-100383332D01*
X125033399Y-100383332D02*
X124890542Y-100383332D01*
X124890542Y-100383332D02*
X124842923Y-100407141D01*
X124842923Y-100407141D02*
X124819113Y-100430951D01*
X124819113Y-100430951D02*
X124795304Y-100478570D01*
X124795304Y-100478570D02*
X124795304Y-100573808D01*
X124795304Y-100573808D02*
X124819113Y-100621427D01*
X124652447Y-101502379D02*
X124628637Y-101454760D01*
X124628637Y-101454760D02*
X124628637Y-101383331D01*
X124628637Y-101383331D02*
X124652447Y-101311903D01*
X124652447Y-101311903D02*
X124700066Y-101264284D01*
X124700066Y-101264284D02*
X124747685Y-101240474D01*
X124747685Y-101240474D02*
X124842923Y-101216665D01*
X124842923Y-101216665D02*
X124914351Y-101216665D01*
X124914351Y-101216665D02*
X125009589Y-101240474D01*
X125009589Y-101240474D02*
X125057208Y-101264284D01*
X125057208Y-101264284D02*
X125104828Y-101311903D01*
X125104828Y-101311903D02*
X125128637Y-101383331D01*
X125128637Y-101383331D02*
X125128637Y-101430950D01*
X125128637Y-101430950D02*
X125104828Y-101502379D01*
X125104828Y-101502379D02*
X125081018Y-101526188D01*
X125081018Y-101526188D02*
X124914351Y-101526188D01*
X124914351Y-101526188D02*
X124914351Y-101430950D01*
X124866732Y-101740474D02*
X124866732Y-101907141D01*
X125128637Y-101978569D02*
X125128637Y-101740474D01*
X125128637Y-101740474D02*
X124628637Y-101740474D01*
X124628637Y-101740474D02*
X124628637Y-101978569D01*
X124985780Y-102169046D02*
X124985780Y-102407141D01*
X125128637Y-102121427D02*
X124628637Y-102288093D01*
X124628637Y-102288093D02*
X125128637Y-102454760D01*
X124628637Y-102573807D02*
X124628637Y-102883331D01*
X124628637Y-102883331D02*
X124819113Y-102716664D01*
X124819113Y-102716664D02*
X124819113Y-102788093D01*
X124819113Y-102788093D02*
X124842923Y-102835712D01*
X124842923Y-102835712D02*
X124866732Y-102859521D01*
X124866732Y-102859521D02*
X124914351Y-102883331D01*
X124914351Y-102883331D02*
X125033399Y-102883331D01*
X125033399Y-102883331D02*
X125081018Y-102859521D01*
X125081018Y-102859521D02*
X125104828Y-102835712D01*
X125104828Y-102835712D02*
X125128637Y-102788093D01*
X125128637Y-102788093D02*
X125128637Y-102645236D01*
X125128637Y-102645236D02*
X125104828Y-102597617D01*
X125104828Y-102597617D02*
X125081018Y-102573807D01*
X125885990Y-88704763D02*
X125909800Y-88680954D01*
X125909800Y-88680954D02*
X125933609Y-88609525D01*
X125933609Y-88609525D02*
X125933609Y-88561906D01*
X125933609Y-88561906D02*
X125909800Y-88490478D01*
X125909800Y-88490478D02*
X125862180Y-88442859D01*
X125862180Y-88442859D02*
X125814561Y-88419049D01*
X125814561Y-88419049D02*
X125719323Y-88395240D01*
X125719323Y-88395240D02*
X125647895Y-88395240D01*
X125647895Y-88395240D02*
X125552657Y-88419049D01*
X125552657Y-88419049D02*
X125505038Y-88442859D01*
X125505038Y-88442859D02*
X125457419Y-88490478D01*
X125457419Y-88490478D02*
X125433609Y-88561906D01*
X125433609Y-88561906D02*
X125433609Y-88609525D01*
X125433609Y-88609525D02*
X125457419Y-88680954D01*
X125457419Y-88680954D02*
X125481228Y-88704763D01*
X125933609Y-88990478D02*
X125909800Y-88942859D01*
X125909800Y-88942859D02*
X125885990Y-88919049D01*
X125885990Y-88919049D02*
X125838371Y-88895240D01*
X125838371Y-88895240D02*
X125695514Y-88895240D01*
X125695514Y-88895240D02*
X125647895Y-88919049D01*
X125647895Y-88919049D02*
X125624085Y-88942859D01*
X125624085Y-88942859D02*
X125600276Y-88990478D01*
X125600276Y-88990478D02*
X125600276Y-89061906D01*
X125600276Y-89061906D02*
X125624085Y-89109525D01*
X125624085Y-89109525D02*
X125647895Y-89133335D01*
X125647895Y-89133335D02*
X125695514Y-89157144D01*
X125695514Y-89157144D02*
X125838371Y-89157144D01*
X125838371Y-89157144D02*
X125885990Y-89133335D01*
X125885990Y-89133335D02*
X125909800Y-89109525D01*
X125909800Y-89109525D02*
X125933609Y-89061906D01*
X125933609Y-89061906D02*
X125933609Y-88990478D01*
X125600276Y-89371430D02*
X125933609Y-89371430D01*
X125647895Y-89371430D02*
X125624085Y-89395240D01*
X125624085Y-89395240D02*
X125600276Y-89442859D01*
X125600276Y-89442859D02*
X125600276Y-89514287D01*
X125600276Y-89514287D02*
X125624085Y-89561906D01*
X125624085Y-89561906D02*
X125671704Y-89585716D01*
X125671704Y-89585716D02*
X125933609Y-89585716D01*
X125600276Y-89823811D02*
X125933609Y-89823811D01*
X125647895Y-89823811D02*
X125624085Y-89847621D01*
X125624085Y-89847621D02*
X125600276Y-89895240D01*
X125600276Y-89895240D02*
X125600276Y-89966668D01*
X125600276Y-89966668D02*
X125624085Y-90014287D01*
X125624085Y-90014287D02*
X125671704Y-90038097D01*
X125671704Y-90038097D02*
X125933609Y-90038097D01*
X125909800Y-90466668D02*
X125933609Y-90419049D01*
X125933609Y-90419049D02*
X125933609Y-90323811D01*
X125933609Y-90323811D02*
X125909800Y-90276192D01*
X125909800Y-90276192D02*
X125862180Y-90252383D01*
X125862180Y-90252383D02*
X125671704Y-90252383D01*
X125671704Y-90252383D02*
X125624085Y-90276192D01*
X125624085Y-90276192D02*
X125600276Y-90323811D01*
X125600276Y-90323811D02*
X125600276Y-90419049D01*
X125600276Y-90419049D02*
X125624085Y-90466668D01*
X125624085Y-90466668D02*
X125671704Y-90490478D01*
X125671704Y-90490478D02*
X125719323Y-90490478D01*
X125719323Y-90490478D02*
X125766942Y-90252383D01*
X125909800Y-90919049D02*
X125933609Y-90871430D01*
X125933609Y-90871430D02*
X125933609Y-90776192D01*
X125933609Y-90776192D02*
X125909800Y-90728573D01*
X125909800Y-90728573D02*
X125885990Y-90704763D01*
X125885990Y-90704763D02*
X125838371Y-90680954D01*
X125838371Y-90680954D02*
X125695514Y-90680954D01*
X125695514Y-90680954D02*
X125647895Y-90704763D01*
X125647895Y-90704763D02*
X125624085Y-90728573D01*
X125624085Y-90728573D02*
X125600276Y-90776192D01*
X125600276Y-90776192D02*
X125600276Y-90871430D01*
X125600276Y-90871430D02*
X125624085Y-90919049D01*
X125600276Y-91061906D02*
X125600276Y-91252382D01*
X125433609Y-91133334D02*
X125862180Y-91133334D01*
X125862180Y-91133334D02*
X125909800Y-91157144D01*
X125909800Y-91157144D02*
X125933609Y-91204763D01*
X125933609Y-91204763D02*
X125933609Y-91252382D01*
X125600276Y-91728572D02*
X125600276Y-91919048D01*
X125433609Y-91800000D02*
X125862180Y-91800000D01*
X125862180Y-91800000D02*
X125909800Y-91823810D01*
X125909800Y-91823810D02*
X125933609Y-91871429D01*
X125933609Y-91871429D02*
X125933609Y-91919048D01*
X125933609Y-92157143D02*
X125909800Y-92109524D01*
X125909800Y-92109524D02*
X125885990Y-92085714D01*
X125885990Y-92085714D02*
X125838371Y-92061905D01*
X125838371Y-92061905D02*
X125695514Y-92061905D01*
X125695514Y-92061905D02*
X125647895Y-92085714D01*
X125647895Y-92085714D02*
X125624085Y-92109524D01*
X125624085Y-92109524D02*
X125600276Y-92157143D01*
X125600276Y-92157143D02*
X125600276Y-92228571D01*
X125600276Y-92228571D02*
X125624085Y-92276190D01*
X125624085Y-92276190D02*
X125647895Y-92300000D01*
X125647895Y-92300000D02*
X125695514Y-92323809D01*
X125695514Y-92323809D02*
X125838371Y-92323809D01*
X125838371Y-92323809D02*
X125885990Y-92300000D01*
X125885990Y-92300000D02*
X125909800Y-92276190D01*
X125909800Y-92276190D02*
X125933609Y-92228571D01*
X125933609Y-92228571D02*
X125933609Y-92157143D01*
X125933609Y-93133333D02*
X125671704Y-93133333D01*
X125671704Y-93133333D02*
X125624085Y-93109523D01*
X125624085Y-93109523D02*
X125600276Y-93061904D01*
X125600276Y-93061904D02*
X125600276Y-92966666D01*
X125600276Y-92966666D02*
X125624085Y-92919047D01*
X125909800Y-93133333D02*
X125933609Y-93085714D01*
X125933609Y-93085714D02*
X125933609Y-92966666D01*
X125933609Y-92966666D02*
X125909800Y-92919047D01*
X125909800Y-92919047D02*
X125862180Y-92895238D01*
X125862180Y-92895238D02*
X125814561Y-92895238D01*
X125814561Y-92895238D02*
X125766942Y-92919047D01*
X125766942Y-92919047D02*
X125743133Y-92966666D01*
X125743133Y-92966666D02*
X125743133Y-93085714D01*
X125743133Y-93085714D02*
X125719323Y-93133333D01*
X125600276Y-93371428D02*
X126100276Y-93371428D01*
X125624085Y-93371428D02*
X125600276Y-93419047D01*
X125600276Y-93419047D02*
X125600276Y-93514285D01*
X125600276Y-93514285D02*
X125624085Y-93561904D01*
X125624085Y-93561904D02*
X125647895Y-93585714D01*
X125647895Y-93585714D02*
X125695514Y-93609523D01*
X125695514Y-93609523D02*
X125838371Y-93609523D01*
X125838371Y-93609523D02*
X125885990Y-93585714D01*
X125885990Y-93585714D02*
X125909800Y-93561904D01*
X125909800Y-93561904D02*
X125933609Y-93514285D01*
X125933609Y-93514285D02*
X125933609Y-93419047D01*
X125933609Y-93419047D02*
X125909800Y-93371428D01*
X125600276Y-93823809D02*
X126100276Y-93823809D01*
X125624085Y-93823809D02*
X125600276Y-93871428D01*
X125600276Y-93871428D02*
X125600276Y-93966666D01*
X125600276Y-93966666D02*
X125624085Y-94014285D01*
X125624085Y-94014285D02*
X125647895Y-94038095D01*
X125647895Y-94038095D02*
X125695514Y-94061904D01*
X125695514Y-94061904D02*
X125838371Y-94061904D01*
X125838371Y-94061904D02*
X125885990Y-94038095D01*
X125885990Y-94038095D02*
X125909800Y-94014285D01*
X125909800Y-94014285D02*
X125933609Y-93966666D01*
X125933609Y-93966666D02*
X125933609Y-93871428D01*
X125933609Y-93871428D02*
X125909800Y-93823809D01*
X125933609Y-94347619D02*
X125909800Y-94300000D01*
X125909800Y-94300000D02*
X125862180Y-94276190D01*
X125862180Y-94276190D02*
X125433609Y-94276190D01*
X125933609Y-94538095D02*
X125600276Y-94538095D01*
X125433609Y-94538095D02*
X125457419Y-94514286D01*
X125457419Y-94514286D02*
X125481228Y-94538095D01*
X125481228Y-94538095D02*
X125457419Y-94561905D01*
X125457419Y-94561905D02*
X125433609Y-94538095D01*
X125433609Y-94538095D02*
X125481228Y-94538095D01*
X125933609Y-94990476D02*
X125671704Y-94990476D01*
X125671704Y-94990476D02*
X125624085Y-94966666D01*
X125624085Y-94966666D02*
X125600276Y-94919047D01*
X125600276Y-94919047D02*
X125600276Y-94823809D01*
X125600276Y-94823809D02*
X125624085Y-94776190D01*
X125909800Y-94990476D02*
X125933609Y-94942857D01*
X125933609Y-94942857D02*
X125933609Y-94823809D01*
X125933609Y-94823809D02*
X125909800Y-94776190D01*
X125909800Y-94776190D02*
X125862180Y-94752381D01*
X125862180Y-94752381D02*
X125814561Y-94752381D01*
X125814561Y-94752381D02*
X125766942Y-94776190D01*
X125766942Y-94776190D02*
X125743133Y-94823809D01*
X125743133Y-94823809D02*
X125743133Y-94942857D01*
X125743133Y-94942857D02*
X125719323Y-94990476D01*
X125600276Y-95228571D02*
X125933609Y-95228571D01*
X125647895Y-95228571D02*
X125624085Y-95252381D01*
X125624085Y-95252381D02*
X125600276Y-95300000D01*
X125600276Y-95300000D02*
X125600276Y-95371428D01*
X125600276Y-95371428D02*
X125624085Y-95419047D01*
X125624085Y-95419047D02*
X125671704Y-95442857D01*
X125671704Y-95442857D02*
X125933609Y-95442857D01*
X125909800Y-95895238D02*
X125933609Y-95847619D01*
X125933609Y-95847619D02*
X125933609Y-95752381D01*
X125933609Y-95752381D02*
X125909800Y-95704762D01*
X125909800Y-95704762D02*
X125885990Y-95680952D01*
X125885990Y-95680952D02*
X125838371Y-95657143D01*
X125838371Y-95657143D02*
X125695514Y-95657143D01*
X125695514Y-95657143D02*
X125647895Y-95680952D01*
X125647895Y-95680952D02*
X125624085Y-95704762D01*
X125624085Y-95704762D02*
X125600276Y-95752381D01*
X125600276Y-95752381D02*
X125600276Y-95847619D01*
X125600276Y-95847619D02*
X125624085Y-95895238D01*
X125909800Y-96299999D02*
X125933609Y-96252380D01*
X125933609Y-96252380D02*
X125933609Y-96157142D01*
X125933609Y-96157142D02*
X125909800Y-96109523D01*
X125909800Y-96109523D02*
X125862180Y-96085714D01*
X125862180Y-96085714D02*
X125671704Y-96085714D01*
X125671704Y-96085714D02*
X125624085Y-96109523D01*
X125624085Y-96109523D02*
X125600276Y-96157142D01*
X125600276Y-96157142D02*
X125600276Y-96252380D01*
X125600276Y-96252380D02*
X125624085Y-96299999D01*
X125624085Y-96299999D02*
X125671704Y-96323809D01*
X125671704Y-96323809D02*
X125719323Y-96323809D01*
X125719323Y-96323809D02*
X125766942Y-96085714D01*
X125933609Y-97133332D02*
X125671704Y-97133332D01*
X125671704Y-97133332D02*
X125624085Y-97109522D01*
X125624085Y-97109522D02*
X125600276Y-97061903D01*
X125600276Y-97061903D02*
X125600276Y-96966665D01*
X125600276Y-96966665D02*
X125624085Y-96919046D01*
X125909800Y-97133332D02*
X125933609Y-97085713D01*
X125933609Y-97085713D02*
X125933609Y-96966665D01*
X125933609Y-96966665D02*
X125909800Y-96919046D01*
X125909800Y-96919046D02*
X125862180Y-96895237D01*
X125862180Y-96895237D02*
X125814561Y-96895237D01*
X125814561Y-96895237D02*
X125766942Y-96919046D01*
X125766942Y-96919046D02*
X125743133Y-96966665D01*
X125743133Y-96966665D02*
X125743133Y-97085713D01*
X125743133Y-97085713D02*
X125719323Y-97133332D01*
X125600276Y-97299999D02*
X125600276Y-97490475D01*
X125433609Y-97371427D02*
X125862180Y-97371427D01*
X125862180Y-97371427D02*
X125909800Y-97395237D01*
X125909800Y-97395237D02*
X125933609Y-97442856D01*
X125933609Y-97442856D02*
X125933609Y-97490475D01*
X125600276Y-97990474D02*
X125933609Y-98109522D01*
X125600276Y-98228569D02*
X125933609Y-98109522D01*
X125933609Y-98109522D02*
X126052657Y-98061903D01*
X126052657Y-98061903D02*
X126076466Y-98038093D01*
X126076466Y-98038093D02*
X126100276Y-97990474D01*
X125933609Y-98490474D02*
X125909800Y-98442855D01*
X125909800Y-98442855D02*
X125885990Y-98419045D01*
X125885990Y-98419045D02*
X125838371Y-98395236D01*
X125838371Y-98395236D02*
X125695514Y-98395236D01*
X125695514Y-98395236D02*
X125647895Y-98419045D01*
X125647895Y-98419045D02*
X125624085Y-98442855D01*
X125624085Y-98442855D02*
X125600276Y-98490474D01*
X125600276Y-98490474D02*
X125600276Y-98561902D01*
X125600276Y-98561902D02*
X125624085Y-98609521D01*
X125624085Y-98609521D02*
X125647895Y-98633331D01*
X125647895Y-98633331D02*
X125695514Y-98657140D01*
X125695514Y-98657140D02*
X125838371Y-98657140D01*
X125838371Y-98657140D02*
X125885990Y-98633331D01*
X125885990Y-98633331D02*
X125909800Y-98609521D01*
X125909800Y-98609521D02*
X125933609Y-98561902D01*
X125933609Y-98561902D02*
X125933609Y-98490474D01*
X125600276Y-99085712D02*
X125933609Y-99085712D01*
X125600276Y-98871426D02*
X125862180Y-98871426D01*
X125862180Y-98871426D02*
X125909800Y-98895236D01*
X125909800Y-98895236D02*
X125933609Y-98942855D01*
X125933609Y-98942855D02*
X125933609Y-99014283D01*
X125933609Y-99014283D02*
X125909800Y-99061902D01*
X125909800Y-99061902D02*
X125885990Y-99085712D01*
X125933609Y-99323807D02*
X125600276Y-99323807D01*
X125695514Y-99323807D02*
X125647895Y-99347617D01*
X125647895Y-99347617D02*
X125624085Y-99371426D01*
X125624085Y-99371426D02*
X125600276Y-99419045D01*
X125600276Y-99419045D02*
X125600276Y-99466664D01*
X125933609Y-100085712D02*
X125909800Y-100038093D01*
X125909800Y-100038093D02*
X125885990Y-100014283D01*
X125885990Y-100014283D02*
X125838371Y-99990474D01*
X125838371Y-99990474D02*
X125695514Y-99990474D01*
X125695514Y-99990474D02*
X125647895Y-100014283D01*
X125647895Y-100014283D02*
X125624085Y-100038093D01*
X125624085Y-100038093D02*
X125600276Y-100085712D01*
X125600276Y-100085712D02*
X125600276Y-100157140D01*
X125600276Y-100157140D02*
X125624085Y-100204759D01*
X125624085Y-100204759D02*
X125647895Y-100228569D01*
X125647895Y-100228569D02*
X125695514Y-100252378D01*
X125695514Y-100252378D02*
X125838371Y-100252378D01*
X125838371Y-100252378D02*
X125885990Y-100228569D01*
X125885990Y-100228569D02*
X125909800Y-100204759D01*
X125909800Y-100204759D02*
X125933609Y-100157140D01*
X125933609Y-100157140D02*
X125933609Y-100085712D01*
X125600276Y-100419045D02*
X125933609Y-100514283D01*
X125933609Y-100514283D02*
X125695514Y-100609521D01*
X125695514Y-100609521D02*
X125933609Y-100704759D01*
X125933609Y-100704759D02*
X125600276Y-100799997D01*
X125600276Y-100990474D02*
X125933609Y-100990474D01*
X125647895Y-100990474D02*
X125624085Y-101014284D01*
X125624085Y-101014284D02*
X125600276Y-101061903D01*
X125600276Y-101061903D02*
X125600276Y-101133331D01*
X125600276Y-101133331D02*
X125624085Y-101180950D01*
X125624085Y-101180950D02*
X125671704Y-101204760D01*
X125671704Y-101204760D02*
X125933609Y-101204760D01*
X125933609Y-101823807D02*
X125600276Y-101823807D01*
X125695514Y-101823807D02*
X125647895Y-101847617D01*
X125647895Y-101847617D02*
X125624085Y-101871426D01*
X125624085Y-101871426D02*
X125600276Y-101919045D01*
X125600276Y-101919045D02*
X125600276Y-101966664D01*
X125933609Y-102133331D02*
X125600276Y-102133331D01*
X125433609Y-102133331D02*
X125457419Y-102109522D01*
X125457419Y-102109522D02*
X125481228Y-102133331D01*
X125481228Y-102133331D02*
X125457419Y-102157141D01*
X125457419Y-102157141D02*
X125433609Y-102133331D01*
X125433609Y-102133331D02*
X125481228Y-102133331D01*
X125909800Y-102347617D02*
X125933609Y-102395236D01*
X125933609Y-102395236D02*
X125933609Y-102490474D01*
X125933609Y-102490474D02*
X125909800Y-102538093D01*
X125909800Y-102538093D02*
X125862180Y-102561902D01*
X125862180Y-102561902D02*
X125838371Y-102561902D01*
X125838371Y-102561902D02*
X125790752Y-102538093D01*
X125790752Y-102538093D02*
X125766942Y-102490474D01*
X125766942Y-102490474D02*
X125766942Y-102419045D01*
X125766942Y-102419045D02*
X125743133Y-102371426D01*
X125743133Y-102371426D02*
X125695514Y-102347617D01*
X125695514Y-102347617D02*
X125671704Y-102347617D01*
X125671704Y-102347617D02*
X125624085Y-102371426D01*
X125624085Y-102371426D02*
X125600276Y-102419045D01*
X125600276Y-102419045D02*
X125600276Y-102490474D01*
X125600276Y-102490474D02*
X125624085Y-102538093D01*
X125933609Y-102776188D02*
X125433609Y-102776188D01*
X125743133Y-102823807D02*
X125933609Y-102966664D01*
X125600276Y-102966664D02*
X125790752Y-102776188D01*
X125885990Y-103180950D02*
X125909800Y-103204760D01*
X125909800Y-103204760D02*
X125933609Y-103180950D01*
X125933609Y-103180950D02*
X125909800Y-103157141D01*
X125909800Y-103157141D02*
X125885990Y-103180950D01*
X125885990Y-103180950D02*
X125933609Y-103180950D01*
X125743133Y-103180950D02*
X125457419Y-103157141D01*
X125457419Y-103157141D02*
X125433609Y-103180950D01*
X125433609Y-103180950D02*
X125457419Y-103204760D01*
X125457419Y-103204760D02*
X125743133Y-103180950D01*
X125743133Y-103180950D02*
X125433609Y-103180950D01*
D11*
%TO.C,H1*%
X65000000Y-95000000D03*
%TD*%
%TO.C,J1*%
X128775000Y-100552500D03*
X128775000Y-89122500D03*
D12*
X122425000Y-99282500D03*
D13*
X119885000Y-98012500D03*
X122425000Y-96742500D03*
X119885000Y-95472500D03*
X122425000Y-94202500D03*
X119885000Y-92932500D03*
X122425000Y-91662500D03*
X119885000Y-90392500D03*
%TD*%
D11*
%TO.C,H2*%
X103525000Y-95000000D03*
%TD*%
D14*
%TO.C,TP1*%
X88925000Y-83800000D03*
%TD*%
%TO.C,TP4*%
X100325000Y-83800000D03*
%TD*%
D15*
%TO.C,R8*%
X108500000Y-108200000D03*
X110325000Y-108200000D03*
%TD*%
D16*
%TO.C,J3*%
X53270000Y-107365000D03*
X48190000Y-108381000D03*
X48190000Y-106349000D03*
D17*
X52000000Y-108000000D03*
X52000000Y-106730000D03*
X50730000Y-108000000D03*
X50730000Y-106730000D03*
X49460000Y-108000000D03*
X49460000Y-106730000D03*
%TD*%
D18*
%TO.C,JP2*%
X115525000Y-105200000D03*
D19*
X115525000Y-106500000D03*
D20*
X115525000Y-107800000D03*
%TD*%
D14*
%TO.C,TP7*%
X117600000Y-83800000D03*
%TD*%
%TO.C,TP5*%
X106025000Y-83800000D03*
%TD*%
%TO.C,TP2*%
X94625000Y-83800000D03*
%TD*%
%TO.C,TP6*%
X111725000Y-83800000D03*
%TD*%
%TO.C,TP3*%
X109525000Y-104600000D03*
%TD*%
D18*
%TO.C,JP1*%
X59500000Y-102500000D03*
D19*
X59500000Y-103800000D03*
D20*
X59500000Y-105100000D03*
%TD*%
D21*
%TO.C,J2*%
X58000000Y-98500000D03*
D22*
X55460000Y-98500000D03*
X52920000Y-98500000D03*
X50380000Y-98500000D03*
X47840000Y-98500000D03*
X45300000Y-98500000D03*
%TD*%
M02*
