M48
; DRILL file {KiCad 9.0.6} date 2026-02-07T10:01:58-0500
; FORMAT={-:-/ absolute / inch / decimal}
; #@! TF.CreationDate,2026-02-07T10:01:58-05:00
; #@! TF.GenerationSoftware,Kicad,Pcbnew,9.0.6
; #@! TF.FileFunction,Plated,1,2,PTH
FMAT,2
INCH
; #@! TA.AperFunction,Plated,PTH,ComponentDrill
T1C0.0118
; #@! TA.AperFunction,Plated,PTH,ViaDrill
T2C0.0157
; #@! TA.AperFunction,Plated,PTH,ComponentDrill
T3C0.0299
; #@! TA.AperFunction,Plated,PTH,ComponentDrill
T4C0.0394
%
G90
G05
T1
X1.9213Y-3.6752
X1.9213Y-3.7185
X1.9429Y-3.6535
X1.9429Y-3.6969
X1.9429Y-3.7402
X1.9646Y-3.6752
X1.9646Y-3.7185
X1.9862Y-3.6535
X1.9862Y-3.6969
X1.9862Y-3.7402
X2.0079Y-3.6752
X2.0079Y-3.7185
T2
X1.7521Y-3.9685
X1.7552Y-4.0243
X1.773Y-4.2278
X1.8011Y-3.477
X1.8031Y-3.5197
X1.9162Y-4.0107
X1.9449Y-4.1339
X1.9764Y-3.252
X2.0472Y-4.1575
X2.0765Y-3.2543
X2.0859Y-4.2706
X2.1339Y-3.7825
X2.189Y-4.0079
X2.2047Y-3.3307
X2.2362Y-4.1339
X2.2698Y-4.2232
X2.3937Y-3.3701
X2.4173Y-3.4882
X2.4409Y-3.252
X2.4489Y-4.0866
X2.4567Y-4.189
X2.6457Y-4.0404
X2.7795Y-3.378
X2.8583Y-4.0551
X2.8661Y-4.2283
X2.8976Y-3.3465
X2.8976Y-4.2835
X2.9291Y-3.7559
X3.1102Y-3.6614
X3.1181Y-3.8661
X3.1417Y-3.5669
X3.1417Y-3.7795
X3.1496Y-4.1417
X3.1654Y-3.6457
X3.1732Y-4.2835
X3.2362Y-3.3228
X3.2441Y-3.5121
X3.3543Y-3.3622
X3.3543Y-3.6457
X3.3568Y-3.5592
X3.378Y-3.8583
X3.4331Y-3.4488
X3.4488Y-3.2441
X3.4882Y-3.6063
X3.4961Y-3.5298
X3.5039Y-3.6614
X3.5276Y-4.1181
X3.5802Y-3.4892
X3.5906Y-3.2126
X3.5906Y-3.2598
X3.5906Y-3.3937
X3.6535Y-3.6063
X3.7087Y-3.7874
X3.7717Y-3.5984
X3.842Y-3.5586
X3.8819Y-3.3307
X3.8976Y-3.4724
X4.0472Y-4.0472
X4.063Y-3.3228
X4.063Y-3.4567
X4.189Y-3.6063
X4.189Y-4.189
X4.2126Y-3.3858
X4.2598Y-4.0472
X4.2756Y-3.5039
X4.3228Y-3.7402
X4.3228Y-3.874
X4.3543Y-4.1909
X4.3937Y-3.378
X4.3937Y-4.2835
X4.4409Y-3.4567
X4.4961Y-4.189
X4.5197Y-3.252
X4.5984Y-3.4173
X4.6142Y-4.1417
X5.0315Y-4.2913
T3
X4.7199Y-3.5588
X4.7199Y-3.6588
X4.7199Y-3.7588
X4.7199Y-3.8588
X4.8199Y-3.6088
X4.8199Y-3.7088
X4.8199Y-3.8088
X4.8199Y-3.9088
T4
X1.7835Y-3.878
X1.8835Y-3.878
X1.9835Y-3.878
X2.0835Y-3.878
X2.1835Y-3.878
X2.2835Y-3.878
M30
