%TF.GenerationSoftware,KiCad,Pcbnew,9.0.6*%
%TF.CreationDate,2026-02-07T10:01:58-05:00*%
%TF.ProjectId,OnionStraws,4f6e696f-6e53-4747-9261-77732e6b6963,rev?*%
%TF.SameCoordinates,Original*%
%TF.FileFunction,Legend,Bot*%
%TF.FilePolarity,Positive*%
%FSLAX46Y46*%
G04 Gerber Fmt 4.6, Leading zero omitted, Abs format (unit mm)*
G04 Created by KiCad (PCBNEW 9.0.6) date 2026-02-07 10:01:58*
%MOMM*%
%LPD*%
G01*
G04 APERTURE LIST*
G04 Aperture macros list*
%AMRoundRect*
0 Rectangle with rounded corners*
0 $1 Rounding radius*
0 $2 $3 $4 $5 $6 $7 $8 $9 X,Y pos of 4 corners*
0 Add a 4 corners polygon primitive as box body*
4,1,4,$2,$3,$4,$5,$6,$7,$8,$9,$2,$3,0*
0 Add four circle primitives for the rounded corners*
1,1,$1+$1,$2,$3*
1,1,$1+$1,$4,$5*
1,1,$1+$1,$6,$7*
1,1,$1+$1,$8,$9*
0 Add four rect primitives between the rounded corners*
20,1,$1+$1,$2,$3,$4,$5,0*
20,1,$1+$1,$4,$5,$6,$7,0*
20,1,$1+$1,$6,$7,$8,$9,0*
20,1,$1+$1,$8,$9,$2,$3,0*%
%AMFreePoly0*
4,1,23,0.550000,-0.750000,0.000000,-0.750000,0.000000,-0.745722,-0.065263,-0.745722,-0.191342,-0.711940,-0.304381,-0.646677,-0.396677,-0.554381,-0.461940,-0.441342,-0.495722,-0.315263,-0.495722,-0.250000,-0.500000,-0.250000,-0.500000,0.250000,-0.495722,0.250000,-0.495722,0.315263,-0.461940,0.441342,-0.396677,0.554381,-0.304381,0.646677,-0.191342,0.711940,-0.065263,0.745722,0.000000,0.745722,
0.000000,0.750000,0.550000,0.750000,0.550000,-0.750000,0.550000,-0.750000,$1*%
%AMFreePoly1*
4,1,23,0.000000,0.745722,0.065263,0.745722,0.191342,0.711940,0.304381,0.646677,0.396677,0.554381,0.461940,0.441342,0.495722,0.315263,0.495722,0.250000,0.500000,0.250000,0.500000,-0.250000,0.495722,-0.250000,0.495722,-0.315263,0.461940,-0.441342,0.396677,-0.554381,0.304381,-0.646677,0.191342,-0.711940,0.065263,-0.745722,0.000000,-0.745722,0.000000,-0.750000,-0.550000,-0.750000,
-0.550000,0.750000,0.000000,0.750000,0.000000,0.745722,0.000000,0.745722,$1*%
G04 Aperture macros list end*
%ADD10C,0.000000*%
%ADD11C,0.200000*%
%ADD12C,0.300000*%
%ADD13C,0.150000*%
%ADD14C,0.120000*%
%ADD15C,0.100000*%
%ADD16C,3.200000*%
%ADD17R,1.500000X1.500000*%
%ADD18C,1.500000*%
%ADD19C,2.000000*%
%ADD20RoundRect,0.250000X-0.262500X-0.450000X0.262500X-0.450000X0.262500X0.450000X-0.262500X0.450000X0*%
%ADD21C,0.990600*%
%ADD22C,0.787400*%
%ADD23FreePoly0,270.000000*%
%ADD24R,1.500000X1.000000*%
%ADD25FreePoly1,270.000000*%
%ADD26R,1.700000X1.700000*%
%ADD27O,1.700000X1.700000*%
G04 APERTURE END LIST*
D10*
G36*
X84255283Y-97758538D02*
G01*
X83803556Y-97758538D01*
X83803556Y-97306810D01*
X84255283Y-97306810D01*
X84255283Y-97758538D01*
G37*
G36*
X75220731Y-97306810D02*
G01*
X74769003Y-97306810D01*
X74769003Y-96855082D01*
X75220731Y-96855082D01*
X75220731Y-97306810D01*
G37*
G36*
X82900100Y-96403355D02*
G01*
X82448373Y-96403355D01*
X82448373Y-95951627D01*
X82900100Y-95951627D01*
X82900100Y-96403355D01*
G37*
G36*
X72058638Y-97758538D02*
G01*
X71606910Y-97758538D01*
X71606910Y-97306810D01*
X72058638Y-97306810D01*
X72058638Y-97758538D01*
G37*
G36*
X77479370Y-104082725D02*
G01*
X77027641Y-104082725D01*
X77027641Y-103630996D01*
X77479370Y-103630996D01*
X77479370Y-104082725D01*
G37*
G36*
X74769003Y-106341362D02*
G01*
X74317276Y-106341362D01*
X74317276Y-105889635D01*
X74769003Y-105889635D01*
X74769003Y-106341362D01*
G37*
G36*
X84707012Y-100468903D02*
G01*
X84255283Y-100468903D01*
X84255283Y-100017176D01*
X84707012Y-100017176D01*
X84707012Y-100468903D01*
G37*
G36*
X77027641Y-104082725D02*
G01*
X76575914Y-104082725D01*
X76575914Y-103630996D01*
X77027641Y-103630996D01*
X77027641Y-104082725D01*
G37*
G36*
X83803556Y-97758538D02*
G01*
X83351829Y-97758538D01*
X83351829Y-97306810D01*
X83803556Y-97306810D01*
X83803556Y-97758538D01*
G37*
G36*
X82448373Y-104986179D02*
G01*
X81996646Y-104986179D01*
X81996646Y-104534452D01*
X82448373Y-104534452D01*
X82448373Y-104986179D01*
G37*
G36*
X72962093Y-99565449D02*
G01*
X72510365Y-99565449D01*
X72510365Y-99113720D01*
X72962093Y-99113720D01*
X72962093Y-99565449D01*
G37*
G36*
X75672459Y-106793091D02*
G01*
X75220731Y-106793091D01*
X75220731Y-106341362D01*
X75672459Y-106341362D01*
X75672459Y-106793091D01*
G37*
G36*
X77027641Y-105437908D02*
G01*
X76575914Y-105437908D01*
X76575914Y-104986179D01*
X77027641Y-104986179D01*
X77027641Y-105437908D01*
G37*
G36*
X78834553Y-100920632D02*
G01*
X78382824Y-100920632D01*
X78382824Y-100468903D01*
X78834553Y-100468903D01*
X78834553Y-100920632D01*
G37*
G36*
X74317276Y-96855082D02*
G01*
X73865548Y-96855082D01*
X73865548Y-96403355D01*
X74317276Y-96403355D01*
X74317276Y-96855082D01*
G37*
G36*
X84255283Y-99113720D02*
G01*
X83803556Y-99113720D01*
X83803556Y-98661993D01*
X84255283Y-98661993D01*
X84255283Y-99113720D01*
G37*
G36*
X73865548Y-99113720D02*
G01*
X73413821Y-99113720D01*
X73413821Y-98661993D01*
X73865548Y-98661993D01*
X73865548Y-99113720D01*
G37*
G36*
X74317276Y-93241261D02*
G01*
X73865548Y-93241261D01*
X73865548Y-92789534D01*
X74317276Y-92789534D01*
X74317276Y-93241261D01*
G37*
G36*
X75220731Y-96403355D02*
G01*
X74769003Y-96403355D01*
X74769003Y-95951627D01*
X75220731Y-95951627D01*
X75220731Y-96403355D01*
G37*
G36*
X74317276Y-104534452D02*
G01*
X73865548Y-104534452D01*
X73865548Y-104082725D01*
X74317276Y-104082725D01*
X74317276Y-104534452D01*
G37*
G36*
X78834553Y-96855082D02*
G01*
X78382824Y-96855082D01*
X78382824Y-96403355D01*
X78834553Y-96403355D01*
X78834553Y-96855082D01*
G37*
G36*
X77479370Y-94144717D02*
G01*
X77027641Y-94144717D01*
X77027641Y-93692989D01*
X77479370Y-93692989D01*
X77479370Y-94144717D01*
G37*
G36*
X83351829Y-106341362D02*
G01*
X82900100Y-106341362D01*
X82900100Y-105889635D01*
X83351829Y-105889635D01*
X83351829Y-106341362D01*
G37*
G36*
X76575914Y-100468903D02*
G01*
X76124186Y-100468903D01*
X76124186Y-100017176D01*
X76575914Y-100017176D01*
X76575914Y-100468903D01*
G37*
G36*
X73865548Y-104534452D02*
G01*
X73413821Y-104534452D01*
X73413821Y-104082725D01*
X73865548Y-104082725D01*
X73865548Y-104534452D01*
G37*
G36*
X76124186Y-99565449D02*
G01*
X75672459Y-99565449D01*
X75672459Y-99113720D01*
X76124186Y-99113720D01*
X76124186Y-99565449D01*
G37*
G36*
X82448373Y-105889635D02*
G01*
X81996646Y-105889635D01*
X81996646Y-105437908D01*
X82448373Y-105437908D01*
X82448373Y-105889635D01*
G37*
G36*
X72510365Y-101372359D02*
G01*
X72058638Y-101372359D01*
X72058638Y-100920632D01*
X72510365Y-100920632D01*
X72510365Y-101372359D01*
G37*
G36*
X78382824Y-102727542D02*
G01*
X77931097Y-102727542D01*
X77931097Y-102275814D01*
X78382824Y-102275814D01*
X78382824Y-102727542D01*
G37*
G36*
X79738007Y-100017176D02*
G01*
X79286280Y-100017176D01*
X79286280Y-99565449D01*
X79738007Y-99565449D01*
X79738007Y-100017176D01*
G37*
G36*
X83803556Y-98210265D02*
G01*
X83351829Y-98210265D01*
X83351829Y-97758538D01*
X83803556Y-97758538D01*
X83803556Y-98210265D01*
G37*
G36*
X81996646Y-105437908D02*
G01*
X81544917Y-105437908D01*
X81544917Y-104986179D01*
X81996646Y-104986179D01*
X81996646Y-105437908D01*
G37*
G36*
X83351829Y-103179269D02*
G01*
X82900100Y-103179269D01*
X82900100Y-102727542D01*
X83351829Y-102727542D01*
X83351829Y-103179269D01*
G37*
G36*
X78382824Y-99113720D02*
G01*
X77931097Y-99113720D01*
X77931097Y-98661993D01*
X78382824Y-98661993D01*
X78382824Y-99113720D01*
G37*
G36*
X84707012Y-103179269D02*
G01*
X84255283Y-103179269D01*
X84255283Y-102727542D01*
X84707012Y-102727542D01*
X84707012Y-103179269D01*
G37*
G36*
X75220731Y-98661993D02*
G01*
X74769003Y-98661993D01*
X74769003Y-98210265D01*
X75220731Y-98210265D01*
X75220731Y-98661993D01*
G37*
G36*
X79286280Y-103630996D02*
G01*
X78834553Y-103630996D01*
X78834553Y-103179269D01*
X79286280Y-103179269D01*
X79286280Y-103630996D01*
G37*
G36*
X73413821Y-100920632D02*
G01*
X72962093Y-100920632D01*
X72962093Y-100468903D01*
X73413821Y-100468903D01*
X73413821Y-100920632D01*
G37*
G36*
X73865548Y-101372359D02*
G01*
X73413821Y-101372359D01*
X73413821Y-100920632D01*
X73865548Y-100920632D01*
X73865548Y-101372359D01*
G37*
G36*
X77027641Y-96403355D02*
G01*
X76575914Y-96403355D01*
X76575914Y-95951627D01*
X77027641Y-95951627D01*
X77027641Y-96403355D01*
G37*
G36*
X84707012Y-104534452D02*
G01*
X84255283Y-104534452D01*
X84255283Y-104082725D01*
X84707012Y-104082725D01*
X84707012Y-104534452D01*
G37*
G36*
X73865548Y-93692989D02*
G01*
X73413821Y-93692989D01*
X73413821Y-93241261D01*
X73865548Y-93241261D01*
X73865548Y-93692989D01*
G37*
G36*
X80641463Y-93241261D02*
G01*
X80189735Y-93241261D01*
X80189735Y-92789534D01*
X80641463Y-92789534D01*
X80641463Y-93241261D01*
G37*
G36*
X72962093Y-101372359D02*
G01*
X72510365Y-101372359D01*
X72510365Y-100920632D01*
X72962093Y-100920632D01*
X72962093Y-101372359D01*
G37*
G36*
X77479370Y-106793091D02*
G01*
X77027641Y-106793091D01*
X77027641Y-106341362D01*
X77479370Y-106341362D01*
X77479370Y-106793091D01*
G37*
G36*
X83351829Y-99113720D02*
G01*
X82900100Y-99113720D01*
X82900100Y-98661993D01*
X83351829Y-98661993D01*
X83351829Y-99113720D01*
G37*
G36*
X72058638Y-96855082D02*
G01*
X71606910Y-96855082D01*
X71606910Y-96403355D01*
X72058638Y-96403355D01*
X72058638Y-96855082D01*
G37*
G36*
X77479370Y-97306810D02*
G01*
X77027641Y-97306810D01*
X77027641Y-96855082D01*
X77479370Y-96855082D01*
X77479370Y-97306810D01*
G37*
G36*
X73865548Y-93241261D02*
G01*
X73413821Y-93241261D01*
X73413821Y-92789534D01*
X73865548Y-92789534D01*
X73865548Y-93241261D01*
G37*
G36*
X84255283Y-96403355D02*
G01*
X83803556Y-96403355D01*
X83803556Y-95951627D01*
X84255283Y-95951627D01*
X84255283Y-96403355D01*
G37*
G36*
X71606910Y-97758538D02*
G01*
X71155182Y-97758538D01*
X71155182Y-97306810D01*
X71606910Y-97306810D01*
X71606910Y-97758538D01*
G37*
G36*
X80641463Y-104082725D02*
G01*
X80189735Y-104082725D01*
X80189735Y-103630996D01*
X80641463Y-103630996D01*
X80641463Y-104082725D01*
G37*
G36*
X83803556Y-96403355D02*
G01*
X83351829Y-96403355D01*
X83351829Y-95951627D01*
X83803556Y-95951627D01*
X83803556Y-96403355D01*
G37*
G36*
X83351829Y-100920632D02*
G01*
X82900100Y-100920632D01*
X82900100Y-100468903D01*
X83351829Y-100468903D01*
X83351829Y-100920632D01*
G37*
G36*
X80189735Y-96403355D02*
G01*
X79738007Y-96403355D01*
X79738007Y-95951627D01*
X80189735Y-95951627D01*
X80189735Y-96403355D01*
G37*
G36*
X79738007Y-105437908D02*
G01*
X79286280Y-105437908D01*
X79286280Y-104986179D01*
X79738007Y-104986179D01*
X79738007Y-105437908D01*
G37*
G36*
X74317276Y-103179269D02*
G01*
X73865548Y-103179269D01*
X73865548Y-102727542D01*
X74317276Y-102727542D01*
X74317276Y-103179269D01*
G37*
G36*
X84255283Y-106793091D02*
G01*
X83803556Y-106793091D01*
X83803556Y-106341362D01*
X84255283Y-106341362D01*
X84255283Y-106793091D01*
G37*
G36*
X70703455Y-97758538D02*
G01*
X70251727Y-97758538D01*
X70251727Y-97306810D01*
X70703455Y-97306810D01*
X70703455Y-97758538D01*
G37*
G36*
X76124186Y-103630996D02*
G01*
X75672459Y-103630996D01*
X75672459Y-103179269D01*
X76124186Y-103179269D01*
X76124186Y-103630996D01*
G37*
G36*
X81996646Y-106793091D02*
G01*
X81544917Y-106793091D01*
X81544917Y-106341362D01*
X81996646Y-106341362D01*
X81996646Y-106793091D01*
G37*
G36*
X76575914Y-97758538D02*
G01*
X76124186Y-97758538D01*
X76124186Y-97306810D01*
X76575914Y-97306810D01*
X76575914Y-97758538D01*
G37*
G36*
X84255283Y-98210265D02*
G01*
X83803556Y-98210265D01*
X83803556Y-97758538D01*
X84255283Y-97758538D01*
X84255283Y-98210265D01*
G37*
G36*
X83351829Y-102727542D02*
G01*
X82900100Y-102727542D01*
X82900100Y-102275814D01*
X83351829Y-102275814D01*
X83351829Y-102727542D01*
G37*
G36*
X71155182Y-95951627D02*
G01*
X70703455Y-95951627D01*
X70703455Y-95499900D01*
X71155182Y-95499900D01*
X71155182Y-95951627D01*
G37*
G36*
X78834553Y-103630996D02*
G01*
X78382824Y-103630996D01*
X78382824Y-103179269D01*
X78834553Y-103179269D01*
X78834553Y-103630996D01*
G37*
G36*
X78382824Y-103179269D02*
G01*
X77931097Y-103179269D01*
X77931097Y-102727542D01*
X78382824Y-102727542D01*
X78382824Y-103179269D01*
G37*
G36*
X74317276Y-97758538D02*
G01*
X73865548Y-97758538D01*
X73865548Y-97306810D01*
X74317276Y-97306810D01*
X74317276Y-97758538D01*
G37*
G36*
X72510365Y-102727542D02*
G01*
X72058638Y-102727542D01*
X72058638Y-102275814D01*
X72510365Y-102275814D01*
X72510365Y-102727542D01*
G37*
G36*
X74769003Y-100468903D02*
G01*
X74317276Y-100468903D01*
X74317276Y-100017176D01*
X74769003Y-100017176D01*
X74769003Y-100468903D01*
G37*
G36*
X70251727Y-102727542D02*
G01*
X69800000Y-102727542D01*
X69800000Y-102275814D01*
X70251727Y-102275814D01*
X70251727Y-102727542D01*
G37*
G36*
X76124186Y-97306810D02*
G01*
X75672459Y-97306810D01*
X75672459Y-96855082D01*
X76124186Y-96855082D01*
X76124186Y-97306810D01*
G37*
G36*
X73413821Y-96855082D02*
G01*
X72962093Y-96855082D01*
X72962093Y-96403355D01*
X73413821Y-96403355D01*
X73413821Y-96855082D01*
G37*
G36*
X83351829Y-104534452D02*
G01*
X82900100Y-104534452D01*
X82900100Y-104082725D01*
X83351829Y-104082725D01*
X83351829Y-104534452D01*
G37*
G36*
X72058638Y-95951627D02*
G01*
X71606910Y-95951627D01*
X71606910Y-95499900D01*
X72058638Y-95499900D01*
X72058638Y-95951627D01*
G37*
G36*
X82900100Y-98661993D02*
G01*
X82448373Y-98661993D01*
X82448373Y-98210265D01*
X82900100Y-98210265D01*
X82900100Y-98661993D01*
G37*
G36*
X76575914Y-99113720D02*
G01*
X76124186Y-99113720D01*
X76124186Y-98661993D01*
X76575914Y-98661993D01*
X76575914Y-99113720D01*
G37*
G36*
X84707012Y-102727542D02*
G01*
X84255283Y-102727542D01*
X84255283Y-102275814D01*
X84707012Y-102275814D01*
X84707012Y-102727542D01*
G37*
G36*
X81093190Y-97758538D02*
G01*
X80641463Y-97758538D01*
X80641463Y-97306810D01*
X81093190Y-97306810D01*
X81093190Y-97758538D01*
G37*
G36*
X82900100Y-104986179D02*
G01*
X82448373Y-104986179D01*
X82448373Y-104534452D01*
X82900100Y-104534452D01*
X82900100Y-104986179D01*
G37*
G36*
X72962093Y-98661993D02*
G01*
X72510365Y-98661993D01*
X72510365Y-98210265D01*
X72962093Y-98210265D01*
X72962093Y-98661993D01*
G37*
G36*
X72510365Y-96403355D02*
G01*
X72058638Y-96403355D01*
X72058638Y-95951627D01*
X72510365Y-95951627D01*
X72510365Y-96403355D01*
G37*
G36*
X80189735Y-100920632D02*
G01*
X79738007Y-100920632D01*
X79738007Y-100468903D01*
X80189735Y-100468903D01*
X80189735Y-100920632D01*
G37*
G36*
X76124186Y-94596444D02*
G01*
X75672459Y-94596444D01*
X75672459Y-94144717D01*
X76124186Y-94144717D01*
X76124186Y-94596444D01*
G37*
G36*
X78834553Y-102727542D02*
G01*
X78382824Y-102727542D01*
X78382824Y-102275814D01*
X78834553Y-102275814D01*
X78834553Y-102727542D01*
G37*
G36*
X79286280Y-100017176D02*
G01*
X78834553Y-100017176D01*
X78834553Y-99565449D01*
X79286280Y-99565449D01*
X79286280Y-100017176D01*
G37*
G36*
X82900100Y-96855082D02*
G01*
X82448373Y-96855082D01*
X82448373Y-96403355D01*
X82900100Y-96403355D01*
X82900100Y-96855082D01*
G37*
G36*
X80641463Y-99113720D02*
G01*
X80189735Y-99113720D01*
X80189735Y-98661993D01*
X80641463Y-98661993D01*
X80641463Y-99113720D01*
G37*
G36*
X77027641Y-101824086D02*
G01*
X76575914Y-101824086D01*
X76575914Y-101372359D01*
X77027641Y-101372359D01*
X77027641Y-101824086D01*
G37*
G36*
X80641463Y-105889635D02*
G01*
X80189735Y-105889635D01*
X80189735Y-105437908D01*
X80641463Y-105437908D01*
X80641463Y-105889635D01*
G37*
G36*
X70251727Y-98661993D02*
G01*
X69800000Y-98661993D01*
X69800000Y-98210265D01*
X70251727Y-98210265D01*
X70251727Y-98661993D01*
G37*
G36*
X81996646Y-96403355D02*
G01*
X81544917Y-96403355D01*
X81544917Y-95951627D01*
X81996646Y-95951627D01*
X81996646Y-96403355D01*
G37*
G36*
X70251727Y-99113720D02*
G01*
X69800000Y-99113720D01*
X69800000Y-98661993D01*
X70251727Y-98661993D01*
X70251727Y-99113720D01*
G37*
G36*
X77931097Y-96403355D02*
G01*
X77479370Y-96403355D01*
X77479370Y-95951627D01*
X77931097Y-95951627D01*
X77931097Y-96403355D01*
G37*
G36*
X74769003Y-96855082D02*
G01*
X74317276Y-96855082D01*
X74317276Y-96403355D01*
X74769003Y-96403355D01*
X74769003Y-96855082D01*
G37*
G36*
X77479370Y-100017176D02*
G01*
X77027641Y-100017176D01*
X77027641Y-99565449D01*
X77479370Y-99565449D01*
X77479370Y-100017176D01*
G37*
G36*
X79738007Y-100920632D02*
G01*
X79286280Y-100920632D01*
X79286280Y-100468903D01*
X79738007Y-100468903D01*
X79738007Y-100920632D01*
G37*
G36*
X81093190Y-104986179D02*
G01*
X80641463Y-104986179D01*
X80641463Y-104534452D01*
X81093190Y-104534452D01*
X81093190Y-104986179D01*
G37*
G36*
X73413821Y-102275814D02*
G01*
X72962093Y-102275814D01*
X72962093Y-101824086D01*
X73413821Y-101824086D01*
X73413821Y-102275814D01*
G37*
G36*
X82448373Y-97306810D02*
G01*
X81996646Y-97306810D01*
X81996646Y-96855082D01*
X82448373Y-96855082D01*
X82448373Y-97306810D01*
G37*
G36*
X84707012Y-104082725D02*
G01*
X84255283Y-104082725D01*
X84255283Y-103630996D01*
X84707012Y-103630996D01*
X84707012Y-104082725D01*
G37*
G36*
X77931097Y-103630996D02*
G01*
X77479370Y-103630996D01*
X77479370Y-103179269D01*
X77931097Y-103179269D01*
X77931097Y-103630996D01*
G37*
G36*
X84707012Y-106341362D02*
G01*
X84255283Y-106341362D01*
X84255283Y-105889635D01*
X84707012Y-105889635D01*
X84707012Y-106341362D01*
G37*
G36*
X77027641Y-99565449D02*
G01*
X76575914Y-99565449D01*
X76575914Y-99113720D01*
X77027641Y-99113720D01*
X77027641Y-99565449D01*
G37*
G36*
X72058638Y-103179269D02*
G01*
X71606910Y-103179269D01*
X71606910Y-102727542D01*
X72058638Y-102727542D01*
X72058638Y-103179269D01*
G37*
G36*
X70251727Y-102275814D02*
G01*
X69800000Y-102275814D01*
X69800000Y-101824086D01*
X70251727Y-101824086D01*
X70251727Y-102275814D01*
G37*
G36*
X70703455Y-100920632D02*
G01*
X70251727Y-100920632D01*
X70251727Y-100468903D01*
X70703455Y-100468903D01*
X70703455Y-100920632D01*
G37*
G36*
X75672459Y-98210265D02*
G01*
X75220731Y-98210265D01*
X75220731Y-97758538D01*
X75672459Y-97758538D01*
X75672459Y-98210265D01*
G37*
G36*
X74769003Y-97306810D02*
G01*
X74317276Y-97306810D01*
X74317276Y-96855082D01*
X74769003Y-96855082D01*
X74769003Y-97306810D01*
G37*
G36*
X75220731Y-94596444D02*
G01*
X74769003Y-94596444D01*
X74769003Y-94144717D01*
X75220731Y-94144717D01*
X75220731Y-94596444D01*
G37*
G36*
X81093190Y-92337806D02*
G01*
X80641463Y-92337806D01*
X80641463Y-91886079D01*
X81093190Y-91886079D01*
X81093190Y-92337806D01*
G37*
G36*
X82448373Y-99113720D02*
G01*
X81996646Y-99113720D01*
X81996646Y-98661993D01*
X82448373Y-98661993D01*
X82448373Y-99113720D01*
G37*
G36*
X82448373Y-102275814D02*
G01*
X81996646Y-102275814D01*
X81996646Y-101824086D01*
X82448373Y-101824086D01*
X82448373Y-102275814D01*
G37*
G36*
X81996646Y-100017176D02*
G01*
X81544917Y-100017176D01*
X81544917Y-99565449D01*
X81996646Y-99565449D01*
X81996646Y-100017176D01*
G37*
G36*
X76575914Y-104986179D02*
G01*
X76124186Y-104986179D01*
X76124186Y-104534452D01*
X76575914Y-104534452D01*
X76575914Y-104986179D01*
G37*
G36*
X81544917Y-101824086D02*
G01*
X81093190Y-101824086D01*
X81093190Y-101372359D01*
X81544917Y-101372359D01*
X81544917Y-101824086D01*
G37*
G36*
X75672459Y-105437908D02*
G01*
X75220731Y-105437908D01*
X75220731Y-104986179D01*
X75672459Y-104986179D01*
X75672459Y-105437908D01*
G37*
G36*
X72510365Y-97306810D02*
G01*
X72058638Y-97306810D01*
X72058638Y-96855082D01*
X72510365Y-96855082D01*
X72510365Y-97306810D01*
G37*
G36*
X80189735Y-95048172D02*
G01*
X79738007Y-95048172D01*
X79738007Y-94596444D01*
X80189735Y-94596444D01*
X80189735Y-95048172D01*
G37*
G36*
X79286280Y-99565449D02*
G01*
X78834553Y-99565449D01*
X78834553Y-99113720D01*
X79286280Y-99113720D01*
X79286280Y-99565449D01*
G37*
G36*
X73865548Y-103630996D02*
G01*
X73413821Y-103630996D01*
X73413821Y-103179269D01*
X73865548Y-103179269D01*
X73865548Y-103630996D01*
G37*
G36*
X76575914Y-93241261D02*
G01*
X76124186Y-93241261D01*
X76124186Y-92789534D01*
X76575914Y-92789534D01*
X76575914Y-93241261D01*
G37*
G36*
X76124186Y-100017176D02*
G01*
X75672459Y-100017176D01*
X75672459Y-99565449D01*
X76124186Y-99565449D01*
X76124186Y-100017176D01*
G37*
G36*
X77479370Y-97758538D02*
G01*
X77027641Y-97758538D01*
X77027641Y-97306810D01*
X77479370Y-97306810D01*
X77479370Y-97758538D01*
G37*
G36*
X74317276Y-104082725D02*
G01*
X73865548Y-104082725D01*
X73865548Y-103630996D01*
X74317276Y-103630996D01*
X74317276Y-104082725D01*
G37*
G36*
X77027641Y-93692989D02*
G01*
X76575914Y-93692989D01*
X76575914Y-93241261D01*
X77027641Y-93241261D01*
X77027641Y-93692989D01*
G37*
G36*
X79286280Y-101824086D02*
G01*
X78834553Y-101824086D01*
X78834553Y-101372359D01*
X79286280Y-101372359D01*
X79286280Y-101824086D01*
G37*
G36*
X76124186Y-96855082D02*
G01*
X75672459Y-96855082D01*
X75672459Y-96403355D01*
X76124186Y-96403355D01*
X76124186Y-96855082D01*
G37*
G36*
X77027641Y-94144717D02*
G01*
X76575914Y-94144717D01*
X76575914Y-93692989D01*
X77027641Y-93692989D01*
X77027641Y-94144717D01*
G37*
G36*
X83803556Y-103630996D02*
G01*
X83351829Y-103630996D01*
X83351829Y-103179269D01*
X83803556Y-103179269D01*
X83803556Y-103630996D01*
G37*
G36*
X73413821Y-96403355D02*
G01*
X72962093Y-96403355D01*
X72962093Y-95951627D01*
X73413821Y-95951627D01*
X73413821Y-96403355D01*
G37*
G36*
X79738007Y-101372359D02*
G01*
X79286280Y-101372359D01*
X79286280Y-100920632D01*
X79738007Y-100920632D01*
X79738007Y-101372359D01*
G37*
G36*
X83803556Y-101824086D02*
G01*
X83351829Y-101824086D01*
X83351829Y-101372359D01*
X83803556Y-101372359D01*
X83803556Y-101824086D01*
G37*
G36*
X73413821Y-102727542D02*
G01*
X72962093Y-102727542D01*
X72962093Y-102275814D01*
X73413821Y-102275814D01*
X73413821Y-102727542D01*
G37*
G36*
X83803556Y-94144717D02*
G01*
X82448373Y-94144717D01*
X82448373Y-92789534D01*
X83803556Y-92789534D01*
X83803556Y-94144717D01*
G37*
G36*
X78382824Y-95048172D02*
G01*
X77931097Y-95048172D01*
X77931097Y-94596444D01*
X78382824Y-94596444D01*
X78382824Y-95048172D01*
G37*
G36*
X75220731Y-94144717D02*
G01*
X74769003Y-94144717D01*
X74769003Y-93692989D01*
X75220731Y-93692989D01*
X75220731Y-94144717D01*
G37*
G36*
X79738007Y-99113720D02*
G01*
X79286280Y-99113720D01*
X79286280Y-98661993D01*
X79738007Y-98661993D01*
X79738007Y-99113720D01*
G37*
G36*
X75220731Y-105437908D02*
G01*
X74769003Y-105437908D01*
X74769003Y-104986179D01*
X75220731Y-104986179D01*
X75220731Y-105437908D01*
G37*
G36*
X81544917Y-105889635D02*
G01*
X81093190Y-105889635D01*
X81093190Y-105437908D01*
X81544917Y-105437908D01*
X81544917Y-105889635D01*
G37*
G36*
X81544917Y-96855082D02*
G01*
X81093190Y-96855082D01*
X81093190Y-96403355D01*
X81544917Y-96403355D01*
X81544917Y-96855082D01*
G37*
G36*
X75672459Y-96855082D02*
G01*
X75220731Y-96855082D01*
X75220731Y-96403355D01*
X75672459Y-96403355D01*
X75672459Y-96855082D01*
G37*
G36*
X83351829Y-99565449D02*
G01*
X82900100Y-99565449D01*
X82900100Y-99113720D01*
X83351829Y-99113720D01*
X83351829Y-99565449D01*
G37*
G36*
X81093190Y-105889635D02*
G01*
X80641463Y-105889635D01*
X80641463Y-105437908D01*
X81093190Y-105437908D01*
X81093190Y-105889635D01*
G37*
G36*
X72510365Y-100017176D02*
G01*
X72058638Y-100017176D01*
X72058638Y-99565449D01*
X72510365Y-99565449D01*
X72510365Y-100017176D01*
G37*
G36*
X77479370Y-93241261D02*
G01*
X77027641Y-93241261D01*
X77027641Y-92789534D01*
X77479370Y-92789534D01*
X77479370Y-93241261D01*
G37*
G36*
X70251727Y-95951627D02*
G01*
X69800000Y-95951627D01*
X69800000Y-95499900D01*
X70251727Y-95499900D01*
X70251727Y-95951627D01*
G37*
G36*
X80641463Y-94144717D02*
G01*
X80189735Y-94144717D01*
X80189735Y-93692989D01*
X80641463Y-93692989D01*
X80641463Y-94144717D01*
G37*
G36*
X77479370Y-104534452D02*
G01*
X77027641Y-104534452D01*
X77027641Y-104082725D01*
X77479370Y-104082725D01*
X77479370Y-104534452D01*
G37*
G36*
X81996646Y-103179269D02*
G01*
X81544917Y-103179269D01*
X81544917Y-102727542D01*
X81996646Y-102727542D01*
X81996646Y-103179269D01*
G37*
G36*
X79738007Y-95951627D02*
G01*
X79286280Y-95951627D01*
X79286280Y-95499900D01*
X79738007Y-95499900D01*
X79738007Y-95951627D01*
G37*
G36*
X80189735Y-98661993D02*
G01*
X79738007Y-98661993D01*
X79738007Y-98210265D01*
X80189735Y-98210265D01*
X80189735Y-98661993D01*
G37*
G36*
X73413821Y-103179269D02*
G01*
X72962093Y-103179269D01*
X72962093Y-102727542D01*
X73413821Y-102727542D01*
X73413821Y-103179269D01*
G37*
G36*
X72962093Y-95048172D02*
G01*
X69800000Y-95048172D01*
X69800000Y-94596444D01*
X69800000Y-92337806D01*
X70251727Y-92337806D01*
X70251727Y-94596444D01*
X72510365Y-94596444D01*
X72510365Y-92337806D01*
X70251727Y-92337806D01*
X69800000Y-92337806D01*
X69800000Y-91886079D01*
X72962093Y-91886079D01*
X72962093Y-95048172D01*
G37*
G36*
X73865548Y-100017176D02*
G01*
X73413821Y-100017176D01*
X73413821Y-99565449D01*
X73865548Y-99565449D01*
X73865548Y-100017176D01*
G37*
G36*
X73865548Y-99565449D02*
G01*
X73413821Y-99565449D01*
X73413821Y-99113720D01*
X73865548Y-99113720D01*
X73865548Y-99565449D01*
G37*
G36*
X75220731Y-93241261D02*
G01*
X74769003Y-93241261D01*
X74769003Y-92789534D01*
X75220731Y-92789534D01*
X75220731Y-93241261D01*
G37*
G36*
X79738007Y-97758538D02*
G01*
X79286280Y-97758538D01*
X79286280Y-97306810D01*
X79738007Y-97306810D01*
X79738007Y-97758538D01*
G37*
G36*
X84707012Y-96855082D02*
G01*
X84255283Y-96855082D01*
X84255283Y-96403355D01*
X84707012Y-96403355D01*
X84707012Y-96855082D01*
G37*
G36*
X77027641Y-103630996D02*
G01*
X76575914Y-103630996D01*
X76575914Y-103179269D01*
X77027641Y-103179269D01*
X77027641Y-103630996D01*
G37*
G36*
X73865548Y-95499900D02*
G01*
X73413821Y-95499900D01*
X73413821Y-95048172D01*
X73865548Y-95048172D01*
X73865548Y-95499900D01*
G37*
G36*
X79286280Y-106793091D02*
G01*
X78834553Y-106793091D01*
X78834553Y-106341362D01*
X79286280Y-106341362D01*
X79286280Y-106793091D01*
G37*
G36*
X78382824Y-92789534D02*
G01*
X77931097Y-92789534D01*
X77931097Y-92337806D01*
X78382824Y-92337806D01*
X78382824Y-92789534D01*
G37*
G36*
X70703455Y-96403355D02*
G01*
X70251727Y-96403355D01*
X70251727Y-95951627D01*
X70703455Y-95951627D01*
X70703455Y-96403355D01*
G37*
G36*
X71606910Y-97306810D02*
G01*
X71155182Y-97306810D01*
X71155182Y-96855082D01*
X71606910Y-96855082D01*
X71606910Y-97306810D01*
G37*
G36*
X71155182Y-98661993D02*
G01*
X70703455Y-98661993D01*
X70703455Y-98210265D01*
X71155182Y-98210265D01*
X71155182Y-98661993D01*
G37*
G36*
X72962093Y-106793091D02*
G01*
X69800000Y-106793091D01*
X69800000Y-106341362D01*
X69800000Y-104082725D01*
X70251727Y-104082725D01*
X70251727Y-106341362D01*
X72510365Y-106341362D01*
X72510365Y-104082725D01*
X70251727Y-104082725D01*
X69800000Y-104082725D01*
X69800000Y-103630996D01*
X72962093Y-103630996D01*
X72962093Y-106793091D01*
G37*
G36*
X72058638Y-101824086D02*
G01*
X71606910Y-101824086D01*
X71606910Y-101372359D01*
X72058638Y-101372359D01*
X72058638Y-101824086D01*
G37*
G36*
X70251727Y-100468903D02*
G01*
X69800000Y-100468903D01*
X69800000Y-100017176D01*
X70251727Y-100017176D01*
X70251727Y-100468903D01*
G37*
G36*
X72962093Y-100468903D02*
G01*
X72510365Y-100468903D01*
X72510365Y-100017176D01*
X72962093Y-100017176D01*
X72962093Y-100468903D01*
G37*
G36*
X75220731Y-92337806D02*
G01*
X74769003Y-92337806D01*
X74769003Y-91886079D01*
X75220731Y-91886079D01*
X75220731Y-92337806D01*
G37*
G36*
X74317276Y-104986179D02*
G01*
X73865548Y-104986179D01*
X73865548Y-104534452D01*
X74317276Y-104534452D01*
X74317276Y-104986179D01*
G37*
G36*
X84707012Y-99113720D02*
G01*
X84255283Y-99113720D01*
X84255283Y-98661993D01*
X84707012Y-98661993D01*
X84707012Y-99113720D01*
G37*
G36*
X80641463Y-103630996D02*
G01*
X80189735Y-103630996D01*
X80189735Y-103179269D01*
X80641463Y-103179269D01*
X80641463Y-103630996D01*
G37*
G36*
X75220731Y-105889635D02*
G01*
X74769003Y-105889635D01*
X74769003Y-105437908D01*
X75220731Y-105437908D01*
X75220731Y-105889635D01*
G37*
G36*
X83803556Y-103179269D02*
G01*
X83351829Y-103179269D01*
X83351829Y-102727542D01*
X83803556Y-102727542D01*
X83803556Y-103179269D01*
G37*
G36*
X78834553Y-94596444D02*
G01*
X78382824Y-94596444D01*
X78382824Y-94144717D01*
X78834553Y-94144717D01*
X78834553Y-94596444D01*
G37*
G36*
X76575914Y-95048172D02*
G01*
X76124186Y-95048172D01*
X76124186Y-94596444D01*
X76575914Y-94596444D01*
X76575914Y-95048172D01*
G37*
G36*
X74769003Y-92789534D02*
G01*
X74317276Y-92789534D01*
X74317276Y-92337806D01*
X74769003Y-92337806D01*
X74769003Y-92789534D01*
G37*
G36*
X73865548Y-94596444D02*
G01*
X73413821Y-94596444D01*
X73413821Y-94144717D01*
X73865548Y-94144717D01*
X73865548Y-94596444D01*
G37*
G36*
X76124186Y-99113720D02*
G01*
X75672459Y-99113720D01*
X75672459Y-98661993D01*
X76124186Y-98661993D01*
X76124186Y-99113720D01*
G37*
G36*
X72058638Y-99113720D02*
G01*
X71606910Y-99113720D01*
X71606910Y-98661993D01*
X72058638Y-98661993D01*
X72058638Y-99113720D01*
G37*
G36*
X78834553Y-104082725D02*
G01*
X78382824Y-104082725D01*
X78382824Y-103630996D01*
X78834553Y-103630996D01*
X78834553Y-104082725D01*
G37*
G36*
X78834553Y-95499900D02*
G01*
X78382824Y-95499900D01*
X78382824Y-95048172D01*
X78834553Y-95048172D01*
X78834553Y-95499900D01*
G37*
G36*
X77479370Y-98661993D02*
G01*
X77027641Y-98661993D01*
X77027641Y-98210265D01*
X77479370Y-98210265D01*
X77479370Y-98661993D01*
G37*
G36*
X72962093Y-97758538D02*
G01*
X72510365Y-97758538D01*
X72510365Y-97306810D01*
X72962093Y-97306810D01*
X72962093Y-97758538D01*
G37*
G36*
X82448373Y-95951627D02*
G01*
X81996646Y-95951627D01*
X81996646Y-95499900D01*
X82448373Y-95499900D01*
X82448373Y-95951627D01*
G37*
G36*
X79286280Y-95048172D02*
G01*
X78834553Y-95048172D01*
X78834553Y-94596444D01*
X79286280Y-94596444D01*
X79286280Y-95048172D01*
G37*
G36*
X78382824Y-106341362D02*
G01*
X77931097Y-106341362D01*
X77931097Y-105889635D01*
X78382824Y-105889635D01*
X78382824Y-106341362D01*
G37*
G36*
X80189735Y-95951627D02*
G01*
X79738007Y-95951627D01*
X79738007Y-95499900D01*
X80189735Y-95499900D01*
X80189735Y-95951627D01*
G37*
G36*
X75220731Y-92789534D02*
G01*
X74769003Y-92789534D01*
X74769003Y-92337806D01*
X75220731Y-92337806D01*
X75220731Y-92789534D01*
G37*
G36*
X80189735Y-94596444D02*
G01*
X79738007Y-94596444D01*
X79738007Y-94144717D01*
X80189735Y-94144717D01*
X80189735Y-94596444D01*
G37*
G36*
X75672459Y-94596444D02*
G01*
X75220731Y-94596444D01*
X75220731Y-94144717D01*
X75672459Y-94144717D01*
X75672459Y-94596444D01*
G37*
G36*
X74317276Y-95499900D02*
G01*
X73865548Y-95499900D01*
X73865548Y-95048172D01*
X74317276Y-95048172D01*
X74317276Y-95499900D01*
G37*
G36*
X79738007Y-98210265D02*
G01*
X79286280Y-98210265D01*
X79286280Y-97758538D01*
X79738007Y-97758538D01*
X79738007Y-98210265D01*
G37*
G36*
X80641463Y-104534452D02*
G01*
X80189735Y-104534452D01*
X80189735Y-104082725D01*
X80641463Y-104082725D01*
X80641463Y-104534452D01*
G37*
G36*
X81093190Y-106793091D02*
G01*
X80641463Y-106793091D01*
X80641463Y-106341362D01*
X81093190Y-106341362D01*
X81093190Y-106793091D01*
G37*
G36*
X76575914Y-101824086D02*
G01*
X76124186Y-101824086D01*
X76124186Y-101372359D01*
X76575914Y-101372359D01*
X76575914Y-101824086D01*
G37*
G36*
X73413821Y-100017176D02*
G01*
X72962093Y-100017176D01*
X72962093Y-99565449D01*
X73413821Y-99565449D01*
X73413821Y-100017176D01*
G37*
G36*
X74317276Y-99565449D02*
G01*
X73865548Y-99565449D01*
X73865548Y-99113720D01*
X74317276Y-99113720D01*
X74317276Y-99565449D01*
G37*
G36*
X75672459Y-103630996D02*
G01*
X75220731Y-103630996D01*
X75220731Y-103179269D01*
X75672459Y-103179269D01*
X75672459Y-103630996D01*
G37*
G36*
X76575914Y-96855082D02*
G01*
X76124186Y-96855082D01*
X76124186Y-96403355D01*
X76575914Y-96403355D01*
X76575914Y-96855082D01*
G37*
G36*
X80641463Y-95499900D02*
G01*
X80189735Y-95499900D01*
X80189735Y-95048172D01*
X80641463Y-95048172D01*
X80641463Y-95499900D01*
G37*
G36*
X72058638Y-98210265D02*
G01*
X71606910Y-98210265D01*
X71606910Y-97758538D01*
X72058638Y-97758538D01*
X72058638Y-98210265D01*
G37*
G36*
X84707012Y-100017176D02*
G01*
X84255283Y-100017176D01*
X84255283Y-99565449D01*
X84707012Y-99565449D01*
X84707012Y-100017176D01*
G37*
G36*
X72058638Y-94144717D02*
G01*
X70703455Y-94144717D01*
X70703455Y-92789534D01*
X72058638Y-92789534D01*
X72058638Y-94144717D01*
G37*
G36*
X71155182Y-101824086D02*
G01*
X70703455Y-101824086D01*
X70703455Y-101372359D01*
X71155182Y-101372359D01*
X71155182Y-101824086D01*
G37*
G36*
X74317276Y-106341362D02*
G01*
X73865548Y-106341362D01*
X73865548Y-105889635D01*
X74317276Y-105889635D01*
X74317276Y-106341362D01*
G37*
G36*
X78834553Y-93241261D02*
G01*
X78382824Y-93241261D01*
X78382824Y-92789534D01*
X78834553Y-92789534D01*
X78834553Y-93241261D01*
G37*
G36*
X76124186Y-102275814D02*
G01*
X75672459Y-102275814D01*
X75672459Y-101824086D01*
X76124186Y-101824086D01*
X76124186Y-102275814D01*
G37*
G36*
X84707012Y-100920632D02*
G01*
X84255283Y-100920632D01*
X84255283Y-100468903D01*
X84707012Y-100468903D01*
X84707012Y-100920632D01*
G37*
G36*
X83803556Y-100920632D02*
G01*
X83351829Y-100920632D01*
X83351829Y-100468903D01*
X83803556Y-100468903D01*
X83803556Y-100920632D01*
G37*
G36*
X77931097Y-104534452D02*
G01*
X77479370Y-104534452D01*
X77479370Y-104082725D01*
X77931097Y-104082725D01*
X77931097Y-104534452D01*
G37*
G36*
X83803556Y-105437908D02*
G01*
X83351829Y-105437908D01*
X83351829Y-104986179D01*
X83803556Y-104986179D01*
X83803556Y-105437908D01*
G37*
G36*
X82448373Y-96403355D02*
G01*
X81996646Y-96403355D01*
X81996646Y-95951627D01*
X82448373Y-95951627D01*
X82448373Y-96403355D01*
G37*
G36*
X74317276Y-102275814D02*
G01*
X73865548Y-102275814D01*
X73865548Y-101824086D01*
X74317276Y-101824086D01*
X74317276Y-102275814D01*
G37*
G36*
X83351829Y-104082725D02*
G01*
X82900100Y-104082725D01*
X82900100Y-103630996D01*
X83351829Y-103630996D01*
X83351829Y-104082725D01*
G37*
G36*
X83351829Y-98210265D02*
G01*
X82900100Y-98210265D01*
X82900100Y-97758538D01*
X83351829Y-97758538D01*
X83351829Y-98210265D01*
G37*
G36*
X75220731Y-106341362D02*
G01*
X74769003Y-106341362D01*
X74769003Y-105889635D01*
X75220731Y-105889635D01*
X75220731Y-106341362D01*
G37*
G36*
X79286280Y-100920632D02*
G01*
X78834553Y-100920632D01*
X78834553Y-100468903D01*
X79286280Y-100468903D01*
X79286280Y-100920632D01*
G37*
G36*
X80641463Y-97306810D02*
G01*
X80189735Y-97306810D01*
X80189735Y-96855082D01*
X80641463Y-96855082D01*
X80641463Y-97306810D01*
G37*
G36*
X81093190Y-104082725D02*
G01*
X80641463Y-104082725D01*
X80641463Y-103630996D01*
X81093190Y-103630996D01*
X81093190Y-104082725D01*
G37*
G36*
X77479370Y-95951627D02*
G01*
X77027641Y-95951627D01*
X77027641Y-95499900D01*
X77479370Y-95499900D01*
X77479370Y-95951627D01*
G37*
G36*
X73413821Y-101824086D02*
G01*
X72962093Y-101824086D01*
X72962093Y-101372359D01*
X73413821Y-101372359D01*
X73413821Y-101824086D01*
G37*
G36*
X75220731Y-95499900D02*
G01*
X74769003Y-95499900D01*
X74769003Y-95048172D01*
X75220731Y-95048172D01*
X75220731Y-95499900D01*
G37*
G36*
X79738007Y-101824086D02*
G01*
X79286280Y-101824086D01*
X79286280Y-101372359D01*
X79738007Y-101372359D01*
X79738007Y-101824086D01*
G37*
G36*
X81996646Y-97758538D02*
G01*
X81544917Y-97758538D01*
X81544917Y-97306810D01*
X81996646Y-97306810D01*
X81996646Y-97758538D01*
G37*
G36*
X75672459Y-99113720D02*
G01*
X75220731Y-99113720D01*
X75220731Y-98661993D01*
X75672459Y-98661993D01*
X75672459Y-99113720D01*
G37*
G36*
X81996646Y-95951627D02*
G01*
X81544917Y-95951627D01*
X81544917Y-95499900D01*
X81996646Y-95499900D01*
X81996646Y-95951627D01*
G37*
G36*
X74769003Y-92337806D02*
G01*
X74317276Y-92337806D01*
X74317276Y-91886079D01*
X74769003Y-91886079D01*
X74769003Y-92337806D01*
G37*
G36*
X71155182Y-102727542D02*
G01*
X70703455Y-102727542D01*
X70703455Y-102275814D01*
X71155182Y-102275814D01*
X71155182Y-102727542D01*
G37*
G36*
X73413821Y-99113720D02*
G01*
X72962093Y-99113720D01*
X72962093Y-98661993D01*
X73413821Y-98661993D01*
X73413821Y-99113720D01*
G37*
G36*
X84255283Y-102275814D02*
G01*
X83803556Y-102275814D01*
X83803556Y-101824086D01*
X84255283Y-101824086D01*
X84255283Y-102275814D01*
G37*
G36*
X71606910Y-98661993D02*
G01*
X71155182Y-98661993D01*
X71155182Y-98210265D01*
X71606910Y-98210265D01*
X71606910Y-98661993D01*
G37*
G36*
X77931097Y-99113720D02*
G01*
X77479370Y-99113720D01*
X77479370Y-98661993D01*
X77931097Y-98661993D01*
X77931097Y-99113720D01*
G37*
G36*
X80189735Y-103179269D02*
G01*
X79738007Y-103179269D01*
X79738007Y-102727542D01*
X80189735Y-102727542D01*
X80189735Y-103179269D01*
G37*
G36*
X80189735Y-105889635D02*
G01*
X79738007Y-105889635D01*
X79738007Y-105437908D01*
X80189735Y-105437908D01*
X80189735Y-105889635D01*
G37*
G36*
X83351829Y-100468903D02*
G01*
X82900100Y-100468903D01*
X82900100Y-100017176D01*
X83351829Y-100017176D01*
X83351829Y-100468903D01*
G37*
G36*
X73865548Y-105889635D02*
G01*
X73413821Y-105889635D01*
X73413821Y-105437908D01*
X73865548Y-105437908D01*
X73865548Y-105889635D01*
G37*
G36*
X78382824Y-104534452D02*
G01*
X77931097Y-104534452D01*
X77931097Y-104082725D01*
X78382824Y-104082725D01*
X78382824Y-104534452D01*
G37*
G36*
X79286280Y-105889635D02*
G01*
X78834553Y-105889635D01*
X78834553Y-105437908D01*
X79286280Y-105437908D01*
X79286280Y-105889635D01*
G37*
G36*
X74769003Y-96403355D02*
G01*
X74317276Y-96403355D01*
X74317276Y-95951627D01*
X74769003Y-95951627D01*
X74769003Y-96403355D01*
G37*
G36*
X78382824Y-97306810D02*
G01*
X77931097Y-97306810D01*
X77931097Y-96855082D01*
X78382824Y-96855082D01*
X78382824Y-97306810D01*
G37*
G36*
X77027641Y-99113720D02*
G01*
X76575914Y-99113720D01*
X76575914Y-98661993D01*
X77027641Y-98661993D01*
X77027641Y-99113720D01*
G37*
G36*
X71155182Y-101372359D02*
G01*
X70703455Y-101372359D01*
X70703455Y-100920632D01*
X71155182Y-100920632D01*
X71155182Y-101372359D01*
G37*
D11*
X86513921Y-108600000D02*
X67993089Y-108600000D01*
X67993089Y-90079168D01*
X86513921Y-90079168D01*
X86513921Y-108600000D01*
D10*
G36*
X71606910Y-102727542D02*
G01*
X71155182Y-102727542D01*
X71155182Y-102275814D01*
X71606910Y-102275814D01*
X71606910Y-102727542D01*
G37*
G36*
X84255283Y-100468903D02*
G01*
X83803556Y-100468903D01*
X83803556Y-100017176D01*
X84255283Y-100017176D01*
X84255283Y-100468903D01*
G37*
G36*
X82900100Y-102275814D02*
G01*
X82448373Y-102275814D01*
X82448373Y-101824086D01*
X82900100Y-101824086D01*
X82900100Y-102275814D01*
G37*
G36*
X76575914Y-104082725D02*
G01*
X76124186Y-104082725D01*
X76124186Y-103630996D01*
X76575914Y-103630996D01*
X76575914Y-104082725D01*
G37*
G36*
X74317276Y-105437908D02*
G01*
X73865548Y-105437908D01*
X73865548Y-104986179D01*
X74317276Y-104986179D01*
X74317276Y-105437908D01*
G37*
G36*
X77931097Y-104082725D02*
G01*
X77479370Y-104082725D01*
X77479370Y-103630996D01*
X77931097Y-103630996D01*
X77931097Y-104082725D01*
G37*
G36*
X75220731Y-104082725D02*
G01*
X74769003Y-104082725D01*
X74769003Y-103630996D01*
X75220731Y-103630996D01*
X75220731Y-104082725D01*
G37*
G36*
X81093190Y-101372359D02*
G01*
X80641463Y-101372359D01*
X80641463Y-100920632D01*
X81093190Y-100920632D01*
X81093190Y-101372359D01*
G37*
G36*
X81996646Y-99565449D02*
G01*
X81544917Y-99565449D01*
X81544917Y-99113720D01*
X81996646Y-99113720D01*
X81996646Y-99565449D01*
G37*
G36*
X81544917Y-106793091D02*
G01*
X81093190Y-106793091D01*
X81093190Y-106341362D01*
X81544917Y-106341362D01*
X81544917Y-106793091D01*
G37*
G36*
X70703455Y-101824086D02*
G01*
X70251727Y-101824086D01*
X70251727Y-101372359D01*
X70703455Y-101372359D01*
X70703455Y-101824086D01*
G37*
G36*
X79738007Y-93692989D02*
G01*
X79286280Y-93692989D01*
X79286280Y-93241261D01*
X79738007Y-93241261D01*
X79738007Y-93692989D01*
G37*
G36*
X80189735Y-94144717D02*
G01*
X79738007Y-94144717D01*
X79738007Y-93692989D01*
X80189735Y-93692989D01*
X80189735Y-94144717D01*
G37*
G36*
X82900100Y-98210265D02*
G01*
X82448373Y-98210265D01*
X82448373Y-97758538D01*
X82900100Y-97758538D01*
X82900100Y-98210265D01*
G37*
G36*
X74769003Y-95048172D02*
G01*
X74317276Y-95048172D01*
X74317276Y-94596444D01*
X74769003Y-94596444D01*
X74769003Y-95048172D01*
G37*
G36*
X76575914Y-98661993D02*
G01*
X76124186Y-98661993D01*
X76124186Y-98210265D01*
X76575914Y-98210265D01*
X76575914Y-98661993D01*
G37*
G36*
X70251727Y-103179269D02*
G01*
X69800000Y-103179269D01*
X69800000Y-102727542D01*
X70251727Y-102727542D01*
X70251727Y-103179269D01*
G37*
G36*
X76575914Y-105437908D02*
G01*
X76124186Y-105437908D01*
X76124186Y-104986179D01*
X76575914Y-104986179D01*
X76575914Y-105437908D01*
G37*
G36*
X76575914Y-95499900D02*
G01*
X76124186Y-95499900D01*
X76124186Y-95048172D01*
X76575914Y-95048172D01*
X76575914Y-95499900D01*
G37*
G36*
X84707012Y-95048172D02*
G01*
X81544917Y-95048172D01*
X81544917Y-94596444D01*
X81544917Y-92337806D01*
X81996646Y-92337806D01*
X81996646Y-94596444D01*
X84255283Y-94596444D01*
X84255283Y-92337806D01*
X81996646Y-92337806D01*
X81544917Y-92337806D01*
X81544917Y-91886079D01*
X84707012Y-91886079D01*
X84707012Y-95048172D01*
G37*
G36*
X77931097Y-97306810D02*
G01*
X77479370Y-97306810D01*
X77479370Y-96855082D01*
X77931097Y-96855082D01*
X77931097Y-97306810D01*
G37*
G36*
X77479370Y-105889635D02*
G01*
X77027641Y-105889635D01*
X77027641Y-105437908D01*
X77479370Y-105437908D01*
X77479370Y-105889635D01*
G37*
G36*
X78382824Y-93692989D02*
G01*
X77931097Y-93692989D01*
X77931097Y-93241261D01*
X78382824Y-93241261D01*
X78382824Y-93692989D01*
G37*
G36*
X79286280Y-93241261D02*
G01*
X78834553Y-93241261D01*
X78834553Y-92789534D01*
X79286280Y-92789534D01*
X79286280Y-93241261D01*
G37*
G36*
X81093190Y-93692989D02*
G01*
X80641463Y-93692989D01*
X80641463Y-93241261D01*
X81093190Y-93241261D01*
X81093190Y-93692989D01*
G37*
G36*
X82900100Y-99565449D02*
G01*
X82448373Y-99565449D01*
X82448373Y-99113720D01*
X82900100Y-99113720D01*
X82900100Y-99565449D01*
G37*
G36*
X78834553Y-104534452D02*
G01*
X78382824Y-104534452D01*
X78382824Y-104082725D01*
X78834553Y-104082725D01*
X78834553Y-104534452D01*
G37*
G36*
X77027641Y-101372359D02*
G01*
X76575914Y-101372359D01*
X76575914Y-100920632D01*
X77027641Y-100920632D01*
X77027641Y-101372359D01*
G37*
G36*
X81544917Y-100017176D02*
G01*
X81093190Y-100017176D01*
X81093190Y-99565449D01*
X81544917Y-99565449D01*
X81544917Y-100017176D01*
G37*
G36*
X83351829Y-106793091D02*
G01*
X82900100Y-106793091D01*
X82900100Y-106341362D01*
X83351829Y-106341362D01*
X83351829Y-106793091D01*
G37*
G36*
X72962093Y-102275814D02*
G01*
X72510365Y-102275814D01*
X72510365Y-101824086D01*
X72962093Y-101824086D01*
X72962093Y-102275814D01*
G37*
G36*
X70251727Y-96855082D02*
G01*
X69800000Y-96855082D01*
X69800000Y-96403355D01*
X70251727Y-96403355D01*
X70251727Y-96855082D01*
G37*
G36*
X83351829Y-105437908D02*
G01*
X82900100Y-105437908D01*
X82900100Y-104986179D01*
X83351829Y-104986179D01*
X83351829Y-105437908D01*
G37*
G36*
X79286280Y-104534452D02*
G01*
X78834553Y-104534452D01*
X78834553Y-104082725D01*
X79286280Y-104082725D01*
X79286280Y-104534452D01*
G37*
G36*
X78382824Y-98210265D02*
G01*
X77931097Y-98210265D01*
X77931097Y-97758538D01*
X78382824Y-97758538D01*
X78382824Y-98210265D01*
G37*
G36*
X77931097Y-96855082D02*
G01*
X77479370Y-96855082D01*
X77479370Y-96403355D01*
X77931097Y-96403355D01*
X77931097Y-96855082D01*
G37*
G36*
X77027641Y-104986179D02*
G01*
X76575914Y-104986179D01*
X76575914Y-104534452D01*
X77027641Y-104534452D01*
X77027641Y-104986179D01*
G37*
G36*
X76124186Y-96403355D02*
G01*
X75672459Y-96403355D01*
X75672459Y-95951627D01*
X76124186Y-95951627D01*
X76124186Y-96403355D01*
G37*
G36*
X75672459Y-106341362D02*
G01*
X75220731Y-106341362D01*
X75220731Y-105889635D01*
X75672459Y-105889635D01*
X75672459Y-106341362D01*
G37*
G36*
X83803556Y-106341362D02*
G01*
X83351829Y-106341362D01*
X83351829Y-105889635D01*
X83803556Y-105889635D01*
X83803556Y-106341362D01*
G37*
G36*
X71606910Y-99113720D02*
G01*
X71155182Y-99113720D01*
X71155182Y-98661993D01*
X71606910Y-98661993D01*
X71606910Y-99113720D01*
G37*
G36*
X80641463Y-106793091D02*
G01*
X80189735Y-106793091D01*
X80189735Y-106341362D01*
X80641463Y-106341362D01*
X80641463Y-106793091D01*
G37*
G36*
X83351829Y-103630996D02*
G01*
X82900100Y-103630996D01*
X82900100Y-103179269D01*
X83351829Y-103179269D01*
X83351829Y-103630996D01*
G37*
G36*
X76575914Y-103179269D02*
G01*
X76124186Y-103179269D01*
X76124186Y-102727542D01*
X76575914Y-102727542D01*
X76575914Y-103179269D01*
G37*
G36*
X77479370Y-95499900D02*
G01*
X77027641Y-95499900D01*
X77027641Y-95048172D01*
X77479370Y-95048172D01*
X77479370Y-95499900D01*
G37*
G36*
X77479370Y-103630996D02*
G01*
X77027641Y-103630996D01*
X77027641Y-103179269D01*
X77479370Y-103179269D01*
X77479370Y-103630996D01*
G37*
G36*
X81093190Y-95951627D02*
G01*
X80641463Y-95951627D01*
X80641463Y-95499900D01*
X81093190Y-95499900D01*
X81093190Y-95951627D01*
G37*
G36*
X71606910Y-103179269D02*
G01*
X71155182Y-103179269D01*
X71155182Y-102727542D01*
X71606910Y-102727542D01*
X71606910Y-103179269D01*
G37*
G36*
X82448373Y-98661993D02*
G01*
X81996646Y-98661993D01*
X81996646Y-98210265D01*
X82448373Y-98210265D01*
X82448373Y-98661993D01*
G37*
G36*
X79286280Y-106341362D02*
G01*
X78834553Y-106341362D01*
X78834553Y-105889635D01*
X79286280Y-105889635D01*
X79286280Y-106341362D01*
G37*
G36*
X81544917Y-106341362D02*
G01*
X81093190Y-106341362D01*
X81093190Y-105889635D01*
X81544917Y-105889635D01*
X81544917Y-106341362D01*
G37*
G36*
X76124186Y-105437908D02*
G01*
X75672459Y-105437908D01*
X75672459Y-104986179D01*
X76124186Y-104986179D01*
X76124186Y-105437908D01*
G37*
G36*
X80641463Y-100468903D02*
G01*
X80189735Y-100468903D01*
X80189735Y-100017176D01*
X80641463Y-100017176D01*
X80641463Y-100468903D01*
G37*
G36*
X81093190Y-98661993D02*
G01*
X80641463Y-98661993D01*
X80641463Y-98210265D01*
X81093190Y-98210265D01*
X81093190Y-98661993D01*
G37*
G36*
X73865548Y-95048172D02*
G01*
X73413821Y-95048172D01*
X73413821Y-94596444D01*
X73865548Y-94596444D01*
X73865548Y-95048172D01*
G37*
G36*
X81996646Y-102727542D02*
G01*
X81544917Y-102727542D01*
X81544917Y-102275814D01*
X81996646Y-102275814D01*
X81996646Y-102727542D01*
G37*
G36*
X76575914Y-94596444D02*
G01*
X76124186Y-94596444D01*
X76124186Y-94144717D01*
X76575914Y-94144717D01*
X76575914Y-94596444D01*
G37*
G36*
X81093190Y-94144717D02*
G01*
X80641463Y-94144717D01*
X80641463Y-93692989D01*
X81093190Y-93692989D01*
X81093190Y-94144717D01*
G37*
G36*
X84255283Y-104986179D02*
G01*
X83803556Y-104986179D01*
X83803556Y-104534452D01*
X84255283Y-104534452D01*
X84255283Y-104986179D01*
G37*
G36*
X77479370Y-99565449D02*
G01*
X77027641Y-99565449D01*
X77027641Y-99113720D01*
X77479370Y-99113720D01*
X77479370Y-99565449D01*
G37*
G36*
X77027641Y-98661993D02*
G01*
X76575914Y-98661993D01*
X76575914Y-98210265D01*
X77027641Y-98210265D01*
X77027641Y-98661993D01*
G37*
G36*
X74317276Y-94144717D02*
G01*
X73865548Y-94144717D01*
X73865548Y-93692989D01*
X74317276Y-93692989D01*
X74317276Y-94144717D01*
G37*
G36*
X84255283Y-105437908D02*
G01*
X83803556Y-105437908D01*
X83803556Y-104986179D01*
X84255283Y-104986179D01*
X84255283Y-105437908D01*
G37*
G36*
X76575914Y-100017176D02*
G01*
X76124186Y-100017176D01*
X76124186Y-99565449D01*
X76575914Y-99565449D01*
X76575914Y-100017176D01*
G37*
G36*
X71155182Y-103179269D02*
G01*
X70703455Y-103179269D01*
X70703455Y-102727542D01*
X71155182Y-102727542D01*
X71155182Y-103179269D01*
G37*
G36*
X75220731Y-93692989D02*
G01*
X74769003Y-93692989D01*
X74769003Y-93241261D01*
X75220731Y-93241261D01*
X75220731Y-93692989D01*
G37*
G36*
X81093190Y-95048172D02*
G01*
X80641463Y-95048172D01*
X80641463Y-94596444D01*
X81093190Y-94596444D01*
X81093190Y-95048172D01*
G37*
G36*
X76575914Y-92337806D02*
G01*
X76124186Y-92337806D01*
X76124186Y-91886079D01*
X76575914Y-91886079D01*
X76575914Y-92337806D01*
G37*
G36*
X83803556Y-104534452D02*
G01*
X83351829Y-104534452D01*
X83351829Y-104082725D01*
X83803556Y-104082725D01*
X83803556Y-104534452D01*
G37*
G36*
X82900100Y-103179269D02*
G01*
X82448373Y-103179269D01*
X82448373Y-102727542D01*
X82900100Y-102727542D01*
X82900100Y-103179269D01*
G37*
G36*
X75672459Y-95048172D02*
G01*
X75220731Y-95048172D01*
X75220731Y-94596444D01*
X75672459Y-94596444D01*
X75672459Y-95048172D01*
G37*
G36*
X82448373Y-105437908D02*
G01*
X81996646Y-105437908D01*
X81996646Y-104986179D01*
X82448373Y-104986179D01*
X82448373Y-105437908D01*
G37*
G36*
X72058638Y-100920632D02*
G01*
X71606910Y-100920632D01*
X71606910Y-100468903D01*
X72058638Y-100468903D01*
X72058638Y-100920632D01*
G37*
G36*
X77479370Y-95048172D02*
G01*
X77027641Y-95048172D01*
X77027641Y-94596444D01*
X77479370Y-94596444D01*
X77479370Y-95048172D01*
G37*
G36*
X76124186Y-104534452D02*
G01*
X75672459Y-104534452D01*
X75672459Y-104082725D01*
X76124186Y-104082725D01*
X76124186Y-104534452D01*
G37*
G36*
X81544917Y-99565449D02*
G01*
X81093190Y-99565449D01*
X81093190Y-99113720D01*
X81544917Y-99113720D01*
X81544917Y-99565449D01*
G37*
G36*
X79738007Y-94144717D02*
G01*
X79286280Y-94144717D01*
X79286280Y-93692989D01*
X79738007Y-93692989D01*
X79738007Y-94144717D01*
G37*
G36*
X75220731Y-103630996D02*
G01*
X74769003Y-103630996D01*
X74769003Y-103179269D01*
X75220731Y-103179269D01*
X75220731Y-103630996D01*
G37*
G36*
X77027641Y-106793091D02*
G01*
X76575914Y-106793091D01*
X76575914Y-106341362D01*
X77027641Y-106341362D01*
X77027641Y-106793091D01*
G37*
G36*
X79286280Y-96403355D02*
G01*
X78834553Y-96403355D01*
X78834553Y-95951627D01*
X79286280Y-95951627D01*
X79286280Y-96403355D01*
G37*
G36*
X83803556Y-101372359D02*
G01*
X83351829Y-101372359D01*
X83351829Y-100920632D01*
X83803556Y-100920632D01*
X83803556Y-101372359D01*
G37*
G36*
X84255283Y-96855082D02*
G01*
X83803556Y-96855082D01*
X83803556Y-96403355D01*
X84255283Y-96403355D01*
X84255283Y-96855082D01*
G37*
G36*
X77027641Y-92789534D02*
G01*
X76575914Y-92789534D01*
X76575914Y-92337806D01*
X77027641Y-92337806D01*
X77027641Y-92789534D01*
G37*
G36*
X72058638Y-97306810D02*
G01*
X71606910Y-97306810D01*
X71606910Y-96855082D01*
X72058638Y-96855082D01*
X72058638Y-97306810D01*
G37*
G36*
X81093190Y-100017176D02*
G01*
X80641463Y-100017176D01*
X80641463Y-99565449D01*
X81093190Y-99565449D01*
X81093190Y-100017176D01*
G37*
G36*
X72510365Y-102275814D02*
G01*
X72058638Y-102275814D01*
X72058638Y-101824086D01*
X72510365Y-101824086D01*
X72510365Y-102275814D01*
G37*
G36*
X81544917Y-97758538D02*
G01*
X81093190Y-97758538D01*
X81093190Y-97306810D01*
X81544917Y-97306810D01*
X81544917Y-97758538D01*
G37*
G36*
X79286280Y-94144717D02*
G01*
X78834553Y-94144717D01*
X78834553Y-93692989D01*
X79286280Y-93692989D01*
X79286280Y-94144717D01*
G37*
G36*
X72510365Y-98661993D02*
G01*
X72058638Y-98661993D01*
X72058638Y-98210265D01*
X72510365Y-98210265D01*
X72510365Y-98661993D01*
G37*
G36*
X76575914Y-101372359D02*
G01*
X76124186Y-101372359D01*
X76124186Y-100920632D01*
X76575914Y-100920632D01*
X76575914Y-101372359D01*
G37*
G36*
X75220731Y-100017176D02*
G01*
X74769003Y-100017176D01*
X74769003Y-99565449D01*
X75220731Y-99565449D01*
X75220731Y-100017176D01*
G37*
G36*
X77027641Y-98210265D02*
G01*
X76575914Y-98210265D01*
X76575914Y-97758538D01*
X77027641Y-97758538D01*
X77027641Y-98210265D01*
G37*
G36*
X81996646Y-104986179D02*
G01*
X81544917Y-104986179D01*
X81544917Y-104534452D01*
X81996646Y-104534452D01*
X81996646Y-104986179D01*
G37*
G36*
X76575914Y-94144717D02*
G01*
X76124186Y-94144717D01*
X76124186Y-93692989D01*
X76575914Y-93692989D01*
X76575914Y-94144717D01*
G37*
G36*
X73413821Y-101372359D02*
G01*
X72962093Y-101372359D01*
X72962093Y-100920632D01*
X73413821Y-100920632D01*
X73413821Y-101372359D01*
G37*
G36*
X80641463Y-102275814D02*
G01*
X80189735Y-102275814D01*
X80189735Y-101824086D01*
X80641463Y-101824086D01*
X80641463Y-102275814D01*
G37*
G36*
X78834553Y-92789534D02*
G01*
X78382824Y-92789534D01*
X78382824Y-92337806D01*
X78834553Y-92337806D01*
X78834553Y-92789534D01*
G37*
G36*
X80641463Y-92789534D02*
G01*
X80189735Y-92789534D01*
X80189735Y-92337806D01*
X80641463Y-92337806D01*
X80641463Y-92789534D01*
G37*
G36*
X79738007Y-104986179D02*
G01*
X79286280Y-104986179D01*
X79286280Y-104534452D01*
X79738007Y-104534452D01*
X79738007Y-104986179D01*
G37*
G36*
X81093190Y-104534452D02*
G01*
X80641463Y-104534452D01*
X80641463Y-104082725D01*
X81093190Y-104082725D01*
X81093190Y-104534452D01*
G37*
G36*
X71155182Y-97306810D02*
G01*
X70703455Y-97306810D01*
X70703455Y-96855082D01*
X71155182Y-96855082D01*
X71155182Y-97306810D01*
G37*
G36*
X76124186Y-105889635D02*
G01*
X75672459Y-105889635D01*
X75672459Y-105437908D01*
X76124186Y-105437908D01*
X76124186Y-105889635D01*
G37*
G36*
X72058638Y-98661993D02*
G01*
X71606910Y-98661993D01*
X71606910Y-98210265D01*
X72058638Y-98210265D01*
X72058638Y-98661993D01*
G37*
G36*
X79738007Y-95499900D02*
G01*
X79286280Y-95499900D01*
X79286280Y-95048172D01*
X79738007Y-95048172D01*
X79738007Y-95499900D01*
G37*
G36*
X71606910Y-95951627D02*
G01*
X71155182Y-95951627D01*
X71155182Y-95499900D01*
X71606910Y-95499900D01*
X71606910Y-95951627D01*
G37*
G36*
X83803556Y-100017176D02*
G01*
X83351829Y-100017176D01*
X83351829Y-99565449D01*
X83803556Y-99565449D01*
X83803556Y-100017176D01*
G37*
G36*
X81544917Y-104986179D02*
G01*
X81093190Y-104986179D01*
X81093190Y-104534452D01*
X81544917Y-104534452D01*
X81544917Y-104986179D01*
G37*
G36*
X70251727Y-100017176D02*
G01*
X69800000Y-100017176D01*
X69800000Y-99565449D01*
X70251727Y-99565449D01*
X70251727Y-100017176D01*
G37*
G36*
X75672459Y-92789534D02*
G01*
X75220731Y-92789534D01*
X75220731Y-92337806D01*
X75672459Y-92337806D01*
X75672459Y-92789534D01*
G37*
G36*
X75220731Y-101824086D02*
G01*
X74769003Y-101824086D01*
X74769003Y-101372359D01*
X75220731Y-101372359D01*
X75220731Y-101824086D01*
G37*
G36*
X82900100Y-106341362D02*
G01*
X82448373Y-106341362D01*
X82448373Y-105889635D01*
X82900100Y-105889635D01*
X82900100Y-106341362D01*
G37*
G36*
X77931097Y-94596444D02*
G01*
X77479370Y-94596444D01*
X77479370Y-94144717D01*
X77931097Y-94144717D01*
X77931097Y-94596444D01*
G37*
G36*
X75672459Y-98661993D02*
G01*
X75220731Y-98661993D01*
X75220731Y-98210265D01*
X75672459Y-98210265D01*
X75672459Y-98661993D01*
G37*
G36*
X77479370Y-103179269D02*
G01*
X77027641Y-103179269D01*
X77027641Y-102727542D01*
X77479370Y-102727542D01*
X77479370Y-103179269D01*
G37*
G36*
X83803556Y-95951627D02*
G01*
X83351829Y-95951627D01*
X83351829Y-95499900D01*
X83803556Y-95499900D01*
X83803556Y-95951627D01*
G37*
G36*
X79286280Y-95951627D02*
G01*
X78834553Y-95951627D01*
X78834553Y-95499900D01*
X79286280Y-95499900D01*
X79286280Y-95951627D01*
G37*
G36*
X83803556Y-99113720D02*
G01*
X83351829Y-99113720D01*
X83351829Y-98661993D01*
X83803556Y-98661993D01*
X83803556Y-99113720D01*
G37*
G36*
X77027641Y-105889635D02*
G01*
X76575914Y-105889635D01*
X76575914Y-105437908D01*
X77027641Y-105437908D01*
X77027641Y-105889635D01*
G37*
G36*
X74317276Y-93692989D02*
G01*
X73865548Y-93692989D01*
X73865548Y-93241261D01*
X74317276Y-93241261D01*
X74317276Y-93692989D01*
G37*
G36*
X80189735Y-105437908D02*
G01*
X79738007Y-105437908D01*
X79738007Y-104986179D01*
X80189735Y-104986179D01*
X80189735Y-105437908D01*
G37*
G36*
X80189735Y-92789534D02*
G01*
X79738007Y-92789534D01*
X79738007Y-92337806D01*
X80189735Y-92337806D01*
X80189735Y-92789534D01*
G37*
G36*
X78382824Y-100017176D02*
G01*
X77931097Y-100017176D01*
X77931097Y-99565449D01*
X78382824Y-99565449D01*
X78382824Y-100017176D01*
G37*
G36*
X72510365Y-95951627D02*
G01*
X72058638Y-95951627D01*
X72058638Y-95499900D01*
X72510365Y-95499900D01*
X72510365Y-95951627D01*
G37*
G36*
X83351829Y-95951627D02*
G01*
X82900100Y-95951627D01*
X82900100Y-95499900D01*
X83351829Y-95499900D01*
X83351829Y-95951627D01*
G37*
G36*
X80641463Y-106341362D02*
G01*
X80189735Y-106341362D01*
X80189735Y-105889635D01*
X80641463Y-105889635D01*
X80641463Y-106341362D01*
G37*
G36*
X79286280Y-92337806D02*
G01*
X78834553Y-92337806D01*
X78834553Y-91886079D01*
X79286280Y-91886079D01*
X79286280Y-92337806D01*
G37*
G36*
X81996646Y-100920632D02*
G01*
X81544917Y-100920632D01*
X81544917Y-100468903D01*
X81996646Y-100468903D01*
X81996646Y-100920632D01*
G37*
G36*
X81544917Y-103179269D02*
G01*
X81093190Y-103179269D01*
X81093190Y-102727542D01*
X81544917Y-102727542D01*
X81544917Y-103179269D01*
G37*
G36*
X79286280Y-95499900D02*
G01*
X78834553Y-95499900D01*
X78834553Y-95048172D01*
X79286280Y-95048172D01*
X79286280Y-95499900D01*
G37*
G36*
X83803556Y-99565449D02*
G01*
X83351829Y-99565449D01*
X83351829Y-99113720D01*
X83803556Y-99113720D01*
X83803556Y-99565449D01*
G37*
G36*
X72962093Y-96855082D02*
G01*
X72510365Y-96855082D01*
X72510365Y-96403355D01*
X72962093Y-96403355D01*
X72962093Y-96855082D01*
G37*
G36*
X82900100Y-104534452D02*
G01*
X82448373Y-104534452D01*
X82448373Y-104082725D01*
X82900100Y-104082725D01*
X82900100Y-104534452D01*
G37*
G36*
X81544917Y-105437908D02*
G01*
X81093190Y-105437908D01*
X81093190Y-104986179D01*
X81544917Y-104986179D01*
X81544917Y-105437908D01*
G37*
G36*
X78834553Y-95951627D02*
G01*
X78382824Y-95951627D01*
X78382824Y-95499900D01*
X78834553Y-95499900D01*
X78834553Y-95951627D01*
G37*
G36*
X81093190Y-100468903D02*
G01*
X80641463Y-100468903D01*
X80641463Y-100017176D01*
X81093190Y-100017176D01*
X81093190Y-100468903D01*
G37*
G36*
X76575914Y-105889635D02*
G01*
X76124186Y-105889635D01*
X76124186Y-105437908D01*
X76575914Y-105437908D01*
X76575914Y-105889635D01*
G37*
G36*
X73865548Y-102275814D02*
G01*
X73413821Y-102275814D01*
X73413821Y-101824086D01*
X73865548Y-101824086D01*
X73865548Y-102275814D01*
G37*
G36*
X79738007Y-103630996D02*
G01*
X79286280Y-103630996D01*
X79286280Y-103179269D01*
X79738007Y-103179269D01*
X79738007Y-103630996D01*
G37*
G36*
X84255283Y-106341362D02*
G01*
X83803556Y-106341362D01*
X83803556Y-105889635D01*
X84255283Y-105889635D01*
X84255283Y-106341362D01*
G37*
G36*
X80189735Y-101372359D02*
G01*
X79738007Y-101372359D01*
X79738007Y-100920632D01*
X80189735Y-100920632D01*
X80189735Y-101372359D01*
G37*
G36*
X71155182Y-96855082D02*
G01*
X70703455Y-96855082D01*
X70703455Y-96403355D01*
X71155182Y-96403355D01*
X71155182Y-96855082D01*
G37*
G36*
X82900100Y-95951627D02*
G01*
X82448373Y-95951627D01*
X82448373Y-95499900D01*
X82900100Y-95499900D01*
X82900100Y-95951627D01*
G37*
G36*
X81093190Y-103630996D02*
G01*
X80641463Y-103630996D01*
X80641463Y-103179269D01*
X81093190Y-103179269D01*
X81093190Y-103630996D01*
G37*
G36*
X79738007Y-104534452D02*
G01*
X79286280Y-104534452D01*
X79286280Y-104082725D01*
X79738007Y-104082725D01*
X79738007Y-104534452D01*
G37*
G36*
X77479370Y-96403355D02*
G01*
X77027641Y-96403355D01*
X77027641Y-95951627D01*
X77479370Y-95951627D01*
X77479370Y-96403355D01*
G37*
G36*
X77479370Y-104986179D02*
G01*
X77027641Y-104986179D01*
X77027641Y-104534452D01*
X77479370Y-104534452D01*
X77479370Y-104986179D01*
G37*
G36*
X82448373Y-100017176D02*
G01*
X81996646Y-100017176D01*
X81996646Y-99565449D01*
X82448373Y-99565449D01*
X82448373Y-100017176D01*
G37*
G36*
X70251727Y-101824086D02*
G01*
X69800000Y-101824086D01*
X69800000Y-101372359D01*
X70251727Y-101372359D01*
X70251727Y-101824086D01*
G37*
G36*
X81996646Y-99113720D02*
G01*
X81544917Y-99113720D01*
X81544917Y-98661993D01*
X81996646Y-98661993D01*
X81996646Y-99113720D01*
G37*
G36*
X78834553Y-100468903D02*
G01*
X78382824Y-100468903D01*
X78382824Y-100017176D01*
X78834553Y-100017176D01*
X78834553Y-100468903D01*
G37*
G36*
X71606910Y-96403355D02*
G01*
X71155182Y-96403355D01*
X71155182Y-95951627D01*
X71606910Y-95951627D01*
X71606910Y-96403355D01*
G37*
G36*
X82900100Y-103630996D02*
G01*
X82448373Y-103630996D01*
X82448373Y-103179269D01*
X82900100Y-103179269D01*
X82900100Y-103630996D01*
G37*
G36*
X76124186Y-98661993D02*
G01*
X75672459Y-98661993D01*
X75672459Y-98210265D01*
X76124186Y-98210265D01*
X76124186Y-98661993D01*
G37*
G36*
X78382824Y-101372359D02*
G01*
X77931097Y-101372359D01*
X77931097Y-100920632D01*
X78382824Y-100920632D01*
X78382824Y-101372359D01*
G37*
G36*
X80189735Y-97758538D02*
G01*
X79738007Y-97758538D01*
X79738007Y-97306810D01*
X80189735Y-97306810D01*
X80189735Y-97758538D01*
G37*
G36*
X81093190Y-103179269D02*
G01*
X80641463Y-103179269D01*
X80641463Y-102727542D01*
X81093190Y-102727542D01*
X81093190Y-103179269D01*
G37*
G36*
X74317276Y-94596444D02*
G01*
X73865548Y-94596444D01*
X73865548Y-94144717D01*
X74317276Y-94144717D01*
X74317276Y-94596444D01*
G37*
G36*
X82448373Y-103179269D02*
G01*
X81996646Y-103179269D01*
X81996646Y-102727542D01*
X82448373Y-102727542D01*
X82448373Y-103179269D01*
G37*
G36*
X73865548Y-105437908D02*
G01*
X73413821Y-105437908D01*
X73413821Y-104986179D01*
X73865548Y-104986179D01*
X73865548Y-105437908D01*
G37*
G36*
X73865548Y-106793091D02*
G01*
X73413821Y-106793091D01*
X73413821Y-106341362D01*
X73865548Y-106341362D01*
X73865548Y-106793091D01*
G37*
G36*
X76575914Y-106341362D02*
G01*
X76124186Y-106341362D01*
X76124186Y-105889635D01*
X76575914Y-105889635D01*
X76575914Y-106341362D01*
G37*
G36*
X77931097Y-98661993D02*
G01*
X77479370Y-98661993D01*
X77479370Y-98210265D01*
X77931097Y-98210265D01*
X77931097Y-98661993D01*
G37*
G36*
X79286280Y-103179269D02*
G01*
X78834553Y-103179269D01*
X78834553Y-102727542D01*
X79286280Y-102727542D01*
X79286280Y-103179269D01*
G37*
G36*
X82900100Y-104082725D02*
G01*
X82448373Y-104082725D01*
X82448373Y-103630996D01*
X82900100Y-103630996D01*
X82900100Y-104082725D01*
G37*
G36*
X78834553Y-105437908D02*
G01*
X78382824Y-105437908D01*
X78382824Y-104986179D01*
X78834553Y-104986179D01*
X78834553Y-105437908D01*
G37*
G36*
X71606910Y-101824086D02*
G01*
X71155182Y-101824086D01*
X71155182Y-101372359D01*
X71606910Y-101372359D01*
X71606910Y-101824086D01*
G37*
G36*
X76124186Y-106341362D02*
G01*
X75672459Y-106341362D01*
X75672459Y-105889635D01*
X76124186Y-105889635D01*
X76124186Y-106341362D01*
G37*
G36*
X84255283Y-100017176D02*
G01*
X83803556Y-100017176D01*
X83803556Y-99565449D01*
X84255283Y-99565449D01*
X84255283Y-100017176D01*
G37*
G36*
X84707012Y-97306810D02*
G01*
X84255283Y-97306810D01*
X84255283Y-96855082D01*
X84707012Y-96855082D01*
X84707012Y-97306810D01*
G37*
G36*
X71155182Y-100017176D02*
G01*
X70703455Y-100017176D01*
X70703455Y-99565449D01*
X71155182Y-99565449D01*
X71155182Y-100017176D01*
G37*
G36*
X80189735Y-95499900D02*
G01*
X79738007Y-95499900D01*
X79738007Y-95048172D01*
X80189735Y-95048172D01*
X80189735Y-95499900D01*
G37*
G36*
X72962093Y-95951627D02*
G01*
X72510365Y-95951627D01*
X72510365Y-95499900D01*
X72962093Y-95499900D01*
X72962093Y-95951627D01*
G37*
G36*
X80189735Y-98210265D02*
G01*
X79738007Y-98210265D01*
X79738007Y-97758538D01*
X80189735Y-97758538D01*
X80189735Y-98210265D01*
G37*
G36*
X78834553Y-97306810D02*
G01*
X78382824Y-97306810D01*
X78382824Y-96855082D01*
X78834553Y-96855082D01*
X78834553Y-97306810D01*
G37*
G36*
X78834553Y-106341362D02*
G01*
X78382824Y-106341362D01*
X78382824Y-105889635D01*
X78834553Y-105889635D01*
X78834553Y-106341362D01*
G37*
G36*
X77931097Y-106341362D02*
G01*
X77479370Y-106341362D01*
X77479370Y-105889635D01*
X77931097Y-105889635D01*
X77931097Y-106341362D01*
G37*
G36*
X70251727Y-97306810D02*
G01*
X69800000Y-97306810D01*
X69800000Y-96855082D01*
X70251727Y-96855082D01*
X70251727Y-97306810D01*
G37*
G36*
X77931097Y-102275814D02*
G01*
X77479370Y-102275814D01*
X77479370Y-101824086D01*
X77931097Y-101824086D01*
X77931097Y-102275814D01*
G37*
G36*
X78382824Y-105437908D02*
G01*
X77931097Y-105437908D01*
X77931097Y-104986179D01*
X78382824Y-104986179D01*
X78382824Y-105437908D01*
G37*
G36*
X77479370Y-101824086D02*
G01*
X77027641Y-101824086D01*
X77027641Y-101372359D01*
X77479370Y-101372359D01*
X77479370Y-101824086D01*
G37*
G36*
X81996646Y-105889635D02*
G01*
X81544917Y-105889635D01*
X81544917Y-105437908D01*
X81996646Y-105437908D01*
X81996646Y-105889635D01*
G37*
G36*
X73865548Y-94144717D02*
G01*
X73413821Y-94144717D01*
X73413821Y-93692989D01*
X73865548Y-93692989D01*
X73865548Y-94144717D01*
G37*
G36*
X77027641Y-96855082D02*
G01*
X76575914Y-96855082D01*
X76575914Y-96403355D01*
X77027641Y-96403355D01*
X77027641Y-96855082D01*
G37*
G36*
X77479370Y-92789534D02*
G01*
X77027641Y-92789534D01*
X77027641Y-92337806D01*
X77479370Y-92337806D01*
X77479370Y-92789534D01*
G37*
G36*
X70703455Y-100468903D02*
G01*
X70251727Y-100468903D01*
X70251727Y-100017176D01*
X70703455Y-100017176D01*
X70703455Y-100468903D01*
G37*
G36*
X72058638Y-96403355D02*
G01*
X71606910Y-96403355D01*
X71606910Y-95951627D01*
X72058638Y-95951627D01*
X72058638Y-96403355D01*
G37*
G36*
X72510365Y-97758538D02*
G01*
X72058638Y-97758538D01*
X72058638Y-97306810D01*
X72510365Y-97306810D01*
X72510365Y-97758538D01*
G37*
G36*
X70703455Y-101372359D02*
G01*
X70251727Y-101372359D01*
X70251727Y-100920632D01*
X70703455Y-100920632D01*
X70703455Y-101372359D01*
G37*
G36*
X81093190Y-106341362D02*
G01*
X80641463Y-106341362D01*
X80641463Y-105889635D01*
X81093190Y-105889635D01*
X81093190Y-106341362D01*
G37*
G36*
X81093190Y-102275814D02*
G01*
X80641463Y-102275814D01*
X80641463Y-101824086D01*
X81093190Y-101824086D01*
X81093190Y-102275814D01*
G37*
G36*
X82900100Y-100468903D02*
G01*
X82448373Y-100468903D01*
X82448373Y-100017176D01*
X82900100Y-100017176D01*
X82900100Y-100468903D01*
G37*
G36*
X80641463Y-100920632D02*
G01*
X80189735Y-100920632D01*
X80189735Y-100468903D01*
X80641463Y-100468903D01*
X80641463Y-100920632D01*
G37*
G36*
X73865548Y-104986179D02*
G01*
X73413821Y-104986179D01*
X73413821Y-104534452D01*
X73865548Y-104534452D01*
X73865548Y-104986179D01*
G37*
G36*
X80641463Y-102727542D02*
G01*
X80189735Y-102727542D01*
X80189735Y-102275814D01*
X80641463Y-102275814D01*
X80641463Y-102727542D01*
G37*
G36*
X77027641Y-97758538D02*
G01*
X76575914Y-97758538D01*
X76575914Y-97306810D01*
X77027641Y-97306810D01*
X77027641Y-97758538D01*
G37*
G36*
X81996646Y-104082725D02*
G01*
X81544917Y-104082725D01*
X81544917Y-103630996D01*
X81996646Y-103630996D01*
X81996646Y-104082725D01*
G37*
G36*
X80189735Y-100468903D02*
G01*
X79738007Y-100468903D01*
X79738007Y-100017176D01*
X80189735Y-100017176D01*
X80189735Y-100468903D01*
G37*
G36*
X77027641Y-106341362D02*
G01*
X76575914Y-106341362D01*
X76575914Y-105889635D01*
X77027641Y-105889635D01*
X77027641Y-106341362D01*
G37*
G36*
X76575914Y-100920632D02*
G01*
X76124186Y-100920632D01*
X76124186Y-100468903D01*
X76575914Y-100468903D01*
X76575914Y-100920632D01*
G37*
G36*
X78834553Y-96403355D02*
G01*
X78382824Y-96403355D01*
X78382824Y-95951627D01*
X78834553Y-95951627D01*
X78834553Y-96403355D01*
G37*
G36*
X77931097Y-103179269D02*
G01*
X77479370Y-103179269D01*
X77479370Y-102727542D01*
X77931097Y-102727542D01*
X77931097Y-103179269D01*
G37*
G36*
X80641463Y-101824086D02*
G01*
X80189735Y-101824086D01*
X80189735Y-101372359D01*
X80641463Y-101372359D01*
X80641463Y-101824086D01*
G37*
G36*
X72058638Y-105889635D02*
G01*
X70703455Y-105889635D01*
X70703455Y-104534452D01*
X72058638Y-104534452D01*
X72058638Y-105889635D01*
G37*
G36*
X79286280Y-102275814D02*
G01*
X78834553Y-102275814D01*
X78834553Y-101824086D01*
X79286280Y-101824086D01*
X79286280Y-102275814D01*
G37*
G36*
X74769003Y-105889635D02*
G01*
X74317276Y-105889635D01*
X74317276Y-105437908D01*
X74769003Y-105437908D01*
X74769003Y-105889635D01*
G37*
G36*
X74317276Y-95951627D02*
G01*
X73865548Y-95951627D01*
X73865548Y-95499900D01*
X74317276Y-95499900D01*
X74317276Y-95951627D01*
G37*
G36*
X73865548Y-101824086D02*
G01*
X73413821Y-101824086D01*
X73413821Y-101372359D01*
X73865548Y-101372359D01*
X73865548Y-101824086D01*
G37*
G36*
X77931097Y-105889635D02*
G01*
X77479370Y-105889635D01*
X77479370Y-105437908D01*
X77931097Y-105437908D01*
X77931097Y-105889635D01*
G37*
G36*
X80189735Y-104082725D02*
G01*
X79738007Y-104082725D01*
X79738007Y-103630996D01*
X80189735Y-103630996D01*
X80189735Y-104082725D01*
G37*
G36*
X84255283Y-101372359D02*
G01*
X83803556Y-101372359D01*
X83803556Y-100920632D01*
X84255283Y-100920632D01*
X84255283Y-101372359D01*
G37*
G36*
X83803556Y-104986179D02*
G01*
X83351829Y-104986179D01*
X83351829Y-104534452D01*
X83803556Y-104534452D01*
X83803556Y-104986179D01*
G37*
G36*
X79738007Y-92337806D02*
G01*
X79286280Y-92337806D01*
X79286280Y-91886079D01*
X79738007Y-91886079D01*
X79738007Y-92337806D01*
G37*
G36*
X81544917Y-100468903D02*
G01*
X81093190Y-100468903D01*
X81093190Y-100017176D01*
X81544917Y-100017176D01*
X81544917Y-100468903D01*
G37*
G36*
X83351829Y-96403355D02*
G01*
X82900100Y-96403355D01*
X82900100Y-95951627D01*
X83351829Y-95951627D01*
X83351829Y-96403355D01*
G37*
G36*
X75672459Y-105889635D02*
G01*
X75220731Y-105889635D01*
X75220731Y-105437908D01*
X75672459Y-105437908D01*
X75672459Y-105889635D01*
G37*
G36*
X74317276Y-99113720D02*
G01*
X73865548Y-99113720D01*
X73865548Y-98661993D01*
X74317276Y-98661993D01*
X74317276Y-99113720D01*
G37*
G36*
X78382824Y-100468903D02*
G01*
X77931097Y-100468903D01*
X77931097Y-100017176D01*
X78382824Y-100017176D01*
X78382824Y-100468903D01*
G37*
G36*
X80189735Y-93241261D02*
G01*
X79738007Y-93241261D01*
X79738007Y-92789534D01*
X80189735Y-92789534D01*
X80189735Y-93241261D01*
G37*
G36*
X71606910Y-100468903D02*
G01*
X71155182Y-100468903D01*
X71155182Y-100017176D01*
X71606910Y-100017176D01*
X71606910Y-100468903D01*
G37*
G36*
X77479370Y-102727542D02*
G01*
X77027641Y-102727542D01*
X77027641Y-102275814D01*
X77479370Y-102275814D01*
X77479370Y-102727542D01*
G37*
G36*
X80189735Y-101824086D02*
G01*
X79738007Y-101824086D01*
X79738007Y-101372359D01*
X80189735Y-101372359D01*
X80189735Y-101824086D01*
G37*
G36*
X74769003Y-94144717D02*
G01*
X74317276Y-94144717D01*
X74317276Y-93692989D01*
X74769003Y-93692989D01*
X74769003Y-94144717D01*
G37*
G36*
X79738007Y-96403355D02*
G01*
X79286280Y-96403355D01*
X79286280Y-95951627D01*
X79738007Y-95951627D01*
X79738007Y-96403355D01*
G37*
G36*
X83351829Y-100017176D02*
G01*
X82900100Y-100017176D01*
X82900100Y-99565449D01*
X83351829Y-99565449D01*
X83351829Y-100017176D01*
G37*
G36*
X81996646Y-97306810D02*
G01*
X81544917Y-97306810D01*
X81544917Y-96855082D01*
X81996646Y-96855082D01*
X81996646Y-97306810D01*
G37*
G36*
X79286280Y-102727542D02*
G01*
X78834553Y-102727542D01*
X78834553Y-102275814D01*
X79286280Y-102275814D01*
X79286280Y-102727542D01*
G37*
G36*
X75672459Y-99565449D02*
G01*
X75220731Y-99565449D01*
X75220731Y-99113720D01*
X75672459Y-99113720D01*
X75672459Y-99565449D01*
G37*
G36*
X72962093Y-103179269D02*
G01*
X72510365Y-103179269D01*
X72510365Y-102727542D01*
X72962093Y-102727542D01*
X72962093Y-103179269D01*
G37*
G36*
X74769003Y-103179269D02*
G01*
X74317276Y-103179269D01*
X74317276Y-102727542D01*
X74769003Y-102727542D01*
X74769003Y-103179269D01*
G37*
G36*
X81093190Y-92789534D02*
G01*
X80641463Y-92789534D01*
X80641463Y-92337806D01*
X81093190Y-92337806D01*
X81093190Y-92789534D01*
G37*
G36*
X79738007Y-106341362D02*
G01*
X79286280Y-106341362D01*
X79286280Y-105889635D01*
X79738007Y-105889635D01*
X79738007Y-106341362D01*
G37*
D12*
X81635714Y-84164087D02*
X81635714Y-83164087D01*
X81635714Y-83306944D02*
X81564285Y-83235516D01*
X81564285Y-83235516D02*
X81421428Y-83164087D01*
X81421428Y-83164087D02*
X81207142Y-83164087D01*
X81207142Y-83164087D02*
X81064285Y-83235516D01*
X81064285Y-83235516D02*
X80992857Y-83378373D01*
X80992857Y-83378373D02*
X80992857Y-84164087D01*
X80992857Y-83378373D02*
X80921428Y-83235516D01*
X80921428Y-83235516D02*
X80778571Y-83164087D01*
X80778571Y-83164087D02*
X80564285Y-83164087D01*
X80564285Y-83164087D02*
X80421428Y-83235516D01*
X80421428Y-83235516D02*
X80349999Y-83378373D01*
X80349999Y-83378373D02*
X80349999Y-84164087D01*
X78992857Y-83164087D02*
X78992857Y-84164087D01*
X79635714Y-83164087D02*
X79635714Y-83949801D01*
X79635714Y-83949801D02*
X79564285Y-84092659D01*
X79564285Y-84092659D02*
X79421428Y-84164087D01*
X79421428Y-84164087D02*
X79207142Y-84164087D01*
X79207142Y-84164087D02*
X79064285Y-84092659D01*
X79064285Y-84092659D02*
X78992857Y-84021230D01*
X78064285Y-84164087D02*
X78207142Y-84092659D01*
X78207142Y-84092659D02*
X78278571Y-83949801D01*
X78278571Y-83949801D02*
X78278571Y-82664087D01*
X76850000Y-84092659D02*
X76992857Y-84164087D01*
X76992857Y-84164087D02*
X77278571Y-84164087D01*
X77278571Y-84164087D02*
X77421428Y-84092659D01*
X77421428Y-84092659D02*
X77492857Y-84021230D01*
X77492857Y-84021230D02*
X77564285Y-83878373D01*
X77564285Y-83878373D02*
X77564285Y-83449801D01*
X77564285Y-83449801D02*
X77492857Y-83306944D01*
X77492857Y-83306944D02*
X77421428Y-83235516D01*
X77421428Y-83235516D02*
X77278571Y-83164087D01*
X77278571Y-83164087D02*
X76992857Y-83164087D01*
X76992857Y-83164087D02*
X76850000Y-83235516D01*
X76207143Y-84164087D02*
X76207143Y-83164087D01*
X76207143Y-83306944D02*
X76135714Y-83235516D01*
X76135714Y-83235516D02*
X75992857Y-83164087D01*
X75992857Y-83164087D02*
X75778571Y-83164087D01*
X75778571Y-83164087D02*
X75635714Y-83235516D01*
X75635714Y-83235516D02*
X75564286Y-83378373D01*
X75564286Y-83378373D02*
X75564286Y-84164087D01*
X75564286Y-83378373D02*
X75492857Y-83235516D01*
X75492857Y-83235516D02*
X75350000Y-83164087D01*
X75350000Y-83164087D02*
X75135714Y-83164087D01*
X75135714Y-83164087D02*
X74992857Y-83235516D01*
X74992857Y-83235516D02*
X74921428Y-83378373D01*
X74921428Y-83378373D02*
X74921428Y-84164087D01*
X73564286Y-83164087D02*
X73564286Y-84164087D01*
X74207143Y-83164087D02*
X74207143Y-83949801D01*
X74207143Y-83949801D02*
X74135714Y-84092659D01*
X74135714Y-84092659D02*
X73992857Y-84164087D01*
X73992857Y-84164087D02*
X73778571Y-84164087D01*
X73778571Y-84164087D02*
X73635714Y-84092659D01*
X73635714Y-84092659D02*
X73564286Y-84021230D01*
X84385714Y-85079003D02*
X84100000Y-85079003D01*
X84100000Y-85079003D02*
X83957143Y-85150432D01*
X83957143Y-85150432D02*
X83814286Y-85293289D01*
X83814286Y-85293289D02*
X83742857Y-85579003D01*
X83742857Y-85579003D02*
X83742857Y-86079003D01*
X83742857Y-86079003D02*
X83814286Y-86364717D01*
X83814286Y-86364717D02*
X83957143Y-86507575D01*
X83957143Y-86507575D02*
X84100000Y-86579003D01*
X84100000Y-86579003D02*
X84385714Y-86579003D01*
X84385714Y-86579003D02*
X84528572Y-86507575D01*
X84528572Y-86507575D02*
X84671429Y-86364717D01*
X84671429Y-86364717D02*
X84742857Y-86079003D01*
X84742857Y-86079003D02*
X84742857Y-85579003D01*
X84742857Y-85579003D02*
X84671429Y-85293289D01*
X84671429Y-85293289D02*
X84528572Y-85150432D01*
X84528572Y-85150432D02*
X84385714Y-85079003D01*
X83100000Y-85579003D02*
X83100000Y-86579003D01*
X83100000Y-85721860D02*
X83028571Y-85650432D01*
X83028571Y-85650432D02*
X82885714Y-85579003D01*
X82885714Y-85579003D02*
X82671428Y-85579003D01*
X82671428Y-85579003D02*
X82528571Y-85650432D01*
X82528571Y-85650432D02*
X82457143Y-85793289D01*
X82457143Y-85793289D02*
X82457143Y-86579003D01*
X81742857Y-86579003D02*
X81742857Y-85579003D01*
X81742857Y-85079003D02*
X81814285Y-85150432D01*
X81814285Y-85150432D02*
X81742857Y-85221860D01*
X81742857Y-85221860D02*
X81671428Y-85150432D01*
X81671428Y-85150432D02*
X81742857Y-85079003D01*
X81742857Y-85079003D02*
X81742857Y-85221860D01*
X80814285Y-86579003D02*
X80957142Y-86507575D01*
X80957142Y-86507575D02*
X81028571Y-86436146D01*
X81028571Y-86436146D02*
X81099999Y-86293289D01*
X81099999Y-86293289D02*
X81099999Y-85864717D01*
X81099999Y-85864717D02*
X81028571Y-85721860D01*
X81028571Y-85721860D02*
X80957142Y-85650432D01*
X80957142Y-85650432D02*
X80814285Y-85579003D01*
X80814285Y-85579003D02*
X80599999Y-85579003D01*
X80599999Y-85579003D02*
X80457142Y-85650432D01*
X80457142Y-85650432D02*
X80385714Y-85721860D01*
X80385714Y-85721860D02*
X80314285Y-85864717D01*
X80314285Y-85864717D02*
X80314285Y-86293289D01*
X80314285Y-86293289D02*
X80385714Y-86436146D01*
X80385714Y-86436146D02*
X80457142Y-86507575D01*
X80457142Y-86507575D02*
X80599999Y-86579003D01*
X80599999Y-86579003D02*
X80814285Y-86579003D01*
X79671428Y-85579003D02*
X79671428Y-86579003D01*
X79671428Y-85721860D02*
X79599999Y-85650432D01*
X79599999Y-85650432D02*
X79457142Y-85579003D01*
X79457142Y-85579003D02*
X79242856Y-85579003D01*
X79242856Y-85579003D02*
X79099999Y-85650432D01*
X79099999Y-85650432D02*
X79028571Y-85793289D01*
X79028571Y-85793289D02*
X79028571Y-86579003D01*
X77242856Y-86507575D02*
X77028571Y-86579003D01*
X77028571Y-86579003D02*
X76671428Y-86579003D01*
X76671428Y-86579003D02*
X76528571Y-86507575D01*
X76528571Y-86507575D02*
X76457142Y-86436146D01*
X76457142Y-86436146D02*
X76385713Y-86293289D01*
X76385713Y-86293289D02*
X76385713Y-86150432D01*
X76385713Y-86150432D02*
X76457142Y-86007575D01*
X76457142Y-86007575D02*
X76528571Y-85936146D01*
X76528571Y-85936146D02*
X76671428Y-85864717D01*
X76671428Y-85864717D02*
X76957142Y-85793289D01*
X76957142Y-85793289D02*
X77099999Y-85721860D01*
X77099999Y-85721860D02*
X77171428Y-85650432D01*
X77171428Y-85650432D02*
X77242856Y-85507575D01*
X77242856Y-85507575D02*
X77242856Y-85364717D01*
X77242856Y-85364717D02*
X77171428Y-85221860D01*
X77171428Y-85221860D02*
X77099999Y-85150432D01*
X77099999Y-85150432D02*
X76957142Y-85079003D01*
X76957142Y-85079003D02*
X76599999Y-85079003D01*
X76599999Y-85079003D02*
X76385713Y-85150432D01*
X75957142Y-85579003D02*
X75385714Y-85579003D01*
X75742857Y-85079003D02*
X75742857Y-86364717D01*
X75742857Y-86364717D02*
X75671428Y-86507575D01*
X75671428Y-86507575D02*
X75528571Y-86579003D01*
X75528571Y-86579003D02*
X75385714Y-86579003D01*
X74885714Y-86579003D02*
X74885714Y-85579003D01*
X74885714Y-85864717D02*
X74814285Y-85721860D01*
X74814285Y-85721860D02*
X74742857Y-85650432D01*
X74742857Y-85650432D02*
X74599999Y-85579003D01*
X74599999Y-85579003D02*
X74457142Y-85579003D01*
X73314286Y-86579003D02*
X73314286Y-85793289D01*
X73314286Y-85793289D02*
X73385714Y-85650432D01*
X73385714Y-85650432D02*
X73528571Y-85579003D01*
X73528571Y-85579003D02*
X73814286Y-85579003D01*
X73814286Y-85579003D02*
X73957143Y-85650432D01*
X73314286Y-86507575D02*
X73457143Y-86579003D01*
X73457143Y-86579003D02*
X73814286Y-86579003D01*
X73814286Y-86579003D02*
X73957143Y-86507575D01*
X73957143Y-86507575D02*
X74028571Y-86364717D01*
X74028571Y-86364717D02*
X74028571Y-86221860D01*
X74028571Y-86221860D02*
X73957143Y-86079003D01*
X73957143Y-86079003D02*
X73814286Y-86007575D01*
X73814286Y-86007575D02*
X73457143Y-86007575D01*
X73457143Y-86007575D02*
X73314286Y-85936146D01*
X72742857Y-85579003D02*
X72457143Y-86579003D01*
X72457143Y-86579003D02*
X72171428Y-85864717D01*
X72171428Y-85864717D02*
X71885714Y-86579003D01*
X71885714Y-86579003D02*
X71600000Y-85579003D01*
X71099999Y-86507575D02*
X70957142Y-86579003D01*
X70957142Y-86579003D02*
X70671428Y-86579003D01*
X70671428Y-86579003D02*
X70528571Y-86507575D01*
X70528571Y-86507575D02*
X70457142Y-86364717D01*
X70457142Y-86364717D02*
X70457142Y-86293289D01*
X70457142Y-86293289D02*
X70528571Y-86150432D01*
X70528571Y-86150432D02*
X70671428Y-86079003D01*
X70671428Y-86079003D02*
X70885714Y-86079003D01*
X70885714Y-86079003D02*
X71028571Y-86007575D01*
X71028571Y-86007575D02*
X71099999Y-85864717D01*
X71099999Y-85864717D02*
X71099999Y-85793289D01*
X71099999Y-85793289D02*
X71028571Y-85650432D01*
X71028571Y-85650432D02*
X70885714Y-85579003D01*
X70885714Y-85579003D02*
X70671428Y-85579003D01*
X70671428Y-85579003D02*
X70528571Y-85650432D01*
X83385714Y-88993919D02*
X83885714Y-88279633D01*
X84242857Y-88993919D02*
X84242857Y-87493919D01*
X84242857Y-87493919D02*
X83671428Y-87493919D01*
X83671428Y-87493919D02*
X83528571Y-87565348D01*
X83528571Y-87565348D02*
X83457142Y-87636776D01*
X83457142Y-87636776D02*
X83385714Y-87779633D01*
X83385714Y-87779633D02*
X83385714Y-87993919D01*
X83385714Y-87993919D02*
X83457142Y-88136776D01*
X83457142Y-88136776D02*
X83528571Y-88208205D01*
X83528571Y-88208205D02*
X83671428Y-88279633D01*
X83671428Y-88279633D02*
X84242857Y-88279633D01*
X82171428Y-88922491D02*
X82314285Y-88993919D01*
X82314285Y-88993919D02*
X82600000Y-88993919D01*
X82600000Y-88993919D02*
X82742857Y-88922491D01*
X82742857Y-88922491D02*
X82814285Y-88779633D01*
X82814285Y-88779633D02*
X82814285Y-88208205D01*
X82814285Y-88208205D02*
X82742857Y-88065348D01*
X82742857Y-88065348D02*
X82600000Y-87993919D01*
X82600000Y-87993919D02*
X82314285Y-87993919D01*
X82314285Y-87993919D02*
X82171428Y-88065348D01*
X82171428Y-88065348D02*
X82100000Y-88208205D01*
X82100000Y-88208205D02*
X82100000Y-88351062D01*
X82100000Y-88351062D02*
X82814285Y-88493919D01*
X81600000Y-87993919D02*
X81242857Y-88993919D01*
X81242857Y-88993919D02*
X80885714Y-87993919D01*
X80314286Y-88993919D02*
X80314286Y-87993919D01*
X80314286Y-87493919D02*
X80385714Y-87565348D01*
X80385714Y-87565348D02*
X80314286Y-87636776D01*
X80314286Y-87636776D02*
X80242857Y-87565348D01*
X80242857Y-87565348D02*
X80314286Y-87493919D01*
X80314286Y-87493919D02*
X80314286Y-87636776D01*
X79671428Y-88922491D02*
X79528571Y-88993919D01*
X79528571Y-88993919D02*
X79242857Y-88993919D01*
X79242857Y-88993919D02*
X79100000Y-88922491D01*
X79100000Y-88922491D02*
X79028571Y-88779633D01*
X79028571Y-88779633D02*
X79028571Y-88708205D01*
X79028571Y-88708205D02*
X79100000Y-88565348D01*
X79100000Y-88565348D02*
X79242857Y-88493919D01*
X79242857Y-88493919D02*
X79457143Y-88493919D01*
X79457143Y-88493919D02*
X79600000Y-88422491D01*
X79600000Y-88422491D02*
X79671428Y-88279633D01*
X79671428Y-88279633D02*
X79671428Y-88208205D01*
X79671428Y-88208205D02*
X79600000Y-88065348D01*
X79600000Y-88065348D02*
X79457143Y-87993919D01*
X79457143Y-87993919D02*
X79242857Y-87993919D01*
X79242857Y-87993919D02*
X79100000Y-88065348D01*
X78385714Y-88993919D02*
X78385714Y-87993919D01*
X78385714Y-87493919D02*
X78457142Y-87565348D01*
X78457142Y-87565348D02*
X78385714Y-87636776D01*
X78385714Y-87636776D02*
X78314285Y-87565348D01*
X78314285Y-87565348D02*
X78385714Y-87493919D01*
X78385714Y-87493919D02*
X78385714Y-87636776D01*
X77457142Y-88993919D02*
X77599999Y-88922491D01*
X77599999Y-88922491D02*
X77671428Y-88851062D01*
X77671428Y-88851062D02*
X77742856Y-88708205D01*
X77742856Y-88708205D02*
X77742856Y-88279633D01*
X77742856Y-88279633D02*
X77671428Y-88136776D01*
X77671428Y-88136776D02*
X77599999Y-88065348D01*
X77599999Y-88065348D02*
X77457142Y-87993919D01*
X77457142Y-87993919D02*
X77242856Y-87993919D01*
X77242856Y-87993919D02*
X77099999Y-88065348D01*
X77099999Y-88065348D02*
X77028571Y-88136776D01*
X77028571Y-88136776D02*
X76957142Y-88279633D01*
X76957142Y-88279633D02*
X76957142Y-88708205D01*
X76957142Y-88708205D02*
X77028571Y-88851062D01*
X77028571Y-88851062D02*
X77099999Y-88922491D01*
X77099999Y-88922491D02*
X77242856Y-88993919D01*
X77242856Y-88993919D02*
X77457142Y-88993919D01*
X76314285Y-87993919D02*
X76314285Y-88993919D01*
X76314285Y-88136776D02*
X76242856Y-88065348D01*
X76242856Y-88065348D02*
X76099999Y-87993919D01*
X76099999Y-87993919D02*
X75885713Y-87993919D01*
X75885713Y-87993919D02*
X75742856Y-88065348D01*
X75742856Y-88065348D02*
X75671428Y-88208205D01*
X75671428Y-88208205D02*
X75671428Y-88993919D01*
X73885713Y-87636776D02*
X73814285Y-87565348D01*
X73814285Y-87565348D02*
X73671428Y-87493919D01*
X73671428Y-87493919D02*
X73314285Y-87493919D01*
X73314285Y-87493919D02*
X73171428Y-87565348D01*
X73171428Y-87565348D02*
X73099999Y-87636776D01*
X73099999Y-87636776D02*
X73028570Y-87779633D01*
X73028570Y-87779633D02*
X73028570Y-87922491D01*
X73028570Y-87922491D02*
X73099999Y-88136776D01*
X73099999Y-88136776D02*
X73957142Y-88993919D01*
X73957142Y-88993919D02*
X73028570Y-88993919D01*
X72385714Y-88851062D02*
X72314285Y-88922491D01*
X72314285Y-88922491D02*
X72385714Y-88993919D01*
X72385714Y-88993919D02*
X72457142Y-88922491D01*
X72457142Y-88922491D02*
X72385714Y-88851062D01*
X72385714Y-88851062D02*
X72385714Y-88993919D01*
X70885713Y-88993919D02*
X71742856Y-88993919D01*
X71314285Y-88993919D02*
X71314285Y-87493919D01*
X71314285Y-87493919D02*
X71457142Y-87708205D01*
X71457142Y-87708205D02*
X71599999Y-87851062D01*
X71599999Y-87851062D02*
X71742856Y-87922491D01*
D13*
X55358458Y-101859875D02*
X54739411Y-101859875D01*
X54739411Y-101859875D02*
X55072744Y-102240827D01*
X55072744Y-102240827D02*
X54929887Y-102240827D01*
X54929887Y-102240827D02*
X54834649Y-102288446D01*
X54834649Y-102288446D02*
X54787030Y-102336065D01*
X54787030Y-102336065D02*
X54739411Y-102431303D01*
X54739411Y-102431303D02*
X54739411Y-102669398D01*
X54739411Y-102669398D02*
X54787030Y-102764636D01*
X54787030Y-102764636D02*
X54834649Y-102812256D01*
X54834649Y-102812256D02*
X54929887Y-102859875D01*
X54929887Y-102859875D02*
X55215601Y-102859875D01*
X55215601Y-102859875D02*
X55310839Y-102812256D01*
X55310839Y-102812256D02*
X55358458Y-102764636D01*
X54406077Y-102193208D02*
X54167982Y-102859875D01*
X54167982Y-102859875D02*
X53929887Y-102193208D01*
X53644172Y-101859875D02*
X53025125Y-101859875D01*
X53025125Y-101859875D02*
X53358458Y-102240827D01*
X53358458Y-102240827D02*
X53215601Y-102240827D01*
X53215601Y-102240827D02*
X53120363Y-102288446D01*
X53120363Y-102288446D02*
X53072744Y-102336065D01*
X53072744Y-102336065D02*
X53025125Y-102431303D01*
X53025125Y-102431303D02*
X53025125Y-102669398D01*
X53025125Y-102669398D02*
X53072744Y-102764636D01*
X53072744Y-102764636D02*
X53120363Y-102812256D01*
X53120363Y-102812256D02*
X53215601Y-102859875D01*
X53215601Y-102859875D02*
X53501315Y-102859875D01*
X53501315Y-102859875D02*
X53596553Y-102812256D01*
X53596553Y-102812256D02*
X53644172Y-102764636D01*
X51310839Y-101907494D02*
X51406077Y-101859875D01*
X51406077Y-101859875D02*
X51548934Y-101859875D01*
X51548934Y-101859875D02*
X51691791Y-101907494D01*
X51691791Y-101907494D02*
X51787029Y-102002732D01*
X51787029Y-102002732D02*
X51834648Y-102097970D01*
X51834648Y-102097970D02*
X51882267Y-102288446D01*
X51882267Y-102288446D02*
X51882267Y-102431303D01*
X51882267Y-102431303D02*
X51834648Y-102621779D01*
X51834648Y-102621779D02*
X51787029Y-102717017D01*
X51787029Y-102717017D02*
X51691791Y-102812256D01*
X51691791Y-102812256D02*
X51548934Y-102859875D01*
X51548934Y-102859875D02*
X51453696Y-102859875D01*
X51453696Y-102859875D02*
X51310839Y-102812256D01*
X51310839Y-102812256D02*
X51263220Y-102764636D01*
X51263220Y-102764636D02*
X51263220Y-102431303D01*
X51263220Y-102431303D02*
X51453696Y-102431303D01*
X50834648Y-102859875D02*
X50834648Y-101859875D01*
X50834648Y-101859875D02*
X50263220Y-102859875D01*
X50263220Y-102859875D02*
X50263220Y-101859875D01*
X49787029Y-102859875D02*
X49787029Y-101859875D01*
X49787029Y-101859875D02*
X49548934Y-101859875D01*
X49548934Y-101859875D02*
X49406077Y-101907494D01*
X49406077Y-101907494D02*
X49310839Y-102002732D01*
X49310839Y-102002732D02*
X49263220Y-102097970D01*
X49263220Y-102097970D02*
X49215601Y-102288446D01*
X49215601Y-102288446D02*
X49215601Y-102431303D01*
X49215601Y-102431303D02*
X49263220Y-102621779D01*
X49263220Y-102621779D02*
X49310839Y-102717017D01*
X49310839Y-102717017D02*
X49406077Y-102812256D01*
X49406077Y-102812256D02*
X49548934Y-102859875D01*
X49548934Y-102859875D02*
X49787029Y-102859875D01*
X47691791Y-102336065D02*
X47548934Y-102383684D01*
X47548934Y-102383684D02*
X47501315Y-102431303D01*
X47501315Y-102431303D02*
X47453696Y-102526541D01*
X47453696Y-102526541D02*
X47453696Y-102669398D01*
X47453696Y-102669398D02*
X47501315Y-102764636D01*
X47501315Y-102764636D02*
X47548934Y-102812256D01*
X47548934Y-102812256D02*
X47644172Y-102859875D01*
X47644172Y-102859875D02*
X48025124Y-102859875D01*
X48025124Y-102859875D02*
X48025124Y-101859875D01*
X48025124Y-101859875D02*
X47691791Y-101859875D01*
X47691791Y-101859875D02*
X47596553Y-101907494D01*
X47596553Y-101907494D02*
X47548934Y-101955113D01*
X47548934Y-101955113D02*
X47501315Y-102050351D01*
X47501315Y-102050351D02*
X47501315Y-102145589D01*
X47501315Y-102145589D02*
X47548934Y-102240827D01*
X47548934Y-102240827D02*
X47596553Y-102288446D01*
X47596553Y-102288446D02*
X47691791Y-102336065D01*
X47691791Y-102336065D02*
X48025124Y-102336065D01*
X46834648Y-101859875D02*
X46644172Y-101859875D01*
X46644172Y-101859875D02*
X46548934Y-101907494D01*
X46548934Y-101907494D02*
X46453696Y-102002732D01*
X46453696Y-102002732D02*
X46406077Y-102193208D01*
X46406077Y-102193208D02*
X46406077Y-102526541D01*
X46406077Y-102526541D02*
X46453696Y-102717017D01*
X46453696Y-102717017D02*
X46548934Y-102812256D01*
X46548934Y-102812256D02*
X46644172Y-102859875D01*
X46644172Y-102859875D02*
X46834648Y-102859875D01*
X46834648Y-102859875D02*
X46929886Y-102812256D01*
X46929886Y-102812256D02*
X47025124Y-102717017D01*
X47025124Y-102717017D02*
X47072743Y-102526541D01*
X47072743Y-102526541D02*
X47072743Y-102193208D01*
X47072743Y-102193208D02*
X47025124Y-102002732D01*
X47025124Y-102002732D02*
X46929886Y-101907494D01*
X46929886Y-101907494D02*
X46834648Y-101859875D01*
X45787029Y-101859875D02*
X45596553Y-101859875D01*
X45596553Y-101859875D02*
X45501315Y-101907494D01*
X45501315Y-101907494D02*
X45406077Y-102002732D01*
X45406077Y-102002732D02*
X45358458Y-102193208D01*
X45358458Y-102193208D02*
X45358458Y-102526541D01*
X45358458Y-102526541D02*
X45406077Y-102717017D01*
X45406077Y-102717017D02*
X45501315Y-102812256D01*
X45501315Y-102812256D02*
X45596553Y-102859875D01*
X45596553Y-102859875D02*
X45787029Y-102859875D01*
X45787029Y-102859875D02*
X45882267Y-102812256D01*
X45882267Y-102812256D02*
X45977505Y-102717017D01*
X45977505Y-102717017D02*
X46025124Y-102526541D01*
X46025124Y-102526541D02*
X46025124Y-102193208D01*
X46025124Y-102193208D02*
X45977505Y-102002732D01*
X45977505Y-102002732D02*
X45882267Y-101907494D01*
X45882267Y-101907494D02*
X45787029Y-101859875D01*
X45072743Y-101859875D02*
X44501315Y-101859875D01*
X44787029Y-102859875D02*
X44787029Y-101859875D01*
X55263220Y-103946009D02*
X54929887Y-103946009D01*
X54787030Y-104469819D02*
X55263220Y-104469819D01*
X55263220Y-104469819D02*
X55263220Y-103469819D01*
X55263220Y-103469819D02*
X54787030Y-103469819D01*
X54358458Y-104469819D02*
X54358458Y-103469819D01*
X54358458Y-103469819D02*
X53787030Y-104469819D01*
X53787030Y-104469819D02*
X53787030Y-103469819D01*
X51215601Y-104469819D02*
X51548934Y-103993628D01*
X51787029Y-104469819D02*
X51787029Y-103469819D01*
X51787029Y-103469819D02*
X51406077Y-103469819D01*
X51406077Y-103469819D02*
X51310839Y-103517438D01*
X51310839Y-103517438D02*
X51263220Y-103565057D01*
X51263220Y-103565057D02*
X51215601Y-103660295D01*
X51215601Y-103660295D02*
X51215601Y-103803152D01*
X51215601Y-103803152D02*
X51263220Y-103898390D01*
X51263220Y-103898390D02*
X51310839Y-103946009D01*
X51310839Y-103946009D02*
X51406077Y-103993628D01*
X51406077Y-103993628D02*
X51787029Y-103993628D01*
X50882267Y-103469819D02*
X50215601Y-104469819D01*
X50215601Y-103469819D02*
X50882267Y-104469819D01*
X48453695Y-103469819D02*
X47882267Y-103469819D01*
X48167981Y-104469819D02*
X48167981Y-103469819D01*
X47644171Y-103469819D02*
X46977505Y-104469819D01*
X46977505Y-103469819D02*
X47644171Y-104469819D01*
X44609152Y-94187030D02*
X44609152Y-94520363D01*
X45499628Y-94663220D02*
X45499628Y-94187030D01*
X45499628Y-94187030D02*
X43799628Y-94187030D01*
X43799628Y-94187030D02*
X43799628Y-94663220D01*
X45499628Y-95091792D02*
X43799628Y-95091792D01*
X43799628Y-95091792D02*
X45499628Y-95663220D01*
X45499628Y-95663220D02*
X43799628Y-95663220D01*
X48236533Y-94758458D02*
X47427009Y-94425125D01*
X48236533Y-94187030D02*
X46536533Y-94187030D01*
X46536533Y-94187030D02*
X46536533Y-94567982D01*
X46536533Y-94567982D02*
X46617485Y-94663220D01*
X46617485Y-94663220D02*
X46698438Y-94710839D01*
X46698438Y-94710839D02*
X46860342Y-94758458D01*
X46860342Y-94758458D02*
X47103200Y-94758458D01*
X47103200Y-94758458D02*
X47265104Y-94710839D01*
X47265104Y-94710839D02*
X47346057Y-94663220D01*
X47346057Y-94663220D02*
X47427009Y-94567982D01*
X47427009Y-94567982D02*
X47427009Y-94187030D01*
X46536533Y-95091792D02*
X48236533Y-95758458D01*
X46536533Y-95758458D02*
X48236533Y-95091792D01*
X49273438Y-94282268D02*
X49273438Y-94853696D01*
X50973438Y-94567982D02*
X49273438Y-94567982D01*
X49273438Y-95091792D02*
X50973438Y-95758458D01*
X49273438Y-95758458D02*
X50973438Y-95091792D01*
X52819867Y-92615601D02*
X52900819Y-92758458D01*
X52900819Y-92758458D02*
X52981771Y-92806077D01*
X52981771Y-92806077D02*
X53143676Y-92853696D01*
X53143676Y-92853696D02*
X53386533Y-92853696D01*
X53386533Y-92853696D02*
X53548438Y-92806077D01*
X53548438Y-92806077D02*
X53629391Y-92758458D01*
X53629391Y-92758458D02*
X53710343Y-92663220D01*
X53710343Y-92663220D02*
X53710343Y-92282268D01*
X53710343Y-92282268D02*
X52010343Y-92282268D01*
X52010343Y-92282268D02*
X52010343Y-92615601D01*
X52010343Y-92615601D02*
X52091295Y-92710839D01*
X52091295Y-92710839D02*
X52172248Y-92758458D01*
X52172248Y-92758458D02*
X52334152Y-92806077D01*
X52334152Y-92806077D02*
X52496057Y-92806077D01*
X52496057Y-92806077D02*
X52657962Y-92758458D01*
X52657962Y-92758458D02*
X52738914Y-92710839D01*
X52738914Y-92710839D02*
X52819867Y-92615601D01*
X52819867Y-92615601D02*
X52819867Y-92282268D01*
X52010343Y-93472744D02*
X52010343Y-93663220D01*
X52010343Y-93663220D02*
X52091295Y-93758458D01*
X52091295Y-93758458D02*
X52253200Y-93853696D01*
X52253200Y-93853696D02*
X52577010Y-93901315D01*
X52577010Y-93901315D02*
X53143676Y-93901315D01*
X53143676Y-93901315D02*
X53467486Y-93853696D01*
X53467486Y-93853696D02*
X53629391Y-93758458D01*
X53629391Y-93758458D02*
X53710343Y-93663220D01*
X53710343Y-93663220D02*
X53710343Y-93472744D01*
X53710343Y-93472744D02*
X53629391Y-93377506D01*
X53629391Y-93377506D02*
X53467486Y-93282268D01*
X53467486Y-93282268D02*
X53143676Y-93234649D01*
X53143676Y-93234649D02*
X52577010Y-93234649D01*
X52577010Y-93234649D02*
X52253200Y-93282268D01*
X52253200Y-93282268D02*
X52091295Y-93377506D01*
X52091295Y-93377506D02*
X52010343Y-93472744D01*
X52010343Y-94520363D02*
X52010343Y-94710839D01*
X52010343Y-94710839D02*
X52091295Y-94806077D01*
X52091295Y-94806077D02*
X52253200Y-94901315D01*
X52253200Y-94901315D02*
X52577010Y-94948934D01*
X52577010Y-94948934D02*
X53143676Y-94948934D01*
X53143676Y-94948934D02*
X53467486Y-94901315D01*
X53467486Y-94901315D02*
X53629391Y-94806077D01*
X53629391Y-94806077D02*
X53710343Y-94710839D01*
X53710343Y-94710839D02*
X53710343Y-94520363D01*
X53710343Y-94520363D02*
X53629391Y-94425125D01*
X53629391Y-94425125D02*
X53467486Y-94329887D01*
X53467486Y-94329887D02*
X53143676Y-94282268D01*
X53143676Y-94282268D02*
X52577010Y-94282268D01*
X52577010Y-94282268D02*
X52253200Y-94329887D01*
X52253200Y-94329887D02*
X52091295Y-94425125D01*
X52091295Y-94425125D02*
X52010343Y-94520363D01*
X52010343Y-95234649D02*
X52010343Y-95806077D01*
X53710343Y-95520363D02*
X52010343Y-95520363D01*
X54828200Y-93615601D02*
X54747248Y-93520363D01*
X54747248Y-93520363D02*
X54747248Y-93377506D01*
X54747248Y-93377506D02*
X54828200Y-93234649D01*
X54828200Y-93234649D02*
X54990105Y-93139411D01*
X54990105Y-93139411D02*
X55152010Y-93091792D01*
X55152010Y-93091792D02*
X55475819Y-93044173D01*
X55475819Y-93044173D02*
X55718676Y-93044173D01*
X55718676Y-93044173D02*
X56042486Y-93091792D01*
X56042486Y-93091792D02*
X56204391Y-93139411D01*
X56204391Y-93139411D02*
X56366296Y-93234649D01*
X56366296Y-93234649D02*
X56447248Y-93377506D01*
X56447248Y-93377506D02*
X56447248Y-93472744D01*
X56447248Y-93472744D02*
X56366296Y-93615601D01*
X56366296Y-93615601D02*
X56285343Y-93663220D01*
X56285343Y-93663220D02*
X55718676Y-93663220D01*
X55718676Y-93663220D02*
X55718676Y-93472744D01*
X56447248Y-94091792D02*
X54747248Y-94091792D01*
X54747248Y-94091792D02*
X56447248Y-94663220D01*
X56447248Y-94663220D02*
X54747248Y-94663220D01*
X56447248Y-95139411D02*
X54747248Y-95139411D01*
X54747248Y-95139411D02*
X54747248Y-95377506D01*
X54747248Y-95377506D02*
X54828200Y-95520363D01*
X54828200Y-95520363D02*
X54990105Y-95615601D01*
X54990105Y-95615601D02*
X55152010Y-95663220D01*
X55152010Y-95663220D02*
X55475819Y-95710839D01*
X55475819Y-95710839D02*
X55718676Y-95710839D01*
X55718676Y-95710839D02*
X56042486Y-95663220D01*
X56042486Y-95663220D02*
X56204391Y-95615601D01*
X56204391Y-95615601D02*
X56366296Y-95520363D01*
X56366296Y-95520363D02*
X56447248Y-95377506D01*
X56447248Y-95377506D02*
X56447248Y-95139411D01*
X57484153Y-93377506D02*
X57484153Y-93996553D01*
X57484153Y-93996553D02*
X58131772Y-93663220D01*
X58131772Y-93663220D02*
X58131772Y-93806077D01*
X58131772Y-93806077D02*
X58212724Y-93901315D01*
X58212724Y-93901315D02*
X58293677Y-93948934D01*
X58293677Y-93948934D02*
X58455581Y-93996553D01*
X58455581Y-93996553D02*
X58860343Y-93996553D01*
X58860343Y-93996553D02*
X59022248Y-93948934D01*
X59022248Y-93948934D02*
X59103201Y-93901315D01*
X59103201Y-93901315D02*
X59184153Y-93806077D01*
X59184153Y-93806077D02*
X59184153Y-93520363D01*
X59184153Y-93520363D02*
X59103201Y-93425125D01*
X59103201Y-93425125D02*
X59022248Y-93377506D01*
X58050820Y-94329887D02*
X59184153Y-94567982D01*
X59184153Y-94567982D02*
X58050820Y-94806077D01*
X57484153Y-95091792D02*
X57484153Y-95710839D01*
X57484153Y-95710839D02*
X58131772Y-95377506D01*
X58131772Y-95377506D02*
X58131772Y-95520363D01*
X58131772Y-95520363D02*
X58212724Y-95615601D01*
X58212724Y-95615601D02*
X58293677Y-95663220D01*
X58293677Y-95663220D02*
X58455581Y-95710839D01*
X58455581Y-95710839D02*
X58860343Y-95710839D01*
X58860343Y-95710839D02*
X59022248Y-95663220D01*
X59022248Y-95663220D02*
X59103201Y-95615601D01*
X59103201Y-95615601D02*
X59184153Y-95520363D01*
X59184153Y-95520363D02*
X59184153Y-95234649D01*
X59184153Y-95234649D02*
X59103201Y-95139411D01*
X59103201Y-95139411D02*
X59022248Y-95091792D01*
X88066347Y-86812969D02*
X88066347Y-86336779D01*
X88066347Y-86336779D02*
X88637776Y-86289160D01*
X88637776Y-86289160D02*
X88580633Y-86336779D01*
X88580633Y-86336779D02*
X88523490Y-86432017D01*
X88523490Y-86432017D02*
X88523490Y-86670112D01*
X88523490Y-86670112D02*
X88580633Y-86765350D01*
X88580633Y-86765350D02*
X88637776Y-86812969D01*
X88637776Y-86812969D02*
X88752062Y-86860588D01*
X88752062Y-86860588D02*
X89037776Y-86860588D01*
X89037776Y-86860588D02*
X89152062Y-86812969D01*
X89152062Y-86812969D02*
X89209205Y-86765350D01*
X89209205Y-86765350D02*
X89266347Y-86670112D01*
X89266347Y-86670112D02*
X89266347Y-86432017D01*
X89266347Y-86432017D02*
X89209205Y-86336779D01*
X89209205Y-86336779D02*
X89152062Y-86289160D01*
X88066347Y-87146303D02*
X89266347Y-87479636D01*
X89266347Y-87479636D02*
X88066347Y-87812969D01*
X93862146Y-86241541D02*
X93862146Y-86860588D01*
X93862146Y-86860588D02*
X94319289Y-86527255D01*
X94319289Y-86527255D02*
X94319289Y-86670112D01*
X94319289Y-86670112D02*
X94376432Y-86765350D01*
X94376432Y-86765350D02*
X94433575Y-86812969D01*
X94433575Y-86812969D02*
X94547861Y-86860588D01*
X94547861Y-86860588D02*
X94833575Y-86860588D01*
X94833575Y-86860588D02*
X94947861Y-86812969D01*
X94947861Y-86812969D02*
X95005004Y-86765350D01*
X95005004Y-86765350D02*
X95062146Y-86670112D01*
X95062146Y-86670112D02*
X95062146Y-86384398D01*
X95062146Y-86384398D02*
X95005004Y-86289160D01*
X95005004Y-86289160D02*
X94947861Y-86241541D01*
X94262146Y-87193922D02*
X95062146Y-87432017D01*
X95062146Y-87432017D02*
X94262146Y-87670112D01*
X93862146Y-87955827D02*
X93862146Y-88574874D01*
X93862146Y-88574874D02*
X94319289Y-88241541D01*
X94319289Y-88241541D02*
X94319289Y-88384398D01*
X94319289Y-88384398D02*
X94376432Y-88479636D01*
X94376432Y-88479636D02*
X94433575Y-88527255D01*
X94433575Y-88527255D02*
X94547861Y-88574874D01*
X94547861Y-88574874D02*
X94833575Y-88574874D01*
X94833575Y-88574874D02*
X94947861Y-88527255D01*
X94947861Y-88527255D02*
X95005004Y-88479636D01*
X95005004Y-88479636D02*
X95062146Y-88384398D01*
X95062146Y-88384398D02*
X95062146Y-88098684D01*
X95062146Y-88098684D02*
X95005004Y-88003446D01*
X95005004Y-88003446D02*
X94947861Y-87955827D01*
X100857945Y-86336779D02*
X99657945Y-86336779D01*
X100229374Y-86336779D02*
X100229374Y-86908207D01*
X100857945Y-86908207D02*
X99657945Y-86908207D01*
X100857945Y-87812969D02*
X100229374Y-87812969D01*
X100229374Y-87812969D02*
X100115088Y-87765350D01*
X100115088Y-87765350D02*
X100057945Y-87670112D01*
X100057945Y-87670112D02*
X100057945Y-87479636D01*
X100057945Y-87479636D02*
X100115088Y-87384398D01*
X100800803Y-87812969D02*
X100857945Y-87717731D01*
X100857945Y-87717731D02*
X100857945Y-87479636D01*
X100857945Y-87479636D02*
X100800803Y-87384398D01*
X100800803Y-87384398D02*
X100686517Y-87336779D01*
X100686517Y-87336779D02*
X100572231Y-87336779D01*
X100572231Y-87336779D02*
X100457945Y-87384398D01*
X100457945Y-87384398D02*
X100400803Y-87479636D01*
X100400803Y-87479636D02*
X100400803Y-87717731D01*
X100400803Y-87717731D02*
X100343660Y-87812969D01*
X100857945Y-88432017D02*
X100800803Y-88336779D01*
X100800803Y-88336779D02*
X100686517Y-88289160D01*
X100686517Y-88289160D02*
X99657945Y-88289160D01*
X100057945Y-88670113D02*
X100057945Y-89051065D01*
X100857945Y-88812970D02*
X99829374Y-88812970D01*
X99829374Y-88812970D02*
X99715088Y-88860589D01*
X99715088Y-88860589D02*
X99657945Y-88955827D01*
X99657945Y-88955827D02*
X99657945Y-89051065D01*
X101315088Y-90432018D02*
X101257945Y-90384399D01*
X101257945Y-90384399D02*
X101086517Y-90289161D01*
X101086517Y-90289161D02*
X100972231Y-90241542D01*
X100972231Y-90241542D02*
X100800803Y-90193923D01*
X100800803Y-90193923D02*
X100515088Y-90146304D01*
X100515088Y-90146304D02*
X100286517Y-90146304D01*
X100286517Y-90146304D02*
X100000803Y-90193923D01*
X100000803Y-90193923D02*
X99829374Y-90241542D01*
X99829374Y-90241542D02*
X99715088Y-90289161D01*
X99715088Y-90289161D02*
X99543660Y-90384399D01*
X99543660Y-90384399D02*
X99486517Y-90432018D01*
X99657945Y-90717733D02*
X99657945Y-91384399D01*
X99657945Y-91384399D02*
X100857945Y-90955828D01*
X101315088Y-91670114D02*
X101257945Y-91717733D01*
X101257945Y-91717733D02*
X101086517Y-91812971D01*
X101086517Y-91812971D02*
X100972231Y-91860590D01*
X100972231Y-91860590D02*
X100800803Y-91908209D01*
X100800803Y-91908209D02*
X100515088Y-91955828D01*
X100515088Y-91955828D02*
X100286517Y-91955828D01*
X100286517Y-91955828D02*
X100000803Y-91908209D01*
X100000803Y-91908209D02*
X99829374Y-91860590D01*
X99829374Y-91860590D02*
X99715088Y-91812971D01*
X99715088Y-91812971D02*
X99543660Y-91717733D01*
X99543660Y-91717733D02*
X99486517Y-91670114D01*
X106025173Y-86670112D02*
X106025173Y-86336779D01*
X106653744Y-86336779D02*
X105453744Y-86336779D01*
X105453744Y-86336779D02*
X105453744Y-86812969D01*
X105853744Y-87622493D02*
X106653744Y-87622493D01*
X105853744Y-87193922D02*
X106482316Y-87193922D01*
X106482316Y-87193922D02*
X106596602Y-87241541D01*
X106596602Y-87241541D02*
X106653744Y-87336779D01*
X106653744Y-87336779D02*
X106653744Y-87479636D01*
X106653744Y-87479636D02*
X106596602Y-87574874D01*
X106596602Y-87574874D02*
X106539459Y-87622493D01*
X106653744Y-88241541D02*
X106596602Y-88146303D01*
X106596602Y-88146303D02*
X106482316Y-88098684D01*
X106482316Y-88098684D02*
X105453744Y-88098684D01*
X106653744Y-88765351D02*
X106596602Y-88670113D01*
X106596602Y-88670113D02*
X106482316Y-88622494D01*
X106482316Y-88622494D02*
X105453744Y-88622494D01*
X106653744Y-90479637D02*
X106082316Y-90146304D01*
X106653744Y-89908209D02*
X105453744Y-89908209D01*
X105453744Y-89908209D02*
X105453744Y-90289161D01*
X105453744Y-90289161D02*
X105510887Y-90384399D01*
X105510887Y-90384399D02*
X105568030Y-90432018D01*
X105568030Y-90432018D02*
X105682316Y-90479637D01*
X105682316Y-90479637D02*
X105853744Y-90479637D01*
X105853744Y-90479637D02*
X105968030Y-90432018D01*
X105968030Y-90432018D02*
X106025173Y-90384399D01*
X106025173Y-90384399D02*
X106082316Y-90289161D01*
X106082316Y-90289161D02*
X106082316Y-89908209D01*
X105453744Y-90812971D02*
X106653744Y-91479637D01*
X105453744Y-91479637D02*
X106653744Y-90812971D01*
X107110887Y-92908209D02*
X107053744Y-92860590D01*
X107053744Y-92860590D02*
X106882316Y-92765352D01*
X106882316Y-92765352D02*
X106768030Y-92717733D01*
X106768030Y-92717733D02*
X106596602Y-92670114D01*
X106596602Y-92670114D02*
X106310887Y-92622495D01*
X106310887Y-92622495D02*
X106082316Y-92622495D01*
X106082316Y-92622495D02*
X105796602Y-92670114D01*
X105796602Y-92670114D02*
X105625173Y-92717733D01*
X105625173Y-92717733D02*
X105510887Y-92765352D01*
X105510887Y-92765352D02*
X105339459Y-92860590D01*
X105339459Y-92860590D02*
X105282316Y-92908209D01*
X105453744Y-93765352D02*
X105453744Y-93289162D01*
X105453744Y-93289162D02*
X106025173Y-93241543D01*
X106025173Y-93241543D02*
X105968030Y-93289162D01*
X105968030Y-93289162D02*
X105910887Y-93384400D01*
X105910887Y-93384400D02*
X105910887Y-93622495D01*
X105910887Y-93622495D02*
X105968030Y-93717733D01*
X105968030Y-93717733D02*
X106025173Y-93765352D01*
X106025173Y-93765352D02*
X106139459Y-93812971D01*
X106139459Y-93812971D02*
X106425173Y-93812971D01*
X106425173Y-93812971D02*
X106539459Y-93765352D01*
X106539459Y-93765352D02*
X106596602Y-93717733D01*
X106596602Y-93717733D02*
X106653744Y-93622495D01*
X106653744Y-93622495D02*
X106653744Y-93384400D01*
X106653744Y-93384400D02*
X106596602Y-93289162D01*
X106596602Y-93289162D02*
X106539459Y-93241543D01*
X107110887Y-94146305D02*
X107053744Y-94193924D01*
X107053744Y-94193924D02*
X106882316Y-94289162D01*
X106882316Y-94289162D02*
X106768030Y-94336781D01*
X106768030Y-94336781D02*
X106596602Y-94384400D01*
X106596602Y-94384400D02*
X106310887Y-94432019D01*
X106310887Y-94432019D02*
X106082316Y-94432019D01*
X106082316Y-94432019D02*
X105796602Y-94384400D01*
X105796602Y-94384400D02*
X105625173Y-94336781D01*
X105625173Y-94336781D02*
X105510887Y-94289162D01*
X105510887Y-94289162D02*
X105339459Y-94193924D01*
X105339459Y-94193924D02*
X105282316Y-94146305D01*
X111820972Y-86670112D02*
X111820972Y-86336779D01*
X112449543Y-86336779D02*
X111249543Y-86336779D01*
X111249543Y-86336779D02*
X111249543Y-86812969D01*
X111649543Y-87622493D02*
X112449543Y-87622493D01*
X111649543Y-87193922D02*
X112278115Y-87193922D01*
X112278115Y-87193922D02*
X112392401Y-87241541D01*
X112392401Y-87241541D02*
X112449543Y-87336779D01*
X112449543Y-87336779D02*
X112449543Y-87479636D01*
X112449543Y-87479636D02*
X112392401Y-87574874D01*
X112392401Y-87574874D02*
X112335258Y-87622493D01*
X112449543Y-88241541D02*
X112392401Y-88146303D01*
X112392401Y-88146303D02*
X112278115Y-88098684D01*
X112278115Y-88098684D02*
X111249543Y-88098684D01*
X112449543Y-88765351D02*
X112392401Y-88670113D01*
X112392401Y-88670113D02*
X112278115Y-88622494D01*
X112278115Y-88622494D02*
X111249543Y-88622494D01*
X111249543Y-89765352D02*
X111249543Y-90336780D01*
X112449543Y-90051066D02*
X111249543Y-90051066D01*
X111249543Y-90574876D02*
X112449543Y-91241542D01*
X111249543Y-91241542D02*
X112449543Y-90574876D01*
X112906686Y-92670114D02*
X112849543Y-92622495D01*
X112849543Y-92622495D02*
X112678115Y-92527257D01*
X112678115Y-92527257D02*
X112563829Y-92479638D01*
X112563829Y-92479638D02*
X112392401Y-92432019D01*
X112392401Y-92432019D02*
X112106686Y-92384400D01*
X112106686Y-92384400D02*
X111878115Y-92384400D01*
X111878115Y-92384400D02*
X111592401Y-92432019D01*
X111592401Y-92432019D02*
X111420972Y-92479638D01*
X111420972Y-92479638D02*
X111306686Y-92527257D01*
X111306686Y-92527257D02*
X111135258Y-92622495D01*
X111135258Y-92622495D02*
X111078115Y-92670114D01*
X111649543Y-93479638D02*
X112449543Y-93479638D01*
X111192401Y-93241543D02*
X112049543Y-93003448D01*
X112049543Y-93003448D02*
X112049543Y-93622495D01*
X112906686Y-93908210D02*
X112849543Y-93955829D01*
X112849543Y-93955829D02*
X112678115Y-94051067D01*
X112678115Y-94051067D02*
X112563829Y-94098686D01*
X112563829Y-94098686D02*
X112392401Y-94146305D01*
X112392401Y-94146305D02*
X112106686Y-94193924D01*
X112106686Y-94193924D02*
X111878115Y-94193924D01*
X111878115Y-94193924D02*
X111592401Y-94146305D01*
X111592401Y-94146305D02*
X111420972Y-94098686D01*
X111420972Y-94098686D02*
X111306686Y-94051067D01*
X111306686Y-94051067D02*
X111135258Y-93955829D01*
X111135258Y-93955829D02*
X111078115Y-93908210D01*
X117102485Y-86860588D02*
X117045342Y-86765350D01*
X117045342Y-86765350D02*
X117045342Y-86622493D01*
X117045342Y-86622493D02*
X117102485Y-86479636D01*
X117102485Y-86479636D02*
X117216771Y-86384398D01*
X117216771Y-86384398D02*
X117331057Y-86336779D01*
X117331057Y-86336779D02*
X117559628Y-86289160D01*
X117559628Y-86289160D02*
X117731057Y-86289160D01*
X117731057Y-86289160D02*
X117959628Y-86336779D01*
X117959628Y-86336779D02*
X118073914Y-86384398D01*
X118073914Y-86384398D02*
X118188200Y-86479636D01*
X118188200Y-86479636D02*
X118245342Y-86622493D01*
X118245342Y-86622493D02*
X118245342Y-86717731D01*
X118245342Y-86717731D02*
X118188200Y-86860588D01*
X118188200Y-86860588D02*
X118131057Y-86908207D01*
X118131057Y-86908207D02*
X117731057Y-86908207D01*
X117731057Y-86908207D02*
X117731057Y-86717731D01*
X118245342Y-87336779D02*
X117045342Y-87336779D01*
X117045342Y-87336779D02*
X118245342Y-87908207D01*
X118245342Y-87908207D02*
X117045342Y-87908207D01*
X118245342Y-88384398D02*
X117045342Y-88384398D01*
X117045342Y-88384398D02*
X117045342Y-88622493D01*
X117045342Y-88622493D02*
X117102485Y-88765350D01*
X117102485Y-88765350D02*
X117216771Y-88860588D01*
X117216771Y-88860588D02*
X117331057Y-88908207D01*
X117331057Y-88908207D02*
X117559628Y-88955826D01*
X117559628Y-88955826D02*
X117731057Y-88955826D01*
X117731057Y-88955826D02*
X117959628Y-88908207D01*
X117959628Y-88908207D02*
X118073914Y-88860588D01*
X118073914Y-88860588D02*
X118188200Y-88765350D01*
X118188200Y-88765350D02*
X118245342Y-88622493D01*
X118245342Y-88622493D02*
X118245342Y-88384398D01*
X113054819Y-104766666D02*
X113769104Y-104766666D01*
X113769104Y-104766666D02*
X113911961Y-104719047D01*
X113911961Y-104719047D02*
X114007200Y-104623809D01*
X114007200Y-104623809D02*
X114054819Y-104480952D01*
X114054819Y-104480952D02*
X114054819Y-104385714D01*
X114054819Y-105242857D02*
X113054819Y-105242857D01*
X113054819Y-105242857D02*
X113054819Y-105623809D01*
X113054819Y-105623809D02*
X113102438Y-105719047D01*
X113102438Y-105719047D02*
X113150057Y-105766666D01*
X113150057Y-105766666D02*
X113245295Y-105814285D01*
X113245295Y-105814285D02*
X113388152Y-105814285D01*
X113388152Y-105814285D02*
X113483390Y-105766666D01*
X113483390Y-105766666D02*
X113531009Y-105719047D01*
X113531009Y-105719047D02*
X113578628Y-105623809D01*
X113578628Y-105623809D02*
X113578628Y-105242857D01*
X113150057Y-106195238D02*
X113102438Y-106242857D01*
X113102438Y-106242857D02*
X113054819Y-106338095D01*
X113054819Y-106338095D02*
X113054819Y-106576190D01*
X113054819Y-106576190D02*
X113102438Y-106671428D01*
X113102438Y-106671428D02*
X113150057Y-106719047D01*
X113150057Y-106719047D02*
X113245295Y-106766666D01*
X113245295Y-106766666D02*
X113340533Y-106766666D01*
X113340533Y-106766666D02*
X113483390Y-106719047D01*
X113483390Y-106719047D02*
X114054819Y-106147619D01*
X114054819Y-106147619D02*
X114054819Y-106766666D01*
X114979819Y-108766667D02*
X114979819Y-109385714D01*
X114979819Y-109385714D02*
X115360771Y-109052381D01*
X115360771Y-109052381D02*
X115360771Y-109195238D01*
X115360771Y-109195238D02*
X115408390Y-109290476D01*
X115408390Y-109290476D02*
X115456009Y-109338095D01*
X115456009Y-109338095D02*
X115551247Y-109385714D01*
X115551247Y-109385714D02*
X115789342Y-109385714D01*
X115789342Y-109385714D02*
X115884580Y-109338095D01*
X115884580Y-109338095D02*
X115932200Y-109290476D01*
X115932200Y-109290476D02*
X115979819Y-109195238D01*
X115979819Y-109195238D02*
X115979819Y-108909524D01*
X115979819Y-108909524D02*
X115932200Y-108814286D01*
X115932200Y-108814286D02*
X115884580Y-108766667D01*
X115979819Y-104185714D02*
X115979819Y-103614286D01*
X115979819Y-103900000D02*
X114979819Y-103900000D01*
X114979819Y-103900000D02*
X115122676Y-103804762D01*
X115122676Y-103804762D02*
X115217914Y-103709524D01*
X115217914Y-103709524D02*
X115265533Y-103614286D01*
X106854819Y-100938095D02*
X106854819Y-101509523D01*
X107854819Y-101223809D02*
X106854819Y-101223809D01*
X107854819Y-101842857D02*
X106854819Y-101842857D01*
X106854819Y-101842857D02*
X106854819Y-102223809D01*
X106854819Y-102223809D02*
X106902438Y-102319047D01*
X106902438Y-102319047D02*
X106950057Y-102366666D01*
X106950057Y-102366666D02*
X107045295Y-102414285D01*
X107045295Y-102414285D02*
X107188152Y-102414285D01*
X107188152Y-102414285D02*
X107283390Y-102366666D01*
X107283390Y-102366666D02*
X107331009Y-102319047D01*
X107331009Y-102319047D02*
X107378628Y-102223809D01*
X107378628Y-102223809D02*
X107378628Y-101842857D01*
X106854819Y-102747619D02*
X106854819Y-103366666D01*
X106854819Y-103366666D02*
X107235771Y-103033333D01*
X107235771Y-103033333D02*
X107235771Y-103176190D01*
X107235771Y-103176190D02*
X107283390Y-103271428D01*
X107283390Y-103271428D02*
X107331009Y-103319047D01*
X107331009Y-103319047D02*
X107426247Y-103366666D01*
X107426247Y-103366666D02*
X107664342Y-103366666D01*
X107664342Y-103366666D02*
X107759580Y-103319047D01*
X107759580Y-103319047D02*
X107807200Y-103271428D01*
X107807200Y-103271428D02*
X107854819Y-103176190D01*
X107854819Y-103176190D02*
X107854819Y-102890476D01*
X107854819Y-102890476D02*
X107807200Y-102795238D01*
X107807200Y-102795238D02*
X107759580Y-102747619D01*
X57154819Y-102966666D02*
X57869104Y-102966666D01*
X57869104Y-102966666D02*
X58011961Y-102919047D01*
X58011961Y-102919047D02*
X58107200Y-102823809D01*
X58107200Y-102823809D02*
X58154819Y-102680952D01*
X58154819Y-102680952D02*
X58154819Y-102585714D01*
X58154819Y-103442857D02*
X57154819Y-103442857D01*
X57154819Y-103442857D02*
X57154819Y-103823809D01*
X57154819Y-103823809D02*
X57202438Y-103919047D01*
X57202438Y-103919047D02*
X57250057Y-103966666D01*
X57250057Y-103966666D02*
X57345295Y-104014285D01*
X57345295Y-104014285D02*
X57488152Y-104014285D01*
X57488152Y-104014285D02*
X57583390Y-103966666D01*
X57583390Y-103966666D02*
X57631009Y-103919047D01*
X57631009Y-103919047D02*
X57678628Y-103823809D01*
X57678628Y-103823809D02*
X57678628Y-103442857D01*
X58154819Y-104966666D02*
X58154819Y-104395238D01*
X58154819Y-104680952D02*
X57154819Y-104680952D01*
X57154819Y-104680952D02*
X57297676Y-104585714D01*
X57297676Y-104585714D02*
X57392914Y-104490476D01*
X57392914Y-104490476D02*
X57440533Y-104395238D01*
X59954819Y-101485714D02*
X59954819Y-100914286D01*
X59954819Y-101200000D02*
X58954819Y-101200000D01*
X58954819Y-101200000D02*
X59097676Y-101104762D01*
X59097676Y-101104762D02*
X59192914Y-101009524D01*
X59192914Y-101009524D02*
X59240533Y-100914286D01*
X59784819Y-98166666D02*
X60499104Y-98166666D01*
X60499104Y-98166666D02*
X60641961Y-98119047D01*
X60641961Y-98119047D02*
X60737200Y-98023809D01*
X60737200Y-98023809D02*
X60784819Y-97880952D01*
X60784819Y-97880952D02*
X60784819Y-97785714D01*
X59880057Y-98595238D02*
X59832438Y-98642857D01*
X59832438Y-98642857D02*
X59784819Y-98738095D01*
X59784819Y-98738095D02*
X59784819Y-98976190D01*
X59784819Y-98976190D02*
X59832438Y-99071428D01*
X59832438Y-99071428D02*
X59880057Y-99119047D01*
X59880057Y-99119047D02*
X59975295Y-99166666D01*
X59975295Y-99166666D02*
X60070533Y-99166666D01*
X60070533Y-99166666D02*
X60213390Y-99119047D01*
X60213390Y-99119047D02*
X60784819Y-98547619D01*
X60784819Y-98547619D02*
X60784819Y-99166666D01*
D14*
%TO.C,TP1*%
X90125000Y-83800000D02*
G75*
G02*
X87725000Y-83800000I-1200000J0D01*
G01*
X87725000Y-83800000D02*
G75*
G02*
X90125000Y-83800000I1200000J0D01*
G01*
%TO.C,TP4*%
X101525000Y-83800000D02*
G75*
G02*
X99125000Y-83800000I-1200000J0D01*
G01*
X99125000Y-83800000D02*
G75*
G02*
X101525000Y-83800000I1200000J0D01*
G01*
%TO.C,R8*%
X109639564Y-107465000D02*
X109185436Y-107465000D01*
X109639564Y-108935000D02*
X109185436Y-108935000D01*
%TO.C,J3*%
X52635000Y-108000000D02*
X52635000Y-108635000D01*
X52635000Y-108635000D02*
X52000000Y-108635000D01*
%TO.C,JP2*%
X114525000Y-107900000D02*
X114525000Y-105100000D01*
X115225000Y-104450000D02*
X115825000Y-104450000D01*
X115825000Y-108550000D02*
X115225000Y-108550000D01*
X116525000Y-105100000D02*
X116525000Y-107900000D01*
X114525000Y-105150000D02*
G75*
G02*
X115225000Y-104450000I699999J1D01*
G01*
X115225000Y-108550000D02*
G75*
G02*
X114525000Y-107850000I0J700000D01*
G01*
X115825000Y-104450000D02*
G75*
G02*
X116525000Y-105150000I1J-699999D01*
G01*
X116525000Y-107850000D02*
G75*
G02*
X115825000Y-108550000I-700000J0D01*
G01*
%TO.C,TP7*%
X118800000Y-83800000D02*
G75*
G02*
X116400000Y-83800000I-1200000J0D01*
G01*
X116400000Y-83800000D02*
G75*
G02*
X118800000Y-83800000I1200000J0D01*
G01*
%TO.C,TP5*%
X107225000Y-83800000D02*
G75*
G02*
X104825000Y-83800000I-1200000J0D01*
G01*
X104825000Y-83800000D02*
G75*
G02*
X107225000Y-83800000I1200000J0D01*
G01*
%TO.C,TP2*%
X95825000Y-83800000D02*
G75*
G02*
X93425000Y-83800000I-1200000J0D01*
G01*
X93425000Y-83800000D02*
G75*
G02*
X95825000Y-83800000I1200000J0D01*
G01*
%TO.C,TP6*%
X112925000Y-83800000D02*
G75*
G02*
X110525000Y-83800000I-1200000J0D01*
G01*
X110525000Y-83800000D02*
G75*
G02*
X112925000Y-83800000I1200000J0D01*
G01*
%TO.C,TP3*%
X110725000Y-104600000D02*
G75*
G02*
X108325000Y-104600000I-1200000J0D01*
G01*
X108325000Y-104600000D02*
G75*
G02*
X110725000Y-104600000I1200000J0D01*
G01*
%TO.C,JP1*%
X58500000Y-105200000D02*
X58500000Y-102400000D01*
X59200000Y-101750000D02*
X59800000Y-101750000D01*
X59800000Y-105850000D02*
X59200000Y-105850000D01*
X60500000Y-102400000D02*
X60500000Y-105200000D01*
X58500000Y-102450000D02*
G75*
G02*
X59200000Y-101750000I699999J1D01*
G01*
X59200000Y-105850000D02*
G75*
G02*
X58500000Y-105150000I0J700000D01*
G01*
X59800000Y-101750000D02*
G75*
G02*
X60500000Y-102450000I1J-699999D01*
G01*
X60500000Y-105150000D02*
G75*
G02*
X59800000Y-105850000I-700000J0D01*
G01*
%TO.C,J2*%
X43970000Y-97170000D02*
X43970000Y-99830000D01*
X43970000Y-97170000D02*
X56730000Y-97170000D01*
X43970000Y-99830000D02*
X56730000Y-99830000D01*
X56730000Y-97170000D02*
X56730000Y-99830000D01*
X59330000Y-98500000D02*
X59330000Y-99830000D01*
X59330000Y-99830000D02*
X58000000Y-99830000D01*
%TD*%
%LPC*%
D15*
X125128637Y-88740478D02*
X124628637Y-88740478D01*
X124628637Y-88740478D02*
X124628637Y-88859526D01*
X124628637Y-88859526D02*
X124652447Y-88930954D01*
X124652447Y-88930954D02*
X124700066Y-88978573D01*
X124700066Y-88978573D02*
X124747685Y-89002383D01*
X124747685Y-89002383D02*
X124842923Y-89026192D01*
X124842923Y-89026192D02*
X124914351Y-89026192D01*
X124914351Y-89026192D02*
X125009589Y-89002383D01*
X125009589Y-89002383D02*
X125057208Y-88978573D01*
X125057208Y-88978573D02*
X125104828Y-88930954D01*
X125104828Y-88930954D02*
X125128637Y-88859526D01*
X125128637Y-88859526D02*
X125128637Y-88740478D01*
X125128637Y-89240478D02*
X124628637Y-89240478D01*
X124890542Y-89573811D02*
X125128637Y-89573811D01*
X124628637Y-89407145D02*
X124890542Y-89573811D01*
X124890542Y-89573811D02*
X124628637Y-89740478D01*
X124628637Y-90240477D02*
X125128637Y-90359525D01*
X125128637Y-90359525D02*
X124771494Y-90454763D01*
X124771494Y-90454763D02*
X125128637Y-90550001D01*
X125128637Y-90550001D02*
X124628637Y-90669049D01*
X125128637Y-90859525D02*
X124795304Y-90859525D01*
X124628637Y-90859525D02*
X124652447Y-90835716D01*
X124652447Y-90835716D02*
X124676256Y-90859525D01*
X124676256Y-90859525D02*
X124652447Y-90883335D01*
X124652447Y-90883335D02*
X124628637Y-90859525D01*
X124628637Y-90859525D02*
X124676256Y-90859525D01*
X124938161Y-91097620D02*
X124938161Y-91478573D01*
X124795304Y-91645240D02*
X124795304Y-91835716D01*
X125128637Y-91716668D02*
X124700066Y-91716668D01*
X124700066Y-91716668D02*
X124652447Y-91740478D01*
X124652447Y-91740478D02*
X124628637Y-91788097D01*
X124628637Y-91788097D02*
X124628637Y-91835716D01*
X125128637Y-92002382D02*
X124795304Y-92002382D01*
X124628637Y-92002382D02*
X124652447Y-91978573D01*
X124652447Y-91978573D02*
X124676256Y-92002382D01*
X124676256Y-92002382D02*
X124652447Y-92026192D01*
X124652447Y-92026192D02*
X124628637Y-92002382D01*
X124628637Y-92002382D02*
X124676256Y-92002382D01*
X125128637Y-92835715D02*
X124866732Y-92835715D01*
X124866732Y-92835715D02*
X124819113Y-92811905D01*
X124819113Y-92811905D02*
X124795304Y-92764286D01*
X124795304Y-92764286D02*
X124795304Y-92669048D01*
X124795304Y-92669048D02*
X124819113Y-92621429D01*
X125104828Y-92835715D02*
X125128637Y-92788096D01*
X125128637Y-92788096D02*
X125128637Y-92669048D01*
X125128637Y-92669048D02*
X125104828Y-92621429D01*
X125104828Y-92621429D02*
X125057208Y-92597620D01*
X125057208Y-92597620D02*
X125009589Y-92597620D01*
X125009589Y-92597620D02*
X124961970Y-92621429D01*
X124961970Y-92621429D02*
X124938161Y-92669048D01*
X124938161Y-92669048D02*
X124938161Y-92788096D01*
X124938161Y-92788096D02*
X124914351Y-92835715D01*
X125128637Y-93288096D02*
X124628637Y-93288096D01*
X125104828Y-93288096D02*
X125128637Y-93240477D01*
X125128637Y-93240477D02*
X125128637Y-93145239D01*
X125128637Y-93145239D02*
X125104828Y-93097620D01*
X125104828Y-93097620D02*
X125081018Y-93073810D01*
X125081018Y-93073810D02*
X125033399Y-93050001D01*
X125033399Y-93050001D02*
X124890542Y-93050001D01*
X124890542Y-93050001D02*
X124842923Y-93073810D01*
X124842923Y-93073810D02*
X124819113Y-93097620D01*
X124819113Y-93097620D02*
X124795304Y-93145239D01*
X124795304Y-93145239D02*
X124795304Y-93240477D01*
X124795304Y-93240477D02*
X124819113Y-93288096D01*
X125128637Y-93740477D02*
X124866732Y-93740477D01*
X124866732Y-93740477D02*
X124819113Y-93716667D01*
X124819113Y-93716667D02*
X124795304Y-93669048D01*
X124795304Y-93669048D02*
X124795304Y-93573810D01*
X124795304Y-93573810D02*
X124819113Y-93526191D01*
X125104828Y-93740477D02*
X125128637Y-93692858D01*
X125128637Y-93692858D02*
X125128637Y-93573810D01*
X125128637Y-93573810D02*
X125104828Y-93526191D01*
X125104828Y-93526191D02*
X125057208Y-93502382D01*
X125057208Y-93502382D02*
X125009589Y-93502382D01*
X125009589Y-93502382D02*
X124961970Y-93526191D01*
X124961970Y-93526191D02*
X124938161Y-93573810D01*
X124938161Y-93573810D02*
X124938161Y-93692858D01*
X124938161Y-93692858D02*
X124914351Y-93740477D01*
X124795304Y-93978572D02*
X125295304Y-93978572D01*
X124819113Y-93978572D02*
X124795304Y-94026191D01*
X124795304Y-94026191D02*
X124795304Y-94121429D01*
X124795304Y-94121429D02*
X124819113Y-94169048D01*
X124819113Y-94169048D02*
X124842923Y-94192858D01*
X124842923Y-94192858D02*
X124890542Y-94216667D01*
X124890542Y-94216667D02*
X125033399Y-94216667D01*
X125033399Y-94216667D02*
X125081018Y-94192858D01*
X125081018Y-94192858D02*
X125104828Y-94169048D01*
X125104828Y-94169048D02*
X125128637Y-94121429D01*
X125128637Y-94121429D02*
X125128637Y-94026191D01*
X125128637Y-94026191D02*
X125104828Y-93978572D01*
X124795304Y-94359525D02*
X124795304Y-94550001D01*
X124628637Y-94430953D02*
X125057208Y-94430953D01*
X125057208Y-94430953D02*
X125104828Y-94454763D01*
X125104828Y-94454763D02*
X125128637Y-94502382D01*
X125128637Y-94502382D02*
X125128637Y-94550001D01*
X125104828Y-94907143D02*
X125128637Y-94859524D01*
X125128637Y-94859524D02*
X125128637Y-94764286D01*
X125128637Y-94764286D02*
X125104828Y-94716667D01*
X125104828Y-94716667D02*
X125057208Y-94692858D01*
X125057208Y-94692858D02*
X124866732Y-94692858D01*
X124866732Y-94692858D02*
X124819113Y-94716667D01*
X124819113Y-94716667D02*
X124795304Y-94764286D01*
X124795304Y-94764286D02*
X124795304Y-94859524D01*
X124795304Y-94859524D02*
X124819113Y-94907143D01*
X124819113Y-94907143D02*
X124866732Y-94930953D01*
X124866732Y-94930953D02*
X124914351Y-94930953D01*
X124914351Y-94930953D02*
X124961970Y-94692858D01*
X125128637Y-95145238D02*
X124795304Y-95145238D01*
X124890542Y-95145238D02*
X124842923Y-95169048D01*
X124842923Y-95169048D02*
X124819113Y-95192857D01*
X124819113Y-95192857D02*
X124795304Y-95240476D01*
X124795304Y-95240476D02*
X124795304Y-95288095D01*
X124795304Y-95764286D02*
X124795304Y-95954762D01*
X125128637Y-95835714D02*
X124700066Y-95835714D01*
X124700066Y-95835714D02*
X124652447Y-95859524D01*
X124652447Y-95859524D02*
X124628637Y-95907143D01*
X124628637Y-95907143D02*
X124628637Y-95954762D01*
X125128637Y-96192857D02*
X125104828Y-96145238D01*
X125104828Y-96145238D02*
X125081018Y-96121428D01*
X125081018Y-96121428D02*
X125033399Y-96097619D01*
X125033399Y-96097619D02*
X124890542Y-96097619D01*
X124890542Y-96097619D02*
X124842923Y-96121428D01*
X124842923Y-96121428D02*
X124819113Y-96145238D01*
X124819113Y-96145238D02*
X124795304Y-96192857D01*
X124795304Y-96192857D02*
X124795304Y-96264285D01*
X124795304Y-96264285D02*
X124819113Y-96311904D01*
X124819113Y-96311904D02*
X124842923Y-96335714D01*
X124842923Y-96335714D02*
X124890542Y-96359523D01*
X124890542Y-96359523D02*
X125033399Y-96359523D01*
X125033399Y-96359523D02*
X125081018Y-96335714D01*
X125081018Y-96335714D02*
X125104828Y-96311904D01*
X125104828Y-96311904D02*
X125128637Y-96264285D01*
X125128637Y-96264285D02*
X125128637Y-96192857D01*
X125128637Y-96573809D02*
X124795304Y-96573809D01*
X124890542Y-96573809D02*
X124842923Y-96597619D01*
X124842923Y-96597619D02*
X124819113Y-96621428D01*
X124819113Y-96621428D02*
X124795304Y-96669047D01*
X124795304Y-96669047D02*
X124795304Y-96716666D01*
X124652447Y-97526190D02*
X124628637Y-97478571D01*
X124628637Y-97478571D02*
X124628637Y-97407142D01*
X124628637Y-97407142D02*
X124652447Y-97335714D01*
X124652447Y-97335714D02*
X124700066Y-97288095D01*
X124700066Y-97288095D02*
X124747685Y-97264285D01*
X124747685Y-97264285D02*
X124842923Y-97240476D01*
X124842923Y-97240476D02*
X124914351Y-97240476D01*
X124914351Y-97240476D02*
X125009589Y-97264285D01*
X125009589Y-97264285D02*
X125057208Y-97288095D01*
X125057208Y-97288095D02*
X125104828Y-97335714D01*
X125104828Y-97335714D02*
X125128637Y-97407142D01*
X125128637Y-97407142D02*
X125128637Y-97454761D01*
X125128637Y-97454761D02*
X125104828Y-97526190D01*
X125104828Y-97526190D02*
X125081018Y-97549999D01*
X125081018Y-97549999D02*
X124914351Y-97549999D01*
X124914351Y-97549999D02*
X124914351Y-97454761D01*
X124866732Y-97764285D02*
X124866732Y-97930952D01*
X125128637Y-98002380D02*
X125128637Y-97764285D01*
X125128637Y-97764285D02*
X124628637Y-97764285D01*
X124628637Y-97764285D02*
X124628637Y-98002380D01*
X124985780Y-98192857D02*
X124985780Y-98430952D01*
X125128637Y-98145238D02*
X124628637Y-98311904D01*
X124628637Y-98311904D02*
X125128637Y-98478571D01*
X124676256Y-98621428D02*
X124652447Y-98645237D01*
X124652447Y-98645237D02*
X124628637Y-98692856D01*
X124628637Y-98692856D02*
X124628637Y-98811904D01*
X124628637Y-98811904D02*
X124652447Y-98859523D01*
X124652447Y-98859523D02*
X124676256Y-98883332D01*
X124676256Y-98883332D02*
X124723875Y-98907142D01*
X124723875Y-98907142D02*
X124771494Y-98907142D01*
X124771494Y-98907142D02*
X124842923Y-98883332D01*
X124842923Y-98883332D02*
X125128637Y-98597618D01*
X125128637Y-98597618D02*
X125128637Y-98907142D01*
X125128637Y-99716665D02*
X124866732Y-99716665D01*
X124866732Y-99716665D02*
X124819113Y-99692855D01*
X124819113Y-99692855D02*
X124795304Y-99645236D01*
X124795304Y-99645236D02*
X124795304Y-99549998D01*
X124795304Y-99549998D02*
X124819113Y-99502379D01*
X125104828Y-99716665D02*
X125128637Y-99669046D01*
X125128637Y-99669046D02*
X125128637Y-99549998D01*
X125128637Y-99549998D02*
X125104828Y-99502379D01*
X125104828Y-99502379D02*
X125057208Y-99478570D01*
X125057208Y-99478570D02*
X125009589Y-99478570D01*
X125009589Y-99478570D02*
X124961970Y-99502379D01*
X124961970Y-99502379D02*
X124938161Y-99549998D01*
X124938161Y-99549998D02*
X124938161Y-99669046D01*
X124938161Y-99669046D02*
X124914351Y-99716665D01*
X124795304Y-99954760D02*
X125128637Y-99954760D01*
X124842923Y-99954760D02*
X124819113Y-99978570D01*
X124819113Y-99978570D02*
X124795304Y-100026189D01*
X124795304Y-100026189D02*
X124795304Y-100097617D01*
X124795304Y-100097617D02*
X124819113Y-100145236D01*
X124819113Y-100145236D02*
X124866732Y-100169046D01*
X124866732Y-100169046D02*
X125128637Y-100169046D01*
X125128637Y-100621427D02*
X124628637Y-100621427D01*
X125104828Y-100621427D02*
X125128637Y-100573808D01*
X125128637Y-100573808D02*
X125128637Y-100478570D01*
X125128637Y-100478570D02*
X125104828Y-100430951D01*
X125104828Y-100430951D02*
X125081018Y-100407141D01*
X125081018Y-100407141D02*
X125033399Y-100383332D01*
X125033399Y-100383332D02*
X124890542Y-100383332D01*
X124890542Y-100383332D02*
X124842923Y-100407141D01*
X124842923Y-100407141D02*
X124819113Y-100430951D01*
X124819113Y-100430951D02*
X124795304Y-100478570D01*
X124795304Y-100478570D02*
X124795304Y-100573808D01*
X124795304Y-100573808D02*
X124819113Y-100621427D01*
X124652447Y-101502379D02*
X124628637Y-101454760D01*
X124628637Y-101454760D02*
X124628637Y-101383331D01*
X124628637Y-101383331D02*
X124652447Y-101311903D01*
X124652447Y-101311903D02*
X124700066Y-101264284D01*
X124700066Y-101264284D02*
X124747685Y-101240474D01*
X124747685Y-101240474D02*
X124842923Y-101216665D01*
X124842923Y-101216665D02*
X124914351Y-101216665D01*
X124914351Y-101216665D02*
X125009589Y-101240474D01*
X125009589Y-101240474D02*
X125057208Y-101264284D01*
X125057208Y-101264284D02*
X125104828Y-101311903D01*
X125104828Y-101311903D02*
X125128637Y-101383331D01*
X125128637Y-101383331D02*
X125128637Y-101430950D01*
X125128637Y-101430950D02*
X125104828Y-101502379D01*
X125104828Y-101502379D02*
X125081018Y-101526188D01*
X125081018Y-101526188D02*
X124914351Y-101526188D01*
X124914351Y-101526188D02*
X124914351Y-101430950D01*
X124866732Y-101740474D02*
X124866732Y-101907141D01*
X125128637Y-101978569D02*
X125128637Y-101740474D01*
X125128637Y-101740474D02*
X124628637Y-101740474D01*
X124628637Y-101740474D02*
X124628637Y-101978569D01*
X124985780Y-102169046D02*
X124985780Y-102407141D01*
X125128637Y-102121427D02*
X124628637Y-102288093D01*
X124628637Y-102288093D02*
X125128637Y-102454760D01*
X124628637Y-102573807D02*
X124628637Y-102883331D01*
X124628637Y-102883331D02*
X124819113Y-102716664D01*
X124819113Y-102716664D02*
X124819113Y-102788093D01*
X124819113Y-102788093D02*
X124842923Y-102835712D01*
X124842923Y-102835712D02*
X124866732Y-102859521D01*
X124866732Y-102859521D02*
X124914351Y-102883331D01*
X124914351Y-102883331D02*
X125033399Y-102883331D01*
X125033399Y-102883331D02*
X125081018Y-102859521D01*
X125081018Y-102859521D02*
X125104828Y-102835712D01*
X125104828Y-102835712D02*
X125128637Y-102788093D01*
X125128637Y-102788093D02*
X125128637Y-102645236D01*
X125128637Y-102645236D02*
X125104828Y-102597617D01*
X125104828Y-102597617D02*
X125081018Y-102573807D01*
X125885990Y-88704763D02*
X125909800Y-88680954D01*
X125909800Y-88680954D02*
X125933609Y-88609525D01*
X125933609Y-88609525D02*
X125933609Y-88561906D01*
X125933609Y-88561906D02*
X125909800Y-88490478D01*
X125909800Y-88490478D02*
X125862180Y-88442859D01*
X125862180Y-88442859D02*
X125814561Y-88419049D01*
X125814561Y-88419049D02*
X125719323Y-88395240D01*
X125719323Y-88395240D02*
X125647895Y-88395240D01*
X125647895Y-88395240D02*
X125552657Y-88419049D01*
X125552657Y-88419049D02*
X125505038Y-88442859D01*
X125505038Y-88442859D02*
X125457419Y-88490478D01*
X125457419Y-88490478D02*
X125433609Y-88561906D01*
X125433609Y-88561906D02*
X125433609Y-88609525D01*
X125433609Y-88609525D02*
X125457419Y-88680954D01*
X125457419Y-88680954D02*
X125481228Y-88704763D01*
X125933609Y-88990478D02*
X125909800Y-88942859D01*
X125909800Y-88942859D02*
X125885990Y-88919049D01*
X125885990Y-88919049D02*
X125838371Y-88895240D01*
X125838371Y-88895240D02*
X125695514Y-88895240D01*
X125695514Y-88895240D02*
X125647895Y-88919049D01*
X125647895Y-88919049D02*
X125624085Y-88942859D01*
X125624085Y-88942859D02*
X125600276Y-88990478D01*
X125600276Y-88990478D02*
X125600276Y-89061906D01*
X125600276Y-89061906D02*
X125624085Y-89109525D01*
X125624085Y-89109525D02*
X125647895Y-89133335D01*
X125647895Y-89133335D02*
X125695514Y-89157144D01*
X125695514Y-89157144D02*
X125838371Y-89157144D01*
X125838371Y-89157144D02*
X125885990Y-89133335D01*
X125885990Y-89133335D02*
X125909800Y-89109525D01*
X125909800Y-89109525D02*
X125933609Y-89061906D01*
X125933609Y-89061906D02*
X125933609Y-88990478D01*
X125600276Y-89371430D02*
X125933609Y-89371430D01*
X125647895Y-89371430D02*
X125624085Y-89395240D01*
X125624085Y-89395240D02*
X125600276Y-89442859D01*
X125600276Y-89442859D02*
X125600276Y-89514287D01*
X125600276Y-89514287D02*
X125624085Y-89561906D01*
X125624085Y-89561906D02*
X125671704Y-89585716D01*
X125671704Y-89585716D02*
X125933609Y-89585716D01*
X125600276Y-89823811D02*
X125933609Y-89823811D01*
X125647895Y-89823811D02*
X125624085Y-89847621D01*
X125624085Y-89847621D02*
X125600276Y-89895240D01*
X125600276Y-89895240D02*
X125600276Y-89966668D01*
X125600276Y-89966668D02*
X125624085Y-90014287D01*
X125624085Y-90014287D02*
X125671704Y-90038097D01*
X125671704Y-90038097D02*
X125933609Y-90038097D01*
X125909800Y-90466668D02*
X125933609Y-90419049D01*
X125933609Y-90419049D02*
X125933609Y-90323811D01*
X125933609Y-90323811D02*
X125909800Y-90276192D01*
X125909800Y-90276192D02*
X125862180Y-90252383D01*
X125862180Y-90252383D02*
X125671704Y-90252383D01*
X125671704Y-90252383D02*
X125624085Y-90276192D01*
X125624085Y-90276192D02*
X125600276Y-90323811D01*
X125600276Y-90323811D02*
X125600276Y-90419049D01*
X125600276Y-90419049D02*
X125624085Y-90466668D01*
X125624085Y-90466668D02*
X125671704Y-90490478D01*
X125671704Y-90490478D02*
X125719323Y-90490478D01*
X125719323Y-90490478D02*
X125766942Y-90252383D01*
X125909800Y-90919049D02*
X125933609Y-90871430D01*
X125933609Y-90871430D02*
X125933609Y-90776192D01*
X125933609Y-90776192D02*
X125909800Y-90728573D01*
X125909800Y-90728573D02*
X125885990Y-90704763D01*
X125885990Y-90704763D02*
X125838371Y-90680954D01*
X125838371Y-90680954D02*
X125695514Y-90680954D01*
X125695514Y-90680954D02*
X125647895Y-90704763D01*
X125647895Y-90704763D02*
X125624085Y-90728573D01*
X125624085Y-90728573D02*
X125600276Y-90776192D01*
X125600276Y-90776192D02*
X125600276Y-90871430D01*
X125600276Y-90871430D02*
X125624085Y-90919049D01*
X125600276Y-91061906D02*
X125600276Y-91252382D01*
X125433609Y-91133334D02*
X125862180Y-91133334D01*
X125862180Y-91133334D02*
X125909800Y-91157144D01*
X125909800Y-91157144D02*
X125933609Y-91204763D01*
X125933609Y-91204763D02*
X125933609Y-91252382D01*
X125600276Y-91728572D02*
X125600276Y-91919048D01*
X125433609Y-91800000D02*
X125862180Y-91800000D01*
X125862180Y-91800000D02*
X125909800Y-91823810D01*
X125909800Y-91823810D02*
X125933609Y-91871429D01*
X125933609Y-91871429D02*
X125933609Y-91919048D01*
X125933609Y-92157143D02*
X125909800Y-92109524D01*
X125909800Y-92109524D02*
X125885990Y-92085714D01*
X125885990Y-92085714D02*
X125838371Y-92061905D01*
X125838371Y-92061905D02*
X125695514Y-92061905D01*
X125695514Y-92061905D02*
X125647895Y-92085714D01*
X125647895Y-92085714D02*
X125624085Y-92109524D01*
X125624085Y-92109524D02*
X125600276Y-92157143D01*
X125600276Y-92157143D02*
X125600276Y-92228571D01*
X125600276Y-92228571D02*
X125624085Y-92276190D01*
X125624085Y-92276190D02*
X125647895Y-92300000D01*
X125647895Y-92300000D02*
X125695514Y-92323809D01*
X125695514Y-92323809D02*
X125838371Y-92323809D01*
X125838371Y-92323809D02*
X125885990Y-92300000D01*
X125885990Y-92300000D02*
X125909800Y-92276190D01*
X125909800Y-92276190D02*
X125933609Y-92228571D01*
X125933609Y-92228571D02*
X125933609Y-92157143D01*
X125933609Y-93133333D02*
X125671704Y-93133333D01*
X125671704Y-93133333D02*
X125624085Y-93109523D01*
X125624085Y-93109523D02*
X125600276Y-93061904D01*
X125600276Y-93061904D02*
X125600276Y-92966666D01*
X125600276Y-92966666D02*
X125624085Y-92919047D01*
X125909800Y-93133333D02*
X125933609Y-93085714D01*
X125933609Y-93085714D02*
X125933609Y-92966666D01*
X125933609Y-92966666D02*
X125909800Y-92919047D01*
X125909800Y-92919047D02*
X125862180Y-92895238D01*
X125862180Y-92895238D02*
X125814561Y-92895238D01*
X125814561Y-92895238D02*
X125766942Y-92919047D01*
X125766942Y-92919047D02*
X125743133Y-92966666D01*
X125743133Y-92966666D02*
X125743133Y-93085714D01*
X125743133Y-93085714D02*
X125719323Y-93133333D01*
X125600276Y-93371428D02*
X126100276Y-93371428D01*
X125624085Y-93371428D02*
X125600276Y-93419047D01*
X125600276Y-93419047D02*
X125600276Y-93514285D01*
X125600276Y-93514285D02*
X125624085Y-93561904D01*
X125624085Y-93561904D02*
X125647895Y-93585714D01*
X125647895Y-93585714D02*
X125695514Y-93609523D01*
X125695514Y-93609523D02*
X125838371Y-93609523D01*
X125838371Y-93609523D02*
X125885990Y-93585714D01*
X125885990Y-93585714D02*
X125909800Y-93561904D01*
X125909800Y-93561904D02*
X125933609Y-93514285D01*
X125933609Y-93514285D02*
X125933609Y-93419047D01*
X125933609Y-93419047D02*
X125909800Y-93371428D01*
X125600276Y-93823809D02*
X126100276Y-93823809D01*
X125624085Y-93823809D02*
X125600276Y-93871428D01*
X125600276Y-93871428D02*
X125600276Y-93966666D01*
X125600276Y-93966666D02*
X125624085Y-94014285D01*
X125624085Y-94014285D02*
X125647895Y-94038095D01*
X125647895Y-94038095D02*
X125695514Y-94061904D01*
X125695514Y-94061904D02*
X125838371Y-94061904D01*
X125838371Y-94061904D02*
X125885990Y-94038095D01*
X125885990Y-94038095D02*
X125909800Y-94014285D01*
X125909800Y-94014285D02*
X125933609Y-93966666D01*
X125933609Y-93966666D02*
X125933609Y-93871428D01*
X125933609Y-93871428D02*
X125909800Y-93823809D01*
X125933609Y-94347619D02*
X125909800Y-94300000D01*
X125909800Y-94300000D02*
X125862180Y-94276190D01*
X125862180Y-94276190D02*
X125433609Y-94276190D01*
X125933609Y-94538095D02*
X125600276Y-94538095D01*
X125433609Y-94538095D02*
X125457419Y-94514286D01*
X125457419Y-94514286D02*
X125481228Y-94538095D01*
X125481228Y-94538095D02*
X125457419Y-94561905D01*
X125457419Y-94561905D02*
X125433609Y-94538095D01*
X125433609Y-94538095D02*
X125481228Y-94538095D01*
X125933609Y-94990476D02*
X125671704Y-94990476D01*
X125671704Y-94990476D02*
X125624085Y-94966666D01*
X125624085Y-94966666D02*
X125600276Y-94919047D01*
X125600276Y-94919047D02*
X125600276Y-94823809D01*
X125600276Y-94823809D02*
X125624085Y-94776190D01*
X125909800Y-94990476D02*
X125933609Y-94942857D01*
X125933609Y-94942857D02*
X125933609Y-94823809D01*
X125933609Y-94823809D02*
X125909800Y-94776190D01*
X125909800Y-94776190D02*
X125862180Y-94752381D01*
X125862180Y-94752381D02*
X125814561Y-94752381D01*
X125814561Y-94752381D02*
X125766942Y-94776190D01*
X125766942Y-94776190D02*
X125743133Y-94823809D01*
X125743133Y-94823809D02*
X125743133Y-94942857D01*
X125743133Y-94942857D02*
X125719323Y-94990476D01*
X125600276Y-95228571D02*
X125933609Y-95228571D01*
X125647895Y-95228571D02*
X125624085Y-95252381D01*
X125624085Y-95252381D02*
X125600276Y-95300000D01*
X125600276Y-95300000D02*
X125600276Y-95371428D01*
X125600276Y-95371428D02*
X125624085Y-95419047D01*
X125624085Y-95419047D02*
X125671704Y-95442857D01*
X125671704Y-95442857D02*
X125933609Y-95442857D01*
X125909800Y-95895238D02*
X125933609Y-95847619D01*
X125933609Y-95847619D02*
X125933609Y-95752381D01*
X125933609Y-95752381D02*
X125909800Y-95704762D01*
X125909800Y-95704762D02*
X125885990Y-95680952D01*
X125885990Y-95680952D02*
X125838371Y-95657143D01*
X125838371Y-95657143D02*
X125695514Y-95657143D01*
X125695514Y-95657143D02*
X125647895Y-95680952D01*
X125647895Y-95680952D02*
X125624085Y-95704762D01*
X125624085Y-95704762D02*
X125600276Y-95752381D01*
X125600276Y-95752381D02*
X125600276Y-95847619D01*
X125600276Y-95847619D02*
X125624085Y-95895238D01*
X125909800Y-96299999D02*
X125933609Y-96252380D01*
X125933609Y-96252380D02*
X125933609Y-96157142D01*
X125933609Y-96157142D02*
X125909800Y-96109523D01*
X125909800Y-96109523D02*
X125862180Y-96085714D01*
X125862180Y-96085714D02*
X125671704Y-96085714D01*
X125671704Y-96085714D02*
X125624085Y-96109523D01*
X125624085Y-96109523D02*
X125600276Y-96157142D01*
X125600276Y-96157142D02*
X125600276Y-96252380D01*
X125600276Y-96252380D02*
X125624085Y-96299999D01*
X125624085Y-96299999D02*
X125671704Y-96323809D01*
X125671704Y-96323809D02*
X125719323Y-96323809D01*
X125719323Y-96323809D02*
X125766942Y-96085714D01*
X125933609Y-97133332D02*
X125671704Y-97133332D01*
X125671704Y-97133332D02*
X125624085Y-97109522D01*
X125624085Y-97109522D02*
X125600276Y-97061903D01*
X125600276Y-97061903D02*
X125600276Y-96966665D01*
X125600276Y-96966665D02*
X125624085Y-96919046D01*
X125909800Y-97133332D02*
X125933609Y-97085713D01*
X125933609Y-97085713D02*
X125933609Y-96966665D01*
X125933609Y-96966665D02*
X125909800Y-96919046D01*
X125909800Y-96919046D02*
X125862180Y-96895237D01*
X125862180Y-96895237D02*
X125814561Y-96895237D01*
X125814561Y-96895237D02*
X125766942Y-96919046D01*
X125766942Y-96919046D02*
X125743133Y-96966665D01*
X125743133Y-96966665D02*
X125743133Y-97085713D01*
X125743133Y-97085713D02*
X125719323Y-97133332D01*
X125600276Y-97299999D02*
X125600276Y-97490475D01*
X125433609Y-97371427D02*
X125862180Y-97371427D01*
X125862180Y-97371427D02*
X125909800Y-97395237D01*
X125909800Y-97395237D02*
X125933609Y-97442856D01*
X125933609Y-97442856D02*
X125933609Y-97490475D01*
X125600276Y-97990474D02*
X125933609Y-98109522D01*
X125600276Y-98228569D02*
X125933609Y-98109522D01*
X125933609Y-98109522D02*
X126052657Y-98061903D01*
X126052657Y-98061903D02*
X126076466Y-98038093D01*
X126076466Y-98038093D02*
X126100276Y-97990474D01*
X125933609Y-98490474D02*
X125909800Y-98442855D01*
X125909800Y-98442855D02*
X125885990Y-98419045D01*
X125885990Y-98419045D02*
X125838371Y-98395236D01*
X125838371Y-98395236D02*
X125695514Y-98395236D01*
X125695514Y-98395236D02*
X125647895Y-98419045D01*
X125647895Y-98419045D02*
X125624085Y-98442855D01*
X125624085Y-98442855D02*
X125600276Y-98490474D01*
X125600276Y-98490474D02*
X125600276Y-98561902D01*
X125600276Y-98561902D02*
X125624085Y-98609521D01*
X125624085Y-98609521D02*
X125647895Y-98633331D01*
X125647895Y-98633331D02*
X125695514Y-98657140D01*
X125695514Y-98657140D02*
X125838371Y-98657140D01*
X125838371Y-98657140D02*
X125885990Y-98633331D01*
X125885990Y-98633331D02*
X125909800Y-98609521D01*
X125909800Y-98609521D02*
X125933609Y-98561902D01*
X125933609Y-98561902D02*
X125933609Y-98490474D01*
X125600276Y-99085712D02*
X125933609Y-99085712D01*
X125600276Y-98871426D02*
X125862180Y-98871426D01*
X125862180Y-98871426D02*
X125909800Y-98895236D01*
X125909800Y-98895236D02*
X125933609Y-98942855D01*
X125933609Y-98942855D02*
X125933609Y-99014283D01*
X125933609Y-99014283D02*
X125909800Y-99061902D01*
X125909800Y-99061902D02*
X125885990Y-99085712D01*
X125933609Y-99323807D02*
X125600276Y-99323807D01*
X125695514Y-99323807D02*
X125647895Y-99347617D01*
X125647895Y-99347617D02*
X125624085Y-99371426D01*
X125624085Y-99371426D02*
X125600276Y-99419045D01*
X125600276Y-99419045D02*
X125600276Y-99466664D01*
X125933609Y-100085712D02*
X125909800Y-100038093D01*
X125909800Y-100038093D02*
X125885990Y-100014283D01*
X125885990Y-100014283D02*
X125838371Y-99990474D01*
X125838371Y-99990474D02*
X125695514Y-99990474D01*
X125695514Y-99990474D02*
X125647895Y-100014283D01*
X125647895Y-100014283D02*
X125624085Y-100038093D01*
X125624085Y-100038093D02*
X125600276Y-100085712D01*
X125600276Y-100085712D02*
X125600276Y-100157140D01*
X125600276Y-100157140D02*
X125624085Y-100204759D01*
X125624085Y-100204759D02*
X125647895Y-100228569D01*
X125647895Y-100228569D02*
X125695514Y-100252378D01*
X125695514Y-100252378D02*
X125838371Y-100252378D01*
X125838371Y-100252378D02*
X125885990Y-100228569D01*
X125885990Y-100228569D02*
X125909800Y-100204759D01*
X125909800Y-100204759D02*
X125933609Y-100157140D01*
X125933609Y-100157140D02*
X125933609Y-100085712D01*
X125600276Y-100419045D02*
X125933609Y-100514283D01*
X125933609Y-100514283D02*
X125695514Y-100609521D01*
X125695514Y-100609521D02*
X125933609Y-100704759D01*
X125933609Y-100704759D02*
X125600276Y-100799997D01*
X125600276Y-100990474D02*
X125933609Y-100990474D01*
X125647895Y-100990474D02*
X125624085Y-101014284D01*
X125624085Y-101014284D02*
X125600276Y-101061903D01*
X125600276Y-101061903D02*
X125600276Y-101133331D01*
X125600276Y-101133331D02*
X125624085Y-101180950D01*
X125624085Y-101180950D02*
X125671704Y-101204760D01*
X125671704Y-101204760D02*
X125933609Y-101204760D01*
X125933609Y-101823807D02*
X125600276Y-101823807D01*
X125695514Y-101823807D02*
X125647895Y-101847617D01*
X125647895Y-101847617D02*
X125624085Y-101871426D01*
X125624085Y-101871426D02*
X125600276Y-101919045D01*
X125600276Y-101919045D02*
X125600276Y-101966664D01*
X125933609Y-102133331D02*
X125600276Y-102133331D01*
X125433609Y-102133331D02*
X125457419Y-102109522D01*
X125457419Y-102109522D02*
X125481228Y-102133331D01*
X125481228Y-102133331D02*
X125457419Y-102157141D01*
X125457419Y-102157141D02*
X125433609Y-102133331D01*
X125433609Y-102133331D02*
X125481228Y-102133331D01*
X125909800Y-102347617D02*
X125933609Y-102395236D01*
X125933609Y-102395236D02*
X125933609Y-102490474D01*
X125933609Y-102490474D02*
X125909800Y-102538093D01*
X125909800Y-102538093D02*
X125862180Y-102561902D01*
X125862180Y-102561902D02*
X125838371Y-102561902D01*
X125838371Y-102561902D02*
X125790752Y-102538093D01*
X125790752Y-102538093D02*
X125766942Y-102490474D01*
X125766942Y-102490474D02*
X125766942Y-102419045D01*
X125766942Y-102419045D02*
X125743133Y-102371426D01*
X125743133Y-102371426D02*
X125695514Y-102347617D01*
X125695514Y-102347617D02*
X125671704Y-102347617D01*
X125671704Y-102347617D02*
X125624085Y-102371426D01*
X125624085Y-102371426D02*
X125600276Y-102419045D01*
X125600276Y-102419045D02*
X125600276Y-102490474D01*
X125600276Y-102490474D02*
X125624085Y-102538093D01*
X125933609Y-102776188D02*
X125433609Y-102776188D01*
X125743133Y-102823807D02*
X125933609Y-102966664D01*
X125600276Y-102966664D02*
X125790752Y-102776188D01*
X125885990Y-103180950D02*
X125909800Y-103204760D01*
X125909800Y-103204760D02*
X125933609Y-103180950D01*
X125933609Y-103180950D02*
X125909800Y-103157141D01*
X125909800Y-103157141D02*
X125885990Y-103180950D01*
X125885990Y-103180950D02*
X125933609Y-103180950D01*
X125743133Y-103180950D02*
X125457419Y-103157141D01*
X125457419Y-103157141D02*
X125433609Y-103180950D01*
X125433609Y-103180950D02*
X125457419Y-103204760D01*
X125457419Y-103204760D02*
X125743133Y-103180950D01*
X125743133Y-103180950D02*
X125433609Y-103180950D01*
D16*
%TO.C,H1*%
X65000000Y-95000000D03*
%TD*%
%TO.C,J1*%
X128775000Y-100552500D03*
X128775000Y-89122500D03*
D17*
X122425000Y-99282500D03*
D18*
X119885000Y-98012500D03*
X122425000Y-96742500D03*
X119885000Y-95472500D03*
X122425000Y-94202500D03*
X119885000Y-92932500D03*
X122425000Y-91662500D03*
X119885000Y-90392500D03*
%TD*%
D16*
%TO.C,H2*%
X103525000Y-95000000D03*
%TD*%
D19*
%TO.C,TP1*%
X88925000Y-83800000D03*
%TD*%
%TO.C,TP4*%
X100325000Y-83800000D03*
%TD*%
D20*
%TO.C,R8*%
X108500000Y-108200000D03*
X110325000Y-108200000D03*
%TD*%
D21*
%TO.C,J3*%
X53270000Y-107365000D03*
X48190000Y-108381000D03*
X48190000Y-106349000D03*
D22*
X52000000Y-108000000D03*
X52000000Y-106730000D03*
X50730000Y-108000000D03*
X50730000Y-106730000D03*
X49460000Y-108000000D03*
X49460000Y-106730000D03*
%TD*%
D23*
%TO.C,JP2*%
X115525000Y-105200000D03*
D24*
X115525000Y-106500000D03*
D25*
X115525000Y-107800000D03*
%TD*%
D19*
%TO.C,TP7*%
X117600000Y-83800000D03*
%TD*%
%TO.C,TP5*%
X106025000Y-83800000D03*
%TD*%
%TO.C,TP2*%
X94625000Y-83800000D03*
%TD*%
%TO.C,TP6*%
X111725000Y-83800000D03*
%TD*%
%TO.C,TP3*%
X109525000Y-104600000D03*
%TD*%
D23*
%TO.C,JP1*%
X59500000Y-102500000D03*
D24*
X59500000Y-103800000D03*
D25*
X59500000Y-105100000D03*
%TD*%
D26*
%TO.C,J2*%
X58000000Y-98500000D03*
D27*
X55460000Y-98500000D03*
X52920000Y-98500000D03*
X50380000Y-98500000D03*
X47840000Y-98500000D03*
X45300000Y-98500000D03*
%TD*%
%LPD*%
M02*
